%TF.GenerationSoftware,KiCad,Pcbnew,8.0.8*%
%TF.CreationDate,2025-02-20T16:12:13-05:00*%
%TF.ProjectId,ESP32_SMD,45535033-325f-4534-9d44-2e6b69636164,rev?*%
%TF.SameCoordinates,Original*%
%TF.FileFunction,Copper,L2,Bot*%
%TF.FilePolarity,Positive*%
%FSLAX46Y46*%
G04 Gerber Fmt 4.6, Leading zero omitted, Abs format (unit mm)*
G04 Created by KiCad (PCBNEW 8.0.8) date 2025-02-20 16:12:13*
%MOMM*%
%LPD*%
G01*
G04 APERTURE LIST*
G04 Aperture macros list*
%AMRoundRect*
0 Rectangle with rounded corners*
0 $1 Rounding radius*
0 $2 $3 $4 $5 $6 $7 $8 $9 X,Y pos of 4 corners*
0 Add a 4 corners polygon primitive as box body*
4,1,4,$2,$3,$4,$5,$6,$7,$8,$9,$2,$3,0*
0 Add four circle primitives for the rounded corners*
1,1,$1+$1,$2,$3*
1,1,$1+$1,$4,$5*
1,1,$1+$1,$6,$7*
1,1,$1+$1,$8,$9*
0 Add four rect primitives between the rounded corners*
20,1,$1+$1,$2,$3,$4,$5,0*
20,1,$1+$1,$4,$5,$6,$7,0*
20,1,$1+$1,$6,$7,$8,$9,0*
20,1,$1+$1,$8,$9,$2,$3,0*%
G04 Aperture macros list end*
%TA.AperFunction,ComponentPad*%
%ADD10C,3.800000*%
%TD*%
%TA.AperFunction,ComponentPad*%
%ADD11C,1.600000*%
%TD*%
%TA.AperFunction,ComponentPad*%
%ADD12O,1.600000X1.600000*%
%TD*%
%TA.AperFunction,ComponentPad*%
%ADD13RoundRect,0.250000X-0.600000X-0.725000X0.600000X-0.725000X0.600000X0.725000X-0.600000X0.725000X0*%
%TD*%
%TA.AperFunction,ComponentPad*%
%ADD14O,1.700000X1.950000*%
%TD*%
%TA.AperFunction,ComponentPad*%
%ADD15R,1.524000X1.524000*%
%TD*%
%TA.AperFunction,ComponentPad*%
%ADD16C,1.524000*%
%TD*%
%TA.AperFunction,ComponentPad*%
%ADD17RoundRect,0.250000X0.625000X-0.350000X0.625000X0.350000X-0.625000X0.350000X-0.625000X-0.350000X0*%
%TD*%
%TA.AperFunction,ComponentPad*%
%ADD18O,1.750000X1.200000*%
%TD*%
%TA.AperFunction,ComponentPad*%
%ADD19R,1.140000X1.140000*%
%TD*%
%TA.AperFunction,ComponentPad*%
%ADD20C,1.140000*%
%TD*%
%TA.AperFunction,ComponentPad*%
%ADD21R,3.500000X3.500000*%
%TD*%
%TA.AperFunction,ComponentPad*%
%ADD22RoundRect,0.750000X-0.750000X-1.000000X0.750000X-1.000000X0.750000X1.000000X-0.750000X1.000000X0*%
%TD*%
%TA.AperFunction,ComponentPad*%
%ADD23RoundRect,0.875000X-0.875000X-0.875000X0.875000X-0.875000X0.875000X0.875000X-0.875000X0.875000X0*%
%TD*%
%TA.AperFunction,ComponentPad*%
%ADD24C,2.780000*%
%TD*%
%TA.AperFunction,ComponentPad*%
%ADD25R,1.700000X1.700000*%
%TD*%
%TA.AperFunction,ComponentPad*%
%ADD26O,1.700000X1.700000*%
%TD*%
%TA.AperFunction,ComponentPad*%
%ADD27C,1.950000*%
%TD*%
%TA.AperFunction,ComponentPad*%
%ADD28R,1.950000X1.950000*%
%TD*%
%TA.AperFunction,ComponentPad*%
%ADD29R,2.000000X2.000000*%
%TD*%
%TA.AperFunction,ComponentPad*%
%ADD30C,2.000000*%
%TD*%
%TA.AperFunction,ViaPad*%
%ADD31C,0.600000*%
%TD*%
%TA.AperFunction,Conductor*%
%ADD32C,0.200000*%
%TD*%
G04 APERTURE END LIST*
D10*
%TO.P,H4,1*%
%TO.N,N/C*%
X29210000Y-83185000D03*
%TD*%
%TO.P,H3,1*%
%TO.N,N/C*%
X121285000Y-83185000D03*
%TD*%
%TO.P,H2,1*%
%TO.N,N/C*%
X29210000Y-34300000D03*
%TD*%
%TO.P,H1,1*%
%TO.N,N/C*%
X121285000Y-34300000D03*
%TD*%
D11*
%TO.P,R6,1*%
%TO.N,+3.3V*%
X60325000Y-76835000D03*
D12*
%TO.P,R6,2*%
%TO.N,+3.3V_BOOT*%
X70485000Y-76835000D03*
%TD*%
D13*
%TO.P,J11,1,Pin_1*%
%TO.N,+3.3V*%
X76260000Y-79485000D03*
D14*
%TO.P,J11,2,Pin_2*%
%TO.N,TXD*%
X78760000Y-79485000D03*
%TO.P,J11,3,Pin_3*%
%TO.N,RXD*%
X81260000Y-79485000D03*
%TO.P,J11,4,Pin_4*%
%TO.N,GND*%
X83760000Y-79485000D03*
%TD*%
D11*
%TO.P,C2,1*%
%TO.N,+3.3V*%
X30988000Y-74168000D03*
%TO.P,C2,2*%
%TO.N,GND*%
X30988000Y-76668000D03*
%TD*%
%TO.P,R2,1*%
%TO.N,Net-(U4-2Y)*%
X103505000Y-49610000D03*
D12*
%TO.P,R2,2*%
%TO.N,LED_DATA2*%
X113665000Y-49610000D03*
%TD*%
D15*
%TO.P,J10,1,1*%
%TO.N,GND*%
X28625000Y-60050000D03*
D16*
%TO.P,J10,2,2*%
%TO.N,+12V*%
X28625000Y-70050000D03*
%TO.P,J10,3,3*%
%TO.N,GND*%
X44625000Y-60050000D03*
%TO.P,J10,4,4*%
%TO.N,+3.3V*%
X44625000Y-70050000D03*
%TD*%
D11*
%TO.P,R1,1*%
%TO.N,Net-(U4-1Y)*%
X103505000Y-40005000D03*
D12*
%TO.P,R1,2*%
%TO.N,LED_DATA1*%
X113665000Y-40005000D03*
%TD*%
D17*
%TO.P,J3,1,Pin_1*%
%TO.N,Net-(J3-Pin_1)*%
X119550000Y-45283300D03*
D18*
%TO.P,J3,2,Pin_2*%
%TO.N,LED_DATA1*%
X119550000Y-43283300D03*
%TO.P,J3,3,Pin_3*%
%TO.N,GND*%
X119550000Y-41283300D03*
%TD*%
D11*
%TO.P,R5,1*%
%TO.N,+3.3V*%
X46990000Y-76835000D03*
D12*
%TO.P,R5,2*%
%TO.N,+3.3V_EN*%
X57150000Y-76835000D03*
%TD*%
D17*
%TO.P,J5,1,Pin_1*%
%TO.N,Net-(J5-Pin_1)*%
X119550000Y-66000000D03*
D18*
%TO.P,J5,2,Pin_2*%
%TO.N,LED_DATA3*%
X119550000Y-64000000D03*
%TO.P,J5,3,Pin_3*%
%TO.N,GND*%
X119550000Y-62000000D03*
%TD*%
D19*
%TO.P,U4,1,1~{OE}*%
%TO.N,GND*%
X76675000Y-54610000D03*
D20*
%TO.P,U4,2,1A*%
%TO.N,DATA1*%
X76675000Y-57150000D03*
%TO.P,U4,3,1Y*%
%TO.N,Net-(U4-1Y)*%
X76675000Y-59690000D03*
%TO.P,U4,4,2~{OE}*%
%TO.N,GND*%
X76675000Y-62230000D03*
%TO.P,U4,5,2A*%
%TO.N,DATA2*%
X76675000Y-64770000D03*
%TO.P,U4,6,2Y*%
%TO.N,Net-(U4-2Y)*%
X76675000Y-67310000D03*
%TO.P,U4,7,GND*%
%TO.N,GND*%
X76675000Y-69850000D03*
%TO.P,U4,8,3Y*%
%TO.N,Net-(U4-3Y)*%
X84615000Y-69850000D03*
%TO.P,U4,9,3A*%
%TO.N,DATA3*%
X84615000Y-67310000D03*
%TO.P,U4,10,3~{OE}*%
%TO.N,GND*%
X84615000Y-64770000D03*
%TO.P,U4,11,4Y*%
%TO.N,Net-(U4-4Y)*%
X84615000Y-62230000D03*
%TO.P,U4,12,4A*%
%TO.N,DATA4*%
X84615000Y-59690000D03*
%TO.P,U4,13,4~{OE}*%
%TO.N,GND*%
X84615000Y-57150000D03*
%TO.P,U4,14,VCC*%
%TO.N,+5V*%
X84615000Y-54610000D03*
%TD*%
D11*
%TO.P,R4,1*%
%TO.N,Net-(U4-4Y)*%
X103505000Y-73660000D03*
D12*
%TO.P,R4,2*%
%TO.N,LED_DATA4*%
X113665000Y-73660000D03*
%TD*%
D15*
%TO.P,J1,1,1*%
%TO.N,GND*%
X54230000Y-35005000D03*
D16*
%TO.P,J1,2,2*%
%TO.N,+12V*%
X54230000Y-45005000D03*
%TO.P,J1,3,3*%
%TO.N,GND*%
X70230000Y-35005000D03*
%TO.P,J1,4,4*%
%TO.N,+5V*%
X70230000Y-45005000D03*
%TD*%
D21*
%TO.P,J9,1*%
%TO.N,GND*%
X36480000Y-50477500D03*
D22*
%TO.P,J9,2*%
%TO.N,+VCC*%
X30480000Y-50477500D03*
D23*
%TO.P,J9,3*%
%TO.N,N/C*%
X33480000Y-55177500D03*
%TD*%
D17*
%TO.P,J6,1,Pin_1*%
%TO.N,Net-(J6-Pin_1)*%
X119550000Y-76283300D03*
D18*
%TO.P,J6,2,Pin_2*%
%TO.N,LED_DATA4*%
X119550000Y-74283300D03*
%TO.P,J6,3,Pin_3*%
%TO.N,GND*%
X119550000Y-72283300D03*
%TD*%
D12*
%TO.P,U3,1,SD*%
%TO.N,MIC_SD*%
X84455000Y-42545000D03*
%TO.P,U3,2,VDD*%
%TO.N,+3.3V*%
X84455000Y-40005000D03*
%TO.P,U3,3,GND*%
%TO.N,GND*%
X84455000Y-37465000D03*
%TO.P,U3,4,L/R*%
X76835000Y-37465000D03*
%TO.P,U3,5,WS*%
%TO.N,MIC_WS*%
X76835000Y-40005000D03*
%TO.P,U3,6,SCK*%
%TO.N,MIC_SCK*%
X76835000Y-42545000D03*
%TD*%
D24*
%TO.P,F1,1*%
%TO.N,+VCC*%
X49769500Y-36861000D03*
X46369500Y-36861000D03*
%TO.P,F1,2*%
%TO.N,+12V*%
X49769500Y-46781000D03*
X46369500Y-46781000D03*
X49669500Y-50361000D03*
X46269500Y-50361000D03*
%TD*%
D25*
%TO.P,J8,1,Pin_1*%
%TO.N,+3.3V*%
X109220000Y-36195000D03*
D26*
%TO.P,J8,2,Pin_2*%
%TO.N,GND*%
X106680000Y-36195000D03*
%TO.P,J8,3,Pin_3*%
%TO.N,SENS-SCL*%
X104140000Y-36195000D03*
%TO.P,J8,4,Pin_4*%
%TO.N,SENS-SDA*%
X101600000Y-36195000D03*
%TO.P,J8,5,Pin_5*%
%TO.N,GND*%
X99060000Y-36195000D03*
%TO.P,J8,6,Pin_6*%
%TO.N,Net-(J3-Pin_1)*%
X96520000Y-36195000D03*
%TD*%
D11*
%TO.P,R3,1*%
%TO.N,Net-(U4-3Y)*%
X103505000Y-59690000D03*
D12*
%TO.P,R3,2*%
%TO.N,LED_DATA3*%
X113665000Y-59690000D03*
%TD*%
D17*
%TO.P,J4,1,Pin_1*%
%TO.N,Net-(J2-Pin_6)*%
X119550000Y-55616700D03*
D18*
%TO.P,J4,2,Pin_2*%
%TO.N,LED_DATA2*%
X119550000Y-53616700D03*
%TO.P,J4,3,Pin_3*%
%TO.N,GND*%
X119550000Y-51616700D03*
%TD*%
D27*
%TO.P,J7,1,Pin_1*%
%TO.N,GND*%
X38480000Y-42212500D03*
D28*
%TO.P,J7,2,Pin_2*%
%TO.N,+VCC*%
X38480000Y-37212500D03*
%TD*%
D25*
%TO.P,J2,1,Pin_1*%
%TO.N,+3.3V*%
X109220000Y-64135000D03*
D26*
%TO.P,J2,2,Pin_2*%
%TO.N,GND*%
X106680000Y-64135000D03*
%TO.P,J2,3,Pin_3*%
%TO.N,SENS-SCL*%
X104140000Y-64135000D03*
%TO.P,J2,4,Pin_4*%
%TO.N,SENS-SDA*%
X101600000Y-64135000D03*
%TO.P,J2,5,Pin_5*%
%TO.N,GND*%
X99060000Y-64135000D03*
%TO.P,J2,6,Pin_6*%
%TO.N,Net-(J2-Pin_6)*%
X96520000Y-64135000D03*
%TD*%
D29*
%TO.P,C1,1*%
%TO.N,+3.3V*%
X37002323Y-78105000D03*
D30*
%TO.P,C1,2*%
%TO.N,GND*%
X42002323Y-78105000D03*
%TD*%
D31*
%TO.N,GND*%
X63950000Y-66300000D03*
%TO.N,TXD*%
X58207265Y-56342735D03*
%TO.N,RXD*%
X58650000Y-52850000D03*
%TO.N,+3.3V_BOOT*%
X71400000Y-55100000D03*
X68550000Y-73900000D03*
%TO.N,+3.3V_EN*%
X56042235Y-74507765D03*
X56865765Y-73634235D03*
%TO.N,MIC_SD*%
X83100600Y-65120000D03*
%TO.N,MIC_SCK*%
X71725200Y-71048900D03*
%TO.N,MIC_WS*%
X73045300Y-70320300D03*
%TO.N,DATA3*%
X78618500Y-53739100D03*
%TO.N,+5V*%
X84550000Y-47750000D03*
%TO.N,+3.3V*%
X53450000Y-52350000D03*
X58150000Y-47700000D03*
%TO.N,Net-(U4-1Y)*%
X79750000Y-45700000D03*
X79250000Y-48000000D03*
X79750000Y-44405000D03*
X79250000Y-52550000D03*
%TO.N,Net-(U4-2Y)*%
X80550000Y-45700000D03*
X82824300Y-45175700D03*
X80250000Y-48000000D03*
X80250000Y-52550000D03*
%TO.N,Net-(U4-3Y)*%
X93700000Y-59700000D03*
X89400000Y-62450000D03*
%TO.N,Net-(U4-4Y)*%
X88150000Y-68550000D03*
X88666300Y-69916300D03*
%TO.N,Net-(J2-Pin_6)*%
X101000000Y-61700000D03*
X102200000Y-61650000D03*
X105750000Y-61650000D03*
X104550000Y-61600000D03*
%TO.N,GND*%
X53745000Y-73404800D03*
X63823600Y-65106900D03*
X63866200Y-63635800D03*
X56896000Y-84010000D03*
X53745000Y-55910900D03*
%TO.N,SENS-SCL*%
X105150000Y-41650000D03*
X105150000Y-57600000D03*
X69850000Y-69720300D03*
%TO.N,SENS-SDA*%
X75150000Y-71850000D03*
X101700000Y-52400000D03*
X101600000Y-60290000D03*
X101600000Y-40605000D03*
X101650000Y-59090000D03*
X101622000Y-46878200D03*
X101600000Y-39405000D03*
%TD*%
D32*
%TO.N,TXD*%
X57404000Y-57146000D02*
X58207265Y-56342735D01*
X57404000Y-65786000D02*
X57404000Y-57146000D01*
X77485000Y-78210000D02*
X69828000Y-78210000D01*
X78760000Y-79485000D02*
X77485000Y-78210000D01*
X69828000Y-78210000D02*
X57404000Y-65786000D01*
%TO.N,RXD*%
X81260000Y-79485000D02*
X79985000Y-80760000D01*
X56600000Y-66252000D02*
X56600000Y-52651471D01*
X79985000Y-80760000D02*
X71108000Y-80760000D01*
X56951471Y-52300000D02*
X58100000Y-52300000D01*
X71108000Y-80760000D02*
X56600000Y-66252000D01*
X56600000Y-52651471D02*
X56951471Y-52300000D01*
X58100000Y-52300000D02*
X58650000Y-52850000D01*
%TO.N,+3.3V_BOOT*%
X68550000Y-73900000D02*
X68550000Y-57950000D01*
X68550000Y-57950000D02*
X71400000Y-55100000D01*
%TO.N,+3.3V_EN*%
X56865765Y-73684235D02*
X56042235Y-74507765D01*
X56865765Y-73634235D02*
X56865765Y-73684235D01*
%TO.N,MIC_SD*%
X83100600Y-45849000D02*
X84455000Y-44494600D01*
X83100600Y-65120000D02*
X83100600Y-45849000D01*
X84455000Y-44494600D02*
X84455000Y-42545000D01*
%TO.N,MIC_SCK*%
X77179200Y-55738400D02*
X77546700Y-55370900D01*
X76813200Y-55738400D02*
X77179200Y-55738400D01*
X71725200Y-71048900D02*
X71725200Y-60826400D01*
X76835000Y-42545000D02*
X76835000Y-43646700D01*
X77546700Y-44358400D02*
X76835000Y-43646700D01*
X71725200Y-60826400D02*
X76813200Y-55738400D01*
X77546700Y-55370900D02*
X77546700Y-44358400D01*
%TO.N,MIC_WS*%
X77986900Y-42120900D02*
X77986900Y-57147500D01*
X73423000Y-61597700D02*
X73423000Y-69942600D01*
X76835000Y-41106700D02*
X76972700Y-41106700D01*
X76972700Y-41106700D02*
X77986900Y-42120900D01*
X73423000Y-69942600D02*
X73045300Y-70320300D01*
X77986900Y-57147500D02*
X76714400Y-58420000D01*
X76835000Y-40005000D02*
X76835000Y-41106700D01*
X76600700Y-58420000D02*
X73423000Y-61597700D01*
X76714400Y-58420000D02*
X76600700Y-58420000D01*
%TO.N,DATA3*%
X78618500Y-53739100D02*
X78618500Y-61488700D01*
X78618500Y-61488700D02*
X84439800Y-67310000D01*
%TO.N,+5V*%
X84615000Y-47815000D02*
X84615000Y-54610000D01*
X84550000Y-47750000D02*
X84615000Y-47815000D01*
%TO.N,+3.3V*%
X107696000Y-34671000D02*
X107696000Y-33782000D01*
X90678000Y-33782000D02*
X84455000Y-40005000D01*
X109220000Y-36195000D02*
X107696000Y-34671000D01*
X58150000Y-47700000D02*
X53500000Y-52350000D01*
X53500000Y-52350000D02*
X53450000Y-52350000D01*
X107696000Y-33782000D02*
X90678000Y-33782000D01*
X109220000Y-36195000D02*
X109220000Y-64135000D01*
%TO.N,Net-(U4-1Y)*%
X79250000Y-48000000D02*
X79250000Y-52550000D01*
X79750000Y-44405000D02*
X79750000Y-45700000D01*
%TO.N,Net-(U4-2Y)*%
X82824300Y-45175700D02*
X81074300Y-45175700D01*
X80250000Y-48000000D02*
X80250000Y-52550000D01*
X81074300Y-45175700D02*
X80550000Y-45700000D01*
%TO.N,Net-(U4-3Y)*%
X93700000Y-59700000D02*
X92150000Y-59700000D01*
X92150000Y-59700000D02*
X89400000Y-62450000D01*
%TO.N,Net-(U4-4Y)*%
X88666300Y-69916300D02*
X88666300Y-69066300D01*
X88666300Y-69066300D02*
X88150000Y-68550000D01*
%TO.N,Net-(J2-Pin_6)*%
X105700000Y-61600000D02*
X105750000Y-61650000D01*
X101000000Y-61700000D02*
X102150000Y-61700000D01*
X104550000Y-61600000D02*
X105700000Y-61600000D01*
X102150000Y-61700000D02*
X102200000Y-61650000D01*
%TO.N,GND*%
X76675000Y-54610000D02*
X75735000Y-53670000D01*
X85485000Y-65640000D02*
X84615000Y-64770000D01*
X76675000Y-62230000D02*
X82625000Y-68180000D01*
X85485000Y-67670366D02*
X85485000Y-65640000D01*
X75735000Y-38565000D02*
X76835000Y-37465000D01*
X82625000Y-68180000D02*
X84975366Y-68180000D01*
X75735000Y-53670000D02*
X75735000Y-38565000D01*
X84975366Y-68180000D02*
X85485000Y-67670366D01*
%TO.N,SENS-SCL*%
X72277771Y-72450000D02*
X95825000Y-72450000D01*
X69850000Y-70022229D02*
X72277771Y-72450000D01*
X96139000Y-72136000D02*
X99314000Y-72136000D01*
X95825000Y-72450000D02*
X96139000Y-72136000D01*
X99314000Y-72136000D02*
X104140000Y-67310000D01*
X69850000Y-69720300D02*
X69850000Y-70022229D01*
X104140000Y-67310000D02*
X104140000Y-64135000D01*
X105150000Y-41650000D02*
X105150000Y-57600000D01*
%TO.N,SENS-SDA*%
X101622000Y-46878200D02*
X101622000Y-52321800D01*
X101650000Y-60240000D02*
X101600000Y-60290000D01*
X93870000Y-71850000D02*
X94092000Y-71628000D01*
X101600000Y-68834000D02*
X101600000Y-64135000D01*
X101600000Y-39405000D02*
X101600000Y-40605000D01*
X94092000Y-71628000D02*
X98806000Y-71628000D01*
X101650000Y-59090000D02*
X101650000Y-60240000D01*
X98806000Y-71628000D02*
X101600000Y-68834000D01*
X75150000Y-71850000D02*
X93870000Y-71850000D01*
X101622000Y-52321800D02*
X101700000Y-52400000D01*
%TD*%
%TA.AperFunction,Conductor*%
%TO.N,GND*%
G36*
X75715454Y-60604775D02*
G01*
X75740509Y-60622978D01*
X75822957Y-60705426D01*
X76012228Y-60837955D01*
X76221637Y-60935604D01*
X76436003Y-60993043D01*
X76487316Y-61026366D01*
X76509243Y-61083487D01*
X76493408Y-61142588D01*
X76445858Y-61181093D01*
X76439115Y-61183407D01*
X76435581Y-61184478D01*
X76675000Y-61423897D01*
X76914417Y-61184479D01*
X76914417Y-61184478D01*
X76910882Y-61183406D01*
X76860685Y-61148422D01*
X76840638Y-61090614D01*
X76858399Y-61032063D01*
X76907183Y-60995134D01*
X76913964Y-60993051D01*
X77128363Y-60935604D01*
X77337772Y-60837955D01*
X77527043Y-60705426D01*
X77598998Y-60633470D01*
X77653513Y-60605695D01*
X77713945Y-60615266D01*
X77757210Y-60658531D01*
X77768000Y-60703476D01*
X77768000Y-61572469D01*
X77800684Y-61736780D01*
X77800684Y-61736782D01*
X77851995Y-61860659D01*
X77856795Y-61921656D01*
X77856229Y-61922579D01*
X77902531Y-61949718D01*
X77910843Y-61960477D01*
X77957873Y-62030862D01*
X77957875Y-62030864D01*
X77957876Y-62030865D01*
X83269005Y-67341993D01*
X83296782Y-67396510D01*
X83297624Y-67403369D01*
X83309592Y-67540170D01*
X83309593Y-67540177D01*
X83309594Y-67540178D01*
X83369396Y-67763363D01*
X83410803Y-67852161D01*
X83467044Y-67972770D01*
X83588372Y-68146046D01*
X83599574Y-68162043D01*
X83762957Y-68325426D01*
X83952228Y-68457955D01*
X83952229Y-68457955D01*
X83952230Y-68457956D01*
X83952238Y-68457960D01*
X84021538Y-68490276D01*
X84066286Y-68532004D01*
X84077961Y-68592065D01*
X84052103Y-68647518D01*
X84021538Y-68669724D01*
X83952238Y-68702039D01*
X83952230Y-68702043D01*
X83762961Y-68834570D01*
X83599570Y-68997961D01*
X83467044Y-69187229D01*
X83369396Y-69396637D01*
X83309592Y-69619829D01*
X83289456Y-69849996D01*
X83289456Y-69850003D01*
X83309592Y-70080170D01*
X83309593Y-70080177D01*
X83309594Y-70080178D01*
X83369396Y-70303363D01*
X83467045Y-70512772D01*
X83477012Y-70527006D01*
X83572035Y-70662714D01*
X83599574Y-70702043D01*
X83728029Y-70830498D01*
X83755805Y-70885013D01*
X83746234Y-70945445D01*
X83702969Y-70988710D01*
X83658024Y-70999500D01*
X77015229Y-70999500D01*
X76957038Y-70980593D01*
X76921074Y-70931093D01*
X76920044Y-70901146D01*
X76675000Y-70656101D01*
X76429039Y-70902062D01*
X76426602Y-70937486D01*
X76387324Y-70984399D01*
X76334770Y-70999500D01*
X75804997Y-70999500D01*
X75746806Y-70980593D01*
X75742205Y-70977038D01*
X75736450Y-70972315D01*
X75736449Y-70972314D01*
X75553954Y-70874768D01*
X75355934Y-70814699D01*
X75355929Y-70814698D01*
X75150003Y-70794417D01*
X75149997Y-70794417D01*
X74944070Y-70814698D01*
X74944065Y-70814699D01*
X74746045Y-70874768D01*
X74563547Y-70972316D01*
X74403595Y-71103585D01*
X74403585Y-71103595D01*
X74272316Y-71263547D01*
X74174768Y-71446045D01*
X74174767Y-71446047D01*
X74149533Y-71529237D01*
X74114549Y-71579434D01*
X74056741Y-71599481D01*
X74054796Y-71599500D01*
X72787220Y-71599500D01*
X72729029Y-71580593D01*
X72693065Y-71531093D01*
X72693065Y-71469907D01*
X72699908Y-71453835D01*
X72700062Y-71453544D01*
X72700432Y-71452854D01*
X72710416Y-71419937D01*
X72745400Y-71369742D01*
X72803207Y-71349695D01*
X72833892Y-71353939D01*
X72839366Y-71355600D01*
X72839369Y-71355600D01*
X72839370Y-71355601D01*
X73045297Y-71375883D01*
X73045300Y-71375883D01*
X73045303Y-71375883D01*
X73251229Y-71355601D01*
X73251234Y-71355600D01*
X73294429Y-71342497D01*
X73449254Y-71295532D01*
X73631750Y-71197985D01*
X73791710Y-71066710D01*
X73922985Y-70906750D01*
X74020532Y-70724254D01*
X74080600Y-70526234D01*
X74082436Y-70507581D01*
X74098645Y-70462283D01*
X74176703Y-70345463D01*
X74189338Y-70314960D01*
X74240816Y-70190682D01*
X74273500Y-70026367D01*
X74273500Y-69849996D01*
X75599823Y-69849996D01*
X75599823Y-69850003D01*
X75620480Y-70059750D01*
X75620482Y-70059759D01*
X75629478Y-70089417D01*
X75629479Y-70089417D01*
X75868897Y-69850000D01*
X75820186Y-69801289D01*
X76305000Y-69801289D01*
X76305000Y-69898711D01*
X76330215Y-69992815D01*
X76378926Y-70077186D01*
X76447814Y-70146074D01*
X76532185Y-70194785D01*
X76626289Y-70220000D01*
X76723711Y-70220000D01*
X76817815Y-70194785D01*
X76902186Y-70146074D01*
X76971074Y-70077186D01*
X77019785Y-69992815D01*
X77045000Y-69898711D01*
X77045000Y-69850000D01*
X77481101Y-69850000D01*
X77720519Y-70089417D01*
X77729519Y-70059752D01*
X77750177Y-69850003D01*
X77750177Y-69849996D01*
X77729519Y-69640248D01*
X77729518Y-69640245D01*
X77720520Y-69610581D01*
X77481101Y-69850000D01*
X77045000Y-69850000D01*
X77045000Y-69801289D01*
X77019785Y-69707185D01*
X76971074Y-69622814D01*
X76902186Y-69553926D01*
X76817815Y-69505215D01*
X76723711Y-69480000D01*
X76626289Y-69480000D01*
X76532185Y-69505215D01*
X76447814Y-69553926D01*
X76378926Y-69622814D01*
X76330215Y-69707185D01*
X76305000Y-69801289D01*
X75820186Y-69801289D01*
X75629478Y-69610581D01*
X75620482Y-69640241D01*
X75620480Y-69640254D01*
X75599823Y-69849996D01*
X74273500Y-69849996D01*
X74273500Y-64769996D01*
X75349456Y-64769996D01*
X75349456Y-64770003D01*
X75369592Y-65000170D01*
X75369593Y-65000177D01*
X75369594Y-65000178D01*
X75429396Y-65223363D01*
X75527045Y-65432772D01*
X75580056Y-65508479D01*
X75638513Y-65591966D01*
X75659574Y-65622043D01*
X75822957Y-65785426D01*
X76012228Y-65917955D01*
X76012229Y-65917955D01*
X76012230Y-65917956D01*
X76012238Y-65917960D01*
X76081538Y-65950276D01*
X76126286Y-65992004D01*
X76137961Y-66052065D01*
X76112103Y-66107518D01*
X76081538Y-66129724D01*
X76012238Y-66162039D01*
X76012230Y-66162043D01*
X75822961Y-66294570D01*
X75659570Y-66457961D01*
X75527044Y-66647229D01*
X75429396Y-66856637D01*
X75369592Y-67079829D01*
X75349456Y-67309996D01*
X75349456Y-67310003D01*
X75369592Y-67540170D01*
X75369593Y-67540177D01*
X75369594Y-67540178D01*
X75429396Y-67763363D01*
X75470803Y-67852161D01*
X75527044Y-67972770D01*
X75648372Y-68146046D01*
X75659574Y-68162043D01*
X75822957Y-68325426D01*
X76012228Y-68457955D01*
X76221637Y-68555604D01*
X76436003Y-68613043D01*
X76487316Y-68646366D01*
X76509243Y-68703487D01*
X76493408Y-68762588D01*
X76445858Y-68801093D01*
X76439115Y-68803407D01*
X76435581Y-68804478D01*
X76675000Y-69043897D01*
X76914417Y-68804479D01*
X76914417Y-68804478D01*
X76910882Y-68803406D01*
X76860685Y-68768422D01*
X76840638Y-68710614D01*
X76858399Y-68652063D01*
X76907183Y-68615134D01*
X76913964Y-68613051D01*
X77128363Y-68555604D01*
X77337772Y-68457955D01*
X77527043Y-68325426D01*
X77690426Y-68162043D01*
X77822955Y-67972772D01*
X77920604Y-67763363D01*
X77980406Y-67540178D01*
X77982636Y-67514698D01*
X78000544Y-67310003D01*
X78000544Y-67309996D01*
X77980407Y-67079829D01*
X77980406Y-67079826D01*
X77980406Y-67079822D01*
X77920604Y-66856637D01*
X77822955Y-66647228D01*
X77690426Y-66457957D01*
X77527043Y-66294574D01*
X77527039Y-66294571D01*
X77527038Y-66294570D01*
X77346609Y-66168233D01*
X77337772Y-66162045D01*
X77268460Y-66129724D01*
X77223713Y-66087996D01*
X77212038Y-66027935D01*
X77237896Y-65972482D01*
X77268460Y-65950275D01*
X77337772Y-65917955D01*
X77527043Y-65785426D01*
X77690426Y-65622043D01*
X77822955Y-65432772D01*
X77920604Y-65223363D01*
X77980406Y-65000178D01*
X77982855Y-64972193D01*
X78000544Y-64770003D01*
X78000544Y-64769996D01*
X77980407Y-64539829D01*
X77980406Y-64539826D01*
X77980406Y-64539822D01*
X77920604Y-64316637D01*
X77822955Y-64107228D01*
X77690426Y-63917957D01*
X77527043Y-63754574D01*
X77527039Y-63754571D01*
X77527038Y-63754570D01*
X77404938Y-63669075D01*
X77337772Y-63622045D01*
X77128363Y-63524396D01*
X76913993Y-63466956D01*
X76862681Y-63433633D01*
X76840754Y-63376511D01*
X76856590Y-63317411D01*
X76904139Y-63278906D01*
X76910879Y-63276593D01*
X76914417Y-63275519D01*
X76675000Y-63036101D01*
X76435581Y-63275520D01*
X76439118Y-63276593D01*
X76489315Y-63311578D01*
X76509361Y-63369386D01*
X76491600Y-63427937D01*
X76442815Y-63464866D01*
X76436002Y-63466957D01*
X76221637Y-63524396D01*
X76154840Y-63555544D01*
X76012229Y-63622044D01*
X75822961Y-63754570D01*
X75659570Y-63917961D01*
X75527044Y-64107229D01*
X75429396Y-64316637D01*
X75369592Y-64539829D01*
X75349456Y-64769996D01*
X74273500Y-64769996D01*
X74273500Y-62229996D01*
X75599823Y-62229996D01*
X75599823Y-62230003D01*
X75620480Y-62439750D01*
X75620482Y-62439759D01*
X75629478Y-62469417D01*
X75629479Y-62469417D01*
X75868897Y-62230000D01*
X75820186Y-62181289D01*
X76305000Y-62181289D01*
X76305000Y-62278711D01*
X76330215Y-62372815D01*
X76378926Y-62457186D01*
X76447814Y-62526074D01*
X76532185Y-62574785D01*
X76626289Y-62600000D01*
X76723711Y-62600000D01*
X76817815Y-62574785D01*
X76902186Y-62526074D01*
X76971074Y-62457186D01*
X77019785Y-62372815D01*
X77045000Y-62278711D01*
X77045000Y-62230000D01*
X77481101Y-62230000D01*
X77720519Y-62469417D01*
X77729519Y-62439752D01*
X77750177Y-62230003D01*
X77750177Y-62229996D01*
X77730005Y-62025182D01*
X77736715Y-61994596D01*
X77736477Y-61994577D01*
X77720521Y-61990580D01*
X77481101Y-62230000D01*
X77045000Y-62230000D01*
X77045000Y-62181289D01*
X77019785Y-62087185D01*
X76971074Y-62002814D01*
X76902186Y-61933926D01*
X76817815Y-61885215D01*
X76723711Y-61860000D01*
X76626289Y-61860000D01*
X76532185Y-61885215D01*
X76447814Y-61933926D01*
X76378926Y-62002814D01*
X76330215Y-62087185D01*
X76305000Y-62181289D01*
X75820186Y-62181289D01*
X75629478Y-61990581D01*
X75620482Y-62020241D01*
X75620480Y-62020254D01*
X75599823Y-62229996D01*
X74273500Y-62229996D01*
X74273500Y-61990995D01*
X74292407Y-61932804D01*
X74302490Y-61920997D01*
X75600507Y-60622979D01*
X75655022Y-60595204D01*
X75715454Y-60604775D01*
G37*
%TD.AperFunction*%
%TA.AperFunction,Conductor*%
G36*
X114259251Y-32549974D02*
G01*
X114317429Y-32568918D01*
X114328923Y-32578703D01*
X119301834Y-37513652D01*
X120800668Y-39001045D01*
X120820895Y-39021117D01*
X120848881Y-39075526D01*
X120850159Y-39091003D01*
X120855733Y-40525476D01*
X120837052Y-40583740D01*
X120787692Y-40619896D01*
X120726507Y-40620134D01*
X120676868Y-40584363D01*
X120676641Y-40584051D01*
X120664037Y-40566703D01*
X120541596Y-40444262D01*
X120401528Y-40342497D01*
X120401524Y-40342495D01*
X120247256Y-40263892D01*
X120247244Y-40263887D01*
X120150000Y-40232290D01*
X120150000Y-41184300D01*
X120131093Y-41242491D01*
X120081593Y-41278455D01*
X120051000Y-41283300D01*
X119925000Y-41283300D01*
X119925000Y-41233930D01*
X119899444Y-41138555D01*
X119850075Y-41053045D01*
X119780255Y-40983225D01*
X119694745Y-40933856D01*
X119599370Y-40908300D01*
X119500630Y-40908300D01*
X119405255Y-40933856D01*
X119319745Y-40983225D01*
X119249925Y-41053045D01*
X119200556Y-41138555D01*
X119175000Y-41233930D01*
X119175000Y-41332670D01*
X119200556Y-41428045D01*
X119249925Y-41513555D01*
X119319745Y-41583375D01*
X119405255Y-41632744D01*
X119500630Y-41658300D01*
X119550000Y-41658300D01*
X119550000Y-41784300D01*
X119531093Y-41842491D01*
X119481593Y-41878455D01*
X119451000Y-41883300D01*
X118351252Y-41883300D01*
X118435971Y-41999906D01*
X118435972Y-41999907D01*
X118483557Y-42047493D01*
X118511334Y-42102010D01*
X118501762Y-42162442D01*
X118471744Y-42197588D01*
X118395213Y-42253191D01*
X118244891Y-42403513D01*
X118119950Y-42575480D01*
X118119948Y-42575484D01*
X118023443Y-42764887D01*
X117957752Y-42967061D01*
X117924500Y-43177009D01*
X117924500Y-43389590D01*
X117957752Y-43599538D01*
X118023443Y-43801712D01*
X118119948Y-43991115D01*
X118119950Y-43991119D01*
X118208185Y-44112564D01*
X118227092Y-44170754D01*
X118208184Y-44228945D01*
X118204819Y-44233316D01*
X118085300Y-44379895D01*
X117991090Y-44560252D01*
X117935114Y-44755879D01*
X117924500Y-44875266D01*
X117924500Y-45691332D01*
X117935114Y-45810716D01*
X117935115Y-45810723D01*
X117968166Y-45926230D01*
X117991091Y-46006349D01*
X118028412Y-46077796D01*
X118077772Y-46172293D01*
X118085302Y-46186707D01*
X118213891Y-46344409D01*
X118371593Y-46472998D01*
X118551951Y-46567209D01*
X118747582Y-46623186D01*
X118866963Y-46633800D01*
X120233036Y-46633799D01*
X120352418Y-46623186D01*
X120548049Y-46567209D01*
X120728407Y-46472998D01*
X120728407Y-46472997D01*
X120732858Y-46470673D01*
X120733840Y-46472553D01*
X120784642Y-46458549D01*
X120841920Y-46480065D01*
X120875612Y-46531138D01*
X120879171Y-46557063D01*
X120896104Y-50914443D01*
X120877423Y-50972707D01*
X120828063Y-51008863D01*
X120766878Y-51009101D01*
X120717239Y-50973330D01*
X120717012Y-50973018D01*
X120664037Y-50900103D01*
X120541596Y-50777662D01*
X120401528Y-50675897D01*
X120401524Y-50675895D01*
X120247256Y-50597292D01*
X120247244Y-50597287D01*
X120150000Y-50565690D01*
X120150000Y-51517700D01*
X120131093Y-51575891D01*
X120081593Y-51611855D01*
X120051000Y-51616700D01*
X119925000Y-51616700D01*
X119925000Y-51567330D01*
X119899444Y-51471955D01*
X119850075Y-51386445D01*
X119780255Y-51316625D01*
X119694745Y-51267256D01*
X119599370Y-51241700D01*
X119500630Y-51241700D01*
X119405255Y-51267256D01*
X119319745Y-51316625D01*
X119249925Y-51386445D01*
X119200556Y-51471955D01*
X119175000Y-51567330D01*
X119175000Y-51666070D01*
X119200556Y-51761445D01*
X119249925Y-51846955D01*
X119319745Y-51916775D01*
X119405255Y-51966144D01*
X119500630Y-51991700D01*
X119550000Y-51991700D01*
X119550000Y-52117700D01*
X119531093Y-52175891D01*
X119481593Y-52211855D01*
X119451000Y-52216700D01*
X118351252Y-52216700D01*
X118435971Y-52333306D01*
X118435972Y-52333307D01*
X118483557Y-52380893D01*
X118511334Y-52435410D01*
X118501762Y-52495842D01*
X118471744Y-52530988D01*
X118395213Y-52586591D01*
X118244891Y-52736913D01*
X118119950Y-52908880D01*
X118119948Y-52908884D01*
X118023443Y-53098287D01*
X117957752Y-53300461D01*
X117924500Y-53510409D01*
X117924500Y-53722990D01*
X117957752Y-53932938D01*
X118023443Y-54135112D01*
X118119948Y-54324515D01*
X118119950Y-54324519D01*
X118208185Y-54445964D01*
X118227092Y-54504154D01*
X118208184Y-54562345D01*
X118204819Y-54566716D01*
X118085300Y-54713295D01*
X117991090Y-54893652D01*
X117935114Y-55089279D01*
X117935114Y-55089282D01*
X117927049Y-55180000D01*
X117924500Y-55208666D01*
X117924500Y-56024732D01*
X117932647Y-56116363D01*
X117934703Y-56139500D01*
X117935114Y-56144116D01*
X117935115Y-56144123D01*
X117955035Y-56213740D01*
X117991091Y-56339749D01*
X118085302Y-56520107D01*
X118213891Y-56677809D01*
X118371593Y-56806398D01*
X118551951Y-56900609D01*
X118747582Y-56956586D01*
X118866963Y-56967200D01*
X120233036Y-56967199D01*
X120352418Y-56956586D01*
X120548049Y-56900609D01*
X120728407Y-56806398D01*
X120757644Y-56782558D01*
X120814689Y-56760439D01*
X120873843Y-56776074D01*
X120912509Y-56823494D01*
X120919204Y-56858900D01*
X120936671Y-61353578D01*
X120917990Y-61411842D01*
X120868630Y-61447998D01*
X120807445Y-61448236D01*
X120757806Y-61412465D01*
X120757579Y-61412154D01*
X120664034Y-61283400D01*
X120541596Y-61160962D01*
X120401528Y-61059197D01*
X120401524Y-61059195D01*
X120247256Y-60980592D01*
X120247244Y-60980587D01*
X120150000Y-60948990D01*
X120150000Y-61901000D01*
X120131093Y-61959191D01*
X120081593Y-61995155D01*
X120051000Y-62000000D01*
X119925000Y-62000000D01*
X119925000Y-61950630D01*
X119899444Y-61855255D01*
X119850075Y-61769745D01*
X119780255Y-61699925D01*
X119694745Y-61650556D01*
X119599370Y-61625000D01*
X119500630Y-61625000D01*
X119405255Y-61650556D01*
X119319745Y-61699925D01*
X119249925Y-61769745D01*
X119200556Y-61855255D01*
X119175000Y-61950630D01*
X119175000Y-62049370D01*
X119200556Y-62144745D01*
X119249925Y-62230255D01*
X119319745Y-62300075D01*
X119405255Y-62349444D01*
X119500630Y-62375000D01*
X119550000Y-62375000D01*
X119550000Y-62501000D01*
X119531093Y-62559191D01*
X119481593Y-62595155D01*
X119451000Y-62600000D01*
X118351252Y-62600000D01*
X118435971Y-62716606D01*
X118435972Y-62716607D01*
X118483557Y-62764193D01*
X118511334Y-62818710D01*
X118501762Y-62879142D01*
X118471744Y-62914288D01*
X118395213Y-62969891D01*
X118244891Y-63120213D01*
X118119950Y-63292180D01*
X118119948Y-63292184D01*
X118023443Y-63481587D01*
X117957752Y-63683761D01*
X117924500Y-63893709D01*
X117924500Y-64106290D01*
X117957752Y-64316238D01*
X118023443Y-64518412D01*
X118119948Y-64707815D01*
X118119950Y-64707819D01*
X118208185Y-64829264D01*
X118227092Y-64887454D01*
X118208184Y-64945645D01*
X118204819Y-64950016D01*
X118085300Y-65096595D01*
X117991090Y-65276952D01*
X117935114Y-65472579D01*
X117924500Y-65591966D01*
X117924500Y-66408032D01*
X117935114Y-66527416D01*
X117935115Y-66527423D01*
X117971582Y-66654869D01*
X117991091Y-66723049D01*
X118085302Y-66903407D01*
X118213891Y-67061109D01*
X118371593Y-67189698D01*
X118551951Y-67283909D01*
X118747582Y-67339886D01*
X118866963Y-67350500D01*
X120233036Y-67350499D01*
X120352418Y-67339886D01*
X120548049Y-67283909D01*
X120728407Y-67189698D01*
X120797868Y-67133059D01*
X120854912Y-67110941D01*
X120914066Y-67126577D01*
X120952732Y-67173996D01*
X120959427Y-67209402D01*
X120976909Y-71708345D01*
X120958228Y-71766609D01*
X120908868Y-71802765D01*
X120847683Y-71803003D01*
X120798044Y-71767232D01*
X120789700Y-71753674D01*
X120765806Y-71706779D01*
X120765802Y-71706771D01*
X120664037Y-71566703D01*
X120541596Y-71444262D01*
X120401528Y-71342497D01*
X120401524Y-71342495D01*
X120247256Y-71263892D01*
X120247244Y-71263887D01*
X120150000Y-71232290D01*
X120150000Y-72184300D01*
X120131093Y-72242491D01*
X120081593Y-72278455D01*
X120051000Y-72283300D01*
X119925000Y-72283300D01*
X119925000Y-72233930D01*
X119899444Y-72138555D01*
X119850075Y-72053045D01*
X119780255Y-71983225D01*
X119694745Y-71933856D01*
X119599370Y-71908300D01*
X119500630Y-71908300D01*
X119405255Y-71933856D01*
X119319745Y-71983225D01*
X119249925Y-72053045D01*
X119200556Y-72138555D01*
X119175000Y-72233930D01*
X119175000Y-72332670D01*
X119200556Y-72428045D01*
X119249925Y-72513555D01*
X119319745Y-72583375D01*
X119405255Y-72632744D01*
X119500630Y-72658300D01*
X119550000Y-72658300D01*
X119550000Y-72784300D01*
X119531093Y-72842491D01*
X119481593Y-72878455D01*
X119451000Y-72883300D01*
X118351252Y-72883300D01*
X118435971Y-72999906D01*
X118435972Y-72999907D01*
X118483557Y-73047493D01*
X118511334Y-73102010D01*
X118501762Y-73162442D01*
X118471744Y-73197588D01*
X118395213Y-73253191D01*
X118244891Y-73403513D01*
X118119950Y-73575480D01*
X118119948Y-73575484D01*
X118023443Y-73764887D01*
X117957752Y-73967061D01*
X117924500Y-74177009D01*
X117924500Y-74389590D01*
X117957752Y-74599538D01*
X118023443Y-74801712D01*
X118119948Y-74991115D01*
X118119950Y-74991119D01*
X118208185Y-75112564D01*
X118227092Y-75170754D01*
X118208184Y-75228945D01*
X118204819Y-75233316D01*
X118085300Y-75379895D01*
X117991090Y-75560252D01*
X117935114Y-75755879D01*
X117924500Y-75875266D01*
X117924500Y-76691332D01*
X117935114Y-76810716D01*
X117935115Y-76810723D01*
X117991090Y-77006346D01*
X117991091Y-77006349D01*
X118016500Y-77054992D01*
X118084806Y-77185759D01*
X118085302Y-77186707D01*
X118213891Y-77344409D01*
X118371593Y-77472998D01*
X118551951Y-77567209D01*
X118747582Y-77623186D01*
X118866963Y-77633800D01*
X120233036Y-77633799D01*
X120352418Y-77623186D01*
X120548049Y-77567209D01*
X120728407Y-77472998D01*
X120837702Y-77383879D01*
X120894748Y-77361761D01*
X120953902Y-77377397D01*
X120992567Y-77424817D01*
X120999262Y-77460222D01*
X120999875Y-77618028D01*
X120981401Y-77676004D01*
X115379615Y-85508591D01*
X115330385Y-85544923D01*
X115299090Y-85550000D01*
X36833333Y-85550000D01*
X36775142Y-85531093D01*
X36773455Y-85529839D01*
X26964254Y-78079813D01*
X26929349Y-78029561D01*
X26925132Y-78000708D01*
X26925158Y-77991128D01*
X26925339Y-77923702D01*
X30651534Y-77923702D01*
X30761402Y-77953142D01*
X30987997Y-77972966D01*
X30988003Y-77972966D01*
X31214602Y-77953142D01*
X31324464Y-77923703D01*
X30987999Y-77587238D01*
X30651534Y-77923702D01*
X26925339Y-77923702D01*
X26928707Y-76667996D01*
X29683034Y-76667996D01*
X29683034Y-76668003D01*
X29702857Y-76894597D01*
X29732296Y-77004464D01*
X30068761Y-76668000D01*
X30016100Y-76615339D01*
X30588000Y-76615339D01*
X30588000Y-76720661D01*
X30615259Y-76822394D01*
X30667920Y-76913606D01*
X30742394Y-76988080D01*
X30833606Y-77040741D01*
X30935339Y-77068000D01*
X31040661Y-77068000D01*
X31089242Y-77054983D01*
X35251823Y-77054983D01*
X35251823Y-79155016D01*
X35262322Y-79257788D01*
X35262325Y-79257800D01*
X35317510Y-79424336D01*
X35409608Y-79573652D01*
X35409609Y-79573653D01*
X35409611Y-79573656D01*
X35533667Y-79697712D01*
X35682989Y-79789814D01*
X35849526Y-79844999D01*
X35952314Y-79855500D01*
X38052331Y-79855499D01*
X38052339Y-79855499D01*
X38155111Y-79845000D01*
X38155111Y-79844999D01*
X38155120Y-79844999D01*
X38321657Y-79789814D01*
X38470979Y-79697712D01*
X38595035Y-79573656D01*
X38627793Y-79520547D01*
X41506014Y-79520547D01*
X41632836Y-79564084D01*
X41878029Y-79605000D01*
X42126617Y-79605000D01*
X42371811Y-79564084D01*
X42498630Y-79520547D01*
X42002322Y-79024239D01*
X41506014Y-79520547D01*
X38627793Y-79520547D01*
X38687137Y-79424334D01*
X38742322Y-79257797D01*
X38752823Y-79155009D01*
X38752822Y-78105000D01*
X40497182Y-78105000D01*
X40517709Y-78352736D01*
X40578735Y-78593717D01*
X40583499Y-78604582D01*
X41083082Y-78104999D01*
X41017257Y-78039174D01*
X41502323Y-78039174D01*
X41502323Y-78170826D01*
X41536398Y-78297993D01*
X41602224Y-78412007D01*
X41695316Y-78505099D01*
X41809330Y-78570925D01*
X41936497Y-78605000D01*
X42068149Y-78605000D01*
X42195316Y-78570925D01*
X42309330Y-78505099D01*
X42402422Y-78412007D01*
X42468248Y-78297993D01*
X42502323Y-78170826D01*
X42502323Y-78104999D01*
X42921562Y-78104999D01*
X43421145Y-78604582D01*
X43425908Y-78593723D01*
X43425909Y-78593719D01*
X43486936Y-78352736D01*
X43507463Y-78105000D01*
X43486936Y-77857263D01*
X43425911Y-77616281D01*
X43421145Y-77605416D01*
X42921562Y-78104999D01*
X42502323Y-78104999D01*
X42502323Y-78039174D01*
X42468248Y-77912007D01*
X42402422Y-77797993D01*
X42309330Y-77704901D01*
X42195316Y-77639075D01*
X42068149Y-77605000D01*
X41936497Y-77605000D01*
X41809330Y-77639075D01*
X41695316Y-77704901D01*
X41602224Y-77797993D01*
X41536398Y-77912007D01*
X41502323Y-78039174D01*
X41017257Y-78039174D01*
X40583500Y-77605417D01*
X40578735Y-77616282D01*
X40517709Y-77857263D01*
X40497182Y-78105000D01*
X38752822Y-78105000D01*
X38752822Y-77054992D01*
X38752822Y-77054991D01*
X38752822Y-77054983D01*
X38742323Y-76952211D01*
X38742322Y-76952209D01*
X38742322Y-76952203D01*
X38687137Y-76785666D01*
X38628952Y-76691332D01*
X38627792Y-76689451D01*
X41506014Y-76689451D01*
X42002322Y-77185759D01*
X42353081Y-76835000D01*
X45434706Y-76835000D01*
X45453853Y-77078300D01*
X45510828Y-77315613D01*
X45510829Y-77315616D01*
X45604219Y-77541081D01*
X45604224Y-77541092D01*
X45731739Y-77749176D01*
X45731745Y-77749184D01*
X45780932Y-77806775D01*
X45890241Y-77934759D01*
X45890247Y-77934764D01*
X45890250Y-77934767D01*
X46001240Y-78029561D01*
X46075821Y-78093259D01*
X46075823Y-78093260D01*
X46283907Y-78220775D01*
X46283909Y-78220776D01*
X46283911Y-78220777D01*
X46509388Y-78314172D01*
X46746698Y-78371146D01*
X46990000Y-78390294D01*
X47233302Y-78371146D01*
X47470612Y-78314172D01*
X47696089Y-78220777D01*
X47904179Y-78093259D01*
X48089759Y-77934759D01*
X48248259Y-77749179D01*
X48375777Y-77541089D01*
X48469172Y-77315612D01*
X48526146Y-77078302D01*
X48545294Y-76835000D01*
X48526146Y-76591698D01*
X48469172Y-76354388D01*
X48469170Y-76354383D01*
X48469167Y-76354373D01*
X48375780Y-76128918D01*
X48375775Y-76128907D01*
X48248260Y-75920823D01*
X48248259Y-75920821D01*
X48248254Y-75920815D01*
X48089767Y-75735250D01*
X48089764Y-75735247D01*
X48089759Y-75735241D01*
X48089752Y-75735235D01*
X48089749Y-75735232D01*
X47904184Y-75576745D01*
X47904176Y-75576739D01*
X47696092Y-75449224D01*
X47696081Y-75449219D01*
X47470616Y-75355829D01*
X47470613Y-75355828D01*
X47233300Y-75298853D01*
X46990000Y-75279706D01*
X46746699Y-75298853D01*
X46509386Y-75355828D01*
X46509383Y-75355829D01*
X46283918Y-75449219D01*
X46283907Y-75449224D01*
X46075823Y-75576739D01*
X46075815Y-75576745D01*
X45890250Y-75735232D01*
X45890232Y-75735250D01*
X45731745Y-75920815D01*
X45731739Y-75920823D01*
X45604224Y-76128907D01*
X45604219Y-76128918D01*
X45510833Y-76354373D01*
X45510828Y-76354386D01*
X45453853Y-76591699D01*
X45434706Y-76835000D01*
X42353081Y-76835000D01*
X42498630Y-76689451D01*
X42371815Y-76645916D01*
X42126617Y-76605000D01*
X41878029Y-76605000D01*
X41632830Y-76645916D01*
X41506014Y-76689451D01*
X38627792Y-76689451D01*
X38595037Y-76636347D01*
X38595036Y-76636346D01*
X38595035Y-76636344D01*
X38470979Y-76512288D01*
X38470976Y-76512286D01*
X38470975Y-76512285D01*
X38321659Y-76420187D01*
X38321658Y-76420186D01*
X38321657Y-76420186D01*
X38155120Y-76365001D01*
X38155117Y-76365000D01*
X38052339Y-76354500D01*
X35952306Y-76354500D01*
X35849534Y-76364999D01*
X35849522Y-76365002D01*
X35682986Y-76420187D01*
X35533670Y-76512285D01*
X35409608Y-76636347D01*
X35317510Y-76785663D01*
X35262323Y-76952205D01*
X35251823Y-77054983D01*
X31089242Y-77054983D01*
X31142394Y-77040741D01*
X31233606Y-76988080D01*
X31308080Y-76913606D01*
X31360741Y-76822394D01*
X31388000Y-76720661D01*
X31388000Y-76667999D01*
X31907238Y-76667999D01*
X32243703Y-77004464D01*
X32273142Y-76894602D01*
X32292966Y-76668003D01*
X32292966Y-76667996D01*
X32273142Y-76441402D01*
X32243702Y-76331534D01*
X31907238Y-76667999D01*
X31388000Y-76667999D01*
X31388000Y-76615339D01*
X31360741Y-76513606D01*
X31308080Y-76422394D01*
X31233606Y-76347920D01*
X31142394Y-76295259D01*
X31040661Y-76268000D01*
X30935339Y-76268000D01*
X30833606Y-76295259D01*
X30742394Y-76347920D01*
X30667920Y-76422394D01*
X30615259Y-76513606D01*
X30588000Y-76615339D01*
X30016100Y-76615339D01*
X29732296Y-76331535D01*
X29702857Y-76441402D01*
X29683034Y-76667996D01*
X26928707Y-76667996D01*
X26935414Y-74168000D01*
X29432706Y-74168000D01*
X29451853Y-74411300D01*
X29508828Y-74648613D01*
X29508829Y-74648616D01*
X29602219Y-74874081D01*
X29602224Y-74874092D01*
X29729739Y-75082176D01*
X29729745Y-75082184D01*
X29876642Y-75254179D01*
X29888241Y-75267759D01*
X29888247Y-75267764D01*
X29888250Y-75267767D01*
X30026037Y-75385448D01*
X30073821Y-75426259D01*
X30143184Y-75468765D01*
X30281907Y-75553775D01*
X30281918Y-75553780D01*
X30337351Y-75576741D01*
X30507388Y-75647172D01*
X30744698Y-75704146D01*
X30923946Y-75718252D01*
X30980472Y-75741666D01*
X30986179Y-75746942D01*
X30987999Y-75748762D01*
X30989814Y-75746947D01*
X31044329Y-75719167D01*
X31052030Y-75718254D01*
X31231302Y-75704146D01*
X31468612Y-75647172D01*
X31694089Y-75553777D01*
X31902179Y-75426259D01*
X32087759Y-75267759D01*
X32246259Y-75082179D01*
X32373777Y-74874089D01*
X32467172Y-74648612D01*
X32500988Y-74507761D01*
X54986652Y-74507761D01*
X54986652Y-74507768D01*
X55006933Y-74713694D01*
X55006934Y-74713699D01*
X55067003Y-74911719D01*
X55164551Y-75094217D01*
X55295820Y-75254169D01*
X55295825Y-75254175D01*
X55295830Y-75254179D01*
X55455782Y-75385448D01*
X55455783Y-75385448D01*
X55455785Y-75385450D01*
X55638281Y-75482997D01*
X55751928Y-75517471D01*
X55836300Y-75543065D01*
X55836306Y-75543066D01*
X55928757Y-75552171D01*
X55998460Y-75559036D01*
X56054517Y-75583555D01*
X56085456Y-75636342D01*
X56079459Y-75697233D01*
X56053064Y-75732828D01*
X56050255Y-75735227D01*
X56050232Y-75735250D01*
X55891745Y-75920815D01*
X55891739Y-75920823D01*
X55764224Y-76128907D01*
X55764219Y-76128918D01*
X55670833Y-76354373D01*
X55670828Y-76354386D01*
X55613853Y-76591699D01*
X55594706Y-76835000D01*
X55613853Y-77078300D01*
X55670828Y-77315613D01*
X55670829Y-77315616D01*
X55764219Y-77541081D01*
X55764224Y-77541092D01*
X55891739Y-77749176D01*
X55891745Y-77749184D01*
X55940932Y-77806775D01*
X56050241Y-77934759D01*
X56050247Y-77934764D01*
X56050250Y-77934767D01*
X56161240Y-78029561D01*
X56235821Y-78093259D01*
X56235823Y-78093260D01*
X56443907Y-78220775D01*
X56443909Y-78220776D01*
X56443911Y-78220777D01*
X56669388Y-78314172D01*
X56906698Y-78371146D01*
X57150000Y-78390294D01*
X57393302Y-78371146D01*
X57630612Y-78314172D01*
X57856089Y-78220777D01*
X58064179Y-78093259D01*
X58249759Y-77934759D01*
X58408259Y-77749179D01*
X58535777Y-77541089D01*
X58629172Y-77315612D01*
X58641235Y-77265367D01*
X58673205Y-77213198D01*
X58729733Y-77189783D01*
X58789227Y-77204067D01*
X58828964Y-77250592D01*
X58833765Y-77265367D01*
X58845828Y-77315613D01*
X58845829Y-77315616D01*
X58939219Y-77541081D01*
X58939224Y-77541092D01*
X59066739Y-77749176D01*
X59066745Y-77749184D01*
X59115932Y-77806775D01*
X59225241Y-77934759D01*
X59225247Y-77934764D01*
X59225250Y-77934767D01*
X59336240Y-78029561D01*
X59410821Y-78093259D01*
X59410823Y-78093260D01*
X59618907Y-78220775D01*
X59618909Y-78220776D01*
X59618911Y-78220777D01*
X59844388Y-78314172D01*
X60081698Y-78371146D01*
X60325000Y-78390294D01*
X60568302Y-78371146D01*
X60805612Y-78314172D01*
X61031089Y-78220777D01*
X61239179Y-78093259D01*
X61424759Y-77934759D01*
X61583259Y-77749179D01*
X61710777Y-77541089D01*
X61804172Y-77315612D01*
X61861146Y-77078302D01*
X61880294Y-76835000D01*
X61861146Y-76591698D01*
X61804172Y-76354388D01*
X61804170Y-76354383D01*
X61804167Y-76354373D01*
X61710780Y-76128918D01*
X61710775Y-76128907D01*
X61583260Y-75920823D01*
X61583259Y-75920821D01*
X61583254Y-75920815D01*
X61424767Y-75735250D01*
X61424764Y-75735247D01*
X61424759Y-75735241D01*
X61424752Y-75735235D01*
X61424749Y-75735232D01*
X61239184Y-75576745D01*
X61239176Y-75576739D01*
X61031092Y-75449224D01*
X61031081Y-75449219D01*
X60805616Y-75355829D01*
X60805613Y-75355828D01*
X60568300Y-75298853D01*
X60325000Y-75279706D01*
X60081699Y-75298853D01*
X59844386Y-75355828D01*
X59844383Y-75355829D01*
X59618918Y-75449219D01*
X59618907Y-75449224D01*
X59410823Y-75576739D01*
X59410815Y-75576745D01*
X59225250Y-75735232D01*
X59225232Y-75735250D01*
X59066745Y-75920815D01*
X59066739Y-75920823D01*
X58939224Y-76128907D01*
X58939219Y-76128918D01*
X58845833Y-76354373D01*
X58845829Y-76354383D01*
X58833765Y-76404633D01*
X58801795Y-76456801D01*
X58745267Y-76480216D01*
X58685772Y-76465932D01*
X58646036Y-76419406D01*
X58641235Y-76404633D01*
X58631720Y-76365002D01*
X58629172Y-76354388D01*
X58629170Y-76354383D01*
X58629167Y-76354373D01*
X58535780Y-76128918D01*
X58535775Y-76128907D01*
X58408260Y-75920823D01*
X58408259Y-75920821D01*
X58408254Y-75920815D01*
X58249767Y-75735250D01*
X58249764Y-75735247D01*
X58249759Y-75735241D01*
X58249752Y-75735235D01*
X58249749Y-75735232D01*
X58064184Y-75576745D01*
X58064176Y-75576739D01*
X57856092Y-75449224D01*
X57856081Y-75449219D01*
X57630616Y-75355829D01*
X57630613Y-75355828D01*
X57393300Y-75298853D01*
X57170782Y-75281341D01*
X57150000Y-75279706D01*
X57149999Y-75279706D01*
X56973101Y-75293627D01*
X56913606Y-75279343D01*
X56873870Y-75232817D01*
X56869070Y-75171820D01*
X56888807Y-75132126D01*
X56904861Y-75112564D01*
X56919920Y-75094215D01*
X57017467Y-74911719D01*
X57077521Y-74713744D01*
X57112505Y-74663550D01*
X57143510Y-74647750D01*
X57269719Y-74609467D01*
X57452215Y-74511920D01*
X57612175Y-74380645D01*
X57743450Y-74220685D01*
X57840997Y-74038189D01*
X57901065Y-73840169D01*
X57901066Y-73840164D01*
X57921348Y-73634238D01*
X57921348Y-73634231D01*
X57901066Y-73428305D01*
X57901065Y-73428300D01*
X57877416Y-73350341D01*
X57840997Y-73230281D01*
X57743450Y-73047785D01*
X57743210Y-73047493D01*
X57612179Y-72887830D01*
X57612175Y-72887825D01*
X57600758Y-72878455D01*
X57452217Y-72756551D01*
X57269719Y-72659003D01*
X57071699Y-72598934D01*
X57071694Y-72598933D01*
X56865768Y-72578652D01*
X56865762Y-72578652D01*
X56659835Y-72598933D01*
X56659830Y-72598934D01*
X56461810Y-72659003D01*
X56279312Y-72756551D01*
X56119360Y-72887820D01*
X56119350Y-72887830D01*
X55988081Y-73047782D01*
X55890533Y-73230280D01*
X55830479Y-73428251D01*
X55795494Y-73478448D01*
X55764481Y-73494250D01*
X55638284Y-73532532D01*
X55638276Y-73532535D01*
X55455782Y-73630081D01*
X55295830Y-73761350D01*
X55295820Y-73761360D01*
X55164551Y-73921312D01*
X55067003Y-74103810D01*
X55006934Y-74301830D01*
X55006933Y-74301835D01*
X54986652Y-74507761D01*
X32500988Y-74507761D01*
X32524146Y-74411302D01*
X32543294Y-74168000D01*
X32524146Y-73924698D01*
X32467172Y-73687388D01*
X32445157Y-73634238D01*
X32373780Y-73461918D01*
X32373775Y-73461907D01*
X32246260Y-73253823D01*
X32246259Y-73253821D01*
X32203452Y-73203700D01*
X32087767Y-73068250D01*
X32087764Y-73068247D01*
X32087759Y-73068241D01*
X32087752Y-73068235D01*
X32087749Y-73068232D01*
X31902184Y-72909745D01*
X31902176Y-72909739D01*
X31694092Y-72782224D01*
X31694081Y-72782219D01*
X31468616Y-72688829D01*
X31468613Y-72688828D01*
X31231300Y-72631853D01*
X30988000Y-72612706D01*
X30744699Y-72631853D01*
X30507386Y-72688828D01*
X30507383Y-72688829D01*
X30281918Y-72782219D01*
X30281907Y-72782224D01*
X30073823Y-72909739D01*
X30073815Y-72909745D01*
X29888250Y-73068232D01*
X29888232Y-73068250D01*
X29729745Y-73253815D01*
X29729739Y-73253823D01*
X29602224Y-73461907D01*
X29602219Y-73461918D01*
X29508829Y-73687383D01*
X29508828Y-73687386D01*
X29451853Y-73924699D01*
X29432706Y-74168000D01*
X26935414Y-74168000D01*
X26945603Y-70370022D01*
X26964667Y-70311885D01*
X27014263Y-70276054D01*
X27075448Y-70276218D01*
X27124852Y-70312314D01*
X27140868Y-70347179D01*
X27182079Y-70518835D01*
X27182080Y-70518839D01*
X27273181Y-70738776D01*
X27273186Y-70738787D01*
X27397576Y-70941771D01*
X27397582Y-70941779D01*
X27535777Y-71103585D01*
X27552194Y-71122806D01*
X27552200Y-71122811D01*
X27552203Y-71122814D01*
X27717384Y-71263892D01*
X27733226Y-71277422D01*
X27733228Y-71277423D01*
X27936212Y-71401813D01*
X27936223Y-71401818D01*
X28156160Y-71492919D01*
X28156164Y-71492920D01*
X28156165Y-71492920D01*
X28156167Y-71492921D01*
X28387661Y-71548498D01*
X28625000Y-71567177D01*
X28862339Y-71548498D01*
X29093833Y-71492921D01*
X29093836Y-71492919D01*
X29093839Y-71492919D01*
X29270026Y-71419940D01*
X29313784Y-71401815D01*
X29516774Y-71277422D01*
X29697806Y-71122806D01*
X29852422Y-70941774D01*
X29976815Y-70738784D01*
X30012586Y-70652423D01*
X30067919Y-70518839D01*
X30067920Y-70518835D01*
X30067919Y-70518835D01*
X30067921Y-70518833D01*
X30123498Y-70287339D01*
X30142177Y-70050000D01*
X43107823Y-70050000D01*
X43126501Y-70287337D01*
X43182079Y-70518835D01*
X43182080Y-70518839D01*
X43273181Y-70738776D01*
X43273186Y-70738787D01*
X43397576Y-70941771D01*
X43397582Y-70941779D01*
X43535777Y-71103585D01*
X43552194Y-71122806D01*
X43552200Y-71122811D01*
X43552203Y-71122814D01*
X43717384Y-71263892D01*
X43733226Y-71277422D01*
X43733228Y-71277423D01*
X43936212Y-71401813D01*
X43936223Y-71401818D01*
X44156160Y-71492919D01*
X44156164Y-71492920D01*
X44156165Y-71492920D01*
X44156167Y-71492921D01*
X44387661Y-71548498D01*
X44625000Y-71567177D01*
X44862339Y-71548498D01*
X45093833Y-71492921D01*
X45093836Y-71492919D01*
X45093839Y-71492919D01*
X45270026Y-71419940D01*
X45313784Y-71401815D01*
X45516774Y-71277422D01*
X45697806Y-71122806D01*
X45852422Y-70941774D01*
X45976815Y-70738784D01*
X45976818Y-70738776D01*
X46064536Y-70527006D01*
X46104272Y-70480480D01*
X46163767Y-70466196D01*
X46220295Y-70489611D01*
X46252265Y-70541780D01*
X46255000Y-70564891D01*
X46255000Y-72400000D01*
X46255001Y-72400000D01*
X52204999Y-72400000D01*
X52205000Y-72400000D01*
X52205000Y-54400000D01*
X46255000Y-54400000D01*
X46255000Y-54400001D01*
X46255000Y-69535108D01*
X46236093Y-69593299D01*
X46186593Y-69629263D01*
X46125407Y-69629263D01*
X46075907Y-69593299D01*
X46064536Y-69572993D01*
X45976818Y-69361223D01*
X45976813Y-69361212D01*
X45870195Y-69187229D01*
X45852422Y-69158226D01*
X45715543Y-68997961D01*
X45697814Y-68977203D01*
X45697811Y-68977200D01*
X45697806Y-68977194D01*
X45697799Y-68977188D01*
X45697796Y-68977185D01*
X45516779Y-68822582D01*
X45516771Y-68822576D01*
X45313787Y-68698186D01*
X45313776Y-68698181D01*
X45093839Y-68607080D01*
X45093835Y-68607079D01*
X44862337Y-68551501D01*
X44625000Y-68532823D01*
X44387662Y-68551501D01*
X44156164Y-68607079D01*
X44156160Y-68607080D01*
X43936223Y-68698181D01*
X43936212Y-68698186D01*
X43733228Y-68822576D01*
X43733220Y-68822582D01*
X43552203Y-68977185D01*
X43552185Y-68977203D01*
X43397582Y-69158220D01*
X43397576Y-69158228D01*
X43273186Y-69361212D01*
X43273181Y-69361223D01*
X43182080Y-69581160D01*
X43182079Y-69581164D01*
X43126501Y-69812662D01*
X43107823Y-70050000D01*
X30142177Y-70050000D01*
X30123498Y-69812661D01*
X30067921Y-69581167D01*
X30067920Y-69581164D01*
X30067919Y-69581160D01*
X29976818Y-69361223D01*
X29976813Y-69361212D01*
X29870195Y-69187229D01*
X29852422Y-69158226D01*
X29715543Y-68997961D01*
X29697814Y-68977203D01*
X29697811Y-68977200D01*
X29697806Y-68977194D01*
X29697799Y-68977188D01*
X29697796Y-68977185D01*
X29516779Y-68822582D01*
X29516771Y-68822576D01*
X29313787Y-68698186D01*
X29313776Y-68698181D01*
X29093839Y-68607080D01*
X29093835Y-68607079D01*
X28862337Y-68551501D01*
X28625000Y-68532823D01*
X28387662Y-68551501D01*
X28156164Y-68607079D01*
X28156160Y-68607080D01*
X27936223Y-68698181D01*
X27936212Y-68698186D01*
X27733228Y-68822576D01*
X27733220Y-68822582D01*
X27552203Y-68977185D01*
X27552185Y-68977203D01*
X27397582Y-69158220D01*
X27397576Y-69158228D01*
X27273186Y-69361212D01*
X27273181Y-69361223D01*
X27182080Y-69581160D01*
X27182079Y-69581165D01*
X27142606Y-69745581D01*
X27110636Y-69797750D01*
X27054108Y-69821165D01*
X26994613Y-69806881D01*
X26954877Y-69760355D01*
X26947341Y-69722206D01*
X26971117Y-60859824D01*
X27362999Y-60859824D01*
X27369401Y-60919370D01*
X27369403Y-60919381D01*
X27419646Y-61054088D01*
X27419647Y-61054090D01*
X27505807Y-61169184D01*
X27505815Y-61169192D01*
X27620909Y-61255352D01*
X27620911Y-61255353D01*
X27755618Y-61305596D01*
X27755629Y-61305598D01*
X27815176Y-61312000D01*
X27974999Y-61312000D01*
X27975000Y-61311999D01*
X27975000Y-60700001D01*
X29275000Y-60700001D01*
X29275000Y-61311999D01*
X29275001Y-61312000D01*
X29434824Y-61312000D01*
X29494370Y-61305598D01*
X29494381Y-61305596D01*
X29577284Y-61274675D01*
X44319561Y-61274675D01*
X44405027Y-61297576D01*
X44624997Y-61316821D01*
X44625003Y-61316821D01*
X44844977Y-61297576D01*
X44930437Y-61274676D01*
X44624999Y-60969238D01*
X44319561Y-61274675D01*
X29577284Y-61274675D01*
X29629088Y-61255353D01*
X29629090Y-61255352D01*
X29744184Y-61169192D01*
X29744192Y-61169184D01*
X29830352Y-61054090D01*
X29830353Y-61054088D01*
X29880596Y-60919381D01*
X29880598Y-60919370D01*
X29887000Y-60859824D01*
X29887000Y-60700001D01*
X29886999Y-60700000D01*
X29275001Y-60700000D01*
X29275000Y-60700001D01*
X27975000Y-60700001D01*
X27974999Y-60700000D01*
X27363001Y-60700000D01*
X27363000Y-60700001D01*
X27363000Y-60859824D01*
X27362999Y-60859824D01*
X26971117Y-60859824D01*
X26973424Y-59999840D01*
X28244000Y-59999840D01*
X28244000Y-60100160D01*
X28269964Y-60197061D01*
X28320124Y-60283940D01*
X28391060Y-60354876D01*
X28477939Y-60405036D01*
X28574840Y-60431000D01*
X28675160Y-60431000D01*
X28772061Y-60405036D01*
X28858940Y-60354876D01*
X28929876Y-60283940D01*
X28980036Y-60197061D01*
X29006000Y-60100160D01*
X29006000Y-60049996D01*
X43358179Y-60049996D01*
X43358179Y-60050003D01*
X43377423Y-60269973D01*
X43400323Y-60355437D01*
X43705761Y-60050000D01*
X43655601Y-59999840D01*
X44244000Y-59999840D01*
X44244000Y-60100160D01*
X44269964Y-60197061D01*
X44320124Y-60283940D01*
X44391060Y-60354876D01*
X44477939Y-60405036D01*
X44574840Y-60431000D01*
X44675160Y-60431000D01*
X44772061Y-60405036D01*
X44858940Y-60354876D01*
X44929876Y-60283940D01*
X44980036Y-60197061D01*
X45006000Y-60100160D01*
X45006000Y-60049999D01*
X45544238Y-60049999D01*
X45849676Y-60355437D01*
X45872576Y-60269977D01*
X45891821Y-60050003D01*
X45891821Y-60049996D01*
X45872576Y-59830027D01*
X45849675Y-59744561D01*
X45544238Y-60049999D01*
X45006000Y-60049999D01*
X45006000Y-59999840D01*
X44980036Y-59902939D01*
X44929876Y-59816060D01*
X44858940Y-59745124D01*
X44772061Y-59694964D01*
X44675160Y-59669000D01*
X44574840Y-59669000D01*
X44477939Y-59694964D01*
X44391060Y-59745124D01*
X44320124Y-59816060D01*
X44269964Y-59902939D01*
X44244000Y-59999840D01*
X43655601Y-59999840D01*
X43400323Y-59744562D01*
X43377423Y-59830026D01*
X43358179Y-60049996D01*
X29006000Y-60049996D01*
X29006000Y-59999840D01*
X28980036Y-59902939D01*
X28929876Y-59816060D01*
X28858940Y-59745124D01*
X28772061Y-59694964D01*
X28675160Y-59669000D01*
X28574840Y-59669000D01*
X28477939Y-59694964D01*
X28391060Y-59745124D01*
X28320124Y-59816060D01*
X28269964Y-59902939D01*
X28244000Y-59999840D01*
X26973424Y-59999840D01*
X26975462Y-59240175D01*
X27363000Y-59240175D01*
X27363000Y-59399999D01*
X27363001Y-59400000D01*
X27974999Y-59400000D01*
X27975000Y-59399999D01*
X27975000Y-58788001D01*
X29275000Y-58788001D01*
X29275000Y-59399999D01*
X29275001Y-59400000D01*
X29886999Y-59400000D01*
X29887000Y-59399999D01*
X29887000Y-59240175D01*
X29880598Y-59180629D01*
X29880596Y-59180618D01*
X29830353Y-59045911D01*
X29830352Y-59045909D01*
X29744192Y-58930815D01*
X29744184Y-58930807D01*
X29629090Y-58844647D01*
X29629088Y-58844646D01*
X29577281Y-58825323D01*
X44319562Y-58825323D01*
X44625000Y-59130761D01*
X44930437Y-58825323D01*
X44844973Y-58802423D01*
X44625003Y-58783179D01*
X44624997Y-58783179D01*
X44405026Y-58802423D01*
X44319562Y-58825323D01*
X29577281Y-58825323D01*
X29494381Y-58794403D01*
X29494370Y-58794401D01*
X29434824Y-58788000D01*
X29275001Y-58788000D01*
X29275000Y-58788001D01*
X27975000Y-58788001D01*
X27974999Y-58788000D01*
X27815176Y-58788000D01*
X27755629Y-58794401D01*
X27755618Y-58794403D01*
X27620911Y-58844646D01*
X27620909Y-58844647D01*
X27505815Y-58930807D01*
X27505807Y-58930815D01*
X27419647Y-59045909D01*
X27419646Y-59045911D01*
X27369403Y-59180618D01*
X27369401Y-59180629D01*
X27363000Y-59240175D01*
X26975462Y-59240175D01*
X27001875Y-49394648D01*
X28229500Y-49394648D01*
X28229500Y-51560351D01*
X28235918Y-51663736D01*
X28286950Y-51907116D01*
X28377340Y-52138764D01*
X28377346Y-52138778D01*
X28504632Y-52352391D01*
X28504635Y-52352396D01*
X28597148Y-52461625D01*
X28665350Y-52542150D01*
X28701208Y-52572520D01*
X28855103Y-52702864D01*
X28855108Y-52702867D01*
X29068721Y-52830153D01*
X29068724Y-52830154D01*
X29068727Y-52830156D01*
X29068735Y-52830159D01*
X29270488Y-52908884D01*
X29300386Y-52920550D01*
X29543763Y-52971581D01*
X29647158Y-52978000D01*
X29647169Y-52978000D01*
X31312831Y-52978000D01*
X31312842Y-52978000D01*
X31383790Y-52973595D01*
X31443040Y-52988860D01*
X31482002Y-53036037D01*
X31485793Y-53097104D01*
X31454785Y-53146784D01*
X31454795Y-53146794D01*
X31454754Y-53146834D01*
X31454228Y-53147678D01*
X31452052Y-53149536D01*
X31452035Y-53149553D01*
X31285881Y-53344095D01*
X31285871Y-53344108D01*
X31152195Y-53562247D01*
X31152189Y-53562259D01*
X31054277Y-53798639D01*
X30994547Y-54047431D01*
X30988461Y-54124768D01*
X30980785Y-54222316D01*
X30979500Y-54238643D01*
X30979500Y-56116356D01*
X30994547Y-56307568D01*
X31054277Y-56556360D01*
X31152189Y-56792740D01*
X31152195Y-56792752D01*
X31285871Y-57010891D01*
X31285881Y-57010904D01*
X31404682Y-57150003D01*
X31452044Y-57205456D01*
X31452050Y-57205461D01*
X31452053Y-57205464D01*
X31583778Y-57317967D01*
X31646601Y-57371623D01*
X31646603Y-57371624D01*
X31646608Y-57371628D01*
X31864747Y-57505304D01*
X31864759Y-57505310D01*
X32101139Y-57603222D01*
X32183745Y-57623054D01*
X32349930Y-57662952D01*
X32541137Y-57678000D01*
X34418862Y-57677999D01*
X34610070Y-57662952D01*
X34858860Y-57603222D01*
X35095243Y-57505309D01*
X35095247Y-57505306D01*
X35095252Y-57505304D01*
X35313391Y-57371628D01*
X35313391Y-57371627D01*
X35313399Y-57371623D01*
X35507956Y-57205456D01*
X35674123Y-57010899D01*
X35700902Y-56967200D01*
X35807804Y-56792752D01*
X35807806Y-56792747D01*
X35807809Y-56792743D01*
X35905722Y-56556360D01*
X35965452Y-56307570D01*
X35980500Y-56116363D01*
X35980499Y-54238638D01*
X35965452Y-54047430D01*
X35905722Y-53798640D01*
X35905419Y-53797909D01*
X35807810Y-53562259D01*
X35807804Y-53562247D01*
X35674128Y-53344108D01*
X35674118Y-53344095D01*
X35507964Y-53149553D01*
X35507961Y-53149550D01*
X35507956Y-53149544D01*
X35507947Y-53149536D01*
X35507946Y-53149535D01*
X35313404Y-52983381D01*
X35313391Y-52983371D01*
X35195146Y-52910911D01*
X35155409Y-52864386D01*
X35150608Y-52803389D01*
X35182578Y-52751220D01*
X35239105Y-52727805D01*
X35246873Y-52727500D01*
X35829999Y-52727500D01*
X35830000Y-52727499D01*
X35830000Y-51127501D01*
X35829999Y-51127500D01*
X34230001Y-51127500D01*
X34230000Y-51127501D01*
X34230000Y-52275324D01*
X34229999Y-52275324D01*
X34236401Y-52334870D01*
X34236403Y-52334881D01*
X34286646Y-52469588D01*
X34286647Y-52469590D01*
X34323389Y-52518671D01*
X34343126Y-52576586D01*
X34325052Y-52635040D01*
X34276071Y-52671708D01*
X34244136Y-52677000D01*
X32541143Y-52677000D01*
X32391560Y-52688771D01*
X32332065Y-52674487D01*
X32292329Y-52627960D01*
X32287530Y-52566963D01*
X32308246Y-52526096D01*
X32455366Y-52352394D01*
X32582656Y-52138773D01*
X32673050Y-51907114D01*
X32724081Y-51663737D01*
X32730500Y-51560342D01*
X32730500Y-49394658D01*
X32724081Y-49291263D01*
X32673050Y-49047886D01*
X32582656Y-48816227D01*
X32582654Y-48816224D01*
X32582653Y-48816221D01*
X32501289Y-48679675D01*
X34230000Y-48679675D01*
X34230000Y-49827499D01*
X34230001Y-49827500D01*
X35829999Y-49827500D01*
X35830000Y-49827499D01*
X35830000Y-49411674D01*
X35980000Y-49411674D01*
X35980000Y-51543326D01*
X36014075Y-51670493D01*
X36079901Y-51784507D01*
X36172993Y-51877599D01*
X36287007Y-51943425D01*
X36414174Y-51977500D01*
X36545826Y-51977500D01*
X36672993Y-51943425D01*
X36787007Y-51877599D01*
X36880099Y-51784507D01*
X36945925Y-51670493D01*
X36980000Y-51543326D01*
X36980000Y-51127501D01*
X37130000Y-51127501D01*
X37130000Y-52727499D01*
X37130001Y-52727500D01*
X38277824Y-52727500D01*
X38337370Y-52721098D01*
X38337381Y-52721096D01*
X38472088Y-52670853D01*
X38472090Y-52670852D01*
X38587184Y-52584692D01*
X38587192Y-52584684D01*
X38673352Y-52469590D01*
X38673353Y-52469588D01*
X38723596Y-52334881D01*
X38723598Y-52334870D01*
X38730000Y-52275324D01*
X38730000Y-51127501D01*
X38729999Y-51127500D01*
X37130001Y-51127500D01*
X37130000Y-51127501D01*
X36980000Y-51127501D01*
X36980000Y-50360996D01*
X44123998Y-50360996D01*
X44123998Y-50361003D01*
X44143980Y-50653142D01*
X44143982Y-50653151D01*
X44203557Y-50939845D01*
X44228086Y-51008863D01*
X44301621Y-51215770D01*
X44353880Y-51316625D01*
X44436343Y-51475772D01*
X44605203Y-51714991D01*
X44605206Y-51714995D01*
X44605210Y-51715000D01*
X44805081Y-51929010D01*
X44805085Y-51929013D01*
X44805086Y-51929014D01*
X45019661Y-52103585D01*
X45032231Y-52113811D01*
X45164212Y-52194070D01*
X45282425Y-52265957D01*
X45282432Y-52265961D01*
X45303988Y-52275324D01*
X45551015Y-52382623D01*
X45832985Y-52461627D01*
X46123086Y-52501500D01*
X46123092Y-52501500D01*
X46415908Y-52501500D01*
X46415914Y-52501500D01*
X46706015Y-52461627D01*
X46987985Y-52382623D01*
X47256570Y-52265960D01*
X47506769Y-52113811D01*
X47733919Y-51929010D01*
X47897149Y-51754232D01*
X47950684Y-51724612D01*
X48011407Y-51732114D01*
X48041849Y-51754231D01*
X48205081Y-51929010D01*
X48205085Y-51929013D01*
X48205086Y-51929014D01*
X48419661Y-52103585D01*
X48432231Y-52113811D01*
X48564212Y-52194070D01*
X48682425Y-52265957D01*
X48682432Y-52265961D01*
X48703988Y-52275324D01*
X48951015Y-52382623D01*
X49232985Y-52461627D01*
X49523086Y-52501500D01*
X49523092Y-52501500D01*
X49815908Y-52501500D01*
X49815914Y-52501500D01*
X50106015Y-52461627D01*
X50387985Y-52382623D01*
X50463091Y-52350000D01*
X52394417Y-52350000D01*
X52394653Y-52352394D01*
X52414698Y-52555929D01*
X52414699Y-52555934D01*
X52474768Y-52753954D01*
X52572316Y-52936452D01*
X52654043Y-53036037D01*
X52703590Y-53096410D01*
X52703595Y-53096414D01*
X52863547Y-53227683D01*
X52863548Y-53227683D01*
X52863550Y-53227685D01*
X53046046Y-53325232D01*
X53183997Y-53367078D01*
X53244065Y-53385300D01*
X53244070Y-53385301D01*
X53449997Y-53405583D01*
X53450000Y-53405583D01*
X53450003Y-53405583D01*
X53655929Y-53385301D01*
X53655934Y-53385300D01*
X53689127Y-53375231D01*
X53853954Y-53325232D01*
X54036450Y-53227685D01*
X54196410Y-53096410D01*
X54327685Y-52936450D01*
X54425232Y-52753954D01*
X54473069Y-52596251D01*
X54490180Y-52567701D01*
X55749500Y-52567701D01*
X55749500Y-66335769D01*
X55782184Y-66500080D01*
X55782184Y-66500082D01*
X55846293Y-66654858D01*
X55846299Y-66654869D01*
X55902294Y-66738670D01*
X55939373Y-66794162D01*
X70447374Y-81302162D01*
X70565838Y-81420626D01*
X70705137Y-81513703D01*
X70859918Y-81577816D01*
X71024233Y-81610500D01*
X71024234Y-81610500D01*
X80068766Y-81610500D01*
X80068767Y-81610500D01*
X80233082Y-81577816D01*
X80278411Y-81559038D01*
X80278414Y-81559038D01*
X80338276Y-81534242D01*
X80387863Y-81513704D01*
X80527162Y-81420627D01*
X80760414Y-81187373D01*
X80814928Y-81159597D01*
X80861008Y-81163224D01*
X80885215Y-81171090D01*
X80885217Y-81171090D01*
X80885218Y-81171091D01*
X81134035Y-81210500D01*
X81134038Y-81210500D01*
X81385965Y-81210500D01*
X81634780Y-81171091D01*
X81634781Y-81171090D01*
X81634785Y-81171090D01*
X81874379Y-81093241D01*
X82098845Y-80978870D01*
X82302656Y-80830793D01*
X82480793Y-80652656D01*
X82586318Y-80507412D01*
X82635816Y-80471450D01*
X82697001Y-80471449D01*
X82736413Y-80495600D01*
X82880535Y-80639722D01*
X83052447Y-80764623D01*
X83110000Y-80793947D01*
X83110000Y-80135001D01*
X84410000Y-80135001D01*
X84410000Y-80793947D01*
X84467552Y-80764623D01*
X84639464Y-80639722D01*
X84789722Y-80489464D01*
X84914624Y-80317552D01*
X85007639Y-80135000D01*
X84410001Y-80135000D01*
X84410000Y-80135001D01*
X83110000Y-80135001D01*
X83110000Y-79422465D01*
X83285000Y-79422465D01*
X83285000Y-79547535D01*
X83317370Y-79668343D01*
X83379905Y-79776657D01*
X83468343Y-79865095D01*
X83576657Y-79927630D01*
X83697465Y-79960000D01*
X83822535Y-79960000D01*
X83943343Y-79927630D01*
X84051657Y-79865095D01*
X84140095Y-79776657D01*
X84202630Y-79668343D01*
X84235000Y-79547535D01*
X84235000Y-79422465D01*
X84202630Y-79301657D01*
X84140095Y-79193343D01*
X84051657Y-79104905D01*
X83943343Y-79042370D01*
X83822535Y-79010000D01*
X83697465Y-79010000D01*
X83576657Y-79042370D01*
X83468343Y-79104905D01*
X83379905Y-79193343D01*
X83317370Y-79301657D01*
X83285000Y-79422465D01*
X83110000Y-79422465D01*
X83110000Y-78834999D01*
X84410000Y-78834999D01*
X84410001Y-78835000D01*
X85007639Y-78835000D01*
X84914624Y-78652447D01*
X84789722Y-78480535D01*
X84639464Y-78330277D01*
X84467554Y-78205377D01*
X84410000Y-78176051D01*
X84410000Y-78834999D01*
X83110000Y-78834999D01*
X83110000Y-78176051D01*
X83109999Y-78176051D01*
X83052445Y-78205377D01*
X82880531Y-78330280D01*
X82736412Y-78474399D01*
X82681896Y-78502176D01*
X82621464Y-78492604D01*
X82586317Y-78462586D01*
X82480793Y-78317344D01*
X82302656Y-78139207D01*
X82098845Y-77991130D01*
X82098844Y-77991129D01*
X82098842Y-77991128D01*
X81874379Y-77876759D01*
X81634780Y-77798908D01*
X81385965Y-77759500D01*
X81385962Y-77759500D01*
X81134038Y-77759500D01*
X81134035Y-77759500D01*
X80885219Y-77798908D01*
X80645620Y-77876759D01*
X80421157Y-77991128D01*
X80264427Y-78104999D01*
X80217344Y-78139207D01*
X80080001Y-78276549D01*
X80025487Y-78304325D01*
X79965055Y-78294754D01*
X79939999Y-78276550D01*
X79802656Y-78139207D01*
X79598845Y-77991130D01*
X79598844Y-77991129D01*
X79598842Y-77991128D01*
X79374379Y-77876759D01*
X79134780Y-77798908D01*
X78885965Y-77759500D01*
X78885962Y-77759500D01*
X78634038Y-77759500D01*
X78634035Y-77759500D01*
X78385216Y-77798909D01*
X78361005Y-77806775D01*
X78299820Y-77806772D01*
X78260412Y-77782623D01*
X78027165Y-77549376D01*
X78027162Y-77549373D01*
X77971670Y-77512294D01*
X77887869Y-77456299D01*
X77887858Y-77456293D01*
X77773196Y-77408800D01*
X77733085Y-77392185D01*
X77733079Y-77392183D01*
X77568769Y-77359500D01*
X77568767Y-77359500D01*
X72079217Y-77359500D01*
X72021026Y-77340593D01*
X71985062Y-77291093D01*
X71982952Y-77237389D01*
X71995120Y-77186707D01*
X72021146Y-77078302D01*
X72040294Y-76835000D01*
X72021146Y-76591698D01*
X71964172Y-76354388D01*
X71964170Y-76354383D01*
X71964167Y-76354373D01*
X71870780Y-76128918D01*
X71870775Y-76128907D01*
X71743260Y-75920823D01*
X71743259Y-75920821D01*
X71743254Y-75920815D01*
X71584767Y-75735250D01*
X71584764Y-75735247D01*
X71584759Y-75735241D01*
X71584752Y-75735235D01*
X71584749Y-75735232D01*
X71399184Y-75576745D01*
X71399176Y-75576739D01*
X71191092Y-75449224D01*
X71191081Y-75449219D01*
X70965616Y-75355829D01*
X70965613Y-75355828D01*
X70728300Y-75298853D01*
X70485000Y-75279706D01*
X70241699Y-75298853D01*
X70004386Y-75355828D01*
X70004383Y-75355829D01*
X69778918Y-75449219D01*
X69778907Y-75449224D01*
X69570823Y-75576739D01*
X69570815Y-75576745D01*
X69385250Y-75735232D01*
X69385232Y-75735250D01*
X69226745Y-75920815D01*
X69226739Y-75920823D01*
X69108025Y-76114546D01*
X69061499Y-76154282D01*
X69000503Y-76159083D01*
X68953610Y-76132822D01*
X66720784Y-73899996D01*
X67494417Y-73899996D01*
X67494417Y-73900003D01*
X67514698Y-74105929D01*
X67514699Y-74105934D01*
X67574768Y-74303954D01*
X67672316Y-74486452D01*
X67744309Y-74574176D01*
X67803590Y-74646410D01*
X67803595Y-74646414D01*
X67963547Y-74777683D01*
X67963548Y-74777683D01*
X67963550Y-74777685D01*
X68146046Y-74875232D01*
X68266329Y-74911719D01*
X68344065Y-74935300D01*
X68344070Y-74935301D01*
X68549997Y-74955583D01*
X68550000Y-74955583D01*
X68550003Y-74955583D01*
X68755929Y-74935301D01*
X68755934Y-74935300D01*
X68953954Y-74875232D01*
X69136450Y-74777685D01*
X69296410Y-74646410D01*
X69427685Y-74486450D01*
X69525232Y-74303954D01*
X69585300Y-74105934D01*
X69585301Y-74105929D01*
X69605583Y-73900003D01*
X69605583Y-73899996D01*
X69585301Y-73694070D01*
X69585300Y-73694065D01*
X69574967Y-73660000D01*
X101949706Y-73660000D01*
X101968853Y-73903300D01*
X102025828Y-74140613D01*
X102025829Y-74140616D01*
X102119219Y-74366081D01*
X102119224Y-74366092D01*
X102246739Y-74574176D01*
X102246745Y-74574184D01*
X102365897Y-74713694D01*
X102405241Y-74759759D01*
X102405247Y-74759764D01*
X102405250Y-74759767D01*
X102590815Y-74918254D01*
X102590821Y-74918259D01*
X102618631Y-74935301D01*
X102798907Y-75045775D01*
X102798918Y-75045780D01*
X102886794Y-75082179D01*
X103024388Y-75139172D01*
X103261698Y-75196146D01*
X103505000Y-75215294D01*
X103748302Y-75196146D01*
X103985612Y-75139172D01*
X104211089Y-75045777D01*
X104419179Y-74918259D01*
X104604759Y-74759759D01*
X104763259Y-74574179D01*
X104890777Y-74366089D01*
X104984172Y-74140612D01*
X105041146Y-73903302D01*
X105060294Y-73660000D01*
X112109706Y-73660000D01*
X112128853Y-73903300D01*
X112185828Y-74140613D01*
X112185829Y-74140616D01*
X112279219Y-74366081D01*
X112279224Y-74366092D01*
X112406739Y-74574176D01*
X112406745Y-74574184D01*
X112525897Y-74713694D01*
X112565241Y-74759759D01*
X112565247Y-74759764D01*
X112565250Y-74759767D01*
X112750815Y-74918254D01*
X112750821Y-74918259D01*
X112778631Y-74935301D01*
X112958907Y-75045775D01*
X112958918Y-75045780D01*
X113046794Y-75082179D01*
X113184388Y-75139172D01*
X113421698Y-75196146D01*
X113665000Y-75215294D01*
X113908302Y-75196146D01*
X114145612Y-75139172D01*
X114371089Y-75045777D01*
X114579179Y-74918259D01*
X114764759Y-74759759D01*
X114923259Y-74574179D01*
X115050777Y-74366089D01*
X115144172Y-74140612D01*
X115201146Y-73903302D01*
X115220294Y-73660000D01*
X115201146Y-73416698D01*
X115144172Y-73179388D01*
X115122990Y-73128249D01*
X115050780Y-72953918D01*
X115050775Y-72953907D01*
X114929834Y-72756550D01*
X114923259Y-72745821D01*
X114923254Y-72745815D01*
X114764767Y-72560250D01*
X114764764Y-72560247D01*
X114764759Y-72560241D01*
X114764752Y-72560235D01*
X114764749Y-72560232D01*
X114579184Y-72401745D01*
X114579176Y-72401739D01*
X114371092Y-72274224D01*
X114371081Y-72274219D01*
X114145616Y-72180829D01*
X114145613Y-72180828D01*
X113908300Y-72123853D01*
X113665000Y-72104706D01*
X113421699Y-72123853D01*
X113184386Y-72180828D01*
X113184383Y-72180829D01*
X112958918Y-72274219D01*
X112958907Y-72274224D01*
X112750823Y-72401739D01*
X112750815Y-72401745D01*
X112565250Y-72560232D01*
X112565232Y-72560250D01*
X112406745Y-72745815D01*
X112406739Y-72745823D01*
X112279224Y-72953907D01*
X112279219Y-72953918D01*
X112185829Y-73179383D01*
X112185828Y-73179386D01*
X112128853Y-73416699D01*
X112109706Y-73660000D01*
X105060294Y-73660000D01*
X105041146Y-73416698D01*
X104984172Y-73179388D01*
X104962990Y-73128249D01*
X104890780Y-72953918D01*
X104890775Y-72953907D01*
X104769834Y-72756550D01*
X104763259Y-72745821D01*
X104763254Y-72745815D01*
X104604767Y-72560250D01*
X104604764Y-72560247D01*
X104604759Y-72560241D01*
X104604752Y-72560235D01*
X104604749Y-72560232D01*
X104419184Y-72401745D01*
X104419176Y-72401739D01*
X104211092Y-72274224D01*
X104211081Y-72274219D01*
X103985616Y-72180829D01*
X103985613Y-72180828D01*
X103748300Y-72123853D01*
X103505000Y-72104706D01*
X103261699Y-72123853D01*
X103024386Y-72180828D01*
X103024383Y-72180829D01*
X102798918Y-72274219D01*
X102798907Y-72274224D01*
X102590823Y-72401739D01*
X102590815Y-72401745D01*
X102405250Y-72560232D01*
X102405232Y-72560250D01*
X102246745Y-72745815D01*
X102246739Y-72745823D01*
X102119224Y-72953907D01*
X102119219Y-72953918D01*
X102025829Y-73179383D01*
X102025828Y-73179386D01*
X101968853Y-73416699D01*
X101949706Y-73660000D01*
X69574967Y-73660000D01*
X69549329Y-73575484D01*
X69525232Y-73496046D01*
X69427685Y-73313550D01*
X69427682Y-73313546D01*
X69427679Y-73313542D01*
X69422969Y-73307802D01*
X69400671Y-73250825D01*
X69400500Y-73245001D01*
X69400500Y-71014526D01*
X69419407Y-70956335D01*
X69468907Y-70920371D01*
X69530093Y-70920371D01*
X69569504Y-70944522D01*
X71735609Y-73110627D01*
X71791675Y-73148089D01*
X71874901Y-73203700D01*
X71874905Y-73203702D01*
X71874908Y-73203704D01*
X71984355Y-73249037D01*
X72029689Y-73267816D01*
X72194004Y-73300500D01*
X72194005Y-73300500D01*
X95908766Y-73300500D01*
X95908767Y-73300500D01*
X96073082Y-73267816D01*
X96118411Y-73249038D01*
X96118414Y-73249038D01*
X96178276Y-73224242D01*
X96227863Y-73203704D01*
X96367162Y-73110627D01*
X96462293Y-73015496D01*
X96516810Y-72987719D01*
X96532297Y-72986500D01*
X99397766Y-72986500D01*
X99397767Y-72986500D01*
X99562082Y-72953816D01*
X99618294Y-72930532D01*
X99716863Y-72889704D01*
X99856162Y-72796627D01*
X100969489Y-71683300D01*
X118351251Y-71683300D01*
X118949999Y-71683300D01*
X118950000Y-71683299D01*
X118950000Y-71232290D01*
X118949999Y-71232290D01*
X118852755Y-71263887D01*
X118852743Y-71263892D01*
X118698475Y-71342495D01*
X118698471Y-71342497D01*
X118558403Y-71444262D01*
X118435969Y-71566696D01*
X118351251Y-71683300D01*
X100969489Y-71683300D01*
X104800627Y-67852162D01*
X104893704Y-67712863D01*
X104957816Y-67558081D01*
X104970480Y-67494417D01*
X104990500Y-67393767D01*
X104990500Y-65546366D01*
X105009407Y-65488175D01*
X105037769Y-65461957D01*
X105083659Y-65433836D01*
X105275224Y-65270224D01*
X105438836Y-65078659D01*
X105478427Y-65014052D01*
X105524950Y-64974316D01*
X105585947Y-64969515D01*
X105638116Y-65001484D01*
X105639107Y-65002765D01*
X105639109Y-65002764D01*
X105641884Y-65006071D01*
X105808926Y-65173113D01*
X106002420Y-65308599D01*
X106002425Y-65308601D01*
X106029999Y-65321459D01*
X106030000Y-65321459D01*
X106030000Y-64069174D01*
X106180000Y-64069174D01*
X106180000Y-64200826D01*
X106214075Y-64327993D01*
X106279901Y-64442007D01*
X106372993Y-64535099D01*
X106487007Y-64600925D01*
X106614174Y-64635000D01*
X106745826Y-64635000D01*
X106872993Y-64600925D01*
X106987007Y-64535099D01*
X107080099Y-64442007D01*
X107145925Y-64327993D01*
X107180000Y-64200826D01*
X107180000Y-64069174D01*
X107145925Y-63942007D01*
X107080099Y-63827993D01*
X106987007Y-63734901D01*
X106872993Y-63669075D01*
X106745826Y-63635000D01*
X106614174Y-63635000D01*
X106487007Y-63669075D01*
X106372993Y-63734901D01*
X106279901Y-63827993D01*
X106214075Y-63942007D01*
X106180000Y-64069174D01*
X106030000Y-64069174D01*
X106030000Y-62948540D01*
X106029999Y-62948540D01*
X106002423Y-62961399D01*
X105808926Y-63096886D01*
X105641884Y-63263928D01*
X105639109Y-63267236D01*
X105637486Y-63265874D01*
X105595021Y-63297842D01*
X105533844Y-63298878D01*
X105483742Y-63263759D01*
X105478436Y-63255962D01*
X105438836Y-63191341D01*
X105388334Y-63132211D01*
X105275232Y-62999785D01*
X105275229Y-62999782D01*
X105275224Y-62999776D01*
X105275217Y-62999770D01*
X105275214Y-62999767D01*
X105083664Y-62836168D01*
X105083656Y-62836162D01*
X104942944Y-62749933D01*
X104903208Y-62703407D01*
X104898407Y-62642411D01*
X104930377Y-62590242D01*
X104950028Y-62578206D01*
X104949664Y-62577525D01*
X104983964Y-62559191D01*
X105057626Y-62519816D01*
X105117858Y-62509061D01*
X105158336Y-62526742D01*
X105159510Y-62524986D01*
X105163552Y-62527687D01*
X105346040Y-62625229D01*
X105346046Y-62625232D01*
X105469833Y-62662782D01*
X105544065Y-62685300D01*
X105544070Y-62685301D01*
X105749997Y-62705583D01*
X105750000Y-62705583D01*
X105750003Y-62705583D01*
X105955929Y-62685301D01*
X105955934Y-62685300D01*
X106153954Y-62625232D01*
X106336450Y-62527685D01*
X106496410Y-62396410D01*
X106627685Y-62236450D01*
X106725232Y-62053954D01*
X106785300Y-61855934D01*
X106785301Y-61855929D01*
X106805583Y-61650003D01*
X106805583Y-61649996D01*
X106785301Y-61444070D01*
X106785300Y-61444065D01*
X106767078Y-61383997D01*
X106725232Y-61246046D01*
X106627685Y-61063550D01*
X106619921Y-61054090D01*
X106496414Y-60903595D01*
X106496410Y-60903590D01*
X106482875Y-60892482D01*
X106336452Y-60772316D01*
X106153954Y-60674768D01*
X105955934Y-60614699D01*
X105955929Y-60614698D01*
X105750003Y-60594417D01*
X105749997Y-60594417D01*
X105544070Y-60614698D01*
X105544065Y-60614699D01*
X105346045Y-60674768D01*
X105346040Y-60674770D01*
X105242371Y-60730183D01*
X105182139Y-60740939D01*
X105141686Y-60723224D01*
X105140490Y-60725015D01*
X105136450Y-60722315D01*
X105077271Y-60690683D01*
X104953954Y-60624768D01*
X104905140Y-60609960D01*
X104854945Y-60574976D01*
X104834899Y-60517167D01*
X104849468Y-60463498D01*
X104890777Y-60396089D01*
X104984172Y-60170612D01*
X105041146Y-59933302D01*
X105060294Y-59690000D01*
X105041146Y-59446698D01*
X104984172Y-59209388D01*
X104944474Y-59113547D01*
X104890780Y-58983918D01*
X104890775Y-58983907D01*
X104763260Y-58775823D01*
X104763259Y-58775821D01*
X104763254Y-58775815D01*
X104757746Y-58769366D01*
X104734331Y-58712841D01*
X104748613Y-58653346D01*
X104795138Y-58613608D01*
X104856135Y-58608806D01*
X104861755Y-58610331D01*
X104899468Y-58621771D01*
X104944065Y-58635300D01*
X104944070Y-58635301D01*
X105149997Y-58655583D01*
X105150000Y-58655583D01*
X105150003Y-58655583D01*
X105355929Y-58635301D01*
X105355934Y-58635300D01*
X105553954Y-58575232D01*
X105736450Y-58477685D01*
X105896410Y-58346410D01*
X106027685Y-58186450D01*
X106125232Y-58003954D01*
X106185300Y-57805934D01*
X106185301Y-57805929D01*
X106205583Y-57600003D01*
X106205583Y-57599996D01*
X106185301Y-57394070D01*
X106185300Y-57394065D01*
X106154586Y-57292815D01*
X106125232Y-57196046D01*
X106027685Y-57013550D01*
X106027682Y-57013546D01*
X106027679Y-57013542D01*
X106022969Y-57007802D01*
X106000671Y-56950825D01*
X106000500Y-56945001D01*
X106000500Y-42304997D01*
X106019407Y-42246806D01*
X106022961Y-42242205D01*
X106027685Y-42236450D01*
X106125232Y-42053954D01*
X106185300Y-41855934D01*
X106185301Y-41855929D01*
X106205583Y-41650003D01*
X106205583Y-41649996D01*
X106185301Y-41444070D01*
X106185300Y-41444065D01*
X106167078Y-41383997D01*
X106125232Y-41246046D01*
X106027685Y-41063550D01*
X105982879Y-41008954D01*
X105896414Y-40903595D01*
X105896410Y-40903590D01*
X105783502Y-40810929D01*
X105736452Y-40772316D01*
X105553954Y-40674768D01*
X105355934Y-40614699D01*
X105355929Y-40614698D01*
X105150003Y-40594417D01*
X105149996Y-40594417D01*
X105091844Y-40600144D01*
X105032080Y-40587031D01*
X104991438Y-40541294D01*
X104985441Y-40480404D01*
X104985877Y-40478509D01*
X105041145Y-40248305D01*
X105041146Y-40248302D01*
X105060294Y-40005000D01*
X105041146Y-39761698D01*
X104984172Y-39524388D01*
X104984170Y-39524383D01*
X104890780Y-39298918D01*
X104890775Y-39298907D01*
X104805765Y-39160184D01*
X104763259Y-39090821D01*
X104652917Y-38961627D01*
X104604767Y-38905250D01*
X104604764Y-38905247D01*
X104604759Y-38905241D01*
X104604752Y-38905235D01*
X104604749Y-38905232D01*
X104419184Y-38746745D01*
X104419176Y-38746739D01*
X104211092Y-38619224D01*
X104211081Y-38619219D01*
X103985616Y-38525829D01*
X103985613Y-38525828D01*
X103748300Y-38468853D01*
X103505000Y-38449706D01*
X103261699Y-38468853D01*
X103024386Y-38525828D01*
X103024383Y-38525829D01*
X102798918Y-38619219D01*
X102798907Y-38619224D01*
X102590819Y-38746742D01*
X102566430Y-38767571D01*
X102509901Y-38790984D01*
X102450407Y-38776699D01*
X102425609Y-38755094D01*
X102346414Y-38658595D01*
X102346410Y-38658590D01*
X102343439Y-38656152D01*
X102186452Y-38527316D01*
X102003954Y-38429768D01*
X101805934Y-38369699D01*
X101805929Y-38369698D01*
X101600003Y-38349417D01*
X101599997Y-38349417D01*
X101394070Y-38369698D01*
X101394065Y-38369699D01*
X101196045Y-38429768D01*
X101013547Y-38527316D01*
X100853595Y-38658585D01*
X100853585Y-38658595D01*
X100722316Y-38818547D01*
X100624768Y-39001045D01*
X100564699Y-39199065D01*
X100564698Y-39199070D01*
X100544417Y-39404996D01*
X100544417Y-39405003D01*
X100564698Y-39610929D01*
X100564699Y-39610934D01*
X100624768Y-39808954D01*
X100624770Y-39808959D01*
X100704612Y-39958332D01*
X100715368Y-40018564D01*
X100704612Y-40051668D01*
X100624770Y-40201040D01*
X100624768Y-40201045D01*
X100564699Y-40399065D01*
X100564698Y-40399070D01*
X100544417Y-40604996D01*
X100544417Y-40605003D01*
X100564698Y-40810929D01*
X100564699Y-40810934D01*
X100624768Y-41008954D01*
X100722316Y-41191452D01*
X100852663Y-41350280D01*
X100853590Y-41351410D01*
X100853595Y-41351414D01*
X101013547Y-41482683D01*
X101013548Y-41482683D01*
X101013550Y-41482685D01*
X101196046Y-41580232D01*
X101333997Y-41622078D01*
X101394065Y-41640300D01*
X101394070Y-41640301D01*
X101599997Y-41660583D01*
X101600000Y-41660583D01*
X101600003Y-41660583D01*
X101805929Y-41640301D01*
X101805934Y-41640300D01*
X102003954Y-41580232D01*
X102186450Y-41482685D01*
X102346410Y-41351410D01*
X102425610Y-41254903D01*
X102477140Y-41221917D01*
X102538219Y-41225518D01*
X102566430Y-41242427D01*
X102590821Y-41263259D01*
X102647694Y-41298111D01*
X102798907Y-41390775D01*
X102798918Y-41390780D01*
X102930421Y-41445250D01*
X103024388Y-41484172D01*
X103261698Y-41541146D01*
X103505000Y-41560294D01*
X103748302Y-41541146D01*
X103978509Y-41485877D01*
X104039506Y-41490677D01*
X104086032Y-41530413D01*
X104100316Y-41589908D01*
X104100144Y-41591844D01*
X104094417Y-41649995D01*
X104094417Y-41650003D01*
X104114698Y-41855929D01*
X104114699Y-41855934D01*
X104174768Y-42053954D01*
X104259512Y-42212499D01*
X104272315Y-42236450D01*
X104277028Y-42242193D01*
X104299328Y-42299169D01*
X104299500Y-42304997D01*
X104299500Y-48112679D01*
X104280593Y-48170870D01*
X104231093Y-48206834D01*
X104169907Y-48206834D01*
X104162615Y-48204143D01*
X103985616Y-48130829D01*
X103985613Y-48130828D01*
X103748300Y-48073853D01*
X103505000Y-48054706D01*
X103261699Y-48073853D01*
X103024386Y-48130828D01*
X103024383Y-48130829D01*
X102798918Y-48224219D01*
X102798901Y-48224227D01*
X102623227Y-48331881D01*
X102563732Y-48346165D01*
X102507205Y-48322750D01*
X102475235Y-48270581D01*
X102472500Y-48247470D01*
X102472500Y-47533197D01*
X102491407Y-47475006D01*
X102494961Y-47470405D01*
X102499685Y-47464650D01*
X102597232Y-47282154D01*
X102657300Y-47084134D01*
X102657301Y-47084129D01*
X102677583Y-46878203D01*
X102677583Y-46878196D01*
X102657301Y-46672270D01*
X102657300Y-46672265D01*
X102639078Y-46612197D01*
X102597232Y-46474246D01*
X102499685Y-46291750D01*
X102495337Y-46286452D01*
X102368414Y-46131795D01*
X102368410Y-46131790D01*
X102302618Y-46077796D01*
X102208452Y-46000516D01*
X102025954Y-45902968D01*
X101827934Y-45842899D01*
X101827929Y-45842898D01*
X101622003Y-45822617D01*
X101621997Y-45822617D01*
X101416070Y-45842898D01*
X101416065Y-45842899D01*
X101218045Y-45902968D01*
X101035547Y-46000516D01*
X100875595Y-46131785D01*
X100875585Y-46131795D01*
X100744316Y-46291747D01*
X100646768Y-46474245D01*
X100586699Y-46672265D01*
X100586698Y-46672270D01*
X100566417Y-46878196D01*
X100566417Y-46878203D01*
X100586698Y-47084129D01*
X100586699Y-47084134D01*
X100646768Y-47282154D01*
X100716999Y-47413547D01*
X100744315Y-47464650D01*
X100749028Y-47470393D01*
X100771328Y-47527369D01*
X100771500Y-47533197D01*
X100771500Y-51883819D01*
X100759810Y-51930488D01*
X100724768Y-51996045D01*
X100664699Y-52194065D01*
X100664698Y-52194070D01*
X100644417Y-52399996D01*
X100644417Y-52400003D01*
X100664698Y-52605929D01*
X100664699Y-52605934D01*
X100724768Y-52803954D01*
X100822316Y-52986452D01*
X100945416Y-53136450D01*
X100953590Y-53146410D01*
X100953595Y-53146414D01*
X101113547Y-53277683D01*
X101113548Y-53277683D01*
X101113550Y-53277685D01*
X101296046Y-53375232D01*
X101433997Y-53417078D01*
X101494065Y-53435300D01*
X101494070Y-53435301D01*
X101699997Y-53455583D01*
X101700000Y-53455583D01*
X101700003Y-53455583D01*
X101905929Y-53435301D01*
X101905934Y-53435300D01*
X102103954Y-53375232D01*
X102286450Y-53277685D01*
X102446410Y-53146410D01*
X102577685Y-52986450D01*
X102675232Y-52803954D01*
X102735300Y-52605934D01*
X102735301Y-52605929D01*
X102755583Y-52400003D01*
X102755583Y-52399996D01*
X102735301Y-52194070D01*
X102735300Y-52194065D01*
X102710953Y-52113803D01*
X102675232Y-51996046D01*
X102577685Y-51813550D01*
X102575181Y-51810499D01*
X102496808Y-51715000D01*
X102494971Y-51712762D01*
X102472672Y-51655786D01*
X102472500Y-51649958D01*
X102472500Y-50972529D01*
X102491407Y-50914338D01*
X102540907Y-50878374D01*
X102602093Y-50878374D01*
X102623228Y-50888118D01*
X102798907Y-50995775D01*
X102798918Y-50995780D01*
X103024383Y-51089170D01*
X103024388Y-51089172D01*
X103261698Y-51146146D01*
X103505000Y-51165294D01*
X103748302Y-51146146D01*
X103985612Y-51089172D01*
X103985617Y-51089170D01*
X104162614Y-51015856D01*
X104223611Y-51011055D01*
X104275780Y-51043025D01*
X104299195Y-51099553D01*
X104299500Y-51107320D01*
X104299500Y-56945001D01*
X104280593Y-57003192D01*
X104277031Y-57007802D01*
X104272320Y-57013542D01*
X104272313Y-57013552D01*
X104174768Y-57196045D01*
X104114699Y-57394065D01*
X104114698Y-57394070D01*
X104094417Y-57599996D01*
X104094417Y-57600003D01*
X104114698Y-57805929D01*
X104114699Y-57805934D01*
X104132990Y-57866230D01*
X104174768Y-58003954D01*
X104201891Y-58054698D01*
X104240147Y-58126268D01*
X104250903Y-58186501D01*
X104224202Y-58241552D01*
X104170241Y-58270395D01*
X104114952Y-58264401D01*
X103985616Y-58210829D01*
X103985613Y-58210828D01*
X103748300Y-58153853D01*
X103505000Y-58134706D01*
X103261699Y-58153853D01*
X103024386Y-58210828D01*
X103024383Y-58210829D01*
X102798918Y-58304219D01*
X102798907Y-58304224D01*
X102590816Y-58431743D01*
X102589844Y-58432450D01*
X102589460Y-58432574D01*
X102587505Y-58433773D01*
X102587217Y-58433303D01*
X102531650Y-58451347D01*
X102473462Y-58432430D01*
X102455139Y-58415152D01*
X102398727Y-58346414D01*
X102396410Y-58343590D01*
X102348436Y-58304219D01*
X102236452Y-58212316D01*
X102053954Y-58114768D01*
X101855934Y-58054699D01*
X101855929Y-58054698D01*
X101650003Y-58034417D01*
X101649997Y-58034417D01*
X101444070Y-58054698D01*
X101444065Y-58054699D01*
X101246045Y-58114768D01*
X101063547Y-58212316D01*
X100903595Y-58343585D01*
X100903585Y-58343595D01*
X100772316Y-58503547D01*
X100674768Y-58686045D01*
X100614699Y-58884065D01*
X100614698Y-58884070D01*
X100594417Y-59089996D01*
X100594417Y-59090003D01*
X100614698Y-59295929D01*
X100614699Y-59295934D01*
X100674768Y-59493954D01*
X100730183Y-59597627D01*
X100740939Y-59657860D01*
X100723257Y-59698337D01*
X100725014Y-59699511D01*
X100722314Y-59703550D01*
X100624768Y-59886045D01*
X100564699Y-60084065D01*
X100564698Y-60084070D01*
X100544417Y-60289996D01*
X100544417Y-60290003D01*
X100564698Y-60495929D01*
X100564699Y-60495934D01*
X100605219Y-60629509D01*
X100604018Y-60690683D01*
X100567089Y-60739467D01*
X100557151Y-60745557D01*
X100413548Y-60822316D01*
X100413547Y-60822316D01*
X100253595Y-60953585D01*
X100253585Y-60953595D01*
X100122316Y-61113547D01*
X100024768Y-61296045D01*
X99964699Y-61494065D01*
X99964698Y-61494070D01*
X99944417Y-61699996D01*
X99944417Y-61700003D01*
X99964698Y-61905929D01*
X99964699Y-61905934D01*
X100024768Y-62103954D01*
X100122316Y-62286452D01*
X100248124Y-62439750D01*
X100253590Y-62446410D01*
X100271251Y-62460904D01*
X100413547Y-62577683D01*
X100413548Y-62577683D01*
X100413550Y-62577685D01*
X100596046Y-62675232D01*
X100606451Y-62678388D01*
X100656647Y-62713374D01*
X100676693Y-62771183D01*
X100658931Y-62829733D01*
X100642008Y-62848405D01*
X100464779Y-62999773D01*
X100464767Y-62999785D01*
X100301168Y-63191335D01*
X100301162Y-63191343D01*
X100261573Y-63255946D01*
X100215047Y-63295682D01*
X100154050Y-63300482D01*
X100101881Y-63268513D01*
X100100891Y-63267235D01*
X100100891Y-63267236D01*
X100098115Y-63263928D01*
X99931073Y-63096886D01*
X99737584Y-62961403D01*
X99737578Y-62961400D01*
X99710000Y-62948539D01*
X99710000Y-65321459D01*
X99737574Y-65308601D01*
X99737579Y-65308599D01*
X99931073Y-65173113D01*
X100098115Y-65006071D01*
X100100891Y-65002764D01*
X100102531Y-65004140D01*
X100144877Y-64972193D01*
X100206053Y-64971090D01*
X100256193Y-65006156D01*
X100261573Y-65014053D01*
X100301162Y-65078656D01*
X100301168Y-65078664D01*
X100441570Y-65243054D01*
X100464776Y-65270224D01*
X100464782Y-65270229D01*
X100464785Y-65270232D01*
X100656335Y-65433831D01*
X100656341Y-65433836D01*
X100702228Y-65461956D01*
X100741964Y-65508479D01*
X100749500Y-65546366D01*
X100749500Y-68440703D01*
X100730593Y-68498894D01*
X100720504Y-68510707D01*
X98482707Y-70748504D01*
X98428190Y-70776281D01*
X98412703Y-70777500D01*
X94008230Y-70777500D01*
X93843920Y-70810183D01*
X93843914Y-70810185D01*
X93689137Y-70874296D01*
X93549838Y-70967374D01*
X93549834Y-70967377D01*
X93546708Y-70970504D01*
X93492191Y-70998281D01*
X93476704Y-70999500D01*
X89263489Y-70999500D01*
X89205298Y-70980593D01*
X89169334Y-70931093D01*
X89169334Y-70869907D01*
X89205298Y-70820407D01*
X89216820Y-70813190D01*
X89222442Y-70810185D01*
X89252750Y-70793985D01*
X89412710Y-70662710D01*
X89543985Y-70502750D01*
X89641532Y-70320254D01*
X89701600Y-70122234D01*
X89701601Y-70122229D01*
X89721883Y-69916303D01*
X89721883Y-69916296D01*
X89701601Y-69710370D01*
X89701600Y-69710365D01*
X89671331Y-69610581D01*
X89641532Y-69512346D01*
X89543985Y-69329850D01*
X89543982Y-69329846D01*
X89543979Y-69329842D01*
X89539269Y-69324102D01*
X89516971Y-69267125D01*
X89516800Y-69261301D01*
X89516800Y-68982534D01*
X89516799Y-68982530D01*
X89515739Y-68977203D01*
X89484116Y-68818218D01*
X89420003Y-68663437D01*
X89326926Y-68524138D01*
X89214547Y-68411759D01*
X89186770Y-68357242D01*
X89186029Y-68351470D01*
X89185300Y-68344066D01*
X89125232Y-68146046D01*
X89027685Y-67963550D01*
X88896410Y-67803590D01*
X88847392Y-67763362D01*
X88736452Y-67672316D01*
X88553954Y-67574768D01*
X88355934Y-67514699D01*
X88355929Y-67514698D01*
X88150003Y-67494417D01*
X88149997Y-67494417D01*
X87944070Y-67514698D01*
X87944065Y-67514699D01*
X87746045Y-67574768D01*
X87563547Y-67672316D01*
X87403595Y-67803585D01*
X87403585Y-67803595D01*
X87272316Y-67963547D01*
X87174768Y-68146045D01*
X87114699Y-68344065D01*
X87114698Y-68344070D01*
X87094417Y-68549996D01*
X87094417Y-68550003D01*
X87114698Y-68755929D01*
X87114699Y-68755934D01*
X87174768Y-68953954D01*
X87272316Y-69136452D01*
X87403585Y-69296404D01*
X87403590Y-69296410D01*
X87563550Y-69427685D01*
X87623722Y-69459848D01*
X87666128Y-69503952D01*
X87674511Y-69564561D01*
X87671790Y-69575894D01*
X87631000Y-69710362D01*
X87630998Y-69710370D01*
X87610717Y-69916296D01*
X87610717Y-69916303D01*
X87630998Y-70122229D01*
X87630999Y-70122234D01*
X87691068Y-70320254D01*
X87788616Y-70502752D01*
X87839612Y-70564891D01*
X87919890Y-70662710D01*
X87919895Y-70662714D01*
X88079847Y-70793983D01*
X88079848Y-70793983D01*
X88079850Y-70793985D01*
X88110154Y-70810183D01*
X88115780Y-70813190D01*
X88158186Y-70857296D01*
X88166569Y-70917905D01*
X88137726Y-70971865D01*
X88082674Y-70998566D01*
X88069111Y-70999500D01*
X85571976Y-70999500D01*
X85513785Y-70980593D01*
X85477821Y-70931093D01*
X85477821Y-70869907D01*
X85501970Y-70830498D01*
X85630426Y-70702043D01*
X85762955Y-70512772D01*
X85860604Y-70303363D01*
X85920406Y-70080178D01*
X85922193Y-70059759D01*
X85940544Y-69850003D01*
X85940544Y-69849996D01*
X85920407Y-69619829D01*
X85920406Y-69619826D01*
X85920406Y-69619822D01*
X85860604Y-69396637D01*
X85762955Y-69187228D01*
X85630426Y-68997957D01*
X85467043Y-68834574D01*
X85467039Y-68834571D01*
X85467038Y-68834570D01*
X85301892Y-68718934D01*
X85277772Y-68702045D01*
X85208460Y-68669724D01*
X85163713Y-68627996D01*
X85152038Y-68567935D01*
X85177896Y-68512482D01*
X85208460Y-68490275D01*
X85277772Y-68457955D01*
X85467043Y-68325426D01*
X85630426Y-68162043D01*
X85762955Y-67972772D01*
X85860604Y-67763363D01*
X85920406Y-67540178D01*
X85922636Y-67514698D01*
X85940544Y-67310003D01*
X85940544Y-67309996D01*
X85920407Y-67079829D01*
X85920406Y-67079826D01*
X85920406Y-67079822D01*
X85860604Y-66856637D01*
X85762955Y-66647228D01*
X85630426Y-66457957D01*
X85467043Y-66294574D01*
X85467039Y-66294571D01*
X85467038Y-66294570D01*
X85286609Y-66168233D01*
X85277772Y-66162045D01*
X85068363Y-66064396D01*
X84853993Y-66006956D01*
X84802681Y-65973633D01*
X84780754Y-65916511D01*
X84796590Y-65857411D01*
X84844139Y-65818906D01*
X84850879Y-65816593D01*
X84854416Y-65815519D01*
X84281952Y-65243054D01*
X84254175Y-65188537D01*
X84263746Y-65128105D01*
X84281953Y-65103046D01*
X84353369Y-65031629D01*
X84387814Y-65066074D01*
X84472185Y-65114785D01*
X84566289Y-65140000D01*
X84663711Y-65140000D01*
X84757815Y-65114785D01*
X84842186Y-65066074D01*
X84911074Y-64997186D01*
X84959785Y-64912815D01*
X84985000Y-64818711D01*
X84985000Y-64770000D01*
X85421101Y-64770000D01*
X85660519Y-65009417D01*
X85669519Y-64979752D01*
X85690177Y-64770003D01*
X85690177Y-64769996D01*
X85669519Y-64560248D01*
X85669518Y-64560245D01*
X85660520Y-64530581D01*
X85421101Y-64770000D01*
X84985000Y-64770000D01*
X84985000Y-64721289D01*
X84959785Y-64627185D01*
X84911074Y-64542814D01*
X84842186Y-64473926D01*
X84757815Y-64425215D01*
X84663711Y-64400000D01*
X84566289Y-64400000D01*
X84472185Y-64425215D01*
X84387814Y-64473926D01*
X84353369Y-64508370D01*
X84281952Y-64436953D01*
X84254175Y-64382436D01*
X84263746Y-64322004D01*
X84281952Y-64296945D01*
X84443897Y-64135000D01*
X94914551Y-64135000D01*
X94934316Y-64386146D01*
X94993127Y-64631113D01*
X95089532Y-64863856D01*
X95089535Y-64863862D01*
X95221162Y-65078656D01*
X95221168Y-65078664D01*
X95361570Y-65243054D01*
X95384776Y-65270224D01*
X95384782Y-65270229D01*
X95384785Y-65270232D01*
X95576335Y-65433831D01*
X95576341Y-65433836D01*
X95576343Y-65433837D01*
X95791137Y-65565464D01*
X95791143Y-65565467D01*
X95855113Y-65591964D01*
X95927730Y-65622043D01*
X96023887Y-65661872D01*
X96023889Y-65661873D01*
X96268852Y-65720683D01*
X96520000Y-65740449D01*
X96771148Y-65720683D01*
X97016111Y-65661873D01*
X97248859Y-65565466D01*
X97463659Y-65433836D01*
X97655224Y-65270224D01*
X97818836Y-65078659D01*
X97858427Y-65014052D01*
X97904950Y-64974316D01*
X97965947Y-64969515D01*
X98018116Y-65001484D01*
X98019107Y-65002765D01*
X98019109Y-65002764D01*
X98021884Y-65006071D01*
X98188926Y-65173113D01*
X98382420Y-65308599D01*
X98382425Y-65308601D01*
X98409999Y-65321459D01*
X98410000Y-65321459D01*
X98410000Y-64069174D01*
X98560000Y-64069174D01*
X98560000Y-64200826D01*
X98594075Y-64327993D01*
X98659901Y-64442007D01*
X98752993Y-64535099D01*
X98867007Y-64600925D01*
X98994174Y-64635000D01*
X99125826Y-64635000D01*
X99252993Y-64600925D01*
X99367007Y-64535099D01*
X99460099Y-64442007D01*
X99525925Y-64327993D01*
X99560000Y-64200826D01*
X99560000Y-64069174D01*
X99525925Y-63942007D01*
X99460099Y-63827993D01*
X99367007Y-63734901D01*
X99252993Y-63669075D01*
X99125826Y-63635000D01*
X98994174Y-63635000D01*
X98867007Y-63669075D01*
X98752993Y-63734901D01*
X98659901Y-63827993D01*
X98594075Y-63942007D01*
X98560000Y-64069174D01*
X98410000Y-64069174D01*
X98410000Y-62948540D01*
X98409999Y-62948540D01*
X98382423Y-62961399D01*
X98188926Y-63096886D01*
X98021884Y-63263928D01*
X98019109Y-63267236D01*
X98017486Y-63265874D01*
X97975021Y-63297842D01*
X97913844Y-63298878D01*
X97863742Y-63263759D01*
X97858436Y-63255962D01*
X97818836Y-63191341D01*
X97768334Y-63132211D01*
X97655232Y-62999785D01*
X97655229Y-62999782D01*
X97655224Y-62999776D01*
X97655217Y-62999770D01*
X97655214Y-62999767D01*
X97463664Y-62836168D01*
X97463656Y-62836162D01*
X97248862Y-62704535D01*
X97248856Y-62704532D01*
X97016112Y-62608127D01*
X97016113Y-62608127D01*
X96771146Y-62549316D01*
X96520000Y-62529551D01*
X96268853Y-62549316D01*
X96023886Y-62608127D01*
X95791143Y-62704532D01*
X95791137Y-62704535D01*
X95576343Y-62836162D01*
X95576335Y-62836168D01*
X95384785Y-62999767D01*
X95384767Y-62999785D01*
X95221168Y-63191335D01*
X95221162Y-63191343D01*
X95089535Y-63406137D01*
X95089532Y-63406143D01*
X94993127Y-63638886D01*
X94934316Y-63883853D01*
X94914551Y-64135000D01*
X84443897Y-64135000D01*
X84854417Y-63724479D01*
X84854417Y-63724478D01*
X84850882Y-63723406D01*
X84800685Y-63688422D01*
X84780638Y-63630614D01*
X84798399Y-63572063D01*
X84847183Y-63535134D01*
X84853964Y-63533051D01*
X85068363Y-63475604D01*
X85277772Y-63377955D01*
X85467043Y-63245426D01*
X85630426Y-63082043D01*
X85762955Y-62892772D01*
X85860604Y-62683363D01*
X85920406Y-62460178D01*
X85921297Y-62450000D01*
X85921297Y-62449996D01*
X88344417Y-62449996D01*
X88344417Y-62450003D01*
X88364698Y-62655929D01*
X88364699Y-62655934D01*
X88424768Y-62853954D01*
X88522316Y-63036452D01*
X88649425Y-63191335D01*
X88653590Y-63196410D01*
X88653595Y-63196414D01*
X88813547Y-63327683D01*
X88813548Y-63327683D01*
X88813550Y-63327685D01*
X88996046Y-63425232D01*
X89125807Y-63464594D01*
X89194065Y-63485300D01*
X89194070Y-63485301D01*
X89399997Y-63505583D01*
X89400000Y-63505583D01*
X89400003Y-63505583D01*
X89605929Y-63485301D01*
X89605934Y-63485300D01*
X89618174Y-63481587D01*
X89803954Y-63425232D01*
X89986450Y-63327685D01*
X90146410Y-63196410D01*
X90277685Y-63036450D01*
X90375232Y-62853954D01*
X90435300Y-62655934D01*
X90436027Y-62648545D01*
X90460543Y-62592488D01*
X90464530Y-62588257D01*
X92473292Y-60579496D01*
X92527809Y-60551719D01*
X92543296Y-60550500D01*
X93045003Y-60550500D01*
X93103194Y-60569407D01*
X93107794Y-60572961D01*
X93113550Y-60577685D01*
X93296046Y-60675232D01*
X93433997Y-60717078D01*
X93494065Y-60735300D01*
X93494070Y-60735301D01*
X93699997Y-60755583D01*
X93700000Y-60755583D01*
X93700003Y-60755583D01*
X93905929Y-60735301D01*
X93905934Y-60735300D01*
X94103954Y-60675232D01*
X94286450Y-60577685D01*
X94446410Y-60446410D01*
X94577685Y-60286450D01*
X94675232Y-60103954D01*
X94735300Y-59905934D01*
X94735301Y-59905929D01*
X94755583Y-59700003D01*
X94755583Y-59699996D01*
X94735301Y-59494070D01*
X94735300Y-59494065D01*
X94706765Y-59399999D01*
X94675232Y-59296046D01*
X94577685Y-59113550D01*
X94558358Y-59090000D01*
X94446414Y-58953595D01*
X94446410Y-58953590D01*
X94440505Y-58948744D01*
X94286452Y-58822316D01*
X94103954Y-58724768D01*
X93905934Y-58664699D01*
X93905929Y-58664698D01*
X93700003Y-58644417D01*
X93699997Y-58644417D01*
X93494070Y-58664698D01*
X93494065Y-58664699D01*
X93296045Y-58724768D01*
X93113550Y-58822314D01*
X93110090Y-58825154D01*
X93107806Y-58827028D01*
X93050831Y-58849328D01*
X93045003Y-58849500D01*
X92066230Y-58849500D01*
X91901920Y-58882183D01*
X91901914Y-58882185D01*
X91747137Y-58946296D01*
X91607838Y-59039374D01*
X91607834Y-59039377D01*
X89261757Y-61385452D01*
X89207240Y-61413229D01*
X89201467Y-61413970D01*
X89194075Y-61414698D01*
X89194058Y-61414702D01*
X88996045Y-61474768D01*
X88813547Y-61572316D01*
X88653595Y-61703585D01*
X88653585Y-61703595D01*
X88522316Y-61863547D01*
X88424768Y-62046045D01*
X88364699Y-62244065D01*
X88364698Y-62244070D01*
X88344417Y-62449996D01*
X85921297Y-62449996D01*
X85940544Y-62230003D01*
X85940544Y-62229996D01*
X85920407Y-61999829D01*
X85920406Y-61999826D01*
X85920406Y-61999822D01*
X85860604Y-61776637D01*
X85762955Y-61567228D01*
X85630426Y-61377957D01*
X85467043Y-61214574D01*
X85467039Y-61214571D01*
X85467038Y-61214570D01*
X85322766Y-61113550D01*
X85277772Y-61082045D01*
X85208460Y-61049724D01*
X85163713Y-61007996D01*
X85152038Y-60947935D01*
X85177896Y-60892482D01*
X85208460Y-60870275D01*
X85277772Y-60837955D01*
X85467043Y-60705426D01*
X85630426Y-60542043D01*
X85762955Y-60352772D01*
X85860604Y-60143363D01*
X85920406Y-59920178D01*
X85921915Y-59902939D01*
X85940544Y-59690003D01*
X85940544Y-59689996D01*
X85920407Y-59459829D01*
X85920406Y-59459826D01*
X85920406Y-59459822D01*
X85860604Y-59236637D01*
X85762955Y-59027228D01*
X85659777Y-58879874D01*
X85630429Y-58837961D01*
X85630428Y-58837960D01*
X85630426Y-58837957D01*
X85467043Y-58674574D01*
X85467039Y-58674571D01*
X85467038Y-58674570D01*
X85325168Y-58575232D01*
X85277772Y-58542045D01*
X85068363Y-58444396D01*
X84853993Y-58386956D01*
X84802681Y-58353633D01*
X84780754Y-58296511D01*
X84796590Y-58237411D01*
X84844139Y-58198906D01*
X84850879Y-58196593D01*
X84854416Y-58195519D01*
X84281952Y-57623054D01*
X84254175Y-57568537D01*
X84263746Y-57508105D01*
X84281953Y-57483046D01*
X84353369Y-57411629D01*
X84387814Y-57446074D01*
X84472185Y-57494785D01*
X84566289Y-57520000D01*
X84663711Y-57520000D01*
X84757815Y-57494785D01*
X84842186Y-57446074D01*
X84911074Y-57377186D01*
X84959785Y-57292815D01*
X84985000Y-57198711D01*
X84985000Y-57150000D01*
X85421101Y-57150000D01*
X85660519Y-57389417D01*
X85669519Y-57359752D01*
X85690177Y-57150003D01*
X85690177Y-57149996D01*
X85669519Y-56940248D01*
X85669518Y-56940245D01*
X85660520Y-56910581D01*
X85421101Y-57150000D01*
X84985000Y-57150000D01*
X84985000Y-57101289D01*
X84959785Y-57007185D01*
X84911074Y-56922814D01*
X84842186Y-56853926D01*
X84757815Y-56805215D01*
X84663711Y-56780000D01*
X84566289Y-56780000D01*
X84472185Y-56805215D01*
X84387814Y-56853926D01*
X84353369Y-56888370D01*
X84281952Y-56816953D01*
X84254175Y-56762436D01*
X84263746Y-56702004D01*
X84281952Y-56676945D01*
X84854417Y-56104479D01*
X84854417Y-56104478D01*
X84850882Y-56103406D01*
X84800685Y-56068422D01*
X84780638Y-56010614D01*
X84798399Y-55952063D01*
X84847183Y-55915134D01*
X84853964Y-55913051D01*
X85068363Y-55855604D01*
X85277772Y-55757955D01*
X85467043Y-55625426D01*
X85630426Y-55462043D01*
X85762955Y-55272772D01*
X85860604Y-55063363D01*
X85920406Y-54840178D01*
X85928050Y-54752815D01*
X85940544Y-54610003D01*
X85940544Y-54609996D01*
X85920407Y-54379829D01*
X85920406Y-54379826D01*
X85920406Y-54379822D01*
X85860604Y-54156637D01*
X85762955Y-53947228D01*
X85630426Y-53757957D01*
X85595456Y-53722987D01*
X85494496Y-53622026D01*
X85466719Y-53567510D01*
X85465500Y-53552023D01*
X85465500Y-48290501D01*
X85477190Y-48243832D01*
X85525232Y-48153954D01*
X85585300Y-47955934D01*
X85585301Y-47955929D01*
X85605583Y-47750003D01*
X85605583Y-47749996D01*
X85585301Y-47544070D01*
X85585300Y-47544065D01*
X85564351Y-47475006D01*
X85525232Y-47346046D01*
X85427685Y-47163550D01*
X85393845Y-47122316D01*
X85296414Y-47003595D01*
X85296410Y-47003590D01*
X85235491Y-46953595D01*
X85136452Y-46872316D01*
X84953954Y-46774768D01*
X84755934Y-46714699D01*
X84755929Y-46714698D01*
X84550003Y-46694417D01*
X84549997Y-46694417D01*
X84344070Y-46714698D01*
X84344065Y-46714699D01*
X84146045Y-46774768D01*
X84146040Y-46774770D01*
X84096768Y-46801107D01*
X84036536Y-46811863D01*
X83981484Y-46785161D01*
X83952642Y-46731201D01*
X83951100Y-46713797D01*
X83951100Y-46242297D01*
X83970007Y-46184106D01*
X83980096Y-46172293D01*
X84486162Y-45666227D01*
X85115627Y-45036762D01*
X85208704Y-44897463D01*
X85221481Y-44866613D01*
X85265118Y-44761266D01*
X85265119Y-44761262D01*
X85272816Y-44742682D01*
X85305500Y-44578367D01*
X85305500Y-43897723D01*
X85324407Y-43839532D01*
X85352771Y-43813313D01*
X85369179Y-43803259D01*
X85554759Y-43644759D01*
X85713259Y-43459179D01*
X85840777Y-43251089D01*
X85934172Y-43025612D01*
X85991146Y-42788302D01*
X86010294Y-42545000D01*
X85991146Y-42301698D01*
X85934172Y-42064388D01*
X85922883Y-42037133D01*
X85840780Y-41838918D01*
X85840775Y-41838907D01*
X85719068Y-41640300D01*
X85713259Y-41630821D01*
X85676242Y-41587479D01*
X85554767Y-41445250D01*
X85554764Y-41445247D01*
X85554759Y-41445241D01*
X85554752Y-41445235D01*
X85554749Y-41445232D01*
X85443574Y-41350280D01*
X85411604Y-41298111D01*
X85416405Y-41237114D01*
X85443574Y-41199720D01*
X85515189Y-41138555D01*
X85554759Y-41104759D01*
X85713259Y-40919179D01*
X85840777Y-40711089D01*
X85934172Y-40485612D01*
X85991146Y-40248302D01*
X86010294Y-40005000D01*
X85991146Y-39761698D01*
X85986654Y-39742987D01*
X85991455Y-39681990D01*
X86012912Y-39649875D01*
X91001293Y-34661496D01*
X91055810Y-34633719D01*
X91071297Y-34632500D01*
X95655573Y-34632500D01*
X95713764Y-34651407D01*
X95749728Y-34700907D01*
X95749728Y-34762093D01*
X95713764Y-34811593D01*
X95707301Y-34815911D01*
X95576343Y-34896162D01*
X95576335Y-34896168D01*
X95384785Y-35059767D01*
X95384767Y-35059785D01*
X95221168Y-35251335D01*
X95221162Y-35251343D01*
X95089535Y-35466137D01*
X95089532Y-35466143D01*
X94993127Y-35698886D01*
X94934316Y-35943853D01*
X94914551Y-36195000D01*
X94934316Y-36446146D01*
X94993127Y-36691113D01*
X95089532Y-36923856D01*
X95089535Y-36923862D01*
X95221162Y-37138656D01*
X95221168Y-37138664D01*
X95375587Y-37319466D01*
X95384776Y-37330224D01*
X95384782Y-37330229D01*
X95384785Y-37330232D01*
X95576335Y-37493831D01*
X95576341Y-37493836D01*
X95576343Y-37493837D01*
X95791137Y-37625464D01*
X95791143Y-37625467D01*
X95820710Y-37637714D01*
X96009157Y-37715771D01*
X96023887Y-37721872D01*
X96023889Y-37721873D01*
X96268852Y-37780683D01*
X96520000Y-37800449D01*
X96771148Y-37780683D01*
X97016111Y-37721873D01*
X97248859Y-37625466D01*
X97463659Y-37493836D01*
X97655224Y-37330224D01*
X97818836Y-37138659D01*
X97858427Y-37074052D01*
X97904950Y-37034316D01*
X97965947Y-37029515D01*
X98018116Y-37061484D01*
X98019107Y-37062765D01*
X98019109Y-37062764D01*
X98021884Y-37066071D01*
X98188926Y-37233113D01*
X98382420Y-37368599D01*
X98382425Y-37368601D01*
X98409999Y-37381459D01*
X98410000Y-37381459D01*
X98410000Y-36129174D01*
X98560000Y-36129174D01*
X98560000Y-36260826D01*
X98594075Y-36387993D01*
X98659901Y-36502007D01*
X98752993Y-36595099D01*
X98867007Y-36660925D01*
X98994174Y-36695000D01*
X99125826Y-36695000D01*
X99252993Y-36660925D01*
X99367007Y-36595099D01*
X99460099Y-36502007D01*
X99525925Y-36387993D01*
X99560000Y-36260826D01*
X99560000Y-36129174D01*
X99525925Y-36002007D01*
X99460099Y-35887993D01*
X99367007Y-35794901D01*
X99252993Y-35729075D01*
X99125826Y-35695000D01*
X98994174Y-35695000D01*
X98867007Y-35729075D01*
X98752993Y-35794901D01*
X98659901Y-35887993D01*
X98594075Y-36002007D01*
X98560000Y-36129174D01*
X98410000Y-36129174D01*
X98410000Y-35008540D01*
X98409999Y-35008540D01*
X98382423Y-35021399D01*
X98188926Y-35156886D01*
X98021884Y-35323928D01*
X98019109Y-35327236D01*
X98017486Y-35325874D01*
X97975021Y-35357842D01*
X97913844Y-35358878D01*
X97863742Y-35323759D01*
X97858436Y-35315962D01*
X97818836Y-35251341D01*
X97768334Y-35192211D01*
X97655232Y-35059785D01*
X97655229Y-35059782D01*
X97655224Y-35059776D01*
X97655217Y-35059770D01*
X97655214Y-35059767D01*
X97463664Y-34896168D01*
X97463656Y-34896162D01*
X97332699Y-34815911D01*
X97292963Y-34769385D01*
X97288162Y-34708389D01*
X97320132Y-34656220D01*
X97376660Y-34632805D01*
X97384427Y-34632500D01*
X100735573Y-34632500D01*
X100793764Y-34651407D01*
X100829728Y-34700907D01*
X100829728Y-34762093D01*
X100793764Y-34811593D01*
X100787301Y-34815911D01*
X100656343Y-34896162D01*
X100656335Y-34896168D01*
X100464785Y-35059767D01*
X100464767Y-35059785D01*
X100301168Y-35251335D01*
X100301162Y-35251343D01*
X100261573Y-35315946D01*
X100215047Y-35355682D01*
X100154050Y-35360482D01*
X100101881Y-35328513D01*
X100100891Y-35327235D01*
X100100891Y-35327236D01*
X100098115Y-35323928D01*
X99931073Y-35156886D01*
X99737584Y-35021403D01*
X99737578Y-35021400D01*
X99710000Y-35008539D01*
X99710000Y-37381459D01*
X99737574Y-37368601D01*
X99737579Y-37368599D01*
X99931073Y-37233113D01*
X100098115Y-37066071D01*
X100100891Y-37062764D01*
X100102531Y-37064140D01*
X100144877Y-37032193D01*
X100206053Y-37031090D01*
X100256193Y-37066156D01*
X100261573Y-37074053D01*
X100301162Y-37138656D01*
X100301168Y-37138664D01*
X100455587Y-37319466D01*
X100464776Y-37330224D01*
X100464782Y-37330229D01*
X100464785Y-37330232D01*
X100656335Y-37493831D01*
X100656341Y-37493836D01*
X100656343Y-37493837D01*
X100871137Y-37625464D01*
X100871143Y-37625467D01*
X100900710Y-37637714D01*
X101089157Y-37715771D01*
X101103887Y-37721872D01*
X101103889Y-37721873D01*
X101348852Y-37780683D01*
X101600000Y-37800449D01*
X101851148Y-37780683D01*
X102096111Y-37721873D01*
X102328859Y-37625466D01*
X102543659Y-37493836D01*
X102735224Y-37330224D01*
X102794720Y-37260563D01*
X102846889Y-37228593D01*
X102907885Y-37233394D01*
X102945280Y-37260563D01*
X102995587Y-37319466D01*
X103004776Y-37330224D01*
X103004782Y-37330229D01*
X103004785Y-37330232D01*
X103196335Y-37493831D01*
X103196341Y-37493836D01*
X103196343Y-37493837D01*
X103411137Y-37625464D01*
X103411143Y-37625467D01*
X103440710Y-37637714D01*
X103629157Y-37715771D01*
X103643887Y-37721872D01*
X103643889Y-37721873D01*
X103888852Y-37780683D01*
X104140000Y-37800449D01*
X104391148Y-37780683D01*
X104636111Y-37721873D01*
X104868859Y-37625466D01*
X105083659Y-37493836D01*
X105275224Y-37330224D01*
X105438836Y-37138659D01*
X105478427Y-37074052D01*
X105524950Y-37034316D01*
X105585947Y-37029515D01*
X105638116Y-37061484D01*
X105639107Y-37062765D01*
X105639109Y-37062764D01*
X105641884Y-37066071D01*
X105808926Y-37233113D01*
X106002420Y-37368599D01*
X106002425Y-37368601D01*
X106029999Y-37381459D01*
X106030000Y-37381459D01*
X106030000Y-36129174D01*
X106180000Y-36129174D01*
X106180000Y-36260826D01*
X106214075Y-36387993D01*
X106279901Y-36502007D01*
X106372993Y-36595099D01*
X106487007Y-36660925D01*
X106614174Y-36695000D01*
X106745826Y-36695000D01*
X106872993Y-36660925D01*
X106987007Y-36595099D01*
X107080099Y-36502007D01*
X107145925Y-36387993D01*
X107180000Y-36260826D01*
X107180000Y-36129174D01*
X107145925Y-36002007D01*
X107080099Y-35887993D01*
X106987007Y-35794901D01*
X106872993Y-35729075D01*
X106745826Y-35695000D01*
X106614174Y-35695000D01*
X106487007Y-35729075D01*
X106372993Y-35794901D01*
X106279901Y-35887993D01*
X106214075Y-36002007D01*
X106180000Y-36129174D01*
X106030000Y-36129174D01*
X106030000Y-35008540D01*
X106002423Y-35021399D01*
X105808926Y-35156886D01*
X105641884Y-35323928D01*
X105639109Y-35327236D01*
X105637486Y-35325874D01*
X105595021Y-35357842D01*
X105533844Y-35358878D01*
X105483742Y-35323759D01*
X105478436Y-35315962D01*
X105438836Y-35251341D01*
X105388334Y-35192211D01*
X105275232Y-35059785D01*
X105275229Y-35059782D01*
X105275224Y-35059776D01*
X105275217Y-35059770D01*
X105275214Y-35059767D01*
X105083664Y-34896168D01*
X105083656Y-34896162D01*
X104952699Y-34815911D01*
X104912963Y-34769385D01*
X104908162Y-34708389D01*
X104940132Y-34656220D01*
X104996660Y-34632805D01*
X105004427Y-34632500D01*
X106746500Y-34632500D01*
X106804691Y-34651407D01*
X106840655Y-34700907D01*
X106845500Y-34731500D01*
X106845500Y-34754769D01*
X106873625Y-34896164D01*
X106873625Y-34896165D01*
X106873624Y-34896165D01*
X106878182Y-34919075D01*
X106878183Y-34919081D01*
X106942293Y-35073858D01*
X106942299Y-35073870D01*
X107035374Y-35213164D01*
X107115196Y-35292985D01*
X107301003Y-35478792D01*
X107328781Y-35533308D01*
X107330000Y-35548795D01*
X107330000Y-37381459D01*
X107357574Y-37368601D01*
X107357579Y-37368599D01*
X107515705Y-37257878D01*
X107574217Y-37239989D01*
X107632069Y-37259909D01*
X107666463Y-37307833D01*
X107667382Y-37310606D01*
X107685187Y-37364336D01*
X107777285Y-37513652D01*
X107777286Y-37513653D01*
X107777288Y-37513656D01*
X107901344Y-37637712D01*
X108050666Y-37729814D01*
X108217203Y-37784999D01*
X108246534Y-37787995D01*
X108280561Y-37791472D01*
X108336529Y-37816195D01*
X108367276Y-37869094D01*
X108369500Y-37889959D01*
X108369500Y-62440041D01*
X108350593Y-62498232D01*
X108301093Y-62534196D01*
X108280562Y-62538528D01*
X108217210Y-62545000D01*
X108217206Y-62545000D01*
X108217203Y-62545001D01*
X108217201Y-62545001D01*
X108217199Y-62545002D01*
X108050663Y-62600187D01*
X107901347Y-62692285D01*
X107777285Y-62816347D01*
X107685187Y-62965662D01*
X107666464Y-63022166D01*
X107630212Y-63071455D01*
X107571912Y-63090023D01*
X107515705Y-63072121D01*
X107357584Y-62961403D01*
X107357578Y-62961400D01*
X107330000Y-62948539D01*
X107330000Y-65321459D01*
X107357574Y-65308601D01*
X107357579Y-65308599D01*
X107515705Y-65197878D01*
X107574217Y-65179989D01*
X107632069Y-65199909D01*
X107666463Y-65247833D01*
X107676112Y-65276952D01*
X107685187Y-65304336D01*
X107777285Y-65453652D01*
X107777286Y-65453653D01*
X107777288Y-65453656D01*
X107901344Y-65577712D01*
X107901346Y-65577713D01*
X107901347Y-65577714D01*
X107973208Y-65622038D01*
X108050666Y-65669814D01*
X108217203Y-65724999D01*
X108319991Y-65735500D01*
X110120008Y-65735499D01*
X110120016Y-65735499D01*
X110222788Y-65725000D01*
X110222788Y-65724999D01*
X110222797Y-65724999D01*
X110389334Y-65669814D01*
X110538656Y-65577712D01*
X110662712Y-65453656D01*
X110754814Y-65304334D01*
X110809999Y-65137797D01*
X110820500Y-65035009D01*
X110820499Y-63234992D01*
X110820499Y-63234991D01*
X110820499Y-63234983D01*
X110810000Y-63132211D01*
X110809999Y-63132209D01*
X110809999Y-63132203D01*
X110754814Y-62965666D01*
X110680356Y-62844949D01*
X110662714Y-62816347D01*
X110662713Y-62816346D01*
X110662712Y-62816344D01*
X110538656Y-62692288D01*
X110538653Y-62692286D01*
X110538652Y-62692285D01*
X110389336Y-62600187D01*
X110389335Y-62600186D01*
X110389334Y-62600186D01*
X110222797Y-62545001D01*
X110222794Y-62545000D01*
X110222795Y-62545000D01*
X110159437Y-62538527D01*
X110103470Y-62513803D01*
X110072723Y-62460904D01*
X110070500Y-62440040D01*
X110070500Y-61400000D01*
X118351251Y-61400000D01*
X118949999Y-61400000D01*
X118950000Y-61399999D01*
X118950000Y-60948990D01*
X118949999Y-60948990D01*
X118852755Y-60980587D01*
X118852743Y-60980592D01*
X118698475Y-61059195D01*
X118698471Y-61059197D01*
X118558403Y-61160962D01*
X118435969Y-61283396D01*
X118351251Y-61400000D01*
X110070500Y-61400000D01*
X110070500Y-59690000D01*
X112109706Y-59690000D01*
X112128853Y-59933300D01*
X112185828Y-60170613D01*
X112185829Y-60170616D01*
X112279219Y-60396081D01*
X112279224Y-60396092D01*
X112406739Y-60604176D01*
X112406745Y-60604184D01*
X112530856Y-60749500D01*
X112565241Y-60789759D01*
X112565247Y-60789764D01*
X112565250Y-60789767D01*
X112750815Y-60948254D01*
X112750821Y-60948259D01*
X112759529Y-60953595D01*
X112958907Y-61075775D01*
X112958918Y-61075780D01*
X113105295Y-61136411D01*
X113184388Y-61169172D01*
X113421698Y-61226146D01*
X113665000Y-61245294D01*
X113908302Y-61226146D01*
X114145612Y-61169172D01*
X114371089Y-61075777D01*
X114579179Y-60948259D01*
X114764759Y-60789759D01*
X114923259Y-60604179D01*
X115050777Y-60396089D01*
X115144172Y-60170612D01*
X115201146Y-59933302D01*
X115220294Y-59690000D01*
X115201146Y-59446698D01*
X115144172Y-59209388D01*
X115104474Y-59113547D01*
X115050780Y-58983918D01*
X115050775Y-58983907D01*
X114923260Y-58775823D01*
X114923259Y-58775821D01*
X114803243Y-58635300D01*
X114764767Y-58590250D01*
X114764764Y-58590247D01*
X114764759Y-58590241D01*
X114764752Y-58590235D01*
X114764749Y-58590232D01*
X114579184Y-58431745D01*
X114579176Y-58431739D01*
X114371092Y-58304224D01*
X114371081Y-58304219D01*
X114145616Y-58210829D01*
X114145613Y-58210828D01*
X113908300Y-58153853D01*
X113665000Y-58134706D01*
X113421699Y-58153853D01*
X113184386Y-58210828D01*
X113184383Y-58210829D01*
X112958918Y-58304219D01*
X112958907Y-58304224D01*
X112750823Y-58431739D01*
X112750815Y-58431745D01*
X112565250Y-58590232D01*
X112565232Y-58590250D01*
X112406745Y-58775815D01*
X112406739Y-58775823D01*
X112279224Y-58983907D01*
X112279219Y-58983918D01*
X112185829Y-59209383D01*
X112185828Y-59209386D01*
X112128853Y-59446699D01*
X112109706Y-59690000D01*
X110070500Y-59690000D01*
X110070500Y-49610000D01*
X112109706Y-49610000D01*
X112128853Y-49853300D01*
X112185828Y-50090613D01*
X112185829Y-50090616D01*
X112279219Y-50316081D01*
X112279224Y-50316092D01*
X112406739Y-50524176D01*
X112406745Y-50524184D01*
X112516885Y-50653142D01*
X112565241Y-50709759D01*
X112750821Y-50868259D01*
X112750823Y-50868260D01*
X112958907Y-50995775D01*
X112958918Y-50995780D01*
X113184383Y-51089170D01*
X113184388Y-51089172D01*
X113421698Y-51146146D01*
X113665000Y-51165294D01*
X113908302Y-51146146D01*
X114145612Y-51089172D01*
X114320576Y-51016700D01*
X118351251Y-51016700D01*
X118949999Y-51016700D01*
X118950000Y-51016699D01*
X118950000Y-50565690D01*
X118949999Y-50565690D01*
X118852755Y-50597287D01*
X118852743Y-50597292D01*
X118698475Y-50675895D01*
X118698471Y-50675897D01*
X118558403Y-50777662D01*
X118435969Y-50900096D01*
X118351251Y-51016700D01*
X114320576Y-51016700D01*
X114371089Y-50995777D01*
X114579179Y-50868259D01*
X114764759Y-50709759D01*
X114923259Y-50524179D01*
X115050777Y-50316089D01*
X115144172Y-50090612D01*
X115201146Y-49853302D01*
X115220294Y-49610000D01*
X115201146Y-49366698D01*
X115144172Y-49129388D01*
X115144170Y-49129383D01*
X115050780Y-48903918D01*
X115050775Y-48903907D01*
X114923260Y-48695823D01*
X114923259Y-48695821D01*
X114909469Y-48679675D01*
X114764767Y-48510250D01*
X114764764Y-48510247D01*
X114764759Y-48510241D01*
X114764752Y-48510235D01*
X114764749Y-48510232D01*
X114579184Y-48351745D01*
X114579176Y-48351739D01*
X114371092Y-48224224D01*
X114371081Y-48224219D01*
X114145616Y-48130829D01*
X114145613Y-48130828D01*
X113908300Y-48073853D01*
X113665000Y-48054706D01*
X113421699Y-48073853D01*
X113184386Y-48130828D01*
X113184383Y-48130829D01*
X112958918Y-48224219D01*
X112958907Y-48224224D01*
X112750823Y-48351739D01*
X112750815Y-48351745D01*
X112565250Y-48510232D01*
X112565232Y-48510250D01*
X112406745Y-48695815D01*
X112406739Y-48695823D01*
X112279224Y-48903907D01*
X112279219Y-48903918D01*
X112185829Y-49129383D01*
X112185828Y-49129386D01*
X112128853Y-49366699D01*
X112109706Y-49610000D01*
X110070500Y-49610000D01*
X110070500Y-40005000D01*
X112109706Y-40005000D01*
X112128853Y-40248300D01*
X112185828Y-40485613D01*
X112185829Y-40485616D01*
X112279219Y-40711081D01*
X112279224Y-40711092D01*
X112406739Y-40919176D01*
X112406745Y-40919184D01*
X112530042Y-41063547D01*
X112565241Y-41104759D01*
X112565247Y-41104764D01*
X112565250Y-41104767D01*
X112706632Y-41225518D01*
X112750821Y-41263259D01*
X112807694Y-41298111D01*
X112958907Y-41390775D01*
X112958918Y-41390780D01*
X113090421Y-41445250D01*
X113184388Y-41484172D01*
X113421698Y-41541146D01*
X113665000Y-41560294D01*
X113908302Y-41541146D01*
X114145612Y-41484172D01*
X114371089Y-41390777D01*
X114579179Y-41263259D01*
X114764759Y-41104759D01*
X114923259Y-40919179D01*
X115050777Y-40711089D01*
X115062288Y-40683300D01*
X118351251Y-40683300D01*
X118949999Y-40683300D01*
X118950000Y-40683299D01*
X118950000Y-40232290D01*
X118949999Y-40232290D01*
X118852755Y-40263887D01*
X118852743Y-40263892D01*
X118698475Y-40342495D01*
X118698471Y-40342497D01*
X118558403Y-40444262D01*
X118435969Y-40566696D01*
X118351251Y-40683300D01*
X115062288Y-40683300D01*
X115144172Y-40485612D01*
X115201146Y-40248302D01*
X115220294Y-40005000D01*
X115201146Y-39761698D01*
X115144172Y-39524388D01*
X115144170Y-39524383D01*
X115050780Y-39298918D01*
X115050775Y-39298907D01*
X114965765Y-39160184D01*
X114923259Y-39090821D01*
X114812917Y-38961627D01*
X114764767Y-38905250D01*
X114764764Y-38905247D01*
X114764759Y-38905241D01*
X114764752Y-38905235D01*
X114764749Y-38905232D01*
X114579184Y-38746745D01*
X114579176Y-38746739D01*
X114371092Y-38619224D01*
X114371081Y-38619219D01*
X114145616Y-38525829D01*
X114145613Y-38525828D01*
X113908300Y-38468853D01*
X113665000Y-38449706D01*
X113421699Y-38468853D01*
X113184386Y-38525828D01*
X113184383Y-38525829D01*
X112958918Y-38619219D01*
X112958907Y-38619224D01*
X112750823Y-38746739D01*
X112750815Y-38746745D01*
X112565250Y-38905232D01*
X112565232Y-38905250D01*
X112406745Y-39090815D01*
X112406739Y-39090823D01*
X112279224Y-39298907D01*
X112279219Y-39298918D01*
X112185829Y-39524383D01*
X112185828Y-39524386D01*
X112128853Y-39761699D01*
X112109706Y-40005000D01*
X110070500Y-40005000D01*
X110070500Y-37889958D01*
X110089407Y-37831767D01*
X110138907Y-37795803D01*
X110159430Y-37791471D01*
X110222797Y-37784999D01*
X110389334Y-37729814D01*
X110538656Y-37637712D01*
X110662712Y-37513656D01*
X110754814Y-37364334D01*
X110809999Y-37197797D01*
X110820500Y-37095009D01*
X110820499Y-35294992D01*
X110820499Y-35294983D01*
X110810000Y-35192211D01*
X110809999Y-35192209D01*
X110809999Y-35192203D01*
X110754814Y-35025666D01*
X110689069Y-34919075D01*
X110662714Y-34876347D01*
X110662713Y-34876346D01*
X110662712Y-34876344D01*
X110538656Y-34752288D01*
X110538653Y-34752286D01*
X110538652Y-34752285D01*
X110389336Y-34660187D01*
X110389335Y-34660186D01*
X110389334Y-34660186D01*
X110222797Y-34605001D01*
X110222794Y-34605000D01*
X110120017Y-34594500D01*
X110120009Y-34594500D01*
X108863297Y-34594500D01*
X108805106Y-34575593D01*
X108793293Y-34565504D01*
X108575496Y-34347707D01*
X108547719Y-34293190D01*
X108546500Y-34277703D01*
X108546500Y-33698234D01*
X108546499Y-33698230D01*
X108513816Y-33533920D01*
X108513816Y-33533918D01*
X108449703Y-33379137D01*
X108356626Y-33239838D01*
X108238162Y-33121374D01*
X108098863Y-33028297D01*
X108098864Y-33028297D01*
X108098862Y-33028296D01*
X107944085Y-32964185D01*
X107944079Y-32964183D01*
X107779769Y-32931500D01*
X107779767Y-32931500D01*
X90594233Y-32931500D01*
X90594230Y-32931500D01*
X90429918Y-32964184D01*
X90429916Y-32964184D01*
X90384583Y-32982962D01*
X90275141Y-33028293D01*
X90275130Y-33028299D01*
X90135838Y-33121373D01*
X90135834Y-33121376D01*
X85912684Y-37344525D01*
X85858167Y-37372302D01*
X85797735Y-37362731D01*
X85754470Y-37319466D01*
X85744057Y-37283149D01*
X85740142Y-37238402D01*
X85681266Y-37018676D01*
X85585134Y-36812518D01*
X85454665Y-36626188D01*
X85293811Y-36465334D01*
X85107485Y-36334867D01*
X85105000Y-36333708D01*
X85105000Y-37366000D01*
X85086093Y-37424191D01*
X85036593Y-37460155D01*
X85006000Y-37465000D01*
X84855000Y-37465000D01*
X84855000Y-37412339D01*
X84827741Y-37310606D01*
X84775080Y-37219394D01*
X84700606Y-37144920D01*
X84609394Y-37092259D01*
X84507661Y-37065000D01*
X84402339Y-37065000D01*
X84300606Y-37092259D01*
X84209394Y-37144920D01*
X84134920Y-37219394D01*
X84082259Y-37310606D01*
X84055000Y-37412339D01*
X84055000Y-37517661D01*
X84082259Y-37619394D01*
X84134920Y-37710606D01*
X84209394Y-37785080D01*
X84300606Y-37837741D01*
X84402339Y-37865000D01*
X84455000Y-37865000D01*
X84455000Y-38016000D01*
X84436093Y-38074191D01*
X84386593Y-38110155D01*
X84356000Y-38115000D01*
X83323708Y-38115000D01*
X83324867Y-38117485D01*
X83455334Y-38303811D01*
X83616190Y-38464667D01*
X83616192Y-38464668D01*
X83672151Y-38503851D01*
X83708974Y-38552715D01*
X83710042Y-38613891D01*
X83674948Y-38664011D01*
X83667096Y-38669358D01*
X83540823Y-38746739D01*
X83540815Y-38746745D01*
X83355250Y-38905232D01*
X83355232Y-38905250D01*
X83196745Y-39090815D01*
X83196739Y-39090823D01*
X83069224Y-39298907D01*
X83069219Y-39298918D01*
X82975829Y-39524383D01*
X82975828Y-39524386D01*
X82918853Y-39761699D01*
X82899706Y-40005000D01*
X82918853Y-40248300D01*
X82975828Y-40485613D01*
X82975829Y-40485616D01*
X83069219Y-40711081D01*
X83069224Y-40711092D01*
X83196739Y-40919176D01*
X83196745Y-40919184D01*
X83320042Y-41063547D01*
X83355241Y-41104759D01*
X83394811Y-41138555D01*
X83466426Y-41199720D01*
X83498395Y-41251889D01*
X83493594Y-41312886D01*
X83466426Y-41350280D01*
X83355244Y-41445238D01*
X83355232Y-41445250D01*
X83196745Y-41630815D01*
X83196739Y-41630823D01*
X83069224Y-41838907D01*
X83069219Y-41838918D01*
X82975829Y-42064383D01*
X82975828Y-42064386D01*
X82918853Y-42301699D01*
X82899706Y-42545000D01*
X82918853Y-42788300D01*
X82975828Y-43025613D01*
X82975829Y-43025616D01*
X83069219Y-43251081D01*
X83069224Y-43251092D01*
X83196739Y-43459176D01*
X83196745Y-43459184D01*
X83343248Y-43630718D01*
X83355241Y-43644759D01*
X83355247Y-43644764D01*
X83355250Y-43644767D01*
X83540811Y-43803251D01*
X83540816Y-43803254D01*
X83540821Y-43803259D01*
X83557227Y-43813312D01*
X83596963Y-43859835D01*
X83604500Y-43897723D01*
X83604500Y-44101303D01*
X83585593Y-44159494D01*
X83575503Y-44171307D01*
X83487460Y-44259349D01*
X83432943Y-44287126D01*
X83372511Y-44277554D01*
X83370813Y-44276668D01*
X83228254Y-44200468D01*
X83189994Y-44188862D01*
X83030234Y-44140399D01*
X83030229Y-44140398D01*
X82824303Y-44120117D01*
X82824297Y-44120117D01*
X82618370Y-44140398D01*
X82618365Y-44140399D01*
X82420345Y-44200468D01*
X82237850Y-44298014D01*
X82234390Y-44300854D01*
X82232106Y-44302728D01*
X82175131Y-44325028D01*
X82169303Y-44325200D01*
X80990527Y-44325200D01*
X80908557Y-44341505D01*
X80847796Y-44334313D01*
X80802867Y-44292780D01*
X80790721Y-44254109D01*
X80785301Y-44199071D01*
X80785300Y-44199065D01*
X80739949Y-44049563D01*
X80725232Y-44001046D01*
X80627685Y-43818550D01*
X80615135Y-43803258D01*
X80496414Y-43658595D01*
X80496410Y-43658590D01*
X80462448Y-43630718D01*
X80336452Y-43527316D01*
X80153954Y-43429768D01*
X79955934Y-43369699D01*
X79955929Y-43369698D01*
X79750003Y-43349417D01*
X79749997Y-43349417D01*
X79544070Y-43369698D01*
X79544065Y-43369699D01*
X79346045Y-43429768D01*
X79163547Y-43527316D01*
X78999831Y-43661675D01*
X78998355Y-43659877D01*
X78951887Y-43683554D01*
X78891455Y-43673983D01*
X78848190Y-43630718D01*
X78837400Y-43585773D01*
X78837400Y-42037134D01*
X78837399Y-42037130D01*
X78836327Y-42031743D01*
X78804716Y-41872818D01*
X78740603Y-41718037D01*
X78647526Y-41578738D01*
X78529062Y-41460274D01*
X78108438Y-41039650D01*
X78080661Y-40985133D01*
X78090232Y-40924701D01*
X78094023Y-40917932D01*
X78220777Y-40711089D01*
X78314172Y-40485612D01*
X78371146Y-40248302D01*
X78390294Y-40005000D01*
X78371146Y-39761698D01*
X78314172Y-39524388D01*
X78314170Y-39524383D01*
X78220780Y-39298918D01*
X78220775Y-39298907D01*
X78135765Y-39160184D01*
X78093259Y-39090821D01*
X77982917Y-38961627D01*
X77934767Y-38905250D01*
X77934764Y-38905247D01*
X77934759Y-38905241D01*
X77934752Y-38905235D01*
X77934749Y-38905232D01*
X77749184Y-38746745D01*
X77749176Y-38746739D01*
X77622903Y-38669358D01*
X77583167Y-38622832D01*
X77578366Y-38561835D01*
X77610336Y-38509666D01*
X77617848Y-38503850D01*
X77673812Y-38464664D01*
X77834665Y-38303811D01*
X77965132Y-38117485D01*
X77966292Y-38115000D01*
X75703708Y-38115000D01*
X75704867Y-38117485D01*
X75835334Y-38303811D01*
X75996190Y-38464667D01*
X75996192Y-38464668D01*
X76052151Y-38503851D01*
X76088974Y-38552715D01*
X76090042Y-38613891D01*
X76054948Y-38664011D01*
X76047096Y-38669358D01*
X75920823Y-38746739D01*
X75920815Y-38746745D01*
X75735250Y-38905232D01*
X75735232Y-38905250D01*
X75576745Y-39090815D01*
X75576739Y-39090823D01*
X75449224Y-39298907D01*
X75449219Y-39298918D01*
X75355829Y-39524383D01*
X75355828Y-39524386D01*
X75298853Y-39761699D01*
X75279706Y-40005000D01*
X75298853Y-40248300D01*
X75355828Y-40485613D01*
X75355829Y-40485616D01*
X75449219Y-40711081D01*
X75449224Y-40711092D01*
X75576739Y-40919176D01*
X75576745Y-40919184D01*
X75700042Y-41063547D01*
X75735241Y-41104759D01*
X75774811Y-41138555D01*
X75846426Y-41199720D01*
X75878395Y-41251889D01*
X75873594Y-41312886D01*
X75846426Y-41350280D01*
X75735244Y-41445238D01*
X75735232Y-41445250D01*
X75576745Y-41630815D01*
X75576739Y-41630823D01*
X75449224Y-41838907D01*
X75449219Y-41838918D01*
X75355829Y-42064383D01*
X75355828Y-42064386D01*
X75298853Y-42301699D01*
X75279706Y-42545000D01*
X75298853Y-42788300D01*
X75355828Y-43025613D01*
X75355829Y-43025616D01*
X75449219Y-43251081D01*
X75449224Y-43251092D01*
X75576739Y-43459176D01*
X75576745Y-43459184D01*
X75723248Y-43630718D01*
X75735241Y-43644759D01*
X75735247Y-43644764D01*
X75735250Y-43644767D01*
X75751429Y-43658585D01*
X75920821Y-43803259D01*
X75972999Y-43835233D01*
X76012736Y-43881759D01*
X76016010Y-43890909D01*
X76017186Y-43894788D01*
X76081293Y-44049558D01*
X76081299Y-44049569D01*
X76123392Y-44112564D01*
X76174373Y-44188862D01*
X76174376Y-44188865D01*
X76667204Y-44681693D01*
X76694981Y-44736210D01*
X76696200Y-44751697D01*
X76696200Y-54240000D01*
X76626289Y-54240000D01*
X76532185Y-54265215D01*
X76447814Y-54313926D01*
X76378926Y-54382814D01*
X76330215Y-54467185D01*
X76305000Y-54561289D01*
X76305000Y-54658711D01*
X76330215Y-54752815D01*
X76378926Y-54837186D01*
X76447814Y-54906074D01*
X76511449Y-54942813D01*
X76410340Y-54984694D01*
X76271038Y-55077772D01*
X76197806Y-55151004D01*
X76143289Y-55178781D01*
X76127803Y-55180000D01*
X75605001Y-55180000D01*
X75605000Y-55180001D01*
X75605000Y-55227824D01*
X75604999Y-55227824D01*
X75611401Y-55287370D01*
X75611403Y-55287381D01*
X75661645Y-55422087D01*
X75723719Y-55505005D01*
X75743456Y-55562920D01*
X75725382Y-55621375D01*
X75714470Y-55634339D01*
X71064576Y-60284234D01*
X71064573Y-60284238D01*
X70971499Y-60423530D01*
X70971493Y-60423541D01*
X70944761Y-60488081D01*
X70907384Y-60578316D01*
X70907384Y-60578318D01*
X70874700Y-60742630D01*
X70874700Y-69036301D01*
X70855793Y-69094492D01*
X70806293Y-69130456D01*
X70745107Y-69130456D01*
X70699172Y-69099106D01*
X70599129Y-68977203D01*
X70596410Y-68973890D01*
X70572118Y-68953954D01*
X70436452Y-68842616D01*
X70253954Y-68745068D01*
X70055934Y-68684999D01*
X70055929Y-68684998D01*
X69850003Y-68664717D01*
X69849997Y-68664717D01*
X69644070Y-68684998D01*
X69644065Y-68684999D01*
X69528238Y-68720135D01*
X69467064Y-68718934D01*
X69418280Y-68682005D01*
X69400500Y-68625398D01*
X69400500Y-58343296D01*
X69419407Y-58285105D01*
X69429490Y-58273298D01*
X71538242Y-56164545D01*
X71592757Y-56136770D01*
X71598529Y-56136029D01*
X71605934Y-56135300D01*
X71803954Y-56075232D01*
X71986450Y-55977685D01*
X72146410Y-55846410D01*
X72277685Y-55686450D01*
X72375232Y-55503954D01*
X72435300Y-55305934D01*
X72435301Y-55305929D01*
X72455583Y-55100003D01*
X72455583Y-55099996D01*
X72435301Y-54894070D01*
X72435300Y-54894065D01*
X72380464Y-54713295D01*
X72375232Y-54696046D01*
X72277685Y-54513550D01*
X72239634Y-54467185D01*
X72146414Y-54353595D01*
X72146410Y-54353590D01*
X72098079Y-54313926D01*
X71986452Y-54222316D01*
X71803954Y-54124768D01*
X71605934Y-54064699D01*
X71605929Y-54064698D01*
X71400003Y-54044417D01*
X71399997Y-54044417D01*
X71194070Y-54064698D01*
X71194065Y-54064699D01*
X70996045Y-54124768D01*
X70813547Y-54222316D01*
X70653595Y-54353585D01*
X70653585Y-54353595D01*
X70522316Y-54513547D01*
X70424768Y-54696045D01*
X70364702Y-54894058D01*
X70364698Y-54894075D01*
X70363970Y-54901467D01*
X70339445Y-54957521D01*
X70335452Y-54961757D01*
X67889376Y-57407834D01*
X67889373Y-57407838D01*
X67796299Y-57547130D01*
X67796293Y-57547142D01*
X67773007Y-57603362D01*
X67732184Y-57701916D01*
X67732184Y-57701918D01*
X67699500Y-57866230D01*
X67699500Y-73245001D01*
X67680593Y-73303192D01*
X67677031Y-73307802D01*
X67672320Y-73313542D01*
X67672313Y-73313552D01*
X67574768Y-73496045D01*
X67514699Y-73694065D01*
X67514698Y-73694070D01*
X67494417Y-73899996D01*
X66720784Y-73899996D01*
X63651284Y-70830496D01*
X58283496Y-65462707D01*
X58255719Y-65408190D01*
X58254500Y-65392703D01*
X58254500Y-57539296D01*
X58273407Y-57481105D01*
X58283496Y-57469293D01*
X58345505Y-57407283D01*
X58400021Y-57379505D01*
X58405794Y-57378764D01*
X58413199Y-57378035D01*
X58611219Y-57317967D01*
X58793715Y-57220420D01*
X58953675Y-57089145D01*
X59084950Y-56929185D01*
X59182497Y-56746689D01*
X59242565Y-56548669D01*
X59242566Y-56548664D01*
X59262848Y-56342738D01*
X59262848Y-56342731D01*
X59242566Y-56136805D01*
X59242565Y-56136800D01*
X59208571Y-56024736D01*
X59182497Y-55938781D01*
X59084950Y-55756285D01*
X58953675Y-55596325D01*
X58842401Y-55505005D01*
X58793717Y-55465051D01*
X58611219Y-55367503D01*
X58413199Y-55307434D01*
X58413194Y-55307433D01*
X58207268Y-55287152D01*
X58207262Y-55287152D01*
X58001335Y-55307433D01*
X58001330Y-55307434D01*
X57803310Y-55367503D01*
X57620812Y-55465051D01*
X57620807Y-55465054D01*
X57612302Y-55472035D01*
X57555325Y-55494334D01*
X57496122Y-55478883D01*
X57457308Y-55431584D01*
X57450500Y-55395505D01*
X57450500Y-53992175D01*
X75605000Y-53992175D01*
X75605000Y-54039999D01*
X75605001Y-54040000D01*
X76104999Y-54040000D01*
X76105000Y-54039999D01*
X76105000Y-53540001D01*
X76104999Y-53540000D01*
X76057176Y-53540000D01*
X75997629Y-53546401D01*
X75997618Y-53546403D01*
X75862911Y-53596646D01*
X75862909Y-53596647D01*
X75747815Y-53682807D01*
X75747807Y-53682815D01*
X75661647Y-53797909D01*
X75661646Y-53797911D01*
X75611403Y-53932618D01*
X75611401Y-53932629D01*
X75605000Y-53992175D01*
X57450500Y-53992175D01*
X57450500Y-53249500D01*
X57469407Y-53191309D01*
X57518907Y-53155345D01*
X57549500Y-53150500D01*
X57569963Y-53150500D01*
X57628154Y-53169407D01*
X57664118Y-53218907D01*
X57664692Y-53220739D01*
X57668539Y-53233422D01*
X57674767Y-53253952D01*
X57674768Y-53253954D01*
X57772316Y-53436452D01*
X57894472Y-53585300D01*
X57903590Y-53596410D01*
X57903595Y-53596414D01*
X58063547Y-53727683D01*
X58063548Y-53727683D01*
X58063550Y-53727685D01*
X58246046Y-53825232D01*
X58383997Y-53867078D01*
X58444065Y-53885300D01*
X58444070Y-53885301D01*
X58649997Y-53905583D01*
X58650000Y-53905583D01*
X58650003Y-53905583D01*
X58855929Y-53885301D01*
X58855934Y-53885300D01*
X59053954Y-53825232D01*
X59236450Y-53727685D01*
X59396410Y-53596410D01*
X59527685Y-53436450D01*
X59625232Y-53253954D01*
X59685300Y-53055934D01*
X59685301Y-53055929D01*
X59705583Y-52850003D01*
X59705583Y-52849996D01*
X59685301Y-52644070D01*
X59685300Y-52644065D01*
X59658278Y-52554985D01*
X59625232Y-52446046D01*
X59527685Y-52263550D01*
X59518955Y-52252913D01*
X59404798Y-52113811D01*
X59396410Y-52103590D01*
X59396404Y-52103585D01*
X59236452Y-51972316D01*
X59053954Y-51874768D01*
X58855941Y-51814702D01*
X58855939Y-51814701D01*
X58855934Y-51814700D01*
X58855930Y-51814699D01*
X58855923Y-51814698D01*
X58848533Y-51813970D01*
X58792478Y-51789446D01*
X58788241Y-51785452D01*
X58642165Y-51639376D01*
X58642164Y-51639375D01*
X58642162Y-51639373D01*
X58586670Y-51602294D01*
X58502869Y-51546299D01*
X58502858Y-51546293D01*
X58389886Y-51499500D01*
X58348085Y-51482185D01*
X58348079Y-51482183D01*
X58183769Y-51449500D01*
X58183767Y-51449500D01*
X56867704Y-51449500D01*
X56867701Y-51449500D01*
X56703391Y-51482183D01*
X56703385Y-51482185D01*
X56661585Y-51499500D01*
X56661584Y-51499500D01*
X56548610Y-51546294D01*
X56409306Y-51639375D01*
X55939380Y-52109300D01*
X55939373Y-52109309D01*
X55846299Y-52248601D01*
X55846293Y-52248612D01*
X55804299Y-52349999D01*
X55804299Y-52350000D01*
X55782185Y-52403385D01*
X55782183Y-52403391D01*
X55749500Y-52567701D01*
X54490180Y-52567701D01*
X54497800Y-52554987D01*
X58288241Y-48764545D01*
X58342756Y-48736770D01*
X58348530Y-48736029D01*
X58355934Y-48735300D01*
X58553954Y-48675232D01*
X58736450Y-48577685D01*
X58896410Y-48446410D01*
X59027685Y-48286450D01*
X59125232Y-48103954D01*
X59185300Y-47905934D01*
X59185301Y-47905929D01*
X59205583Y-47700003D01*
X59205583Y-47699996D01*
X59185301Y-47494070D01*
X59185300Y-47494065D01*
X59160875Y-47413547D01*
X59125232Y-47296046D01*
X59027685Y-47113550D01*
X58994526Y-47073146D01*
X58896414Y-46953595D01*
X58896410Y-46953590D01*
X58823682Y-46893904D01*
X58736452Y-46822316D01*
X58553954Y-46724768D01*
X58355934Y-46664699D01*
X58355929Y-46664698D01*
X58150003Y-46644417D01*
X58149997Y-46644417D01*
X57944070Y-46664698D01*
X57944065Y-46664699D01*
X57746045Y-46724768D01*
X57563547Y-46822316D01*
X57403595Y-46953585D01*
X57403585Y-46953595D01*
X57272316Y-47113547D01*
X57174768Y-47296045D01*
X57114702Y-47494058D01*
X57114698Y-47494075D01*
X57113970Y-47501467D01*
X57089445Y-47557522D01*
X57085452Y-47561758D01*
X53367221Y-51279989D01*
X53312704Y-51307766D01*
X53306922Y-51308508D01*
X53244070Y-51314698D01*
X53244065Y-51314699D01*
X53046045Y-51374768D01*
X52863547Y-51472316D01*
X52703595Y-51603585D01*
X52703585Y-51603595D01*
X52572316Y-51763547D01*
X52474768Y-51946045D01*
X52414699Y-52144065D01*
X52414698Y-52144070D01*
X52395001Y-52344066D01*
X52394417Y-52350000D01*
X50463091Y-52350000D01*
X50656570Y-52265960D01*
X50906769Y-52113811D01*
X51133919Y-51929010D01*
X51333790Y-51715000D01*
X51502659Y-51475768D01*
X51637379Y-51215770D01*
X51735441Y-50939850D01*
X51795019Y-50653146D01*
X51815002Y-50361000D01*
X51795019Y-50068854D01*
X51735441Y-49782150D01*
X51637379Y-49506230D01*
X51502659Y-49246232D01*
X51502657Y-49246229D01*
X51502656Y-49246227D01*
X51333796Y-49007008D01*
X51333793Y-49007005D01*
X51333790Y-49007000D01*
X51133919Y-48792990D01*
X51005451Y-48688473D01*
X50972244Y-48637083D01*
X50975586Y-48575989D01*
X51005451Y-48534883D01*
X51035751Y-48510232D01*
X51233919Y-48349010D01*
X51433790Y-48135000D01*
X51602659Y-47895768D01*
X51737379Y-47635770D01*
X51835441Y-47359850D01*
X51895019Y-47073146D01*
X51913627Y-46801107D01*
X51915002Y-46781003D01*
X51915002Y-46780996D01*
X51901095Y-46577683D01*
X51895019Y-46488854D01*
X51835441Y-46202150D01*
X51737379Y-45926230D01*
X51602659Y-45666232D01*
X51602657Y-45666229D01*
X51602656Y-45666227D01*
X51433796Y-45427008D01*
X51433793Y-45427005D01*
X51433790Y-45427000D01*
X51233919Y-45212990D01*
X51191980Y-45178870D01*
X51006778Y-45028196D01*
X51006775Y-45028194D01*
X51006769Y-45028189D01*
X50968636Y-45005000D01*
X52712823Y-45005000D01*
X52731501Y-45242337D01*
X52787079Y-45473835D01*
X52787080Y-45473839D01*
X52878181Y-45693776D01*
X52878186Y-45693787D01*
X53002576Y-45896771D01*
X53002582Y-45896779D01*
X53113134Y-46026219D01*
X53157194Y-46077806D01*
X53157200Y-46077811D01*
X53157203Y-46077814D01*
X53338220Y-46232417D01*
X53338226Y-46232422D01*
X53405889Y-46273886D01*
X53541212Y-46356813D01*
X53541223Y-46356818D01*
X53761160Y-46447919D01*
X53761164Y-46447920D01*
X53761165Y-46447920D01*
X53761167Y-46447921D01*
X53992661Y-46503498D01*
X54230000Y-46522177D01*
X54467339Y-46503498D01*
X54698833Y-46447921D01*
X54698836Y-46447919D01*
X54698839Y-46447919D01*
X54832423Y-46392586D01*
X54918784Y-46356815D01*
X55121774Y-46232422D01*
X55302806Y-46077806D01*
X55457422Y-45896774D01*
X55581815Y-45693784D01*
X55617586Y-45607423D01*
X55672919Y-45473839D01*
X55672920Y-45473835D01*
X55672919Y-45473835D01*
X55672921Y-45473833D01*
X55728498Y-45242339D01*
X55747177Y-45005000D01*
X68712823Y-45005000D01*
X68731501Y-45242337D01*
X68787079Y-45473835D01*
X68787080Y-45473839D01*
X68878181Y-45693776D01*
X68878186Y-45693787D01*
X69002576Y-45896771D01*
X69002582Y-45896779D01*
X69113134Y-46026219D01*
X69157194Y-46077806D01*
X69157200Y-46077811D01*
X69157203Y-46077814D01*
X69338220Y-46232417D01*
X69338226Y-46232422D01*
X69405889Y-46273886D01*
X69541212Y-46356813D01*
X69541223Y-46356818D01*
X69761160Y-46447919D01*
X69761164Y-46447920D01*
X69761165Y-46447920D01*
X69761167Y-46447921D01*
X69992661Y-46503498D01*
X70230000Y-46522177D01*
X70467339Y-46503498D01*
X70698833Y-46447921D01*
X70698836Y-46447919D01*
X70698839Y-46447919D01*
X70832423Y-46392586D01*
X70918784Y-46356815D01*
X71121774Y-46232422D01*
X71302806Y-46077806D01*
X71457422Y-45896774D01*
X71581815Y-45693784D01*
X71617586Y-45607423D01*
X71672919Y-45473839D01*
X71672920Y-45473835D01*
X71672919Y-45473835D01*
X71672921Y-45473833D01*
X71728498Y-45242339D01*
X71747177Y-45005000D01*
X71728498Y-44767661D01*
X71672921Y-44536167D01*
X71672920Y-44536164D01*
X71672919Y-44536160D01*
X71581818Y-44316223D01*
X71581813Y-44316212D01*
X71457423Y-44113228D01*
X71457422Y-44113226D01*
X71403049Y-44049563D01*
X71302814Y-43932203D01*
X71302811Y-43932200D01*
X71302806Y-43932194D01*
X71302799Y-43932188D01*
X71302796Y-43932185D01*
X71121779Y-43777582D01*
X71121771Y-43777576D01*
X70918787Y-43653186D01*
X70918776Y-43653181D01*
X70698839Y-43562080D01*
X70698835Y-43562079D01*
X70467337Y-43506501D01*
X70230000Y-43487823D01*
X69992662Y-43506501D01*
X69761164Y-43562079D01*
X69761160Y-43562080D01*
X69541223Y-43653181D01*
X69541212Y-43653186D01*
X69338228Y-43777576D01*
X69338220Y-43777582D01*
X69157203Y-43932185D01*
X69157185Y-43932203D01*
X69002582Y-44113220D01*
X69002576Y-44113228D01*
X68878186Y-44316212D01*
X68878181Y-44316223D01*
X68787080Y-44536160D01*
X68787079Y-44536164D01*
X68731501Y-44767662D01*
X68712823Y-45005000D01*
X55747177Y-45005000D01*
X55728498Y-44767661D01*
X55672921Y-44536167D01*
X55672920Y-44536164D01*
X55672919Y-44536160D01*
X55581818Y-44316223D01*
X55581813Y-44316212D01*
X55457423Y-44113228D01*
X55457422Y-44113226D01*
X55403049Y-44049563D01*
X55302814Y-43932203D01*
X55302811Y-43932200D01*
X55302806Y-43932194D01*
X55302799Y-43932188D01*
X55302796Y-43932185D01*
X55121779Y-43777582D01*
X55121771Y-43777576D01*
X54918787Y-43653186D01*
X54918776Y-43653181D01*
X54698839Y-43562080D01*
X54698835Y-43562079D01*
X54467337Y-43506501D01*
X54230000Y-43487823D01*
X53992662Y-43506501D01*
X53761164Y-43562079D01*
X53761160Y-43562080D01*
X53541223Y-43653181D01*
X53541212Y-43653186D01*
X53338228Y-43777576D01*
X53338220Y-43777582D01*
X53157203Y-43932185D01*
X53157185Y-43932203D01*
X53002582Y-44113220D01*
X53002576Y-44113228D01*
X52878186Y-44316212D01*
X52878181Y-44316223D01*
X52787080Y-44536160D01*
X52787079Y-44536164D01*
X52731501Y-44767662D01*
X52712823Y-45005000D01*
X50968636Y-45005000D01*
X50791799Y-44897463D01*
X50756574Y-44876042D01*
X50756567Y-44876038D01*
X50492327Y-44761263D01*
X50487985Y-44759377D01*
X50206015Y-44680373D01*
X50206011Y-44680372D01*
X50206009Y-44680372D01*
X50043392Y-44658021D01*
X49915914Y-44640500D01*
X49623086Y-44640500D01*
X49332990Y-44680372D01*
X49332981Y-44680374D01*
X49224785Y-44710689D01*
X49051015Y-44759377D01*
X49051013Y-44759377D01*
X49051012Y-44759378D01*
X48782432Y-44876038D01*
X48782425Y-44876042D01*
X48532237Y-45028185D01*
X48532221Y-45028196D01*
X48305086Y-45212985D01*
X48305085Y-45212986D01*
X48141853Y-45387765D01*
X48088316Y-45417387D01*
X48027593Y-45409885D01*
X47997147Y-45387765D01*
X47833919Y-45212990D01*
X47791980Y-45178870D01*
X47606778Y-45028196D01*
X47606775Y-45028194D01*
X47606769Y-45028189D01*
X47391799Y-44897463D01*
X47356574Y-44876042D01*
X47356567Y-44876038D01*
X47092327Y-44761263D01*
X47087985Y-44759377D01*
X46806015Y-44680373D01*
X46806011Y-44680372D01*
X46806009Y-44680372D01*
X46643392Y-44658021D01*
X46515914Y-44640500D01*
X46223086Y-44640500D01*
X45932990Y-44680372D01*
X45932981Y-44680374D01*
X45824785Y-44710689D01*
X45651015Y-44759377D01*
X45651013Y-44759377D01*
X45651012Y-44759378D01*
X45382432Y-44876038D01*
X45382425Y-44876042D01*
X45132237Y-45028185D01*
X45132221Y-45028196D01*
X44905086Y-45212985D01*
X44905085Y-45212986D01*
X44705209Y-45427001D01*
X44705203Y-45427008D01*
X44536344Y-45666227D01*
X44536343Y-45666227D01*
X44401622Y-45926228D01*
X44303557Y-46202154D01*
X44243982Y-46488848D01*
X44243980Y-46488857D01*
X44223998Y-46780996D01*
X44223998Y-46781003D01*
X44243980Y-47073142D01*
X44243982Y-47073151D01*
X44303557Y-47359845D01*
X44303559Y-47359850D01*
X44401621Y-47635770D01*
X44518695Y-47861714D01*
X44536343Y-47895772D01*
X44705203Y-48134991D01*
X44705206Y-48134995D01*
X44705210Y-48135000D01*
X44905081Y-48349010D01*
X44905085Y-48349013D01*
X44905086Y-48349014D01*
X45033547Y-48453526D01*
X45066754Y-48504916D01*
X45063412Y-48566010D01*
X45033547Y-48607116D01*
X44805086Y-48792985D01*
X44805085Y-48792986D01*
X44605209Y-49007001D01*
X44605203Y-49007008D01*
X44436344Y-49246227D01*
X44436343Y-49246227D01*
X44301622Y-49506228D01*
X44203557Y-49782154D01*
X44143982Y-50068848D01*
X44143980Y-50068857D01*
X44123998Y-50360996D01*
X36980000Y-50360996D01*
X36980000Y-49411674D01*
X36945925Y-49284507D01*
X36880099Y-49170493D01*
X36787007Y-49077401D01*
X36672993Y-49011575D01*
X36545826Y-48977500D01*
X36414174Y-48977500D01*
X36287007Y-49011575D01*
X36172993Y-49077401D01*
X36079901Y-49170493D01*
X36014075Y-49284507D01*
X35980000Y-49411674D01*
X35830000Y-49411674D01*
X35830000Y-48227501D01*
X37130000Y-48227501D01*
X37130000Y-49827499D01*
X37130001Y-49827500D01*
X38729999Y-49827500D01*
X38730000Y-49827499D01*
X38730000Y-48679675D01*
X38723598Y-48620129D01*
X38723596Y-48620118D01*
X38673353Y-48485411D01*
X38673352Y-48485409D01*
X38587192Y-48370315D01*
X38587184Y-48370307D01*
X38472090Y-48284147D01*
X38472088Y-48284146D01*
X38337381Y-48233903D01*
X38337370Y-48233901D01*
X38277824Y-48227500D01*
X37130001Y-48227500D01*
X37130000Y-48227501D01*
X35830000Y-48227501D01*
X35829999Y-48227500D01*
X34682176Y-48227500D01*
X34622629Y-48233901D01*
X34622618Y-48233903D01*
X34487911Y-48284146D01*
X34487909Y-48284147D01*
X34372815Y-48370307D01*
X34372807Y-48370315D01*
X34286647Y-48485409D01*
X34286646Y-48485411D01*
X34236403Y-48620118D01*
X34236401Y-48620129D01*
X34230000Y-48679675D01*
X32501289Y-48679675D01*
X32455367Y-48602608D01*
X32455364Y-48602603D01*
X32294654Y-48412855D01*
X32294650Y-48412850D01*
X32222497Y-48351739D01*
X32104896Y-48252135D01*
X32104891Y-48252132D01*
X31891278Y-48124846D01*
X31891264Y-48124840D01*
X31659616Y-48034450D01*
X31416236Y-47983418D01*
X31312851Y-47977000D01*
X31312842Y-47977000D01*
X29647158Y-47977000D01*
X29647148Y-47977000D01*
X29543763Y-47983418D01*
X29300383Y-48034450D01*
X29068735Y-48124840D01*
X29068721Y-48124846D01*
X28855108Y-48252132D01*
X28855103Y-48252135D01*
X28665355Y-48412845D01*
X28665345Y-48412855D01*
X28504635Y-48602603D01*
X28504632Y-48602608D01*
X28377346Y-48816221D01*
X28377340Y-48816235D01*
X28286950Y-49047883D01*
X28235918Y-49291263D01*
X28229500Y-49394648D01*
X27001875Y-49394648D01*
X27017398Y-43608370D01*
X38003368Y-43608370D01*
X38116671Y-43647266D01*
X38357778Y-43687500D01*
X38602222Y-43687500D01*
X38843330Y-43647266D01*
X38956630Y-43608370D01*
X38479999Y-43131739D01*
X38003368Y-43608370D01*
X27017398Y-43608370D01*
X27021143Y-42212500D01*
X36999945Y-42212500D01*
X37020130Y-42456107D01*
X37020130Y-42456108D01*
X37080138Y-42693074D01*
X37080139Y-42693078D01*
X37080152Y-42693106D01*
X37560759Y-42212499D01*
X37496741Y-42148481D01*
X37830000Y-42148481D01*
X37830000Y-42276519D01*
X37854979Y-42402098D01*
X37903978Y-42520390D01*
X37975112Y-42626851D01*
X38065649Y-42717388D01*
X38172110Y-42788522D01*
X38290402Y-42837521D01*
X38415981Y-42862500D01*
X38544019Y-42862500D01*
X38669598Y-42837521D01*
X38787890Y-42788522D01*
X38894351Y-42717388D01*
X38984888Y-42626851D01*
X39056022Y-42520390D01*
X39105021Y-42402098D01*
X39130000Y-42276519D01*
X39130000Y-42212499D01*
X39399239Y-42212499D01*
X39879846Y-42693106D01*
X39879860Y-42693075D01*
X39939869Y-42456107D01*
X39960054Y-42212500D01*
X39939869Y-41968892D01*
X39939869Y-41968891D01*
X39879862Y-41731929D01*
X39879845Y-41731893D01*
X39399239Y-42212499D01*
X39130000Y-42212499D01*
X39130000Y-42148481D01*
X39105021Y-42022902D01*
X39056022Y-41904610D01*
X38984888Y-41798149D01*
X38894351Y-41707612D01*
X38787890Y-41636478D01*
X38669598Y-41587479D01*
X38544019Y-41562500D01*
X38415981Y-41562500D01*
X38290402Y-41587479D01*
X38172110Y-41636478D01*
X38065649Y-41707612D01*
X37975112Y-41798149D01*
X37903978Y-41904610D01*
X37854979Y-42022902D01*
X37830000Y-42148481D01*
X37496741Y-42148481D01*
X37080152Y-41731892D01*
X37080139Y-41731922D01*
X37020130Y-41968891D01*
X37020130Y-41968892D01*
X36999945Y-42212500D01*
X27021143Y-42212500D01*
X27024888Y-40816628D01*
X38003368Y-40816628D01*
X38479999Y-41293259D01*
X38956630Y-40816628D01*
X38843334Y-40777734D01*
X38602222Y-40737500D01*
X38357778Y-40737500D01*
X38116664Y-40777734D01*
X38003368Y-40816628D01*
X27024888Y-40816628D01*
X27024889Y-40816197D01*
X27043953Y-40758060D01*
X27054301Y-40746048D01*
X31667954Y-36187483D01*
X36754500Y-36187483D01*
X36754500Y-38237516D01*
X36764999Y-38340288D01*
X36765000Y-38340295D01*
X36765001Y-38340297D01*
X36819197Y-38503850D01*
X36820187Y-38506836D01*
X36912285Y-38656152D01*
X36912286Y-38656153D01*
X36912288Y-38656156D01*
X37036344Y-38780212D01*
X37185666Y-38872314D01*
X37352203Y-38927499D01*
X37454991Y-38938000D01*
X39505008Y-38937999D01*
X39505016Y-38937999D01*
X39607788Y-38927500D01*
X39607788Y-38927499D01*
X39607797Y-38927499D01*
X39774334Y-38872314D01*
X39923656Y-38780212D01*
X40047712Y-38656156D01*
X40139814Y-38506834D01*
X40194999Y-38340297D01*
X40205500Y-38237509D01*
X40205499Y-36860996D01*
X44223998Y-36860996D01*
X44223998Y-36861003D01*
X44243980Y-37153142D01*
X44243982Y-37153151D01*
X44303557Y-37439845D01*
X44303559Y-37439850D01*
X44401621Y-37715770D01*
X44518695Y-37941714D01*
X44536343Y-37975772D01*
X44705203Y-38214991D01*
X44705206Y-38214995D01*
X44705210Y-38215000D01*
X44905081Y-38429010D01*
X45132231Y-38613811D01*
X45382430Y-38765960D01*
X45651015Y-38882623D01*
X45932985Y-38961627D01*
X46223086Y-39001500D01*
X46223092Y-39001500D01*
X46515908Y-39001500D01*
X46515914Y-39001500D01*
X46806015Y-38961627D01*
X47087985Y-38882623D01*
X47356570Y-38765960D01*
X47606769Y-38613811D01*
X47833919Y-38429010D01*
X47997149Y-38254232D01*
X48050684Y-38224612D01*
X48111407Y-38232114D01*
X48141849Y-38254231D01*
X48305081Y-38429010D01*
X48532231Y-38613811D01*
X48782430Y-38765960D01*
X49051015Y-38882623D01*
X49332985Y-38961627D01*
X49623086Y-39001500D01*
X49623092Y-39001500D01*
X49915908Y-39001500D01*
X49915914Y-39001500D01*
X50206015Y-38961627D01*
X50487985Y-38882623D01*
X50756570Y-38765960D01*
X51006769Y-38613811D01*
X51233919Y-38429010D01*
X51433790Y-38215000D01*
X51602659Y-37975768D01*
X51737379Y-37715770D01*
X51835441Y-37439850D01*
X51841158Y-37412339D01*
X76435000Y-37412339D01*
X76435000Y-37517661D01*
X76462259Y-37619394D01*
X76514920Y-37710606D01*
X76589394Y-37785080D01*
X76680606Y-37837741D01*
X76782339Y-37865000D01*
X76887661Y-37865000D01*
X76989394Y-37837741D01*
X77080606Y-37785080D01*
X77155080Y-37710606D01*
X77207741Y-37619394D01*
X77235000Y-37517661D01*
X77235000Y-37412339D01*
X77207741Y-37310606D01*
X77155080Y-37219394D01*
X77080606Y-37144920D01*
X76989394Y-37092259D01*
X76887661Y-37065000D01*
X76782339Y-37065000D01*
X76680606Y-37092259D01*
X76589394Y-37144920D01*
X76514920Y-37219394D01*
X76462259Y-37310606D01*
X76435000Y-37412339D01*
X51841158Y-37412339D01*
X51895019Y-37153146D01*
X51910702Y-36923862D01*
X51915002Y-36861003D01*
X51915002Y-36860996D01*
X51911856Y-36815000D01*
X75703708Y-36815000D01*
X76184999Y-36815000D01*
X76185000Y-36814999D01*
X77485000Y-36814999D01*
X77485001Y-36815000D01*
X77966291Y-36815000D01*
X83323708Y-36815000D01*
X83804999Y-36815000D01*
X83805000Y-36814999D01*
X83805000Y-36333708D01*
X83802514Y-36334867D01*
X83616188Y-36465334D01*
X83455334Y-36626188D01*
X83324867Y-36812514D01*
X83323708Y-36815000D01*
X77966291Y-36815000D01*
X77965132Y-36812514D01*
X77834665Y-36626188D01*
X77673811Y-36465334D01*
X77487485Y-36334867D01*
X77485000Y-36333708D01*
X77485000Y-36814999D01*
X76185000Y-36814999D01*
X76185000Y-36333708D01*
X76182514Y-36334867D01*
X75996188Y-36465334D01*
X75835334Y-36626188D01*
X75704867Y-36812514D01*
X75703708Y-36815000D01*
X51911856Y-36815000D01*
X51895019Y-36568857D01*
X51895019Y-36568854D01*
X51835441Y-36282150D01*
X51737379Y-36006230D01*
X51638200Y-35814824D01*
X52967999Y-35814824D01*
X52974401Y-35874370D01*
X52974403Y-35874381D01*
X53024646Y-36009088D01*
X53024647Y-36009090D01*
X53110807Y-36124184D01*
X53110815Y-36124192D01*
X53225909Y-36210352D01*
X53225911Y-36210353D01*
X53360618Y-36260596D01*
X53360629Y-36260598D01*
X53420176Y-36267000D01*
X53579999Y-36267000D01*
X53580000Y-36266999D01*
X53580000Y-35655001D01*
X54880000Y-35655001D01*
X54880000Y-36266999D01*
X54880001Y-36267000D01*
X55039824Y-36267000D01*
X55099370Y-36260598D01*
X55099381Y-36260596D01*
X55182284Y-36229675D01*
X69924561Y-36229675D01*
X70010027Y-36252576D01*
X70229997Y-36271821D01*
X70230003Y-36271821D01*
X70449977Y-36252576D01*
X70535437Y-36229676D01*
X70229999Y-35924238D01*
X69924561Y-36229675D01*
X55182284Y-36229675D01*
X55234088Y-36210353D01*
X55234090Y-36210352D01*
X55349184Y-36124192D01*
X55349192Y-36124184D01*
X55435352Y-36009090D01*
X55435353Y-36009088D01*
X55485596Y-35874381D01*
X55485598Y-35874370D01*
X55492000Y-35814824D01*
X55492000Y-35655001D01*
X55491999Y-35655000D01*
X54880001Y-35655000D01*
X54880000Y-35655001D01*
X53580000Y-35655001D01*
X53579999Y-35655000D01*
X52968001Y-35655000D01*
X52968000Y-35655001D01*
X52968000Y-35814824D01*
X52967999Y-35814824D01*
X51638200Y-35814824D01*
X51602659Y-35746232D01*
X51602657Y-35746229D01*
X51602656Y-35746227D01*
X51433796Y-35507008D01*
X51433793Y-35507005D01*
X51433790Y-35507000D01*
X51233919Y-35292990D01*
X51182723Y-35251339D01*
X51006778Y-35108196D01*
X51006775Y-35108194D01*
X51006769Y-35108189D01*
X50913550Y-35051501D01*
X50756574Y-34956042D01*
X50756567Y-34956038D01*
X50753809Y-34954840D01*
X53849000Y-34954840D01*
X53849000Y-35055160D01*
X53874964Y-35152061D01*
X53925124Y-35238940D01*
X53996060Y-35309876D01*
X54082939Y-35360036D01*
X54179840Y-35386000D01*
X54280160Y-35386000D01*
X54377061Y-35360036D01*
X54463940Y-35309876D01*
X54534876Y-35238940D01*
X54585036Y-35152061D01*
X54611000Y-35055160D01*
X54611000Y-35004996D01*
X68963179Y-35004996D01*
X68963179Y-35005003D01*
X68982423Y-35224973D01*
X69005323Y-35310437D01*
X69310761Y-35005000D01*
X69260601Y-34954840D01*
X69849000Y-34954840D01*
X69849000Y-35055160D01*
X69874964Y-35152061D01*
X69925124Y-35238940D01*
X69996060Y-35309876D01*
X70082939Y-35360036D01*
X70179840Y-35386000D01*
X70280160Y-35386000D01*
X70377061Y-35360036D01*
X70463940Y-35309876D01*
X70534876Y-35238940D01*
X70585036Y-35152061D01*
X70611000Y-35055160D01*
X70611000Y-35004999D01*
X71149238Y-35004999D01*
X71454676Y-35310437D01*
X71477576Y-35224977D01*
X71496821Y-35005003D01*
X71496821Y-35004996D01*
X71477576Y-34785027D01*
X71454675Y-34699561D01*
X71149238Y-35004999D01*
X70611000Y-35004999D01*
X70611000Y-34954840D01*
X70585036Y-34857939D01*
X70534876Y-34771060D01*
X70463940Y-34700124D01*
X70377061Y-34649964D01*
X70280160Y-34624000D01*
X70179840Y-34624000D01*
X70082939Y-34649964D01*
X69996060Y-34700124D01*
X69925124Y-34771060D01*
X69874964Y-34857939D01*
X69849000Y-34954840D01*
X69260601Y-34954840D01*
X69005323Y-34699562D01*
X68982423Y-34785026D01*
X68963179Y-35004996D01*
X54611000Y-35004996D01*
X54611000Y-34954840D01*
X54585036Y-34857939D01*
X54534876Y-34771060D01*
X54463940Y-34700124D01*
X54377061Y-34649964D01*
X54280160Y-34624000D01*
X54179840Y-34624000D01*
X54082939Y-34649964D01*
X53996060Y-34700124D01*
X53925124Y-34771060D01*
X53874964Y-34857939D01*
X53849000Y-34954840D01*
X50753809Y-34954840D01*
X50487987Y-34839378D01*
X50487985Y-34839377D01*
X50206015Y-34760373D01*
X50206011Y-34760372D01*
X50206009Y-34760372D01*
X49995946Y-34731500D01*
X49915914Y-34720500D01*
X49623086Y-34720500D01*
X49332990Y-34760372D01*
X49332981Y-34760374D01*
X49294842Y-34771060D01*
X49051015Y-34839377D01*
X49051013Y-34839377D01*
X49051012Y-34839378D01*
X48782432Y-34956038D01*
X48782425Y-34956042D01*
X48532237Y-35108185D01*
X48532221Y-35108196D01*
X48305086Y-35292985D01*
X48305085Y-35292986D01*
X48305082Y-35292989D01*
X48305081Y-35292990D01*
X48273098Y-35327236D01*
X48141853Y-35467765D01*
X48088316Y-35497387D01*
X48027593Y-35489885D01*
X47997147Y-35467765D01*
X47995627Y-35466137D01*
X47833919Y-35292990D01*
X47782723Y-35251339D01*
X47606778Y-35108196D01*
X47606775Y-35108194D01*
X47606769Y-35108189D01*
X47513550Y-35051501D01*
X47356574Y-34956042D01*
X47356567Y-34956038D01*
X47087987Y-34839378D01*
X47087985Y-34839377D01*
X46806015Y-34760373D01*
X46806011Y-34760372D01*
X46806009Y-34760372D01*
X46595946Y-34731500D01*
X46515914Y-34720500D01*
X46223086Y-34720500D01*
X45932990Y-34760372D01*
X45932981Y-34760374D01*
X45894842Y-34771060D01*
X45651015Y-34839377D01*
X45651013Y-34839377D01*
X45651012Y-34839378D01*
X45382432Y-34956038D01*
X45382425Y-34956042D01*
X45132237Y-35108185D01*
X45132221Y-35108196D01*
X44905086Y-35292985D01*
X44905085Y-35292986D01*
X44905082Y-35292989D01*
X44905081Y-35292990D01*
X44873098Y-35327236D01*
X44705209Y-35507001D01*
X44705203Y-35507008D01*
X44536344Y-35746227D01*
X44536343Y-35746227D01*
X44433942Y-35943853D01*
X44401621Y-36006230D01*
X44400605Y-36009090D01*
X44303557Y-36282154D01*
X44243982Y-36568848D01*
X44243980Y-36568857D01*
X44223998Y-36860996D01*
X40205499Y-36860996D01*
X40205499Y-36187492D01*
X40205499Y-36187491D01*
X40205499Y-36187483D01*
X40195000Y-36084711D01*
X40194999Y-36084709D01*
X40194999Y-36084703D01*
X40139814Y-35918166D01*
X40047712Y-35768844D01*
X39923656Y-35644788D01*
X39923653Y-35644786D01*
X39923652Y-35644785D01*
X39774336Y-35552687D01*
X39774335Y-35552686D01*
X39774334Y-35552686D01*
X39607797Y-35497501D01*
X39607794Y-35497500D01*
X39505016Y-35487000D01*
X37454983Y-35487000D01*
X37352211Y-35497499D01*
X37352199Y-35497502D01*
X37185663Y-35552687D01*
X37036347Y-35644785D01*
X36912285Y-35768847D01*
X36820187Y-35918163D01*
X36765000Y-36084705D01*
X36754500Y-36187483D01*
X31667954Y-36187483D01*
X33684338Y-34195175D01*
X52968000Y-34195175D01*
X52968000Y-34354999D01*
X52968001Y-34355000D01*
X53579999Y-34355000D01*
X53580000Y-34354999D01*
X53580000Y-33743001D01*
X54880000Y-33743001D01*
X54880000Y-34354999D01*
X54880001Y-34355000D01*
X55491999Y-34355000D01*
X55492000Y-34354999D01*
X55492000Y-34195175D01*
X55485598Y-34135629D01*
X55485596Y-34135618D01*
X55435353Y-34000911D01*
X55435352Y-34000909D01*
X55349192Y-33885815D01*
X55349184Y-33885807D01*
X55234090Y-33799647D01*
X55234088Y-33799646D01*
X55182281Y-33780323D01*
X69924562Y-33780323D01*
X70230000Y-34085761D01*
X70535437Y-33780323D01*
X70449973Y-33757423D01*
X70230003Y-33738179D01*
X70229997Y-33738179D01*
X70010026Y-33757423D01*
X69924562Y-33780323D01*
X55182281Y-33780323D01*
X55099381Y-33749403D01*
X55099370Y-33749401D01*
X55039824Y-33743000D01*
X54880001Y-33743000D01*
X54880000Y-33743001D01*
X53580000Y-33743001D01*
X53579999Y-33743000D01*
X53420176Y-33743000D01*
X53360629Y-33749401D01*
X53360618Y-33749403D01*
X53225911Y-33799646D01*
X53225909Y-33799647D01*
X53110815Y-33885807D01*
X53110807Y-33885815D01*
X53024647Y-34000909D01*
X53024646Y-34000911D01*
X52974403Y-34135618D01*
X52974401Y-34135629D01*
X52968000Y-34195175D01*
X33684338Y-34195175D01*
X35371053Y-32528600D01*
X35425734Y-32501153D01*
X35440685Y-32500025D01*
X114259251Y-32549974D01*
G37*
%TD.AperFunction*%
%TD*%
M02*
