%TF.GenerationSoftware,KiCad,Pcbnew,8.0.8*%
%TF.CreationDate,2025-02-20T16:07:12-05:00*%
%TF.ProjectId,ESP32_SMD,45535033-325f-4534-9d44-2e6b69636164,rev?*%
%TF.SameCoordinates,Original*%
%TF.FileFunction,Drillmap*%
%TF.FilePolarity,Positive*%
%FSLAX45Y45*%
G04 Gerber Fmt 4.5, Leading zero omitted, Abs format (unit mm)*
G04 Created by KiCad (PCBNEW 8.0.8) date 2025-02-20 16:07:12*
%MOMM*%
%LPD*%
G01*
G04 APERTURE LIST*
%ADD10C,0.050000*%
%ADD11C,0.200000*%
G04 APERTURE END LIST*
D10*
X2600113Y-3430000D02*
G75*
G02*
X2885294Y-3155000I275181J0D01*
G01*
X12410000Y-8385398D02*
G75*
G02*
X12170000Y-8625400I-240000J-2D01*
G01*
X12415294Y-3410000D02*
X12410294Y-8030000D01*
X3155000Y-3155000D02*
X12170294Y-3165000D01*
X12170294Y-3165000D02*
G75*
G02*
X12415290Y-3410000I-4J-245000D01*
G01*
X2610000Y-8485398D02*
X2599818Y-3722500D01*
X2885294Y-3155000D02*
X3155000Y-3155000D01*
X12170000Y-8625398D02*
X3034706Y-8640398D01*
X12410000Y-8385398D02*
X12410294Y-8030000D01*
X3034706Y-8640398D02*
X2765000Y-8640398D01*
X2600113Y-3430000D02*
X2599818Y-3722500D01*
X2765000Y-8640398D02*
G75*
G02*
X2610002Y-8485398I0J154998D01*
G01*
D11*
X2858095Y-8954382D02*
X2858095Y-8754382D01*
X2858095Y-8754382D02*
X2905714Y-8754382D01*
X2905714Y-8754382D02*
X2934286Y-8763906D01*
X2934286Y-8763906D02*
X2953333Y-8782954D01*
X2953333Y-8782954D02*
X2962857Y-8802001D01*
X2962857Y-8802001D02*
X2972381Y-8840096D01*
X2972381Y-8840096D02*
X2972381Y-8868668D01*
X2972381Y-8868668D02*
X2962857Y-8906763D01*
X2962857Y-8906763D02*
X2953333Y-8925811D01*
X2953333Y-8925811D02*
X2934286Y-8944858D01*
X2934286Y-8944858D02*
X2905714Y-8954382D01*
X2905714Y-8954382D02*
X2858095Y-8954382D01*
X3058095Y-8954382D02*
X3058095Y-8821049D01*
X3058095Y-8859144D02*
X3067619Y-8840096D01*
X3067619Y-8840096D02*
X3077143Y-8830573D01*
X3077143Y-8830573D02*
X3096190Y-8821049D01*
X3096190Y-8821049D02*
X3115238Y-8821049D01*
X3181905Y-8954382D02*
X3181905Y-8821049D01*
X3181905Y-8754382D02*
X3172381Y-8763906D01*
X3172381Y-8763906D02*
X3181905Y-8773430D01*
X3181905Y-8773430D02*
X3191428Y-8763906D01*
X3191428Y-8763906D02*
X3181905Y-8754382D01*
X3181905Y-8754382D02*
X3181905Y-8773430D01*
X3305714Y-8954382D02*
X3286666Y-8944858D01*
X3286666Y-8944858D02*
X3277143Y-8925811D01*
X3277143Y-8925811D02*
X3277143Y-8754382D01*
X3410476Y-8954382D02*
X3391428Y-8944858D01*
X3391428Y-8944858D02*
X3381905Y-8925811D01*
X3381905Y-8925811D02*
X3381905Y-8754382D01*
X3639047Y-8954382D02*
X3639047Y-8754382D01*
X3639047Y-8754382D02*
X3705714Y-8897239D01*
X3705714Y-8897239D02*
X3772381Y-8754382D01*
X3772381Y-8754382D02*
X3772381Y-8954382D01*
X3953333Y-8954382D02*
X3953333Y-8849620D01*
X3953333Y-8849620D02*
X3943809Y-8830573D01*
X3943809Y-8830573D02*
X3924762Y-8821049D01*
X3924762Y-8821049D02*
X3886666Y-8821049D01*
X3886666Y-8821049D02*
X3867619Y-8830573D01*
X3953333Y-8944858D02*
X3934286Y-8954382D01*
X3934286Y-8954382D02*
X3886666Y-8954382D01*
X3886666Y-8954382D02*
X3867619Y-8944858D01*
X3867619Y-8944858D02*
X3858095Y-8925811D01*
X3858095Y-8925811D02*
X3858095Y-8906763D01*
X3858095Y-8906763D02*
X3867619Y-8887716D01*
X3867619Y-8887716D02*
X3886666Y-8878192D01*
X3886666Y-8878192D02*
X3934286Y-8878192D01*
X3934286Y-8878192D02*
X3953333Y-8868668D01*
X4048571Y-8821049D02*
X4048571Y-9021049D01*
X4048571Y-8830573D02*
X4067619Y-8821049D01*
X4067619Y-8821049D02*
X4105714Y-8821049D01*
X4105714Y-8821049D02*
X4124762Y-8830573D01*
X4124762Y-8830573D02*
X4134286Y-8840096D01*
X4134286Y-8840096D02*
X4143809Y-8859144D01*
X4143809Y-8859144D02*
X4143809Y-8916287D01*
X4143809Y-8916287D02*
X4134286Y-8935335D01*
X4134286Y-8935335D02*
X4124762Y-8944858D01*
X4124762Y-8944858D02*
X4105714Y-8954382D01*
X4105714Y-8954382D02*
X4067619Y-8954382D01*
X4067619Y-8954382D02*
X4048571Y-8944858D01*
X4229524Y-8935335D02*
X4239048Y-8944858D01*
X4239048Y-8944858D02*
X4229524Y-8954382D01*
X4229524Y-8954382D02*
X4220000Y-8944858D01*
X4220000Y-8944858D02*
X4229524Y-8935335D01*
X4229524Y-8935335D02*
X4229524Y-8954382D01*
X4229524Y-8830573D02*
X4239048Y-8840096D01*
X4239048Y-8840096D02*
X4229524Y-8849620D01*
X4229524Y-8849620D02*
X4220000Y-8840096D01*
X4220000Y-8840096D02*
X4229524Y-8830573D01*
X4229524Y-8830573D02*
X4229524Y-8849620D01*
M02*
