%TF.GenerationSoftware,KiCad,Pcbnew,8.0.8*%
%TF.CreationDate,2025-02-20T16:07:12-05:00*%
%TF.ProjectId,ESP32_SMD,45535033-325f-4534-9d44-2e6b69636164,rev?*%
%TF.SameCoordinates,Original*%
%TF.FileFunction,Drillmap*%
%TF.FilePolarity,Positive*%
%FSLAX45Y45*%
G04 Gerber Fmt 4.5, Leading zero omitted, Abs format (unit mm)*
G04 Created by KiCad (PCBNEW 8.0.8) date 2025-02-20 16:07:12*
%MOMM*%
%LPD*%
G01*
G04 APERTURE LIST*
%ADD10C,0.050000*%
%ADD11C,0.200000*%
%ADD12C,0.100000*%
%ADD13C,0.130000*%
%ADD14C,0.178000*%
%ADD15C,0.220000*%
G04 APERTURE END LIST*
D10*
X2600113Y-3430000D02*
G75*
G02*
X2885294Y-3155000I275181J0D01*
G01*
X12410000Y-8385398D02*
G75*
G02*
X12170000Y-8625400I-240000J-2D01*
G01*
X12415294Y-3410000D02*
X12410294Y-8030000D01*
X3155000Y-3155000D02*
X12170294Y-3165000D01*
X12170294Y-3165000D02*
G75*
G02*
X12415290Y-3410000I-4J-245000D01*
G01*
X2610000Y-8485398D02*
X2599818Y-3722500D01*
X2885294Y-3155000D02*
X3155000Y-3155000D01*
X12170000Y-8625398D02*
X3034706Y-8640398D01*
X12410000Y-8385398D02*
X12410294Y-8030000D01*
X3034706Y-8640398D02*
X2765000Y-8640398D01*
X2600113Y-3430000D02*
X2599818Y-3722500D01*
X2765000Y-8640398D02*
G75*
G02*
X2610002Y-8485398I0J154998D01*
G01*
D11*
D12*
X5330000Y-5220000D02*
X5360000Y-5250000D01*
X5360000Y-5220000D02*
X5330000Y-5250000D01*
X5359500Y-5576090D02*
X5389500Y-5606090D01*
X5389500Y-5576090D02*
X5359500Y-5606090D01*
X5359500Y-7325480D02*
X5389500Y-7355480D01*
X5389500Y-7325480D02*
X5359500Y-7355480D01*
X5589224Y-7435776D02*
X5619223Y-7465776D01*
X5619223Y-7435776D02*
X5589224Y-7465776D01*
X5671576Y-7348423D02*
X5701576Y-7378423D01*
X5701576Y-7348423D02*
X5671576Y-7378423D01*
X5674600Y-8386000D02*
X5704600Y-8416000D01*
X5704600Y-8386000D02*
X5674600Y-8416000D01*
X5800000Y-4755000D02*
X5830000Y-4785000D01*
X5830000Y-4755000D02*
X5800000Y-4785000D01*
X5805726Y-5619273D02*
X5835726Y-5649273D01*
X5835726Y-5619273D02*
X5805726Y-5649273D01*
X5850000Y-5270000D02*
X5880000Y-5300000D01*
X5880000Y-5270000D02*
X5850000Y-5300000D01*
X6367360Y-6495690D02*
X6397360Y-6525690D01*
X6397360Y-6495690D02*
X6367360Y-6525690D01*
X6371620Y-6348580D02*
X6401620Y-6378580D01*
X6401620Y-6348580D02*
X6371620Y-6378580D01*
X6380000Y-6615000D02*
X6410000Y-6645000D01*
X6410000Y-6615000D02*
X6380000Y-6645000D01*
X6840000Y-7375000D02*
X6870000Y-7405000D01*
X6870000Y-7375000D02*
X6840000Y-7405000D01*
X6970000Y-6957030D02*
X7000000Y-6987030D01*
X7000000Y-6957030D02*
X6970000Y-6987030D01*
X7125000Y-5495000D02*
X7155000Y-5525000D01*
X7155000Y-5495000D02*
X7125000Y-5525000D01*
X7157520Y-7089890D02*
X7187520Y-7119890D01*
X7187520Y-7089890D02*
X7157520Y-7119890D01*
X7289530Y-7017030D02*
X7319530Y-7047030D01*
X7319530Y-7017030D02*
X7289530Y-7047030D01*
X7500000Y-7170000D02*
X7530000Y-7200000D01*
X7530000Y-7170000D02*
X7500000Y-7200000D01*
X7846850Y-5358910D02*
X7876850Y-5388910D01*
X7876850Y-5358910D02*
X7846850Y-5388910D01*
X7910000Y-4785000D02*
X7940000Y-4815000D01*
X7940000Y-4785000D02*
X7910000Y-4815000D01*
X7910000Y-5240000D02*
X7940000Y-5270000D01*
X7940000Y-5240000D02*
X7910000Y-5270000D01*
X7960000Y-4425500D02*
X7990000Y-4455500D01*
X7990000Y-4425500D02*
X7960000Y-4455500D01*
X7960000Y-4555000D02*
X7990000Y-4585000D01*
X7990000Y-4555000D02*
X7960000Y-4585000D01*
X8010000Y-4785000D02*
X8040000Y-4815000D01*
X8040000Y-4785000D02*
X8010000Y-4815000D01*
X8010000Y-5240000D02*
X8040000Y-5270000D01*
X8040000Y-5240000D02*
X8010000Y-5270000D01*
X8040000Y-4555000D02*
X8070000Y-4585000D01*
X8070000Y-4555000D02*
X8040000Y-4585000D01*
X8267430Y-4502570D02*
X8297430Y-4532570D01*
X8297430Y-4502570D02*
X8267430Y-4532570D01*
X8295060Y-6497000D02*
X8325060Y-6527000D01*
X8325060Y-6497000D02*
X8295060Y-6527000D01*
X8440000Y-4760000D02*
X8470000Y-4790000D01*
X8470000Y-4760000D02*
X8440000Y-4790000D01*
X8800000Y-6840000D02*
X8830000Y-6870000D01*
X8830000Y-6840000D02*
X8800000Y-6870000D01*
X8851630Y-6976630D02*
X8881630Y-7006630D01*
X8881630Y-6976630D02*
X8851630Y-7006630D01*
X8925000Y-6230000D02*
X8955000Y-6260000D01*
X8955000Y-6230000D02*
X8925000Y-6260000D01*
X9355000Y-5955000D02*
X9385000Y-5985000D01*
X9385000Y-5955000D02*
X9355000Y-5985000D01*
X10085000Y-6155000D02*
X10115000Y-6185000D01*
X10115000Y-6155000D02*
X10085000Y-6185000D01*
X10145000Y-3925500D02*
X10175000Y-3955500D01*
X10175000Y-3925500D02*
X10145000Y-3955500D01*
X10145000Y-4045500D02*
X10175000Y-4075500D01*
X10175000Y-4045500D02*
X10145000Y-4075500D01*
X10145000Y-6014000D02*
X10175000Y-6044000D01*
X10175000Y-6014000D02*
X10145000Y-6044000D01*
X10147200Y-4672820D02*
X10177200Y-4702820D01*
X10177200Y-4672820D02*
X10147200Y-4702820D01*
X10150000Y-5894000D02*
X10180000Y-5924000D01*
X10180000Y-5894000D02*
X10150000Y-5924000D01*
X10155000Y-5225000D02*
X10185000Y-5255000D01*
X10185000Y-5225000D02*
X10155000Y-5255000D01*
X10205000Y-6150000D02*
X10235000Y-6180000D01*
X10235000Y-6150000D02*
X10205000Y-6180000D01*
X10440000Y-6145000D02*
X10470000Y-6175000D01*
X10470000Y-6145000D02*
X10440000Y-6175000D01*
X10500000Y-4150000D02*
X10530000Y-4180000D01*
X10530000Y-4150000D02*
X10500000Y-4180000D01*
X10500000Y-5745000D02*
X10530000Y-5775000D01*
X10530000Y-5745000D02*
X10500000Y-5775000D01*
X10560000Y-6150000D02*
X10590000Y-6180000D01*
X10590000Y-6150000D02*
X10560000Y-6180000D01*
X7704500Y-5461000D02*
G75*
G02*
X7630500Y-5461000I-37000J0D01*
G01*
X7630500Y-5461000D02*
G75*
G02*
X7704500Y-5461000I37000J0D01*
G01*
X7704500Y-5715000D02*
G75*
G02*
X7630500Y-5715000I-37000J0D01*
G01*
X7630500Y-5715000D02*
G75*
G02*
X7704500Y-5715000I37000J0D01*
G01*
X7704500Y-5969000D02*
G75*
G02*
X7630500Y-5969000I-37000J0D01*
G01*
X7630500Y-5969000D02*
G75*
G02*
X7704500Y-5969000I37000J0D01*
G01*
X7704500Y-6223000D02*
G75*
G02*
X7630500Y-6223000I-37000J0D01*
G01*
X7630500Y-6223000D02*
G75*
G02*
X7704500Y-6223000I37000J0D01*
G01*
X7704500Y-6477000D02*
G75*
G02*
X7630500Y-6477000I-37000J0D01*
G01*
X7630500Y-6477000D02*
G75*
G02*
X7704500Y-6477000I37000J0D01*
G01*
X7704500Y-6731000D02*
G75*
G02*
X7630500Y-6731000I-37000J0D01*
G01*
X7630500Y-6731000D02*
G75*
G02*
X7704500Y-6731000I37000J0D01*
G01*
X7704500Y-6985000D02*
G75*
G02*
X7630500Y-6985000I-37000J0D01*
G01*
X7630500Y-6985000D02*
G75*
G02*
X7704500Y-6985000I37000J0D01*
G01*
X8498500Y-5461000D02*
G75*
G02*
X8424500Y-5461000I-37000J0D01*
G01*
X8424500Y-5461000D02*
G75*
G02*
X8498500Y-5461000I37000J0D01*
G01*
X8498500Y-5715000D02*
G75*
G02*
X8424500Y-5715000I-37000J0D01*
G01*
X8424500Y-5715000D02*
G75*
G02*
X8498500Y-5715000I37000J0D01*
G01*
X8498500Y-5969000D02*
G75*
G02*
X8424500Y-5969000I-37000J0D01*
G01*
X8424500Y-5969000D02*
G75*
G02*
X8498500Y-5969000I37000J0D01*
G01*
X8498500Y-6223000D02*
G75*
G02*
X8424500Y-6223000I-37000J0D01*
G01*
X8424500Y-6223000D02*
G75*
G02*
X8498500Y-6223000I37000J0D01*
G01*
X8498500Y-6477000D02*
G75*
G02*
X8424500Y-6477000I-37000J0D01*
G01*
X8424500Y-6477000D02*
G75*
G02*
X8498500Y-6477000I37000J0D01*
G01*
X8498500Y-6731000D02*
G75*
G02*
X8424500Y-6731000I-37000J0D01*
G01*
X8424500Y-6731000D02*
G75*
G02*
X8498500Y-6731000I37000J0D01*
G01*
X8498500Y-6985000D02*
G75*
G02*
X8424500Y-6985000I-37000J0D01*
G01*
X8424500Y-6985000D02*
G75*
G02*
X8498500Y-6985000I37000J0D01*
G01*
X11955000Y-4090830D02*
X11955000Y-4165830D01*
X11917500Y-4128330D02*
X11992500Y-4128330D01*
X11955000Y-4290830D02*
X11955000Y-4365830D01*
X11917500Y-4328330D02*
X11992500Y-4328330D01*
X11955000Y-4490830D02*
X11955000Y-4565830D01*
X11917500Y-4528330D02*
X11992500Y-4528330D01*
X11955000Y-5124170D02*
X11955000Y-5199170D01*
X11917500Y-5161670D02*
X11992500Y-5161670D01*
X11955000Y-5324170D02*
X11955000Y-5399170D01*
X11917500Y-5361670D02*
X11992500Y-5361670D01*
X11955000Y-5524170D02*
X11955000Y-5599170D01*
X11917500Y-5561670D02*
X11992500Y-5561670D01*
X11955000Y-6162500D02*
X11955000Y-6237500D01*
X11917500Y-6200000D02*
X11992500Y-6200000D01*
X11955000Y-6362500D02*
X11955000Y-6437500D01*
X11917500Y-6400000D02*
X11992500Y-6400000D01*
X11955000Y-6562500D02*
X11955000Y-6637500D01*
X11917500Y-6600000D02*
X11992500Y-6600000D01*
X11955000Y-7190830D02*
X11955000Y-7265830D01*
X11917500Y-7228330D02*
X11992500Y-7228330D01*
X11955000Y-7390830D02*
X11955000Y-7465830D01*
X11917500Y-7428330D02*
X11992500Y-7428330D01*
X11955000Y-7590830D02*
X11955000Y-7665830D01*
X11917500Y-7628330D02*
X11992500Y-7628330D01*
X2889441Y-6031941D02*
X2889441Y-5978059D01*
X2835559Y-5978059D01*
X2835559Y-6031941D01*
X2889441Y-6031941D01*
X2889441Y-7031941D02*
X2889441Y-6978059D01*
X2835559Y-6978059D01*
X2835559Y-7031941D01*
X2889441Y-7031941D01*
X4489441Y-6031941D02*
X4489441Y-5978059D01*
X4435559Y-5978059D01*
X4435559Y-6031941D01*
X4489441Y-6031941D01*
X4489441Y-7031941D02*
X4489441Y-6978059D01*
X4435559Y-6978059D01*
X4435559Y-7031941D01*
X4489441Y-7031941D01*
X5449941Y-3527441D02*
X5449941Y-3473559D01*
X5396059Y-3473559D01*
X5396059Y-3527441D01*
X5449941Y-3527441D01*
X5449941Y-4527441D02*
X5449941Y-4473559D01*
X5396059Y-4473559D01*
X5396059Y-4527441D01*
X5449941Y-4527441D01*
X7049941Y-3527441D02*
X7049941Y-3473559D01*
X6996059Y-3473559D01*
X6996059Y-3527441D01*
X7049941Y-3527441D01*
X7049941Y-4527441D02*
X7049941Y-4473559D01*
X6996059Y-4473559D01*
X6996059Y-4527441D01*
X7049941Y-4527441D01*
X3098800Y-7456800D02*
X3138800Y-7416800D01*
X3098800Y-7376800D01*
X3058800Y-7416800D01*
X3098800Y-7456800D01*
X3098800Y-7706800D02*
X3138800Y-7666800D01*
X3098800Y-7626800D01*
X3058800Y-7666800D01*
X3098800Y-7706800D01*
X4699000Y-7723500D02*
X4739000Y-7683500D01*
X4699000Y-7643500D01*
X4659000Y-7683500D01*
X4699000Y-7723500D01*
X5715000Y-7723500D02*
X5755000Y-7683500D01*
X5715000Y-7643500D01*
X5675000Y-7683500D01*
X5715000Y-7723500D01*
X6032500Y-7723500D02*
X6072500Y-7683500D01*
X6032500Y-7643500D01*
X5992500Y-7683500D01*
X6032500Y-7723500D01*
X7048500Y-7723500D02*
X7088500Y-7683500D01*
X7048500Y-7643500D01*
X7008500Y-7683500D01*
X7048500Y-7723500D01*
X7683500Y-3786500D02*
X7723500Y-3746500D01*
X7683500Y-3706500D01*
X7643500Y-3746500D01*
X7683500Y-3786500D01*
X7683500Y-4040500D02*
X7723500Y-4000500D01*
X7683500Y-3960500D01*
X7643500Y-4000500D01*
X7683500Y-4040500D01*
X7683500Y-4294500D02*
X7723500Y-4254500D01*
X7683500Y-4214500D01*
X7643500Y-4254500D01*
X7683500Y-4294500D01*
X8445500Y-3786500D02*
X8485500Y-3746500D01*
X8445500Y-3706500D01*
X8405500Y-3746500D01*
X8445500Y-3786500D01*
X8445500Y-4040500D02*
X8485500Y-4000500D01*
X8445500Y-3960500D01*
X8405500Y-4000500D01*
X8445500Y-4040500D01*
X8445500Y-4294500D02*
X8485500Y-4254500D01*
X8445500Y-4214500D01*
X8405500Y-4254500D01*
X8445500Y-4294500D01*
X10350500Y-4040500D02*
X10390500Y-4000500D01*
X10350500Y-3960500D01*
X10310500Y-4000500D01*
X10350500Y-4040500D01*
X10350500Y-5001000D02*
X10390500Y-4961000D01*
X10350500Y-4921000D01*
X10310500Y-4961000D01*
X10350500Y-5001000D01*
X10350500Y-6009000D02*
X10390500Y-5969000D01*
X10350500Y-5929000D01*
X10310500Y-5969000D01*
X10350500Y-6009000D01*
X10350500Y-7406000D02*
X10390500Y-7366000D01*
X10350500Y-7326000D01*
X10310500Y-7366000D01*
X10350500Y-7406000D01*
X11366500Y-4040500D02*
X11406500Y-4000500D01*
X11366500Y-3960500D01*
X11326500Y-4000500D01*
X11366500Y-4040500D01*
X11366500Y-5001000D02*
X11406500Y-4961000D01*
X11366500Y-4921000D01*
X11326500Y-4961000D01*
X11366500Y-5001000D01*
X11366500Y-6009000D02*
X11406500Y-5969000D01*
X11366500Y-5929000D01*
X11326500Y-5969000D01*
X11366500Y-6009000D01*
X11366500Y-7406000D02*
X11406500Y-7366000D01*
X11366500Y-7326000D01*
X11326500Y-7366000D01*
X11366500Y-7406000D01*
X7578500Y-7901000D02*
X7673500Y-7996000D01*
X7673500Y-7901000D02*
X7578500Y-7996000D01*
X7673500Y-7948500D02*
G75*
G02*
X7578500Y-7948500I-47500J0D01*
G01*
X7578500Y-7948500D02*
G75*
G02*
X7673500Y-7948500I47500J0D01*
G01*
X7828500Y-7901000D02*
X7923500Y-7996000D01*
X7923500Y-7901000D02*
X7828500Y-7996000D01*
X7923500Y-7948500D02*
G75*
G02*
X7828500Y-7948500I-47500J0D01*
G01*
X7828500Y-7948500D02*
G75*
G02*
X7923500Y-7948500I47500J0D01*
G01*
X8078500Y-7901000D02*
X8173500Y-7996000D01*
X8173500Y-7901000D02*
X8078500Y-7996000D01*
X8173500Y-7948500D02*
G75*
G02*
X8078500Y-7948500I-47500J0D01*
G01*
X8078500Y-7948500D02*
G75*
G02*
X8173500Y-7948500I47500J0D01*
G01*
X8328500Y-7901000D02*
X8423500Y-7996000D01*
X8423500Y-7901000D02*
X8328500Y-7996000D01*
X8423500Y-7948500D02*
G75*
G02*
X8328500Y-7948500I-47500J0D01*
G01*
X8328500Y-7948500D02*
G75*
G02*
X8423500Y-7948500I47500J0D01*
G01*
X2998000Y-4997750D02*
X3098000Y-5097750D01*
X3098000Y-4997750D02*
X2998000Y-5097750D01*
X3048000Y-4997750D02*
X3048000Y-5097750D01*
X2998000Y-5047750D02*
X3098000Y-5047750D01*
X2998000Y-4947750D02*
X2998000Y-5147750D01*
X3098000Y-5147750D02*
G75*
G02*
X2998000Y-5147750I-50000J0D01*
G01*
X3098000Y-5147750D02*
X3098000Y-4947750D01*
X3098000Y-4947750D02*
G75*
G03*
X2998000Y-4947750I-50000J0D01*
G01*
X3298000Y-5467750D02*
X3398000Y-5567750D01*
X3398000Y-5467750D02*
X3298000Y-5567750D01*
X3348000Y-5467750D02*
X3348000Y-5567750D01*
X3298000Y-5517750D02*
X3398000Y-5517750D01*
X3248000Y-5567750D02*
X3448000Y-5567750D01*
X3448000Y-5467750D02*
G75*
G02*
X3448000Y-5567750I0J-50000D01*
G01*
X3448000Y-5467750D02*
X3248000Y-5467750D01*
X3248000Y-5467750D02*
G75*
G03*
X3248000Y-5567750I0J-50000D01*
G01*
X3598000Y-4997750D02*
X3698000Y-5097750D01*
X3698000Y-4997750D02*
X3598000Y-5097750D01*
X3648000Y-4997750D02*
X3648000Y-5097750D01*
X3598000Y-5047750D02*
X3698000Y-5047750D01*
X3598000Y-4947750D02*
X3598000Y-5147750D01*
X3698000Y-5147750D02*
G75*
G02*
X3598000Y-5147750I-50000J0D01*
G01*
X3698000Y-5147750D02*
X3698000Y-4947750D01*
X3698000Y-4947750D02*
G75*
G03*
X3598000Y-4947750I-50000J0D01*
G01*
X3650232Y-7760500D02*
X3750232Y-7860500D01*
X3750232Y-7760500D02*
X3650232Y-7860500D01*
X3700232Y-7760500D02*
X3700232Y-7860500D01*
X3650232Y-7810500D02*
X3750232Y-7810500D01*
X4150232Y-7760500D02*
X4250232Y-7860500D01*
X4250232Y-7760500D02*
X4150232Y-7860500D01*
X4200232Y-7760500D02*
X4200232Y-7860500D01*
X4150232Y-7810500D02*
X4250232Y-7810500D01*
X9602000Y-3569500D02*
X9702000Y-3669500D01*
X9702000Y-3569500D02*
X9602000Y-3669500D01*
X9652000Y-3569500D02*
X9652000Y-3669500D01*
X9602000Y-3619500D02*
X9702000Y-3619500D01*
X9602000Y-6363500D02*
X9702000Y-6463500D01*
X9702000Y-6363500D02*
X9602000Y-6463500D01*
X9652000Y-6363500D02*
X9652000Y-6463500D01*
X9602000Y-6413500D02*
X9702000Y-6413500D01*
X9856000Y-3569500D02*
X9956000Y-3669500D01*
X9956000Y-3569500D02*
X9856000Y-3669500D01*
X9906000Y-3569500D02*
X9906000Y-3669500D01*
X9856000Y-3619500D02*
X9956000Y-3619500D01*
X9856000Y-6363500D02*
X9956000Y-6463500D01*
X9956000Y-6363500D02*
X9856000Y-6463500D01*
X9906000Y-6363500D02*
X9906000Y-6463500D01*
X9856000Y-6413500D02*
X9956000Y-6413500D01*
X10110000Y-3569500D02*
X10210000Y-3669500D01*
X10210000Y-3569500D02*
X10110000Y-3669500D01*
X10160000Y-3569500D02*
X10160000Y-3669500D01*
X10110000Y-3619500D02*
X10210000Y-3619500D01*
X10110000Y-6363500D02*
X10210000Y-6463500D01*
X10210000Y-6363500D02*
X10110000Y-6463500D01*
X10160000Y-6363500D02*
X10160000Y-6463500D01*
X10110000Y-6413500D02*
X10210000Y-6413500D01*
X10364000Y-3569500D02*
X10464000Y-3669500D01*
X10464000Y-3569500D02*
X10364000Y-3669500D01*
X10414000Y-3569500D02*
X10414000Y-3669500D01*
X10364000Y-3619500D02*
X10464000Y-3619500D01*
X10364000Y-6363500D02*
X10464000Y-6463500D01*
X10464000Y-6363500D02*
X10364000Y-6463500D01*
X10414000Y-6363500D02*
X10414000Y-6463500D01*
X10364000Y-6413500D02*
X10464000Y-6413500D01*
X10618000Y-3569500D02*
X10718000Y-3669500D01*
X10718000Y-3569500D02*
X10618000Y-3669500D01*
X10668000Y-3569500D02*
X10668000Y-3669500D01*
X10618000Y-3619500D02*
X10718000Y-3619500D01*
X10618000Y-6363500D02*
X10718000Y-6463500D01*
X10718000Y-6363500D02*
X10618000Y-6463500D01*
X10668000Y-6363500D02*
X10668000Y-6463500D01*
X10618000Y-6413500D02*
X10718000Y-6413500D01*
X10872000Y-3569500D02*
X10972000Y-3669500D01*
X10972000Y-3569500D02*
X10872000Y-3669500D01*
X10922000Y-3569500D02*
X10922000Y-3669500D01*
X10872000Y-3619500D02*
X10972000Y-3619500D01*
X10872000Y-6363500D02*
X10972000Y-6463500D01*
X10972000Y-6363500D02*
X10872000Y-6463500D01*
X10922000Y-6363500D02*
X10922000Y-6463500D01*
X10872000Y-6413500D02*
X10972000Y-6413500D01*
D13*
X3783000Y-3656250D02*
X3913000Y-3786250D01*
X3913000Y-3656250D02*
X3783000Y-3786250D01*
X3893962Y-3767212D02*
X3893962Y-3675288D01*
X3802038Y-3675288D01*
X3802038Y-3767212D01*
X3893962Y-3767212D01*
X3783000Y-4156250D02*
X3913000Y-4286250D01*
X3913000Y-4156250D02*
X3783000Y-4286250D01*
X3893962Y-4267212D02*
X3893962Y-4175288D01*
X3802038Y-4175288D01*
X3802038Y-4267212D01*
X3893962Y-4267212D01*
D14*
X4537950Y-4947100D02*
X4715950Y-5125100D01*
X4715950Y-4947100D02*
X4537950Y-5125100D01*
X4626950Y-5125100D02*
X4715950Y-5036100D01*
X4626950Y-4947100D01*
X4537950Y-5036100D01*
X4626950Y-5125100D01*
X4547950Y-3597100D02*
X4725950Y-3775100D01*
X4725950Y-3597100D02*
X4547950Y-3775100D01*
X4636950Y-3775100D02*
X4725950Y-3686100D01*
X4636950Y-3597100D01*
X4547950Y-3686100D01*
X4636950Y-3775100D01*
X4547950Y-4589100D02*
X4725950Y-4767100D01*
X4725950Y-4589100D02*
X4547950Y-4767100D01*
X4636950Y-4767100D02*
X4725950Y-4678100D01*
X4636950Y-4589100D01*
X4547950Y-4678100D01*
X4636950Y-4767100D01*
X4877950Y-4947100D02*
X5055950Y-5125100D01*
X5055950Y-4947100D02*
X4877950Y-5125100D01*
X4966950Y-5125100D02*
X5055950Y-5036100D01*
X4966950Y-4947100D01*
X4877950Y-5036100D01*
X4966950Y-5125100D01*
X4887950Y-3597100D02*
X5065950Y-3775100D01*
X5065950Y-3597100D02*
X4887950Y-3775100D01*
X4976950Y-3775100D02*
X5065950Y-3686100D01*
X4976950Y-3597100D01*
X4887950Y-3686100D01*
X4976950Y-3775100D01*
X4887950Y-4589100D02*
X5065950Y-4767100D01*
X5065950Y-4589100D02*
X4887950Y-4767100D01*
X4976950Y-4767100D02*
X5065950Y-4678100D01*
X4976950Y-4589100D01*
X4887950Y-4678100D01*
X4976950Y-4767100D01*
D15*
X2921000Y-3320000D02*
X2921000Y-3540000D01*
X2811000Y-3430000D02*
X3031000Y-3430000D01*
X3031000Y-3430000D02*
G75*
G02*
X2811000Y-3430000I-110000J0D01*
G01*
X2811000Y-3430000D02*
G75*
G02*
X3031000Y-3430000I110000J0D01*
G01*
X2921000Y-8208500D02*
X2921000Y-8428500D01*
X2811000Y-8318500D02*
X3031000Y-8318500D01*
X3031000Y-8318500D02*
G75*
G02*
X2811000Y-8318500I-110000J0D01*
G01*
X2811000Y-8318500D02*
G75*
G02*
X3031000Y-8318500I110000J0D01*
G01*
X12128500Y-3320000D02*
X12128500Y-3540000D01*
X12018500Y-3430000D02*
X12238500Y-3430000D01*
X12238500Y-3430000D02*
G75*
G02*
X12018500Y-3430000I-110000J0D01*
G01*
X12018500Y-3430000D02*
G75*
G02*
X12238500Y-3430000I110000J0D01*
G01*
X12128500Y-8208500D02*
X12128500Y-8428500D01*
X12018500Y-8318500D02*
X12238500Y-8318500D01*
X12238500Y-8318500D02*
G75*
G02*
X12018500Y-8318500I-110000J0D01*
G01*
X12018500Y-8318500D02*
G75*
G02*
X12238500Y-8318500I110000J0D01*
G01*
D11*
X2858095Y-8954382D02*
X2858095Y-8754382D01*
X2858095Y-8754382D02*
X2905714Y-8754382D01*
X2905714Y-8754382D02*
X2934286Y-8763906D01*
X2934286Y-8763906D02*
X2953333Y-8782954D01*
X2953333Y-8782954D02*
X2962857Y-8802001D01*
X2962857Y-8802001D02*
X2972381Y-8840096D01*
X2972381Y-8840096D02*
X2972381Y-8868668D01*
X2972381Y-8868668D02*
X2962857Y-8906763D01*
X2962857Y-8906763D02*
X2953333Y-8925811D01*
X2953333Y-8925811D02*
X2934286Y-8944858D01*
X2934286Y-8944858D02*
X2905714Y-8954382D01*
X2905714Y-8954382D02*
X2858095Y-8954382D01*
X3058095Y-8954382D02*
X3058095Y-8821049D01*
X3058095Y-8859144D02*
X3067619Y-8840096D01*
X3067619Y-8840096D02*
X3077143Y-8830573D01*
X3077143Y-8830573D02*
X3096190Y-8821049D01*
X3096190Y-8821049D02*
X3115238Y-8821049D01*
X3181905Y-8954382D02*
X3181905Y-8821049D01*
X3181905Y-8754382D02*
X3172381Y-8763906D01*
X3172381Y-8763906D02*
X3181905Y-8773430D01*
X3181905Y-8773430D02*
X3191428Y-8763906D01*
X3191428Y-8763906D02*
X3181905Y-8754382D01*
X3181905Y-8754382D02*
X3181905Y-8773430D01*
X3305714Y-8954382D02*
X3286666Y-8944858D01*
X3286666Y-8944858D02*
X3277143Y-8925811D01*
X3277143Y-8925811D02*
X3277143Y-8754382D01*
X3410476Y-8954382D02*
X3391428Y-8944858D01*
X3391428Y-8944858D02*
X3381905Y-8925811D01*
X3381905Y-8925811D02*
X3381905Y-8754382D01*
X3639047Y-8954382D02*
X3639047Y-8754382D01*
X3639047Y-8754382D02*
X3705714Y-8897239D01*
X3705714Y-8897239D02*
X3772381Y-8754382D01*
X3772381Y-8754382D02*
X3772381Y-8954382D01*
X3953333Y-8954382D02*
X3953333Y-8849620D01*
X3953333Y-8849620D02*
X3943809Y-8830573D01*
X3943809Y-8830573D02*
X3924762Y-8821049D01*
X3924762Y-8821049D02*
X3886666Y-8821049D01*
X3886666Y-8821049D02*
X3867619Y-8830573D01*
X3953333Y-8944858D02*
X3934286Y-8954382D01*
X3934286Y-8954382D02*
X3886666Y-8954382D01*
X3886666Y-8954382D02*
X3867619Y-8944858D01*
X3867619Y-8944858D02*
X3858095Y-8925811D01*
X3858095Y-8925811D02*
X3858095Y-8906763D01*
X3858095Y-8906763D02*
X3867619Y-8887716D01*
X3867619Y-8887716D02*
X3886666Y-8878192D01*
X3886666Y-8878192D02*
X3934286Y-8878192D01*
X3934286Y-8878192D02*
X3953333Y-8868668D01*
X4048571Y-8821049D02*
X4048571Y-9021049D01*
X4048571Y-8830573D02*
X4067619Y-8821049D01*
X4067619Y-8821049D02*
X4105714Y-8821049D01*
X4105714Y-8821049D02*
X4124762Y-8830573D01*
X4124762Y-8830573D02*
X4134286Y-8840096D01*
X4134286Y-8840096D02*
X4143809Y-8859144D01*
X4143809Y-8859144D02*
X4143809Y-8916287D01*
X4143809Y-8916287D02*
X4134286Y-8935335D01*
X4134286Y-8935335D02*
X4124762Y-8944858D01*
X4124762Y-8944858D02*
X4105714Y-8954382D01*
X4105714Y-8954382D02*
X4067619Y-8954382D01*
X4067619Y-8954382D02*
X4048571Y-8944858D01*
X4229524Y-8935335D02*
X4239048Y-8944858D01*
X4239048Y-8944858D02*
X4229524Y-8954382D01*
X4229524Y-8954382D02*
X4220000Y-8944858D01*
X4220000Y-8944858D02*
X4229524Y-8935335D01*
X4229524Y-8935335D02*
X4229524Y-8954382D01*
X4229524Y-8830573D02*
X4239048Y-8840096D01*
X4239048Y-8840096D02*
X4229524Y-8849620D01*
X4229524Y-8849620D02*
X4220000Y-8840096D01*
X4220000Y-8840096D02*
X4229524Y-8830573D01*
X4229524Y-8830573D02*
X4229524Y-8849620D01*
D12*
X2567318Y-9267898D02*
X2597318Y-9297898D01*
X2597318Y-9267898D02*
X2567318Y-9297898D01*
D11*
X2896190Y-9174382D02*
X2915238Y-9174382D01*
X2915238Y-9174382D02*
X2934286Y-9183906D01*
X2934286Y-9183906D02*
X2943809Y-9193430D01*
X2943809Y-9193430D02*
X2953333Y-9212477D01*
X2953333Y-9212477D02*
X2962857Y-9250573D01*
X2962857Y-9250573D02*
X2962857Y-9298192D01*
X2962857Y-9298192D02*
X2953333Y-9336287D01*
X2953333Y-9336287D02*
X2943809Y-9355335D01*
X2943809Y-9355335D02*
X2934286Y-9364858D01*
X2934286Y-9364858D02*
X2915238Y-9374382D01*
X2915238Y-9374382D02*
X2896190Y-9374382D01*
X2896190Y-9374382D02*
X2877143Y-9364858D01*
X2877143Y-9364858D02*
X2867619Y-9355335D01*
X2867619Y-9355335D02*
X2858095Y-9336287D01*
X2858095Y-9336287D02*
X2848571Y-9298192D01*
X2848571Y-9298192D02*
X2848571Y-9250573D01*
X2848571Y-9250573D02*
X2858095Y-9212477D01*
X2858095Y-9212477D02*
X2867619Y-9193430D01*
X2867619Y-9193430D02*
X2877143Y-9183906D01*
X2877143Y-9183906D02*
X2896190Y-9174382D01*
X3048571Y-9355335D02*
X3058095Y-9364858D01*
X3058095Y-9364858D02*
X3048571Y-9374382D01*
X3048571Y-9374382D02*
X3039047Y-9364858D01*
X3039047Y-9364858D02*
X3048571Y-9355335D01*
X3048571Y-9355335D02*
X3048571Y-9374382D01*
X3124762Y-9174382D02*
X3248571Y-9174382D01*
X3248571Y-9174382D02*
X3181905Y-9250573D01*
X3181905Y-9250573D02*
X3210476Y-9250573D01*
X3210476Y-9250573D02*
X3229524Y-9260096D01*
X3229524Y-9260096D02*
X3239047Y-9269620D01*
X3239047Y-9269620D02*
X3248571Y-9288668D01*
X3248571Y-9288668D02*
X3248571Y-9336287D01*
X3248571Y-9336287D02*
X3239047Y-9355335D01*
X3239047Y-9355335D02*
X3229524Y-9364858D01*
X3229524Y-9364858D02*
X3210476Y-9374382D01*
X3210476Y-9374382D02*
X3153333Y-9374382D01*
X3153333Y-9374382D02*
X3134286Y-9364858D01*
X3134286Y-9364858D02*
X3124762Y-9355335D01*
X3372381Y-9174382D02*
X3391428Y-9174382D01*
X3391428Y-9174382D02*
X3410476Y-9183906D01*
X3410476Y-9183906D02*
X3420000Y-9193430D01*
X3420000Y-9193430D02*
X3429524Y-9212477D01*
X3429524Y-9212477D02*
X3439047Y-9250573D01*
X3439047Y-9250573D02*
X3439047Y-9298192D01*
X3439047Y-9298192D02*
X3429524Y-9336287D01*
X3429524Y-9336287D02*
X3420000Y-9355335D01*
X3420000Y-9355335D02*
X3410476Y-9364858D01*
X3410476Y-9364858D02*
X3391428Y-9374382D01*
X3391428Y-9374382D02*
X3372381Y-9374382D01*
X3372381Y-9374382D02*
X3353333Y-9364858D01*
X3353333Y-9364858D02*
X3343809Y-9355335D01*
X3343809Y-9355335D02*
X3334286Y-9336287D01*
X3334286Y-9336287D02*
X3324762Y-9298192D01*
X3324762Y-9298192D02*
X3324762Y-9250573D01*
X3324762Y-9250573D02*
X3334286Y-9212477D01*
X3334286Y-9212477D02*
X3343809Y-9193430D01*
X3343809Y-9193430D02*
X3353333Y-9183906D01*
X3353333Y-9183906D02*
X3372381Y-9174382D01*
X3562857Y-9174382D02*
X3581905Y-9174382D01*
X3581905Y-9174382D02*
X3600952Y-9183906D01*
X3600952Y-9183906D02*
X3610476Y-9193430D01*
X3610476Y-9193430D02*
X3620000Y-9212477D01*
X3620000Y-9212477D02*
X3629524Y-9250573D01*
X3629524Y-9250573D02*
X3629524Y-9298192D01*
X3629524Y-9298192D02*
X3620000Y-9336287D01*
X3620000Y-9336287D02*
X3610476Y-9355335D01*
X3610476Y-9355335D02*
X3600952Y-9364858D01*
X3600952Y-9364858D02*
X3581905Y-9374382D01*
X3581905Y-9374382D02*
X3562857Y-9374382D01*
X3562857Y-9374382D02*
X3543809Y-9364858D01*
X3543809Y-9364858D02*
X3534286Y-9355335D01*
X3534286Y-9355335D02*
X3524762Y-9336287D01*
X3524762Y-9336287D02*
X3515238Y-9298192D01*
X3515238Y-9298192D02*
X3515238Y-9250573D01*
X3515238Y-9250573D02*
X3524762Y-9212477D01*
X3524762Y-9212477D02*
X3534286Y-9193430D01*
X3534286Y-9193430D02*
X3543809Y-9183906D01*
X3543809Y-9183906D02*
X3562857Y-9174382D01*
X3715238Y-9374382D02*
X3715238Y-9241049D01*
X3715238Y-9260096D02*
X3724762Y-9250573D01*
X3724762Y-9250573D02*
X3743809Y-9241049D01*
X3743809Y-9241049D02*
X3772381Y-9241049D01*
X3772381Y-9241049D02*
X3791428Y-9250573D01*
X3791428Y-9250573D02*
X3800952Y-9269620D01*
X3800952Y-9269620D02*
X3800952Y-9374382D01*
X3800952Y-9269620D02*
X3810476Y-9250573D01*
X3810476Y-9250573D02*
X3829524Y-9241049D01*
X3829524Y-9241049D02*
X3858095Y-9241049D01*
X3858095Y-9241049D02*
X3877143Y-9250573D01*
X3877143Y-9250573D02*
X3886667Y-9269620D01*
X3886667Y-9269620D02*
X3886667Y-9374382D01*
X3981905Y-9374382D02*
X3981905Y-9241049D01*
X3981905Y-9260096D02*
X3991428Y-9250573D01*
X3991428Y-9250573D02*
X4010476Y-9241049D01*
X4010476Y-9241049D02*
X4039048Y-9241049D01*
X4039048Y-9241049D02*
X4058095Y-9250573D01*
X4058095Y-9250573D02*
X4067619Y-9269620D01*
X4067619Y-9269620D02*
X4067619Y-9374382D01*
X4067619Y-9269620D02*
X4077143Y-9250573D01*
X4077143Y-9250573D02*
X4096190Y-9241049D01*
X4096190Y-9241049D02*
X4124762Y-9241049D01*
X4124762Y-9241049D02*
X4143809Y-9250573D01*
X4143809Y-9250573D02*
X4153333Y-9269620D01*
X4153333Y-9269620D02*
X4153333Y-9374382D01*
X4543810Y-9164858D02*
X4372381Y-9422001D01*
X4800952Y-9174382D02*
X4820000Y-9174382D01*
X4820000Y-9174382D02*
X4839048Y-9183906D01*
X4839048Y-9183906D02*
X4848572Y-9193430D01*
X4848572Y-9193430D02*
X4858095Y-9212477D01*
X4858095Y-9212477D02*
X4867619Y-9250573D01*
X4867619Y-9250573D02*
X4867619Y-9298192D01*
X4867619Y-9298192D02*
X4858095Y-9336287D01*
X4858095Y-9336287D02*
X4848572Y-9355335D01*
X4848572Y-9355335D02*
X4839048Y-9364858D01*
X4839048Y-9364858D02*
X4820000Y-9374382D01*
X4820000Y-9374382D02*
X4800952Y-9374382D01*
X4800952Y-9374382D02*
X4781905Y-9364858D01*
X4781905Y-9364858D02*
X4772381Y-9355335D01*
X4772381Y-9355335D02*
X4762857Y-9336287D01*
X4762857Y-9336287D02*
X4753333Y-9298192D01*
X4753333Y-9298192D02*
X4753333Y-9250573D01*
X4753333Y-9250573D02*
X4762857Y-9212477D01*
X4762857Y-9212477D02*
X4772381Y-9193430D01*
X4772381Y-9193430D02*
X4781905Y-9183906D01*
X4781905Y-9183906D02*
X4800952Y-9174382D01*
X4953333Y-9355335D02*
X4962857Y-9364858D01*
X4962857Y-9364858D02*
X4953333Y-9374382D01*
X4953333Y-9374382D02*
X4943810Y-9364858D01*
X4943810Y-9364858D02*
X4953333Y-9355335D01*
X4953333Y-9355335D02*
X4953333Y-9374382D01*
X5086667Y-9174382D02*
X5105714Y-9174382D01*
X5105714Y-9174382D02*
X5124762Y-9183906D01*
X5124762Y-9183906D02*
X5134286Y-9193430D01*
X5134286Y-9193430D02*
X5143810Y-9212477D01*
X5143810Y-9212477D02*
X5153333Y-9250573D01*
X5153333Y-9250573D02*
X5153333Y-9298192D01*
X5153333Y-9298192D02*
X5143810Y-9336287D01*
X5143810Y-9336287D02*
X5134286Y-9355335D01*
X5134286Y-9355335D02*
X5124762Y-9364858D01*
X5124762Y-9364858D02*
X5105714Y-9374382D01*
X5105714Y-9374382D02*
X5086667Y-9374382D01*
X5086667Y-9374382D02*
X5067619Y-9364858D01*
X5067619Y-9364858D02*
X5058095Y-9355335D01*
X5058095Y-9355335D02*
X5048572Y-9336287D01*
X5048572Y-9336287D02*
X5039048Y-9298192D01*
X5039048Y-9298192D02*
X5039048Y-9250573D01*
X5039048Y-9250573D02*
X5048572Y-9212477D01*
X5048572Y-9212477D02*
X5058095Y-9193430D01*
X5058095Y-9193430D02*
X5067619Y-9183906D01*
X5067619Y-9183906D02*
X5086667Y-9174382D01*
X5343810Y-9374382D02*
X5229524Y-9374382D01*
X5286667Y-9374382D02*
X5286667Y-9174382D01*
X5286667Y-9174382D02*
X5267619Y-9202954D01*
X5267619Y-9202954D02*
X5248572Y-9222001D01*
X5248572Y-9222001D02*
X5229524Y-9231525D01*
X5534286Y-9374382D02*
X5420000Y-9374382D01*
X5477143Y-9374382D02*
X5477143Y-9174382D01*
X5477143Y-9174382D02*
X5458095Y-9202954D01*
X5458095Y-9202954D02*
X5439048Y-9222001D01*
X5439048Y-9222001D02*
X5420000Y-9231525D01*
X5648571Y-9260096D02*
X5629524Y-9250573D01*
X5629524Y-9250573D02*
X5620000Y-9241049D01*
X5620000Y-9241049D02*
X5610476Y-9222001D01*
X5610476Y-9222001D02*
X5610476Y-9212477D01*
X5610476Y-9212477D02*
X5620000Y-9193430D01*
X5620000Y-9193430D02*
X5629524Y-9183906D01*
X5629524Y-9183906D02*
X5648571Y-9174382D01*
X5648571Y-9174382D02*
X5686667Y-9174382D01*
X5686667Y-9174382D02*
X5705714Y-9183906D01*
X5705714Y-9183906D02*
X5715238Y-9193430D01*
X5715238Y-9193430D02*
X5724762Y-9212477D01*
X5724762Y-9212477D02*
X5724762Y-9222001D01*
X5724762Y-9222001D02*
X5715238Y-9241049D01*
X5715238Y-9241049D02*
X5705714Y-9250573D01*
X5705714Y-9250573D02*
X5686667Y-9260096D01*
X5686667Y-9260096D02*
X5648571Y-9260096D01*
X5648571Y-9260096D02*
X5629524Y-9269620D01*
X5629524Y-9269620D02*
X5620000Y-9279144D01*
X5620000Y-9279144D02*
X5610476Y-9298192D01*
X5610476Y-9298192D02*
X5610476Y-9336287D01*
X5610476Y-9336287D02*
X5620000Y-9355335D01*
X5620000Y-9355335D02*
X5629524Y-9364858D01*
X5629524Y-9364858D02*
X5648571Y-9374382D01*
X5648571Y-9374382D02*
X5686667Y-9374382D01*
X5686667Y-9374382D02*
X5705714Y-9364858D01*
X5705714Y-9364858D02*
X5715238Y-9355335D01*
X5715238Y-9355335D02*
X5724762Y-9336287D01*
X5724762Y-9336287D02*
X5724762Y-9298192D01*
X5724762Y-9298192D02*
X5715238Y-9279144D01*
X5715238Y-9279144D02*
X5705714Y-9269620D01*
X5705714Y-9269620D02*
X5686667Y-9260096D01*
X5800952Y-9174382D02*
X5800952Y-9212477D01*
X5877143Y-9174382D02*
X5877143Y-9212477D01*
X6172381Y-9450573D02*
X6162857Y-9441049D01*
X6162857Y-9441049D02*
X6143810Y-9412477D01*
X6143810Y-9412477D02*
X6134286Y-9393430D01*
X6134286Y-9393430D02*
X6124762Y-9364858D01*
X6124762Y-9364858D02*
X6115238Y-9317239D01*
X6115238Y-9317239D02*
X6115238Y-9279144D01*
X6115238Y-9279144D02*
X6124762Y-9231525D01*
X6124762Y-9231525D02*
X6134286Y-9202954D01*
X6134286Y-9202954D02*
X6143810Y-9183906D01*
X6143810Y-9183906D02*
X6162857Y-9155335D01*
X6162857Y-9155335D02*
X6172381Y-9145811D01*
X6334286Y-9241049D02*
X6334286Y-9374382D01*
X6286667Y-9164858D02*
X6239048Y-9307716D01*
X6239048Y-9307716D02*
X6362857Y-9307716D01*
X6534286Y-9174382D02*
X6439048Y-9174382D01*
X6439048Y-9174382D02*
X6429524Y-9269620D01*
X6429524Y-9269620D02*
X6439048Y-9260096D01*
X6439048Y-9260096D02*
X6458095Y-9250573D01*
X6458095Y-9250573D02*
X6505714Y-9250573D01*
X6505714Y-9250573D02*
X6524762Y-9260096D01*
X6524762Y-9260096D02*
X6534286Y-9269620D01*
X6534286Y-9269620D02*
X6543810Y-9288668D01*
X6543810Y-9288668D02*
X6543810Y-9336287D01*
X6543810Y-9336287D02*
X6534286Y-9355335D01*
X6534286Y-9355335D02*
X6524762Y-9364858D01*
X6524762Y-9364858D02*
X6505714Y-9374382D01*
X6505714Y-9374382D02*
X6458095Y-9374382D01*
X6458095Y-9374382D02*
X6439048Y-9364858D01*
X6439048Y-9364858D02*
X6429524Y-9355335D01*
X6781905Y-9374382D02*
X6781905Y-9174382D01*
X6867619Y-9374382D02*
X6867619Y-9269620D01*
X6867619Y-9269620D02*
X6858095Y-9250573D01*
X6858095Y-9250573D02*
X6839048Y-9241049D01*
X6839048Y-9241049D02*
X6810476Y-9241049D01*
X6810476Y-9241049D02*
X6791429Y-9250573D01*
X6791429Y-9250573D02*
X6781905Y-9260096D01*
X6991429Y-9374382D02*
X6972381Y-9364858D01*
X6972381Y-9364858D02*
X6962857Y-9355335D01*
X6962857Y-9355335D02*
X6953334Y-9336287D01*
X6953334Y-9336287D02*
X6953334Y-9279144D01*
X6953334Y-9279144D02*
X6962857Y-9260096D01*
X6962857Y-9260096D02*
X6972381Y-9250573D01*
X6972381Y-9250573D02*
X6991429Y-9241049D01*
X6991429Y-9241049D02*
X7020000Y-9241049D01*
X7020000Y-9241049D02*
X7039048Y-9250573D01*
X7039048Y-9250573D02*
X7048572Y-9260096D01*
X7048572Y-9260096D02*
X7058095Y-9279144D01*
X7058095Y-9279144D02*
X7058095Y-9336287D01*
X7058095Y-9336287D02*
X7048572Y-9355335D01*
X7048572Y-9355335D02*
X7039048Y-9364858D01*
X7039048Y-9364858D02*
X7020000Y-9374382D01*
X7020000Y-9374382D02*
X6991429Y-9374382D01*
X7172381Y-9374382D02*
X7153334Y-9364858D01*
X7153334Y-9364858D02*
X7143810Y-9345811D01*
X7143810Y-9345811D02*
X7143810Y-9174382D01*
X7324762Y-9364858D02*
X7305715Y-9374382D01*
X7305715Y-9374382D02*
X7267619Y-9374382D01*
X7267619Y-9374382D02*
X7248572Y-9364858D01*
X7248572Y-9364858D02*
X7239048Y-9345811D01*
X7239048Y-9345811D02*
X7239048Y-9269620D01*
X7239048Y-9269620D02*
X7248572Y-9250573D01*
X7248572Y-9250573D02*
X7267619Y-9241049D01*
X7267619Y-9241049D02*
X7305715Y-9241049D01*
X7305715Y-9241049D02*
X7324762Y-9250573D01*
X7324762Y-9250573D02*
X7334286Y-9269620D01*
X7334286Y-9269620D02*
X7334286Y-9288668D01*
X7334286Y-9288668D02*
X7239048Y-9307716D01*
X7410476Y-9364858D02*
X7429524Y-9374382D01*
X7429524Y-9374382D02*
X7467619Y-9374382D01*
X7467619Y-9374382D02*
X7486667Y-9364858D01*
X7486667Y-9364858D02*
X7496191Y-9345811D01*
X7496191Y-9345811D02*
X7496191Y-9336287D01*
X7496191Y-9336287D02*
X7486667Y-9317239D01*
X7486667Y-9317239D02*
X7467619Y-9307716D01*
X7467619Y-9307716D02*
X7439048Y-9307716D01*
X7439048Y-9307716D02*
X7420000Y-9298192D01*
X7420000Y-9298192D02*
X7410476Y-9279144D01*
X7410476Y-9279144D02*
X7410476Y-9269620D01*
X7410476Y-9269620D02*
X7420000Y-9250573D01*
X7420000Y-9250573D02*
X7439048Y-9241049D01*
X7439048Y-9241049D02*
X7467619Y-9241049D01*
X7467619Y-9241049D02*
X7486667Y-9250573D01*
X7562857Y-9450573D02*
X7572381Y-9441049D01*
X7572381Y-9441049D02*
X7591429Y-9412477D01*
X7591429Y-9412477D02*
X7600953Y-9393430D01*
X7600953Y-9393430D02*
X7610476Y-9364858D01*
X7610476Y-9364858D02*
X7620000Y-9317239D01*
X7620000Y-9317239D02*
X7620000Y-9279144D01*
X7620000Y-9279144D02*
X7610476Y-9231525D01*
X7610476Y-9231525D02*
X7600953Y-9202954D01*
X7600953Y-9202954D02*
X7591429Y-9183906D01*
X7591429Y-9183906D02*
X7572381Y-9155335D01*
X7572381Y-9155335D02*
X7562857Y-9145811D01*
D12*
X2597318Y-9546898D02*
G75*
G02*
X2523318Y-9546898I-37000J0D01*
G01*
X2523318Y-9546898D02*
G75*
G02*
X2597318Y-9546898I37000J0D01*
G01*
D11*
X2896190Y-9438382D02*
X2915238Y-9438382D01*
X2915238Y-9438382D02*
X2934286Y-9447906D01*
X2934286Y-9447906D02*
X2943809Y-9457430D01*
X2943809Y-9457430D02*
X2953333Y-9476477D01*
X2953333Y-9476477D02*
X2962857Y-9514573D01*
X2962857Y-9514573D02*
X2962857Y-9562192D01*
X2962857Y-9562192D02*
X2953333Y-9600287D01*
X2953333Y-9600287D02*
X2943809Y-9619335D01*
X2943809Y-9619335D02*
X2934286Y-9628858D01*
X2934286Y-9628858D02*
X2915238Y-9638382D01*
X2915238Y-9638382D02*
X2896190Y-9638382D01*
X2896190Y-9638382D02*
X2877143Y-9628858D01*
X2877143Y-9628858D02*
X2867619Y-9619335D01*
X2867619Y-9619335D02*
X2858095Y-9600287D01*
X2858095Y-9600287D02*
X2848571Y-9562192D01*
X2848571Y-9562192D02*
X2848571Y-9514573D01*
X2848571Y-9514573D02*
X2858095Y-9476477D01*
X2858095Y-9476477D02*
X2867619Y-9457430D01*
X2867619Y-9457430D02*
X2877143Y-9447906D01*
X2877143Y-9447906D02*
X2896190Y-9438382D01*
X3048571Y-9619335D02*
X3058095Y-9628858D01*
X3058095Y-9628858D02*
X3048571Y-9638382D01*
X3048571Y-9638382D02*
X3039047Y-9628858D01*
X3039047Y-9628858D02*
X3048571Y-9619335D01*
X3048571Y-9619335D02*
X3048571Y-9638382D01*
X3124762Y-9438382D02*
X3258095Y-9438382D01*
X3258095Y-9438382D02*
X3172381Y-9638382D01*
X3420000Y-9505049D02*
X3420000Y-9638382D01*
X3372381Y-9428858D02*
X3324762Y-9571716D01*
X3324762Y-9571716D02*
X3448571Y-9571716D01*
X3562857Y-9438382D02*
X3581905Y-9438382D01*
X3581905Y-9438382D02*
X3600952Y-9447906D01*
X3600952Y-9447906D02*
X3610476Y-9457430D01*
X3610476Y-9457430D02*
X3620000Y-9476477D01*
X3620000Y-9476477D02*
X3629524Y-9514573D01*
X3629524Y-9514573D02*
X3629524Y-9562192D01*
X3629524Y-9562192D02*
X3620000Y-9600287D01*
X3620000Y-9600287D02*
X3610476Y-9619335D01*
X3610476Y-9619335D02*
X3600952Y-9628858D01*
X3600952Y-9628858D02*
X3581905Y-9638382D01*
X3581905Y-9638382D02*
X3562857Y-9638382D01*
X3562857Y-9638382D02*
X3543809Y-9628858D01*
X3543809Y-9628858D02*
X3534286Y-9619335D01*
X3534286Y-9619335D02*
X3524762Y-9600287D01*
X3524762Y-9600287D02*
X3515238Y-9562192D01*
X3515238Y-9562192D02*
X3515238Y-9514573D01*
X3515238Y-9514573D02*
X3524762Y-9476477D01*
X3524762Y-9476477D02*
X3534286Y-9457430D01*
X3534286Y-9457430D02*
X3543809Y-9447906D01*
X3543809Y-9447906D02*
X3562857Y-9438382D01*
X3715238Y-9638382D02*
X3715238Y-9505049D01*
X3715238Y-9524096D02*
X3724762Y-9514573D01*
X3724762Y-9514573D02*
X3743809Y-9505049D01*
X3743809Y-9505049D02*
X3772381Y-9505049D01*
X3772381Y-9505049D02*
X3791428Y-9514573D01*
X3791428Y-9514573D02*
X3800952Y-9533620D01*
X3800952Y-9533620D02*
X3800952Y-9638382D01*
X3800952Y-9533620D02*
X3810476Y-9514573D01*
X3810476Y-9514573D02*
X3829524Y-9505049D01*
X3829524Y-9505049D02*
X3858095Y-9505049D01*
X3858095Y-9505049D02*
X3877143Y-9514573D01*
X3877143Y-9514573D02*
X3886667Y-9533620D01*
X3886667Y-9533620D02*
X3886667Y-9638382D01*
X3981905Y-9638382D02*
X3981905Y-9505049D01*
X3981905Y-9524096D02*
X3991428Y-9514573D01*
X3991428Y-9514573D02*
X4010476Y-9505049D01*
X4010476Y-9505049D02*
X4039048Y-9505049D01*
X4039048Y-9505049D02*
X4058095Y-9514573D01*
X4058095Y-9514573D02*
X4067619Y-9533620D01*
X4067619Y-9533620D02*
X4067619Y-9638382D01*
X4067619Y-9533620D02*
X4077143Y-9514573D01*
X4077143Y-9514573D02*
X4096190Y-9505049D01*
X4096190Y-9505049D02*
X4124762Y-9505049D01*
X4124762Y-9505049D02*
X4143809Y-9514573D01*
X4143809Y-9514573D02*
X4153333Y-9533620D01*
X4153333Y-9533620D02*
X4153333Y-9638382D01*
X4543810Y-9428858D02*
X4372381Y-9686001D01*
X4800952Y-9438382D02*
X4820000Y-9438382D01*
X4820000Y-9438382D02*
X4839048Y-9447906D01*
X4839048Y-9447906D02*
X4848572Y-9457430D01*
X4848572Y-9457430D02*
X4858095Y-9476477D01*
X4858095Y-9476477D02*
X4867619Y-9514573D01*
X4867619Y-9514573D02*
X4867619Y-9562192D01*
X4867619Y-9562192D02*
X4858095Y-9600287D01*
X4858095Y-9600287D02*
X4848572Y-9619335D01*
X4848572Y-9619335D02*
X4839048Y-9628858D01*
X4839048Y-9628858D02*
X4820000Y-9638382D01*
X4820000Y-9638382D02*
X4800952Y-9638382D01*
X4800952Y-9638382D02*
X4781905Y-9628858D01*
X4781905Y-9628858D02*
X4772381Y-9619335D01*
X4772381Y-9619335D02*
X4762857Y-9600287D01*
X4762857Y-9600287D02*
X4753333Y-9562192D01*
X4753333Y-9562192D02*
X4753333Y-9514573D01*
X4753333Y-9514573D02*
X4762857Y-9476477D01*
X4762857Y-9476477D02*
X4772381Y-9457430D01*
X4772381Y-9457430D02*
X4781905Y-9447906D01*
X4781905Y-9447906D02*
X4800952Y-9438382D01*
X4953333Y-9619335D02*
X4962857Y-9628858D01*
X4962857Y-9628858D02*
X4953333Y-9638382D01*
X4953333Y-9638382D02*
X4943810Y-9628858D01*
X4943810Y-9628858D02*
X4953333Y-9619335D01*
X4953333Y-9619335D02*
X4953333Y-9638382D01*
X5086667Y-9438382D02*
X5105714Y-9438382D01*
X5105714Y-9438382D02*
X5124762Y-9447906D01*
X5124762Y-9447906D02*
X5134286Y-9457430D01*
X5134286Y-9457430D02*
X5143810Y-9476477D01*
X5143810Y-9476477D02*
X5153333Y-9514573D01*
X5153333Y-9514573D02*
X5153333Y-9562192D01*
X5153333Y-9562192D02*
X5143810Y-9600287D01*
X5143810Y-9600287D02*
X5134286Y-9619335D01*
X5134286Y-9619335D02*
X5124762Y-9628858D01*
X5124762Y-9628858D02*
X5105714Y-9638382D01*
X5105714Y-9638382D02*
X5086667Y-9638382D01*
X5086667Y-9638382D02*
X5067619Y-9628858D01*
X5067619Y-9628858D02*
X5058095Y-9619335D01*
X5058095Y-9619335D02*
X5048572Y-9600287D01*
X5048572Y-9600287D02*
X5039048Y-9562192D01*
X5039048Y-9562192D02*
X5039048Y-9514573D01*
X5039048Y-9514573D02*
X5048572Y-9476477D01*
X5048572Y-9476477D02*
X5058095Y-9457430D01*
X5058095Y-9457430D02*
X5067619Y-9447906D01*
X5067619Y-9447906D02*
X5086667Y-9438382D01*
X5229524Y-9457430D02*
X5239048Y-9447906D01*
X5239048Y-9447906D02*
X5258095Y-9438382D01*
X5258095Y-9438382D02*
X5305714Y-9438382D01*
X5305714Y-9438382D02*
X5324762Y-9447906D01*
X5324762Y-9447906D02*
X5334286Y-9457430D01*
X5334286Y-9457430D02*
X5343810Y-9476477D01*
X5343810Y-9476477D02*
X5343810Y-9495525D01*
X5343810Y-9495525D02*
X5334286Y-9524096D01*
X5334286Y-9524096D02*
X5220000Y-9638382D01*
X5220000Y-9638382D02*
X5343810Y-9638382D01*
X5439048Y-9638382D02*
X5477143Y-9638382D01*
X5477143Y-9638382D02*
X5496191Y-9628858D01*
X5496191Y-9628858D02*
X5505714Y-9619335D01*
X5505714Y-9619335D02*
X5524762Y-9590763D01*
X5524762Y-9590763D02*
X5534286Y-9552668D01*
X5534286Y-9552668D02*
X5534286Y-9476477D01*
X5534286Y-9476477D02*
X5524762Y-9457430D01*
X5524762Y-9457430D02*
X5515238Y-9447906D01*
X5515238Y-9447906D02*
X5496191Y-9438382D01*
X5496191Y-9438382D02*
X5458095Y-9438382D01*
X5458095Y-9438382D02*
X5439048Y-9447906D01*
X5439048Y-9447906D02*
X5429524Y-9457430D01*
X5429524Y-9457430D02*
X5420000Y-9476477D01*
X5420000Y-9476477D02*
X5420000Y-9524096D01*
X5420000Y-9524096D02*
X5429524Y-9543144D01*
X5429524Y-9543144D02*
X5439048Y-9552668D01*
X5439048Y-9552668D02*
X5458095Y-9562192D01*
X5458095Y-9562192D02*
X5496191Y-9562192D01*
X5496191Y-9562192D02*
X5515238Y-9552668D01*
X5515238Y-9552668D02*
X5524762Y-9543144D01*
X5524762Y-9543144D02*
X5534286Y-9524096D01*
X5724762Y-9638382D02*
X5610476Y-9638382D01*
X5667619Y-9638382D02*
X5667619Y-9438382D01*
X5667619Y-9438382D02*
X5648571Y-9466954D01*
X5648571Y-9466954D02*
X5629524Y-9486001D01*
X5629524Y-9486001D02*
X5610476Y-9495525D01*
X5800952Y-9438382D02*
X5800952Y-9476477D01*
X5877143Y-9438382D02*
X5877143Y-9476477D01*
X6172381Y-9714573D02*
X6162857Y-9705049D01*
X6162857Y-9705049D02*
X6143810Y-9676477D01*
X6143810Y-9676477D02*
X6134286Y-9657430D01*
X6134286Y-9657430D02*
X6124762Y-9628858D01*
X6124762Y-9628858D02*
X6115238Y-9581239D01*
X6115238Y-9581239D02*
X6115238Y-9543144D01*
X6115238Y-9543144D02*
X6124762Y-9495525D01*
X6124762Y-9495525D02*
X6134286Y-9466954D01*
X6134286Y-9466954D02*
X6143810Y-9447906D01*
X6143810Y-9447906D02*
X6162857Y-9419335D01*
X6162857Y-9419335D02*
X6172381Y-9409811D01*
X6353333Y-9638382D02*
X6239048Y-9638382D01*
X6296191Y-9638382D02*
X6296191Y-9438382D01*
X6296191Y-9438382D02*
X6277143Y-9466954D01*
X6277143Y-9466954D02*
X6258095Y-9486001D01*
X6258095Y-9486001D02*
X6239048Y-9495525D01*
X6524762Y-9505049D02*
X6524762Y-9638382D01*
X6477143Y-9428858D02*
X6429524Y-9571716D01*
X6429524Y-9571716D02*
X6553333Y-9571716D01*
X6781905Y-9638382D02*
X6781905Y-9438382D01*
X6867619Y-9638382D02*
X6867619Y-9533620D01*
X6867619Y-9533620D02*
X6858095Y-9514573D01*
X6858095Y-9514573D02*
X6839048Y-9505049D01*
X6839048Y-9505049D02*
X6810476Y-9505049D01*
X6810476Y-9505049D02*
X6791429Y-9514573D01*
X6791429Y-9514573D02*
X6781905Y-9524096D01*
X6991429Y-9638382D02*
X6972381Y-9628858D01*
X6972381Y-9628858D02*
X6962857Y-9619335D01*
X6962857Y-9619335D02*
X6953334Y-9600287D01*
X6953334Y-9600287D02*
X6953334Y-9543144D01*
X6953334Y-9543144D02*
X6962857Y-9524096D01*
X6962857Y-9524096D02*
X6972381Y-9514573D01*
X6972381Y-9514573D02*
X6991429Y-9505049D01*
X6991429Y-9505049D02*
X7020000Y-9505049D01*
X7020000Y-9505049D02*
X7039048Y-9514573D01*
X7039048Y-9514573D02*
X7048572Y-9524096D01*
X7048572Y-9524096D02*
X7058095Y-9543144D01*
X7058095Y-9543144D02*
X7058095Y-9600287D01*
X7058095Y-9600287D02*
X7048572Y-9619335D01*
X7048572Y-9619335D02*
X7039048Y-9628858D01*
X7039048Y-9628858D02*
X7020000Y-9638382D01*
X7020000Y-9638382D02*
X6991429Y-9638382D01*
X7172381Y-9638382D02*
X7153334Y-9628858D01*
X7153334Y-9628858D02*
X7143810Y-9609811D01*
X7143810Y-9609811D02*
X7143810Y-9438382D01*
X7324762Y-9628858D02*
X7305715Y-9638382D01*
X7305715Y-9638382D02*
X7267619Y-9638382D01*
X7267619Y-9638382D02*
X7248572Y-9628858D01*
X7248572Y-9628858D02*
X7239048Y-9609811D01*
X7239048Y-9609811D02*
X7239048Y-9533620D01*
X7239048Y-9533620D02*
X7248572Y-9514573D01*
X7248572Y-9514573D02*
X7267619Y-9505049D01*
X7267619Y-9505049D02*
X7305715Y-9505049D01*
X7305715Y-9505049D02*
X7324762Y-9514573D01*
X7324762Y-9514573D02*
X7334286Y-9533620D01*
X7334286Y-9533620D02*
X7334286Y-9552668D01*
X7334286Y-9552668D02*
X7239048Y-9571716D01*
X7410476Y-9628858D02*
X7429524Y-9638382D01*
X7429524Y-9638382D02*
X7467619Y-9638382D01*
X7467619Y-9638382D02*
X7486667Y-9628858D01*
X7486667Y-9628858D02*
X7496191Y-9609811D01*
X7496191Y-9609811D02*
X7496191Y-9600287D01*
X7496191Y-9600287D02*
X7486667Y-9581239D01*
X7486667Y-9581239D02*
X7467619Y-9571716D01*
X7467619Y-9571716D02*
X7439048Y-9571716D01*
X7439048Y-9571716D02*
X7420000Y-9562192D01*
X7420000Y-9562192D02*
X7410476Y-9543144D01*
X7410476Y-9543144D02*
X7410476Y-9533620D01*
X7410476Y-9533620D02*
X7420000Y-9514573D01*
X7420000Y-9514573D02*
X7439048Y-9505049D01*
X7439048Y-9505049D02*
X7467619Y-9505049D01*
X7467619Y-9505049D02*
X7486667Y-9514573D01*
X7562857Y-9714573D02*
X7572381Y-9705049D01*
X7572381Y-9705049D02*
X7591429Y-9676477D01*
X7591429Y-9676477D02*
X7600953Y-9657430D01*
X7600953Y-9657430D02*
X7610476Y-9628858D01*
X7610476Y-9628858D02*
X7620000Y-9581239D01*
X7620000Y-9581239D02*
X7620000Y-9543144D01*
X7620000Y-9543144D02*
X7610476Y-9495525D01*
X7610476Y-9495525D02*
X7600953Y-9466954D01*
X7600953Y-9466954D02*
X7591429Y-9447906D01*
X7591429Y-9447906D02*
X7572381Y-9419335D01*
X7572381Y-9419335D02*
X7562857Y-9409811D01*
D12*
X2559818Y-9773398D02*
X2559818Y-9848398D01*
X2522318Y-9810898D02*
X2597318Y-9810898D01*
D11*
X2896190Y-9702382D02*
X2915238Y-9702382D01*
X2915238Y-9702382D02*
X2934286Y-9711906D01*
X2934286Y-9711906D02*
X2943809Y-9721430D01*
X2943809Y-9721430D02*
X2953333Y-9740477D01*
X2953333Y-9740477D02*
X2962857Y-9778573D01*
X2962857Y-9778573D02*
X2962857Y-9826192D01*
X2962857Y-9826192D02*
X2953333Y-9864287D01*
X2953333Y-9864287D02*
X2943809Y-9883335D01*
X2943809Y-9883335D02*
X2934286Y-9892858D01*
X2934286Y-9892858D02*
X2915238Y-9902382D01*
X2915238Y-9902382D02*
X2896190Y-9902382D01*
X2896190Y-9902382D02*
X2877143Y-9892858D01*
X2877143Y-9892858D02*
X2867619Y-9883335D01*
X2867619Y-9883335D02*
X2858095Y-9864287D01*
X2858095Y-9864287D02*
X2848571Y-9826192D01*
X2848571Y-9826192D02*
X2848571Y-9778573D01*
X2848571Y-9778573D02*
X2858095Y-9740477D01*
X2858095Y-9740477D02*
X2867619Y-9721430D01*
X2867619Y-9721430D02*
X2877143Y-9711906D01*
X2877143Y-9711906D02*
X2896190Y-9702382D01*
X3048571Y-9883335D02*
X3058095Y-9892858D01*
X3058095Y-9892858D02*
X3048571Y-9902382D01*
X3048571Y-9902382D02*
X3039047Y-9892858D01*
X3039047Y-9892858D02*
X3048571Y-9883335D01*
X3048571Y-9883335D02*
X3048571Y-9902382D01*
X3124762Y-9702382D02*
X3258095Y-9702382D01*
X3258095Y-9702382D02*
X3172381Y-9902382D01*
X3429524Y-9702382D02*
X3334286Y-9702382D01*
X3334286Y-9702382D02*
X3324762Y-9797620D01*
X3324762Y-9797620D02*
X3334286Y-9788096D01*
X3334286Y-9788096D02*
X3353333Y-9778573D01*
X3353333Y-9778573D02*
X3400952Y-9778573D01*
X3400952Y-9778573D02*
X3420000Y-9788096D01*
X3420000Y-9788096D02*
X3429524Y-9797620D01*
X3429524Y-9797620D02*
X3439047Y-9816668D01*
X3439047Y-9816668D02*
X3439047Y-9864287D01*
X3439047Y-9864287D02*
X3429524Y-9883335D01*
X3429524Y-9883335D02*
X3420000Y-9892858D01*
X3420000Y-9892858D02*
X3400952Y-9902382D01*
X3400952Y-9902382D02*
X3353333Y-9902382D01*
X3353333Y-9902382D02*
X3334286Y-9892858D01*
X3334286Y-9892858D02*
X3324762Y-9883335D01*
X3562857Y-9702382D02*
X3581905Y-9702382D01*
X3581905Y-9702382D02*
X3600952Y-9711906D01*
X3600952Y-9711906D02*
X3610476Y-9721430D01*
X3610476Y-9721430D02*
X3620000Y-9740477D01*
X3620000Y-9740477D02*
X3629524Y-9778573D01*
X3629524Y-9778573D02*
X3629524Y-9826192D01*
X3629524Y-9826192D02*
X3620000Y-9864287D01*
X3620000Y-9864287D02*
X3610476Y-9883335D01*
X3610476Y-9883335D02*
X3600952Y-9892858D01*
X3600952Y-9892858D02*
X3581905Y-9902382D01*
X3581905Y-9902382D02*
X3562857Y-9902382D01*
X3562857Y-9902382D02*
X3543809Y-9892858D01*
X3543809Y-9892858D02*
X3534286Y-9883335D01*
X3534286Y-9883335D02*
X3524762Y-9864287D01*
X3524762Y-9864287D02*
X3515238Y-9826192D01*
X3515238Y-9826192D02*
X3515238Y-9778573D01*
X3515238Y-9778573D02*
X3524762Y-9740477D01*
X3524762Y-9740477D02*
X3534286Y-9721430D01*
X3534286Y-9721430D02*
X3543809Y-9711906D01*
X3543809Y-9711906D02*
X3562857Y-9702382D01*
X3715238Y-9902382D02*
X3715238Y-9769049D01*
X3715238Y-9788096D02*
X3724762Y-9778573D01*
X3724762Y-9778573D02*
X3743809Y-9769049D01*
X3743809Y-9769049D02*
X3772381Y-9769049D01*
X3772381Y-9769049D02*
X3791428Y-9778573D01*
X3791428Y-9778573D02*
X3800952Y-9797620D01*
X3800952Y-9797620D02*
X3800952Y-9902382D01*
X3800952Y-9797620D02*
X3810476Y-9778573D01*
X3810476Y-9778573D02*
X3829524Y-9769049D01*
X3829524Y-9769049D02*
X3858095Y-9769049D01*
X3858095Y-9769049D02*
X3877143Y-9778573D01*
X3877143Y-9778573D02*
X3886667Y-9797620D01*
X3886667Y-9797620D02*
X3886667Y-9902382D01*
X3981905Y-9902382D02*
X3981905Y-9769049D01*
X3981905Y-9788096D02*
X3991428Y-9778573D01*
X3991428Y-9778573D02*
X4010476Y-9769049D01*
X4010476Y-9769049D02*
X4039048Y-9769049D01*
X4039048Y-9769049D02*
X4058095Y-9778573D01*
X4058095Y-9778573D02*
X4067619Y-9797620D01*
X4067619Y-9797620D02*
X4067619Y-9902382D01*
X4067619Y-9797620D02*
X4077143Y-9778573D01*
X4077143Y-9778573D02*
X4096190Y-9769049D01*
X4096190Y-9769049D02*
X4124762Y-9769049D01*
X4124762Y-9769049D02*
X4143809Y-9778573D01*
X4143809Y-9778573D02*
X4153333Y-9797620D01*
X4153333Y-9797620D02*
X4153333Y-9902382D01*
X4543810Y-9692858D02*
X4372381Y-9950001D01*
X4800952Y-9702382D02*
X4820000Y-9702382D01*
X4820000Y-9702382D02*
X4839048Y-9711906D01*
X4839048Y-9711906D02*
X4848572Y-9721430D01*
X4848572Y-9721430D02*
X4858095Y-9740477D01*
X4858095Y-9740477D02*
X4867619Y-9778573D01*
X4867619Y-9778573D02*
X4867619Y-9826192D01*
X4867619Y-9826192D02*
X4858095Y-9864287D01*
X4858095Y-9864287D02*
X4848572Y-9883335D01*
X4848572Y-9883335D02*
X4839048Y-9892858D01*
X4839048Y-9892858D02*
X4820000Y-9902382D01*
X4820000Y-9902382D02*
X4800952Y-9902382D01*
X4800952Y-9902382D02*
X4781905Y-9892858D01*
X4781905Y-9892858D02*
X4772381Y-9883335D01*
X4772381Y-9883335D02*
X4762857Y-9864287D01*
X4762857Y-9864287D02*
X4753333Y-9826192D01*
X4753333Y-9826192D02*
X4753333Y-9778573D01*
X4753333Y-9778573D02*
X4762857Y-9740477D01*
X4762857Y-9740477D02*
X4772381Y-9721430D01*
X4772381Y-9721430D02*
X4781905Y-9711906D01*
X4781905Y-9711906D02*
X4800952Y-9702382D01*
X4953333Y-9883335D02*
X4962857Y-9892858D01*
X4962857Y-9892858D02*
X4953333Y-9902382D01*
X4953333Y-9902382D02*
X4943810Y-9892858D01*
X4943810Y-9892858D02*
X4953333Y-9883335D01*
X4953333Y-9883335D02*
X4953333Y-9902382D01*
X5086667Y-9702382D02*
X5105714Y-9702382D01*
X5105714Y-9702382D02*
X5124762Y-9711906D01*
X5124762Y-9711906D02*
X5134286Y-9721430D01*
X5134286Y-9721430D02*
X5143810Y-9740477D01*
X5143810Y-9740477D02*
X5153333Y-9778573D01*
X5153333Y-9778573D02*
X5153333Y-9826192D01*
X5153333Y-9826192D02*
X5143810Y-9864287D01*
X5143810Y-9864287D02*
X5134286Y-9883335D01*
X5134286Y-9883335D02*
X5124762Y-9892858D01*
X5124762Y-9892858D02*
X5105714Y-9902382D01*
X5105714Y-9902382D02*
X5086667Y-9902382D01*
X5086667Y-9902382D02*
X5067619Y-9892858D01*
X5067619Y-9892858D02*
X5058095Y-9883335D01*
X5058095Y-9883335D02*
X5048572Y-9864287D01*
X5048572Y-9864287D02*
X5039048Y-9826192D01*
X5039048Y-9826192D02*
X5039048Y-9778573D01*
X5039048Y-9778573D02*
X5048572Y-9740477D01*
X5048572Y-9740477D02*
X5058095Y-9721430D01*
X5058095Y-9721430D02*
X5067619Y-9711906D01*
X5067619Y-9711906D02*
X5086667Y-9702382D01*
X5229524Y-9721430D02*
X5239048Y-9711906D01*
X5239048Y-9711906D02*
X5258095Y-9702382D01*
X5258095Y-9702382D02*
X5305714Y-9702382D01*
X5305714Y-9702382D02*
X5324762Y-9711906D01*
X5324762Y-9711906D02*
X5334286Y-9721430D01*
X5334286Y-9721430D02*
X5343810Y-9740477D01*
X5343810Y-9740477D02*
X5343810Y-9759525D01*
X5343810Y-9759525D02*
X5334286Y-9788096D01*
X5334286Y-9788096D02*
X5220000Y-9902382D01*
X5220000Y-9902382D02*
X5343810Y-9902382D01*
X5439048Y-9902382D02*
X5477143Y-9902382D01*
X5477143Y-9902382D02*
X5496191Y-9892858D01*
X5496191Y-9892858D02*
X5505714Y-9883335D01*
X5505714Y-9883335D02*
X5524762Y-9854763D01*
X5524762Y-9854763D02*
X5534286Y-9816668D01*
X5534286Y-9816668D02*
X5534286Y-9740477D01*
X5534286Y-9740477D02*
X5524762Y-9721430D01*
X5524762Y-9721430D02*
X5515238Y-9711906D01*
X5515238Y-9711906D02*
X5496191Y-9702382D01*
X5496191Y-9702382D02*
X5458095Y-9702382D01*
X5458095Y-9702382D02*
X5439048Y-9711906D01*
X5439048Y-9711906D02*
X5429524Y-9721430D01*
X5429524Y-9721430D02*
X5420000Y-9740477D01*
X5420000Y-9740477D02*
X5420000Y-9788096D01*
X5420000Y-9788096D02*
X5429524Y-9807144D01*
X5429524Y-9807144D02*
X5439048Y-9816668D01*
X5439048Y-9816668D02*
X5458095Y-9826192D01*
X5458095Y-9826192D02*
X5496191Y-9826192D01*
X5496191Y-9826192D02*
X5515238Y-9816668D01*
X5515238Y-9816668D02*
X5524762Y-9807144D01*
X5524762Y-9807144D02*
X5534286Y-9788096D01*
X5715238Y-9702382D02*
X5620000Y-9702382D01*
X5620000Y-9702382D02*
X5610476Y-9797620D01*
X5610476Y-9797620D02*
X5620000Y-9788096D01*
X5620000Y-9788096D02*
X5639048Y-9778573D01*
X5639048Y-9778573D02*
X5686667Y-9778573D01*
X5686667Y-9778573D02*
X5705714Y-9788096D01*
X5705714Y-9788096D02*
X5715238Y-9797620D01*
X5715238Y-9797620D02*
X5724762Y-9816668D01*
X5724762Y-9816668D02*
X5724762Y-9864287D01*
X5724762Y-9864287D02*
X5715238Y-9883335D01*
X5715238Y-9883335D02*
X5705714Y-9892858D01*
X5705714Y-9892858D02*
X5686667Y-9902382D01*
X5686667Y-9902382D02*
X5639048Y-9902382D01*
X5639048Y-9902382D02*
X5620000Y-9892858D01*
X5620000Y-9892858D02*
X5610476Y-9883335D01*
X5800952Y-9702382D02*
X5800952Y-9740477D01*
X5877143Y-9702382D02*
X5877143Y-9740477D01*
X6172381Y-9978573D02*
X6162857Y-9969049D01*
X6162857Y-9969049D02*
X6143810Y-9940477D01*
X6143810Y-9940477D02*
X6134286Y-9921430D01*
X6134286Y-9921430D02*
X6124762Y-9892858D01*
X6124762Y-9892858D02*
X6115238Y-9845239D01*
X6115238Y-9845239D02*
X6115238Y-9807144D01*
X6115238Y-9807144D02*
X6124762Y-9759525D01*
X6124762Y-9759525D02*
X6134286Y-9730954D01*
X6134286Y-9730954D02*
X6143810Y-9711906D01*
X6143810Y-9711906D02*
X6162857Y-9683335D01*
X6162857Y-9683335D02*
X6172381Y-9673811D01*
X6353333Y-9902382D02*
X6239048Y-9902382D01*
X6296191Y-9902382D02*
X6296191Y-9702382D01*
X6296191Y-9702382D02*
X6277143Y-9730954D01*
X6277143Y-9730954D02*
X6258095Y-9750001D01*
X6258095Y-9750001D02*
X6239048Y-9759525D01*
X6429524Y-9721430D02*
X6439048Y-9711906D01*
X6439048Y-9711906D02*
X6458095Y-9702382D01*
X6458095Y-9702382D02*
X6505714Y-9702382D01*
X6505714Y-9702382D02*
X6524762Y-9711906D01*
X6524762Y-9711906D02*
X6534286Y-9721430D01*
X6534286Y-9721430D02*
X6543810Y-9740477D01*
X6543810Y-9740477D02*
X6543810Y-9759525D01*
X6543810Y-9759525D02*
X6534286Y-9788096D01*
X6534286Y-9788096D02*
X6420000Y-9902382D01*
X6420000Y-9902382D02*
X6543810Y-9902382D01*
X6781905Y-9902382D02*
X6781905Y-9702382D01*
X6867619Y-9902382D02*
X6867619Y-9797620D01*
X6867619Y-9797620D02*
X6858095Y-9778573D01*
X6858095Y-9778573D02*
X6839048Y-9769049D01*
X6839048Y-9769049D02*
X6810476Y-9769049D01*
X6810476Y-9769049D02*
X6791429Y-9778573D01*
X6791429Y-9778573D02*
X6781905Y-9788096D01*
X6991429Y-9902382D02*
X6972381Y-9892858D01*
X6972381Y-9892858D02*
X6962857Y-9883335D01*
X6962857Y-9883335D02*
X6953334Y-9864287D01*
X6953334Y-9864287D02*
X6953334Y-9807144D01*
X6953334Y-9807144D02*
X6962857Y-9788096D01*
X6962857Y-9788096D02*
X6972381Y-9778573D01*
X6972381Y-9778573D02*
X6991429Y-9769049D01*
X6991429Y-9769049D02*
X7020000Y-9769049D01*
X7020000Y-9769049D02*
X7039048Y-9778573D01*
X7039048Y-9778573D02*
X7048572Y-9788096D01*
X7048572Y-9788096D02*
X7058095Y-9807144D01*
X7058095Y-9807144D02*
X7058095Y-9864287D01*
X7058095Y-9864287D02*
X7048572Y-9883335D01*
X7048572Y-9883335D02*
X7039048Y-9892858D01*
X7039048Y-9892858D02*
X7020000Y-9902382D01*
X7020000Y-9902382D02*
X6991429Y-9902382D01*
X7172381Y-9902382D02*
X7153334Y-9892858D01*
X7153334Y-9892858D02*
X7143810Y-9873811D01*
X7143810Y-9873811D02*
X7143810Y-9702382D01*
X7324762Y-9892858D02*
X7305715Y-9902382D01*
X7305715Y-9902382D02*
X7267619Y-9902382D01*
X7267619Y-9902382D02*
X7248572Y-9892858D01*
X7248572Y-9892858D02*
X7239048Y-9873811D01*
X7239048Y-9873811D02*
X7239048Y-9797620D01*
X7239048Y-9797620D02*
X7248572Y-9778573D01*
X7248572Y-9778573D02*
X7267619Y-9769049D01*
X7267619Y-9769049D02*
X7305715Y-9769049D01*
X7305715Y-9769049D02*
X7324762Y-9778573D01*
X7324762Y-9778573D02*
X7334286Y-9797620D01*
X7334286Y-9797620D02*
X7334286Y-9816668D01*
X7334286Y-9816668D02*
X7239048Y-9835716D01*
X7410476Y-9892858D02*
X7429524Y-9902382D01*
X7429524Y-9902382D02*
X7467619Y-9902382D01*
X7467619Y-9902382D02*
X7486667Y-9892858D01*
X7486667Y-9892858D02*
X7496191Y-9873811D01*
X7496191Y-9873811D02*
X7496191Y-9864287D01*
X7496191Y-9864287D02*
X7486667Y-9845239D01*
X7486667Y-9845239D02*
X7467619Y-9835716D01*
X7467619Y-9835716D02*
X7439048Y-9835716D01*
X7439048Y-9835716D02*
X7420000Y-9826192D01*
X7420000Y-9826192D02*
X7410476Y-9807144D01*
X7410476Y-9807144D02*
X7410476Y-9797620D01*
X7410476Y-9797620D02*
X7420000Y-9778573D01*
X7420000Y-9778573D02*
X7439048Y-9769049D01*
X7439048Y-9769049D02*
X7467619Y-9769049D01*
X7467619Y-9769049D02*
X7486667Y-9778573D01*
X7562857Y-9978573D02*
X7572381Y-9969049D01*
X7572381Y-9969049D02*
X7591429Y-9940477D01*
X7591429Y-9940477D02*
X7600953Y-9921430D01*
X7600953Y-9921430D02*
X7610476Y-9892858D01*
X7610476Y-9892858D02*
X7620000Y-9845239D01*
X7620000Y-9845239D02*
X7620000Y-9807144D01*
X7620000Y-9807144D02*
X7610476Y-9759525D01*
X7610476Y-9759525D02*
X7600953Y-9730954D01*
X7600953Y-9730954D02*
X7591429Y-9711906D01*
X7591429Y-9711906D02*
X7572381Y-9683335D01*
X7572381Y-9683335D02*
X7562857Y-9673811D01*
D12*
X2586159Y-10101839D02*
X2586159Y-10047957D01*
X2532277Y-10047957D01*
X2532277Y-10101839D01*
X2586159Y-10101839D01*
D11*
X2896190Y-9966382D02*
X2915238Y-9966382D01*
X2915238Y-9966382D02*
X2934286Y-9975906D01*
X2934286Y-9975906D02*
X2943809Y-9985430D01*
X2943809Y-9985430D02*
X2953333Y-10004477D01*
X2953333Y-10004477D02*
X2962857Y-10042573D01*
X2962857Y-10042573D02*
X2962857Y-10090192D01*
X2962857Y-10090192D02*
X2953333Y-10128287D01*
X2953333Y-10128287D02*
X2943809Y-10147335D01*
X2943809Y-10147335D02*
X2934286Y-10156858D01*
X2934286Y-10156858D02*
X2915238Y-10166382D01*
X2915238Y-10166382D02*
X2896190Y-10166382D01*
X2896190Y-10166382D02*
X2877143Y-10156858D01*
X2877143Y-10156858D02*
X2867619Y-10147335D01*
X2867619Y-10147335D02*
X2858095Y-10128287D01*
X2858095Y-10128287D02*
X2848571Y-10090192D01*
X2848571Y-10090192D02*
X2848571Y-10042573D01*
X2848571Y-10042573D02*
X2858095Y-10004477D01*
X2858095Y-10004477D02*
X2867619Y-9985430D01*
X2867619Y-9985430D02*
X2877143Y-9975906D01*
X2877143Y-9975906D02*
X2896190Y-9966382D01*
X3048571Y-10147335D02*
X3058095Y-10156858D01*
X3058095Y-10156858D02*
X3048571Y-10166382D01*
X3048571Y-10166382D02*
X3039047Y-10156858D01*
X3039047Y-10156858D02*
X3048571Y-10147335D01*
X3048571Y-10147335D02*
X3048571Y-10166382D01*
X3124762Y-9966382D02*
X3258095Y-9966382D01*
X3258095Y-9966382D02*
X3172381Y-10166382D01*
X3420000Y-9966382D02*
X3381905Y-9966382D01*
X3381905Y-9966382D02*
X3362857Y-9975906D01*
X3362857Y-9975906D02*
X3353333Y-9985430D01*
X3353333Y-9985430D02*
X3334286Y-10014001D01*
X3334286Y-10014001D02*
X3324762Y-10052096D01*
X3324762Y-10052096D02*
X3324762Y-10128287D01*
X3324762Y-10128287D02*
X3334286Y-10147335D01*
X3334286Y-10147335D02*
X3343809Y-10156858D01*
X3343809Y-10156858D02*
X3362857Y-10166382D01*
X3362857Y-10166382D02*
X3400952Y-10166382D01*
X3400952Y-10166382D02*
X3420000Y-10156858D01*
X3420000Y-10156858D02*
X3429524Y-10147335D01*
X3429524Y-10147335D02*
X3439047Y-10128287D01*
X3439047Y-10128287D02*
X3439047Y-10080668D01*
X3439047Y-10080668D02*
X3429524Y-10061620D01*
X3429524Y-10061620D02*
X3420000Y-10052096D01*
X3420000Y-10052096D02*
X3400952Y-10042573D01*
X3400952Y-10042573D02*
X3362857Y-10042573D01*
X3362857Y-10042573D02*
X3343809Y-10052096D01*
X3343809Y-10052096D02*
X3334286Y-10061620D01*
X3334286Y-10061620D02*
X3324762Y-10080668D01*
X3515238Y-9985430D02*
X3524762Y-9975906D01*
X3524762Y-9975906D02*
X3543809Y-9966382D01*
X3543809Y-9966382D02*
X3591428Y-9966382D01*
X3591428Y-9966382D02*
X3610476Y-9975906D01*
X3610476Y-9975906D02*
X3620000Y-9985430D01*
X3620000Y-9985430D02*
X3629524Y-10004477D01*
X3629524Y-10004477D02*
X3629524Y-10023525D01*
X3629524Y-10023525D02*
X3620000Y-10052096D01*
X3620000Y-10052096D02*
X3505714Y-10166382D01*
X3505714Y-10166382D02*
X3629524Y-10166382D01*
X3715238Y-10166382D02*
X3715238Y-10033049D01*
X3715238Y-10052096D02*
X3724762Y-10042573D01*
X3724762Y-10042573D02*
X3743809Y-10033049D01*
X3743809Y-10033049D02*
X3772381Y-10033049D01*
X3772381Y-10033049D02*
X3791428Y-10042573D01*
X3791428Y-10042573D02*
X3800952Y-10061620D01*
X3800952Y-10061620D02*
X3800952Y-10166382D01*
X3800952Y-10061620D02*
X3810476Y-10042573D01*
X3810476Y-10042573D02*
X3829524Y-10033049D01*
X3829524Y-10033049D02*
X3858095Y-10033049D01*
X3858095Y-10033049D02*
X3877143Y-10042573D01*
X3877143Y-10042573D02*
X3886667Y-10061620D01*
X3886667Y-10061620D02*
X3886667Y-10166382D01*
X3981905Y-10166382D02*
X3981905Y-10033049D01*
X3981905Y-10052096D02*
X3991428Y-10042573D01*
X3991428Y-10042573D02*
X4010476Y-10033049D01*
X4010476Y-10033049D02*
X4039048Y-10033049D01*
X4039048Y-10033049D02*
X4058095Y-10042573D01*
X4058095Y-10042573D02*
X4067619Y-10061620D01*
X4067619Y-10061620D02*
X4067619Y-10166382D01*
X4067619Y-10061620D02*
X4077143Y-10042573D01*
X4077143Y-10042573D02*
X4096190Y-10033049D01*
X4096190Y-10033049D02*
X4124762Y-10033049D01*
X4124762Y-10033049D02*
X4143809Y-10042573D01*
X4143809Y-10042573D02*
X4153333Y-10061620D01*
X4153333Y-10061620D02*
X4153333Y-10166382D01*
X4543810Y-9956858D02*
X4372381Y-10214001D01*
X4800952Y-9966382D02*
X4820000Y-9966382D01*
X4820000Y-9966382D02*
X4839048Y-9975906D01*
X4839048Y-9975906D02*
X4848572Y-9985430D01*
X4848572Y-9985430D02*
X4858095Y-10004477D01*
X4858095Y-10004477D02*
X4867619Y-10042573D01*
X4867619Y-10042573D02*
X4867619Y-10090192D01*
X4867619Y-10090192D02*
X4858095Y-10128287D01*
X4858095Y-10128287D02*
X4848572Y-10147335D01*
X4848572Y-10147335D02*
X4839048Y-10156858D01*
X4839048Y-10156858D02*
X4820000Y-10166382D01*
X4820000Y-10166382D02*
X4800952Y-10166382D01*
X4800952Y-10166382D02*
X4781905Y-10156858D01*
X4781905Y-10156858D02*
X4772381Y-10147335D01*
X4772381Y-10147335D02*
X4762857Y-10128287D01*
X4762857Y-10128287D02*
X4753333Y-10090192D01*
X4753333Y-10090192D02*
X4753333Y-10042573D01*
X4753333Y-10042573D02*
X4762857Y-10004477D01*
X4762857Y-10004477D02*
X4772381Y-9985430D01*
X4772381Y-9985430D02*
X4781905Y-9975906D01*
X4781905Y-9975906D02*
X4800952Y-9966382D01*
X4953333Y-10147335D02*
X4962857Y-10156858D01*
X4962857Y-10156858D02*
X4953333Y-10166382D01*
X4953333Y-10166382D02*
X4943810Y-10156858D01*
X4943810Y-10156858D02*
X4953333Y-10147335D01*
X4953333Y-10147335D02*
X4953333Y-10166382D01*
X5086667Y-9966382D02*
X5105714Y-9966382D01*
X5105714Y-9966382D02*
X5124762Y-9975906D01*
X5124762Y-9975906D02*
X5134286Y-9985430D01*
X5134286Y-9985430D02*
X5143810Y-10004477D01*
X5143810Y-10004477D02*
X5153333Y-10042573D01*
X5153333Y-10042573D02*
X5153333Y-10090192D01*
X5153333Y-10090192D02*
X5143810Y-10128287D01*
X5143810Y-10128287D02*
X5134286Y-10147335D01*
X5134286Y-10147335D02*
X5124762Y-10156858D01*
X5124762Y-10156858D02*
X5105714Y-10166382D01*
X5105714Y-10166382D02*
X5086667Y-10166382D01*
X5086667Y-10166382D02*
X5067619Y-10156858D01*
X5067619Y-10156858D02*
X5058095Y-10147335D01*
X5058095Y-10147335D02*
X5048572Y-10128287D01*
X5048572Y-10128287D02*
X5039048Y-10090192D01*
X5039048Y-10090192D02*
X5039048Y-10042573D01*
X5039048Y-10042573D02*
X5048572Y-10004477D01*
X5048572Y-10004477D02*
X5058095Y-9985430D01*
X5058095Y-9985430D02*
X5067619Y-9975906D01*
X5067619Y-9975906D02*
X5086667Y-9966382D01*
X5220000Y-9966382D02*
X5343810Y-9966382D01*
X5343810Y-9966382D02*
X5277143Y-10042573D01*
X5277143Y-10042573D02*
X5305714Y-10042573D01*
X5305714Y-10042573D02*
X5324762Y-10052096D01*
X5324762Y-10052096D02*
X5334286Y-10061620D01*
X5334286Y-10061620D02*
X5343810Y-10080668D01*
X5343810Y-10080668D02*
X5343810Y-10128287D01*
X5343810Y-10128287D02*
X5334286Y-10147335D01*
X5334286Y-10147335D02*
X5324762Y-10156858D01*
X5324762Y-10156858D02*
X5305714Y-10166382D01*
X5305714Y-10166382D02*
X5248572Y-10166382D01*
X5248572Y-10166382D02*
X5229524Y-10156858D01*
X5229524Y-10156858D02*
X5220000Y-10147335D01*
X5467619Y-9966382D02*
X5486667Y-9966382D01*
X5486667Y-9966382D02*
X5505714Y-9975906D01*
X5505714Y-9975906D02*
X5515238Y-9985430D01*
X5515238Y-9985430D02*
X5524762Y-10004477D01*
X5524762Y-10004477D02*
X5534286Y-10042573D01*
X5534286Y-10042573D02*
X5534286Y-10090192D01*
X5534286Y-10090192D02*
X5524762Y-10128287D01*
X5524762Y-10128287D02*
X5515238Y-10147335D01*
X5515238Y-10147335D02*
X5505714Y-10156858D01*
X5505714Y-10156858D02*
X5486667Y-10166382D01*
X5486667Y-10166382D02*
X5467619Y-10166382D01*
X5467619Y-10166382D02*
X5448572Y-10156858D01*
X5448572Y-10156858D02*
X5439048Y-10147335D01*
X5439048Y-10147335D02*
X5429524Y-10128287D01*
X5429524Y-10128287D02*
X5420000Y-10090192D01*
X5420000Y-10090192D02*
X5420000Y-10042573D01*
X5420000Y-10042573D02*
X5429524Y-10004477D01*
X5429524Y-10004477D02*
X5439048Y-9985430D01*
X5439048Y-9985430D02*
X5448572Y-9975906D01*
X5448572Y-9975906D02*
X5467619Y-9966382D01*
X5658095Y-9966382D02*
X5677143Y-9966382D01*
X5677143Y-9966382D02*
X5696191Y-9975906D01*
X5696191Y-9975906D02*
X5705714Y-9985430D01*
X5705714Y-9985430D02*
X5715238Y-10004477D01*
X5715238Y-10004477D02*
X5724762Y-10042573D01*
X5724762Y-10042573D02*
X5724762Y-10090192D01*
X5724762Y-10090192D02*
X5715238Y-10128287D01*
X5715238Y-10128287D02*
X5705714Y-10147335D01*
X5705714Y-10147335D02*
X5696191Y-10156858D01*
X5696191Y-10156858D02*
X5677143Y-10166382D01*
X5677143Y-10166382D02*
X5658095Y-10166382D01*
X5658095Y-10166382D02*
X5639048Y-10156858D01*
X5639048Y-10156858D02*
X5629524Y-10147335D01*
X5629524Y-10147335D02*
X5620000Y-10128287D01*
X5620000Y-10128287D02*
X5610476Y-10090192D01*
X5610476Y-10090192D02*
X5610476Y-10042573D01*
X5610476Y-10042573D02*
X5620000Y-10004477D01*
X5620000Y-10004477D02*
X5629524Y-9985430D01*
X5629524Y-9985430D02*
X5639048Y-9975906D01*
X5639048Y-9975906D02*
X5658095Y-9966382D01*
X5800952Y-9966382D02*
X5800952Y-10004477D01*
X5877143Y-9966382D02*
X5877143Y-10004477D01*
X6172381Y-10242573D02*
X6162857Y-10233049D01*
X6162857Y-10233049D02*
X6143810Y-10204477D01*
X6143810Y-10204477D02*
X6134286Y-10185430D01*
X6134286Y-10185430D02*
X6124762Y-10156858D01*
X6124762Y-10156858D02*
X6115238Y-10109239D01*
X6115238Y-10109239D02*
X6115238Y-10071144D01*
X6115238Y-10071144D02*
X6124762Y-10023525D01*
X6124762Y-10023525D02*
X6134286Y-9994954D01*
X6134286Y-9994954D02*
X6143810Y-9975906D01*
X6143810Y-9975906D02*
X6162857Y-9947335D01*
X6162857Y-9947335D02*
X6172381Y-9937811D01*
X6277143Y-10052096D02*
X6258095Y-10042573D01*
X6258095Y-10042573D02*
X6248572Y-10033049D01*
X6248572Y-10033049D02*
X6239048Y-10014001D01*
X6239048Y-10014001D02*
X6239048Y-10004477D01*
X6239048Y-10004477D02*
X6248572Y-9985430D01*
X6248572Y-9985430D02*
X6258095Y-9975906D01*
X6258095Y-9975906D02*
X6277143Y-9966382D01*
X6277143Y-9966382D02*
X6315238Y-9966382D01*
X6315238Y-9966382D02*
X6334286Y-9975906D01*
X6334286Y-9975906D02*
X6343810Y-9985430D01*
X6343810Y-9985430D02*
X6353333Y-10004477D01*
X6353333Y-10004477D02*
X6353333Y-10014001D01*
X6353333Y-10014001D02*
X6343810Y-10033049D01*
X6343810Y-10033049D02*
X6334286Y-10042573D01*
X6334286Y-10042573D02*
X6315238Y-10052096D01*
X6315238Y-10052096D02*
X6277143Y-10052096D01*
X6277143Y-10052096D02*
X6258095Y-10061620D01*
X6258095Y-10061620D02*
X6248572Y-10071144D01*
X6248572Y-10071144D02*
X6239048Y-10090192D01*
X6239048Y-10090192D02*
X6239048Y-10128287D01*
X6239048Y-10128287D02*
X6248572Y-10147335D01*
X6248572Y-10147335D02*
X6258095Y-10156858D01*
X6258095Y-10156858D02*
X6277143Y-10166382D01*
X6277143Y-10166382D02*
X6315238Y-10166382D01*
X6315238Y-10166382D02*
X6334286Y-10156858D01*
X6334286Y-10156858D02*
X6343810Y-10147335D01*
X6343810Y-10147335D02*
X6353333Y-10128287D01*
X6353333Y-10128287D02*
X6353333Y-10090192D01*
X6353333Y-10090192D02*
X6343810Y-10071144D01*
X6343810Y-10071144D02*
X6334286Y-10061620D01*
X6334286Y-10061620D02*
X6315238Y-10052096D01*
X6591429Y-10166382D02*
X6591429Y-9966382D01*
X6677143Y-10166382D02*
X6677143Y-10061620D01*
X6677143Y-10061620D02*
X6667619Y-10042573D01*
X6667619Y-10042573D02*
X6648572Y-10033049D01*
X6648572Y-10033049D02*
X6620000Y-10033049D01*
X6620000Y-10033049D02*
X6600953Y-10042573D01*
X6600953Y-10042573D02*
X6591429Y-10052096D01*
X6800953Y-10166382D02*
X6781905Y-10156858D01*
X6781905Y-10156858D02*
X6772381Y-10147335D01*
X6772381Y-10147335D02*
X6762857Y-10128287D01*
X6762857Y-10128287D02*
X6762857Y-10071144D01*
X6762857Y-10071144D02*
X6772381Y-10052096D01*
X6772381Y-10052096D02*
X6781905Y-10042573D01*
X6781905Y-10042573D02*
X6800953Y-10033049D01*
X6800953Y-10033049D02*
X6829524Y-10033049D01*
X6829524Y-10033049D02*
X6848572Y-10042573D01*
X6848572Y-10042573D02*
X6858095Y-10052096D01*
X6858095Y-10052096D02*
X6867619Y-10071144D01*
X6867619Y-10071144D02*
X6867619Y-10128287D01*
X6867619Y-10128287D02*
X6858095Y-10147335D01*
X6858095Y-10147335D02*
X6848572Y-10156858D01*
X6848572Y-10156858D02*
X6829524Y-10166382D01*
X6829524Y-10166382D02*
X6800953Y-10166382D01*
X6981905Y-10166382D02*
X6962857Y-10156858D01*
X6962857Y-10156858D02*
X6953334Y-10137811D01*
X6953334Y-10137811D02*
X6953334Y-9966382D01*
X7134286Y-10156858D02*
X7115238Y-10166382D01*
X7115238Y-10166382D02*
X7077143Y-10166382D01*
X7077143Y-10166382D02*
X7058095Y-10156858D01*
X7058095Y-10156858D02*
X7048572Y-10137811D01*
X7048572Y-10137811D02*
X7048572Y-10061620D01*
X7048572Y-10061620D02*
X7058095Y-10042573D01*
X7058095Y-10042573D02*
X7077143Y-10033049D01*
X7077143Y-10033049D02*
X7115238Y-10033049D01*
X7115238Y-10033049D02*
X7134286Y-10042573D01*
X7134286Y-10042573D02*
X7143810Y-10061620D01*
X7143810Y-10061620D02*
X7143810Y-10080668D01*
X7143810Y-10080668D02*
X7048572Y-10099716D01*
X7220000Y-10156858D02*
X7239048Y-10166382D01*
X7239048Y-10166382D02*
X7277143Y-10166382D01*
X7277143Y-10166382D02*
X7296191Y-10156858D01*
X7296191Y-10156858D02*
X7305715Y-10137811D01*
X7305715Y-10137811D02*
X7305715Y-10128287D01*
X7305715Y-10128287D02*
X7296191Y-10109239D01*
X7296191Y-10109239D02*
X7277143Y-10099716D01*
X7277143Y-10099716D02*
X7248572Y-10099716D01*
X7248572Y-10099716D02*
X7229524Y-10090192D01*
X7229524Y-10090192D02*
X7220000Y-10071144D01*
X7220000Y-10071144D02*
X7220000Y-10061620D01*
X7220000Y-10061620D02*
X7229524Y-10042573D01*
X7229524Y-10042573D02*
X7248572Y-10033049D01*
X7248572Y-10033049D02*
X7277143Y-10033049D01*
X7277143Y-10033049D02*
X7296191Y-10042573D01*
X7372381Y-10242573D02*
X7381905Y-10233049D01*
X7381905Y-10233049D02*
X7400953Y-10204477D01*
X7400953Y-10204477D02*
X7410476Y-10185430D01*
X7410476Y-10185430D02*
X7420000Y-10156858D01*
X7420000Y-10156858D02*
X7429524Y-10109239D01*
X7429524Y-10109239D02*
X7429524Y-10071144D01*
X7429524Y-10071144D02*
X7420000Y-10023525D01*
X7420000Y-10023525D02*
X7410476Y-9994954D01*
X7410476Y-9994954D02*
X7400953Y-9975906D01*
X7400953Y-9975906D02*
X7381905Y-9947335D01*
X7381905Y-9947335D02*
X7372381Y-9937811D01*
D12*
X2557318Y-10378898D02*
X2597318Y-10338898D01*
X2557318Y-10298898D01*
X2517318Y-10338898D01*
X2557318Y-10378898D01*
D11*
X2896190Y-10230382D02*
X2915238Y-10230382D01*
X2915238Y-10230382D02*
X2934286Y-10239906D01*
X2934286Y-10239906D02*
X2943809Y-10249430D01*
X2943809Y-10249430D02*
X2953333Y-10268477D01*
X2953333Y-10268477D02*
X2962857Y-10306573D01*
X2962857Y-10306573D02*
X2962857Y-10354192D01*
X2962857Y-10354192D02*
X2953333Y-10392287D01*
X2953333Y-10392287D02*
X2943809Y-10411335D01*
X2943809Y-10411335D02*
X2934286Y-10420858D01*
X2934286Y-10420858D02*
X2915238Y-10430382D01*
X2915238Y-10430382D02*
X2896190Y-10430382D01*
X2896190Y-10430382D02*
X2877143Y-10420858D01*
X2877143Y-10420858D02*
X2867619Y-10411335D01*
X2867619Y-10411335D02*
X2858095Y-10392287D01*
X2858095Y-10392287D02*
X2848571Y-10354192D01*
X2848571Y-10354192D02*
X2848571Y-10306573D01*
X2848571Y-10306573D02*
X2858095Y-10268477D01*
X2858095Y-10268477D02*
X2867619Y-10249430D01*
X2867619Y-10249430D02*
X2877143Y-10239906D01*
X2877143Y-10239906D02*
X2896190Y-10230382D01*
X3048571Y-10411335D02*
X3058095Y-10420858D01*
X3058095Y-10420858D02*
X3048571Y-10430382D01*
X3048571Y-10430382D02*
X3039047Y-10420858D01*
X3039047Y-10420858D02*
X3048571Y-10411335D01*
X3048571Y-10411335D02*
X3048571Y-10430382D01*
X3172381Y-10316096D02*
X3153333Y-10306573D01*
X3153333Y-10306573D02*
X3143809Y-10297049D01*
X3143809Y-10297049D02*
X3134286Y-10278001D01*
X3134286Y-10278001D02*
X3134286Y-10268477D01*
X3134286Y-10268477D02*
X3143809Y-10249430D01*
X3143809Y-10249430D02*
X3153333Y-10239906D01*
X3153333Y-10239906D02*
X3172381Y-10230382D01*
X3172381Y-10230382D02*
X3210476Y-10230382D01*
X3210476Y-10230382D02*
X3229524Y-10239906D01*
X3229524Y-10239906D02*
X3239047Y-10249430D01*
X3239047Y-10249430D02*
X3248571Y-10268477D01*
X3248571Y-10268477D02*
X3248571Y-10278001D01*
X3248571Y-10278001D02*
X3239047Y-10297049D01*
X3239047Y-10297049D02*
X3229524Y-10306573D01*
X3229524Y-10306573D02*
X3210476Y-10316096D01*
X3210476Y-10316096D02*
X3172381Y-10316096D01*
X3172381Y-10316096D02*
X3153333Y-10325620D01*
X3153333Y-10325620D02*
X3143809Y-10335144D01*
X3143809Y-10335144D02*
X3134286Y-10354192D01*
X3134286Y-10354192D02*
X3134286Y-10392287D01*
X3134286Y-10392287D02*
X3143809Y-10411335D01*
X3143809Y-10411335D02*
X3153333Y-10420858D01*
X3153333Y-10420858D02*
X3172381Y-10430382D01*
X3172381Y-10430382D02*
X3210476Y-10430382D01*
X3210476Y-10430382D02*
X3229524Y-10420858D01*
X3229524Y-10420858D02*
X3239047Y-10411335D01*
X3239047Y-10411335D02*
X3248571Y-10392287D01*
X3248571Y-10392287D02*
X3248571Y-10354192D01*
X3248571Y-10354192D02*
X3239047Y-10335144D01*
X3239047Y-10335144D02*
X3229524Y-10325620D01*
X3229524Y-10325620D02*
X3210476Y-10316096D01*
X3372381Y-10230382D02*
X3391428Y-10230382D01*
X3391428Y-10230382D02*
X3410476Y-10239906D01*
X3410476Y-10239906D02*
X3420000Y-10249430D01*
X3420000Y-10249430D02*
X3429524Y-10268477D01*
X3429524Y-10268477D02*
X3439047Y-10306573D01*
X3439047Y-10306573D02*
X3439047Y-10354192D01*
X3439047Y-10354192D02*
X3429524Y-10392287D01*
X3429524Y-10392287D02*
X3420000Y-10411335D01*
X3420000Y-10411335D02*
X3410476Y-10420858D01*
X3410476Y-10420858D02*
X3391428Y-10430382D01*
X3391428Y-10430382D02*
X3372381Y-10430382D01*
X3372381Y-10430382D02*
X3353333Y-10420858D01*
X3353333Y-10420858D02*
X3343809Y-10411335D01*
X3343809Y-10411335D02*
X3334286Y-10392287D01*
X3334286Y-10392287D02*
X3324762Y-10354192D01*
X3324762Y-10354192D02*
X3324762Y-10306573D01*
X3324762Y-10306573D02*
X3334286Y-10268477D01*
X3334286Y-10268477D02*
X3343809Y-10249430D01*
X3343809Y-10249430D02*
X3353333Y-10239906D01*
X3353333Y-10239906D02*
X3372381Y-10230382D01*
X3562857Y-10230382D02*
X3581905Y-10230382D01*
X3581905Y-10230382D02*
X3600952Y-10239906D01*
X3600952Y-10239906D02*
X3610476Y-10249430D01*
X3610476Y-10249430D02*
X3620000Y-10268477D01*
X3620000Y-10268477D02*
X3629524Y-10306573D01*
X3629524Y-10306573D02*
X3629524Y-10354192D01*
X3629524Y-10354192D02*
X3620000Y-10392287D01*
X3620000Y-10392287D02*
X3610476Y-10411335D01*
X3610476Y-10411335D02*
X3600952Y-10420858D01*
X3600952Y-10420858D02*
X3581905Y-10430382D01*
X3581905Y-10430382D02*
X3562857Y-10430382D01*
X3562857Y-10430382D02*
X3543809Y-10420858D01*
X3543809Y-10420858D02*
X3534286Y-10411335D01*
X3534286Y-10411335D02*
X3524762Y-10392287D01*
X3524762Y-10392287D02*
X3515238Y-10354192D01*
X3515238Y-10354192D02*
X3515238Y-10306573D01*
X3515238Y-10306573D02*
X3524762Y-10268477D01*
X3524762Y-10268477D02*
X3534286Y-10249430D01*
X3534286Y-10249430D02*
X3543809Y-10239906D01*
X3543809Y-10239906D02*
X3562857Y-10230382D01*
X3715238Y-10430382D02*
X3715238Y-10297049D01*
X3715238Y-10316096D02*
X3724762Y-10306573D01*
X3724762Y-10306573D02*
X3743809Y-10297049D01*
X3743809Y-10297049D02*
X3772381Y-10297049D01*
X3772381Y-10297049D02*
X3791428Y-10306573D01*
X3791428Y-10306573D02*
X3800952Y-10325620D01*
X3800952Y-10325620D02*
X3800952Y-10430382D01*
X3800952Y-10325620D02*
X3810476Y-10306573D01*
X3810476Y-10306573D02*
X3829524Y-10297049D01*
X3829524Y-10297049D02*
X3858095Y-10297049D01*
X3858095Y-10297049D02*
X3877143Y-10306573D01*
X3877143Y-10306573D02*
X3886667Y-10325620D01*
X3886667Y-10325620D02*
X3886667Y-10430382D01*
X3981905Y-10430382D02*
X3981905Y-10297049D01*
X3981905Y-10316096D02*
X3991428Y-10306573D01*
X3991428Y-10306573D02*
X4010476Y-10297049D01*
X4010476Y-10297049D02*
X4039048Y-10297049D01*
X4039048Y-10297049D02*
X4058095Y-10306573D01*
X4058095Y-10306573D02*
X4067619Y-10325620D01*
X4067619Y-10325620D02*
X4067619Y-10430382D01*
X4067619Y-10325620D02*
X4077143Y-10306573D01*
X4077143Y-10306573D02*
X4096190Y-10297049D01*
X4096190Y-10297049D02*
X4124762Y-10297049D01*
X4124762Y-10297049D02*
X4143809Y-10306573D01*
X4143809Y-10306573D02*
X4153333Y-10325620D01*
X4153333Y-10325620D02*
X4153333Y-10430382D01*
X4543810Y-10220858D02*
X4372381Y-10478001D01*
X4800952Y-10230382D02*
X4820000Y-10230382D01*
X4820000Y-10230382D02*
X4839048Y-10239906D01*
X4839048Y-10239906D02*
X4848572Y-10249430D01*
X4848572Y-10249430D02*
X4858095Y-10268477D01*
X4858095Y-10268477D02*
X4867619Y-10306573D01*
X4867619Y-10306573D02*
X4867619Y-10354192D01*
X4867619Y-10354192D02*
X4858095Y-10392287D01*
X4858095Y-10392287D02*
X4848572Y-10411335D01*
X4848572Y-10411335D02*
X4839048Y-10420858D01*
X4839048Y-10420858D02*
X4820000Y-10430382D01*
X4820000Y-10430382D02*
X4800952Y-10430382D01*
X4800952Y-10430382D02*
X4781905Y-10420858D01*
X4781905Y-10420858D02*
X4772381Y-10411335D01*
X4772381Y-10411335D02*
X4762857Y-10392287D01*
X4762857Y-10392287D02*
X4753333Y-10354192D01*
X4753333Y-10354192D02*
X4753333Y-10306573D01*
X4753333Y-10306573D02*
X4762857Y-10268477D01*
X4762857Y-10268477D02*
X4772381Y-10249430D01*
X4772381Y-10249430D02*
X4781905Y-10239906D01*
X4781905Y-10239906D02*
X4800952Y-10230382D01*
X4953333Y-10411335D02*
X4962857Y-10420858D01*
X4962857Y-10420858D02*
X4953333Y-10430382D01*
X4953333Y-10430382D02*
X4943810Y-10420858D01*
X4943810Y-10420858D02*
X4953333Y-10411335D01*
X4953333Y-10411335D02*
X4953333Y-10430382D01*
X5086667Y-10230382D02*
X5105714Y-10230382D01*
X5105714Y-10230382D02*
X5124762Y-10239906D01*
X5124762Y-10239906D02*
X5134286Y-10249430D01*
X5134286Y-10249430D02*
X5143810Y-10268477D01*
X5143810Y-10268477D02*
X5153333Y-10306573D01*
X5153333Y-10306573D02*
X5153333Y-10354192D01*
X5153333Y-10354192D02*
X5143810Y-10392287D01*
X5143810Y-10392287D02*
X5134286Y-10411335D01*
X5134286Y-10411335D02*
X5124762Y-10420858D01*
X5124762Y-10420858D02*
X5105714Y-10430382D01*
X5105714Y-10430382D02*
X5086667Y-10430382D01*
X5086667Y-10430382D02*
X5067619Y-10420858D01*
X5067619Y-10420858D02*
X5058095Y-10411335D01*
X5058095Y-10411335D02*
X5048572Y-10392287D01*
X5048572Y-10392287D02*
X5039048Y-10354192D01*
X5039048Y-10354192D02*
X5039048Y-10306573D01*
X5039048Y-10306573D02*
X5048572Y-10268477D01*
X5048572Y-10268477D02*
X5058095Y-10249430D01*
X5058095Y-10249430D02*
X5067619Y-10239906D01*
X5067619Y-10239906D02*
X5086667Y-10230382D01*
X5220000Y-10230382D02*
X5343810Y-10230382D01*
X5343810Y-10230382D02*
X5277143Y-10306573D01*
X5277143Y-10306573D02*
X5305714Y-10306573D01*
X5305714Y-10306573D02*
X5324762Y-10316096D01*
X5324762Y-10316096D02*
X5334286Y-10325620D01*
X5334286Y-10325620D02*
X5343810Y-10344668D01*
X5343810Y-10344668D02*
X5343810Y-10392287D01*
X5343810Y-10392287D02*
X5334286Y-10411335D01*
X5334286Y-10411335D02*
X5324762Y-10420858D01*
X5324762Y-10420858D02*
X5305714Y-10430382D01*
X5305714Y-10430382D02*
X5248572Y-10430382D01*
X5248572Y-10430382D02*
X5229524Y-10420858D01*
X5229524Y-10420858D02*
X5220000Y-10411335D01*
X5534286Y-10430382D02*
X5420000Y-10430382D01*
X5477143Y-10430382D02*
X5477143Y-10230382D01*
X5477143Y-10230382D02*
X5458095Y-10258954D01*
X5458095Y-10258954D02*
X5439048Y-10278001D01*
X5439048Y-10278001D02*
X5420000Y-10287525D01*
X5715238Y-10230382D02*
X5620000Y-10230382D01*
X5620000Y-10230382D02*
X5610476Y-10325620D01*
X5610476Y-10325620D02*
X5620000Y-10316096D01*
X5620000Y-10316096D02*
X5639048Y-10306573D01*
X5639048Y-10306573D02*
X5686667Y-10306573D01*
X5686667Y-10306573D02*
X5705714Y-10316096D01*
X5705714Y-10316096D02*
X5715238Y-10325620D01*
X5715238Y-10325620D02*
X5724762Y-10344668D01*
X5724762Y-10344668D02*
X5724762Y-10392287D01*
X5724762Y-10392287D02*
X5715238Y-10411335D01*
X5715238Y-10411335D02*
X5705714Y-10420858D01*
X5705714Y-10420858D02*
X5686667Y-10430382D01*
X5686667Y-10430382D02*
X5639048Y-10430382D01*
X5639048Y-10430382D02*
X5620000Y-10420858D01*
X5620000Y-10420858D02*
X5610476Y-10411335D01*
X5800952Y-10230382D02*
X5800952Y-10268477D01*
X5877143Y-10230382D02*
X5877143Y-10268477D01*
X6172381Y-10506573D02*
X6162857Y-10497049D01*
X6162857Y-10497049D02*
X6143810Y-10468477D01*
X6143810Y-10468477D02*
X6134286Y-10449430D01*
X6134286Y-10449430D02*
X6124762Y-10420858D01*
X6124762Y-10420858D02*
X6115238Y-10373239D01*
X6115238Y-10373239D02*
X6115238Y-10335144D01*
X6115238Y-10335144D02*
X6124762Y-10287525D01*
X6124762Y-10287525D02*
X6134286Y-10258954D01*
X6134286Y-10258954D02*
X6143810Y-10239906D01*
X6143810Y-10239906D02*
X6162857Y-10211335D01*
X6162857Y-10211335D02*
X6172381Y-10201811D01*
X6239048Y-10249430D02*
X6248572Y-10239906D01*
X6248572Y-10239906D02*
X6267619Y-10230382D01*
X6267619Y-10230382D02*
X6315238Y-10230382D01*
X6315238Y-10230382D02*
X6334286Y-10239906D01*
X6334286Y-10239906D02*
X6343810Y-10249430D01*
X6343810Y-10249430D02*
X6353333Y-10268477D01*
X6353333Y-10268477D02*
X6353333Y-10287525D01*
X6353333Y-10287525D02*
X6343810Y-10316096D01*
X6343810Y-10316096D02*
X6229524Y-10430382D01*
X6229524Y-10430382D02*
X6353333Y-10430382D01*
X6477143Y-10230382D02*
X6496191Y-10230382D01*
X6496191Y-10230382D02*
X6515238Y-10239906D01*
X6515238Y-10239906D02*
X6524762Y-10249430D01*
X6524762Y-10249430D02*
X6534286Y-10268477D01*
X6534286Y-10268477D02*
X6543810Y-10306573D01*
X6543810Y-10306573D02*
X6543810Y-10354192D01*
X6543810Y-10354192D02*
X6534286Y-10392287D01*
X6534286Y-10392287D02*
X6524762Y-10411335D01*
X6524762Y-10411335D02*
X6515238Y-10420858D01*
X6515238Y-10420858D02*
X6496191Y-10430382D01*
X6496191Y-10430382D02*
X6477143Y-10430382D01*
X6477143Y-10430382D02*
X6458095Y-10420858D01*
X6458095Y-10420858D02*
X6448572Y-10411335D01*
X6448572Y-10411335D02*
X6439048Y-10392287D01*
X6439048Y-10392287D02*
X6429524Y-10354192D01*
X6429524Y-10354192D02*
X6429524Y-10306573D01*
X6429524Y-10306573D02*
X6439048Y-10268477D01*
X6439048Y-10268477D02*
X6448572Y-10249430D01*
X6448572Y-10249430D02*
X6458095Y-10239906D01*
X6458095Y-10239906D02*
X6477143Y-10230382D01*
X6781905Y-10430382D02*
X6781905Y-10230382D01*
X6867619Y-10430382D02*
X6867619Y-10325620D01*
X6867619Y-10325620D02*
X6858095Y-10306573D01*
X6858095Y-10306573D02*
X6839048Y-10297049D01*
X6839048Y-10297049D02*
X6810476Y-10297049D01*
X6810476Y-10297049D02*
X6791429Y-10306573D01*
X6791429Y-10306573D02*
X6781905Y-10316096D01*
X6991429Y-10430382D02*
X6972381Y-10420858D01*
X6972381Y-10420858D02*
X6962857Y-10411335D01*
X6962857Y-10411335D02*
X6953334Y-10392287D01*
X6953334Y-10392287D02*
X6953334Y-10335144D01*
X6953334Y-10335144D02*
X6962857Y-10316096D01*
X6962857Y-10316096D02*
X6972381Y-10306573D01*
X6972381Y-10306573D02*
X6991429Y-10297049D01*
X6991429Y-10297049D02*
X7020000Y-10297049D01*
X7020000Y-10297049D02*
X7039048Y-10306573D01*
X7039048Y-10306573D02*
X7048572Y-10316096D01*
X7048572Y-10316096D02*
X7058095Y-10335144D01*
X7058095Y-10335144D02*
X7058095Y-10392287D01*
X7058095Y-10392287D02*
X7048572Y-10411335D01*
X7048572Y-10411335D02*
X7039048Y-10420858D01*
X7039048Y-10420858D02*
X7020000Y-10430382D01*
X7020000Y-10430382D02*
X6991429Y-10430382D01*
X7172381Y-10430382D02*
X7153334Y-10420858D01*
X7153334Y-10420858D02*
X7143810Y-10401811D01*
X7143810Y-10401811D02*
X7143810Y-10230382D01*
X7324762Y-10420858D02*
X7305715Y-10430382D01*
X7305715Y-10430382D02*
X7267619Y-10430382D01*
X7267619Y-10430382D02*
X7248572Y-10420858D01*
X7248572Y-10420858D02*
X7239048Y-10401811D01*
X7239048Y-10401811D02*
X7239048Y-10325620D01*
X7239048Y-10325620D02*
X7248572Y-10306573D01*
X7248572Y-10306573D02*
X7267619Y-10297049D01*
X7267619Y-10297049D02*
X7305715Y-10297049D01*
X7305715Y-10297049D02*
X7324762Y-10306573D01*
X7324762Y-10306573D02*
X7334286Y-10325620D01*
X7334286Y-10325620D02*
X7334286Y-10344668D01*
X7334286Y-10344668D02*
X7239048Y-10363716D01*
X7410476Y-10420858D02*
X7429524Y-10430382D01*
X7429524Y-10430382D02*
X7467619Y-10430382D01*
X7467619Y-10430382D02*
X7486667Y-10420858D01*
X7486667Y-10420858D02*
X7496191Y-10401811D01*
X7496191Y-10401811D02*
X7496191Y-10392287D01*
X7496191Y-10392287D02*
X7486667Y-10373239D01*
X7486667Y-10373239D02*
X7467619Y-10363716D01*
X7467619Y-10363716D02*
X7439048Y-10363716D01*
X7439048Y-10363716D02*
X7420000Y-10354192D01*
X7420000Y-10354192D02*
X7410476Y-10335144D01*
X7410476Y-10335144D02*
X7410476Y-10325620D01*
X7410476Y-10325620D02*
X7420000Y-10306573D01*
X7420000Y-10306573D02*
X7439048Y-10297049D01*
X7439048Y-10297049D02*
X7467619Y-10297049D01*
X7467619Y-10297049D02*
X7486667Y-10306573D01*
X7562857Y-10506573D02*
X7572381Y-10497049D01*
X7572381Y-10497049D02*
X7591429Y-10468477D01*
X7591429Y-10468477D02*
X7600953Y-10449430D01*
X7600953Y-10449430D02*
X7610476Y-10420858D01*
X7610476Y-10420858D02*
X7620000Y-10373239D01*
X7620000Y-10373239D02*
X7620000Y-10335144D01*
X7620000Y-10335144D02*
X7610476Y-10287525D01*
X7610476Y-10287525D02*
X7600953Y-10258954D01*
X7600953Y-10258954D02*
X7591429Y-10239906D01*
X7591429Y-10239906D02*
X7572381Y-10211335D01*
X7572381Y-10211335D02*
X7562857Y-10201811D01*
D12*
X2502318Y-10555398D02*
X2597318Y-10650398D01*
X2597318Y-10555398D02*
X2502318Y-10650398D01*
X2597318Y-10602898D02*
G75*
G02*
X2502318Y-10602898I-47500J0D01*
G01*
X2502318Y-10602898D02*
G75*
G02*
X2597318Y-10602898I47500J0D01*
G01*
D11*
X2896190Y-10494382D02*
X2915238Y-10494382D01*
X2915238Y-10494382D02*
X2934286Y-10503906D01*
X2934286Y-10503906D02*
X2943809Y-10513430D01*
X2943809Y-10513430D02*
X2953333Y-10532477D01*
X2953333Y-10532477D02*
X2962857Y-10570573D01*
X2962857Y-10570573D02*
X2962857Y-10618192D01*
X2962857Y-10618192D02*
X2953333Y-10656287D01*
X2953333Y-10656287D02*
X2943809Y-10675335D01*
X2943809Y-10675335D02*
X2934286Y-10684858D01*
X2934286Y-10684858D02*
X2915238Y-10694382D01*
X2915238Y-10694382D02*
X2896190Y-10694382D01*
X2896190Y-10694382D02*
X2877143Y-10684858D01*
X2877143Y-10684858D02*
X2867619Y-10675335D01*
X2867619Y-10675335D02*
X2858095Y-10656287D01*
X2858095Y-10656287D02*
X2848571Y-10618192D01*
X2848571Y-10618192D02*
X2848571Y-10570573D01*
X2848571Y-10570573D02*
X2858095Y-10532477D01*
X2858095Y-10532477D02*
X2867619Y-10513430D01*
X2867619Y-10513430D02*
X2877143Y-10503906D01*
X2877143Y-10503906D02*
X2896190Y-10494382D01*
X3048571Y-10675335D02*
X3058095Y-10684858D01*
X3058095Y-10684858D02*
X3048571Y-10694382D01*
X3048571Y-10694382D02*
X3039047Y-10684858D01*
X3039047Y-10684858D02*
X3048571Y-10675335D01*
X3048571Y-10675335D02*
X3048571Y-10694382D01*
X3153333Y-10694382D02*
X3191428Y-10694382D01*
X3191428Y-10694382D02*
X3210476Y-10684858D01*
X3210476Y-10684858D02*
X3220000Y-10675335D01*
X3220000Y-10675335D02*
X3239047Y-10646763D01*
X3239047Y-10646763D02*
X3248571Y-10608668D01*
X3248571Y-10608668D02*
X3248571Y-10532477D01*
X3248571Y-10532477D02*
X3239047Y-10513430D01*
X3239047Y-10513430D02*
X3229524Y-10503906D01*
X3229524Y-10503906D02*
X3210476Y-10494382D01*
X3210476Y-10494382D02*
X3172381Y-10494382D01*
X3172381Y-10494382D02*
X3153333Y-10503906D01*
X3153333Y-10503906D02*
X3143809Y-10513430D01*
X3143809Y-10513430D02*
X3134286Y-10532477D01*
X3134286Y-10532477D02*
X3134286Y-10580096D01*
X3134286Y-10580096D02*
X3143809Y-10599144D01*
X3143809Y-10599144D02*
X3153333Y-10608668D01*
X3153333Y-10608668D02*
X3172381Y-10618192D01*
X3172381Y-10618192D02*
X3210476Y-10618192D01*
X3210476Y-10618192D02*
X3229524Y-10608668D01*
X3229524Y-10608668D02*
X3239047Y-10599144D01*
X3239047Y-10599144D02*
X3248571Y-10580096D01*
X3429524Y-10494382D02*
X3334286Y-10494382D01*
X3334286Y-10494382D02*
X3324762Y-10589620D01*
X3324762Y-10589620D02*
X3334286Y-10580096D01*
X3334286Y-10580096D02*
X3353333Y-10570573D01*
X3353333Y-10570573D02*
X3400952Y-10570573D01*
X3400952Y-10570573D02*
X3420000Y-10580096D01*
X3420000Y-10580096D02*
X3429524Y-10589620D01*
X3429524Y-10589620D02*
X3439047Y-10608668D01*
X3439047Y-10608668D02*
X3439047Y-10656287D01*
X3439047Y-10656287D02*
X3429524Y-10675335D01*
X3429524Y-10675335D02*
X3420000Y-10684858D01*
X3420000Y-10684858D02*
X3400952Y-10694382D01*
X3400952Y-10694382D02*
X3353333Y-10694382D01*
X3353333Y-10694382D02*
X3334286Y-10684858D01*
X3334286Y-10684858D02*
X3324762Y-10675335D01*
X3562857Y-10494382D02*
X3581905Y-10494382D01*
X3581905Y-10494382D02*
X3600952Y-10503906D01*
X3600952Y-10503906D02*
X3610476Y-10513430D01*
X3610476Y-10513430D02*
X3620000Y-10532477D01*
X3620000Y-10532477D02*
X3629524Y-10570573D01*
X3629524Y-10570573D02*
X3629524Y-10618192D01*
X3629524Y-10618192D02*
X3620000Y-10656287D01*
X3620000Y-10656287D02*
X3610476Y-10675335D01*
X3610476Y-10675335D02*
X3600952Y-10684858D01*
X3600952Y-10684858D02*
X3581905Y-10694382D01*
X3581905Y-10694382D02*
X3562857Y-10694382D01*
X3562857Y-10694382D02*
X3543809Y-10684858D01*
X3543809Y-10684858D02*
X3534286Y-10675335D01*
X3534286Y-10675335D02*
X3524762Y-10656287D01*
X3524762Y-10656287D02*
X3515238Y-10618192D01*
X3515238Y-10618192D02*
X3515238Y-10570573D01*
X3515238Y-10570573D02*
X3524762Y-10532477D01*
X3524762Y-10532477D02*
X3534286Y-10513430D01*
X3534286Y-10513430D02*
X3543809Y-10503906D01*
X3543809Y-10503906D02*
X3562857Y-10494382D01*
X3715238Y-10694382D02*
X3715238Y-10561049D01*
X3715238Y-10580096D02*
X3724762Y-10570573D01*
X3724762Y-10570573D02*
X3743809Y-10561049D01*
X3743809Y-10561049D02*
X3772381Y-10561049D01*
X3772381Y-10561049D02*
X3791428Y-10570573D01*
X3791428Y-10570573D02*
X3800952Y-10589620D01*
X3800952Y-10589620D02*
X3800952Y-10694382D01*
X3800952Y-10589620D02*
X3810476Y-10570573D01*
X3810476Y-10570573D02*
X3829524Y-10561049D01*
X3829524Y-10561049D02*
X3858095Y-10561049D01*
X3858095Y-10561049D02*
X3877143Y-10570573D01*
X3877143Y-10570573D02*
X3886667Y-10589620D01*
X3886667Y-10589620D02*
X3886667Y-10694382D01*
X3981905Y-10694382D02*
X3981905Y-10561049D01*
X3981905Y-10580096D02*
X3991428Y-10570573D01*
X3991428Y-10570573D02*
X4010476Y-10561049D01*
X4010476Y-10561049D02*
X4039048Y-10561049D01*
X4039048Y-10561049D02*
X4058095Y-10570573D01*
X4058095Y-10570573D02*
X4067619Y-10589620D01*
X4067619Y-10589620D02*
X4067619Y-10694382D01*
X4067619Y-10589620D02*
X4077143Y-10570573D01*
X4077143Y-10570573D02*
X4096190Y-10561049D01*
X4096190Y-10561049D02*
X4124762Y-10561049D01*
X4124762Y-10561049D02*
X4143809Y-10570573D01*
X4143809Y-10570573D02*
X4153333Y-10589620D01*
X4153333Y-10589620D02*
X4153333Y-10694382D01*
X4543810Y-10484858D02*
X4372381Y-10742001D01*
X4800952Y-10494382D02*
X4820000Y-10494382D01*
X4820000Y-10494382D02*
X4839048Y-10503906D01*
X4839048Y-10503906D02*
X4848572Y-10513430D01*
X4848572Y-10513430D02*
X4858095Y-10532477D01*
X4858095Y-10532477D02*
X4867619Y-10570573D01*
X4867619Y-10570573D02*
X4867619Y-10618192D01*
X4867619Y-10618192D02*
X4858095Y-10656287D01*
X4858095Y-10656287D02*
X4848572Y-10675335D01*
X4848572Y-10675335D02*
X4839048Y-10684858D01*
X4839048Y-10684858D02*
X4820000Y-10694382D01*
X4820000Y-10694382D02*
X4800952Y-10694382D01*
X4800952Y-10694382D02*
X4781905Y-10684858D01*
X4781905Y-10684858D02*
X4772381Y-10675335D01*
X4772381Y-10675335D02*
X4762857Y-10656287D01*
X4762857Y-10656287D02*
X4753333Y-10618192D01*
X4753333Y-10618192D02*
X4753333Y-10570573D01*
X4753333Y-10570573D02*
X4762857Y-10532477D01*
X4762857Y-10532477D02*
X4772381Y-10513430D01*
X4772381Y-10513430D02*
X4781905Y-10503906D01*
X4781905Y-10503906D02*
X4800952Y-10494382D01*
X4953333Y-10675335D02*
X4962857Y-10684858D01*
X4962857Y-10684858D02*
X4953333Y-10694382D01*
X4953333Y-10694382D02*
X4943810Y-10684858D01*
X4943810Y-10684858D02*
X4953333Y-10675335D01*
X4953333Y-10675335D02*
X4953333Y-10694382D01*
X5086667Y-10494382D02*
X5105714Y-10494382D01*
X5105714Y-10494382D02*
X5124762Y-10503906D01*
X5124762Y-10503906D02*
X5134286Y-10513430D01*
X5134286Y-10513430D02*
X5143810Y-10532477D01*
X5143810Y-10532477D02*
X5153333Y-10570573D01*
X5153333Y-10570573D02*
X5153333Y-10618192D01*
X5153333Y-10618192D02*
X5143810Y-10656287D01*
X5143810Y-10656287D02*
X5134286Y-10675335D01*
X5134286Y-10675335D02*
X5124762Y-10684858D01*
X5124762Y-10684858D02*
X5105714Y-10694382D01*
X5105714Y-10694382D02*
X5086667Y-10694382D01*
X5086667Y-10694382D02*
X5067619Y-10684858D01*
X5067619Y-10684858D02*
X5058095Y-10675335D01*
X5058095Y-10675335D02*
X5048572Y-10656287D01*
X5048572Y-10656287D02*
X5039048Y-10618192D01*
X5039048Y-10618192D02*
X5039048Y-10570573D01*
X5039048Y-10570573D02*
X5048572Y-10532477D01*
X5048572Y-10532477D02*
X5058095Y-10513430D01*
X5058095Y-10513430D02*
X5067619Y-10503906D01*
X5067619Y-10503906D02*
X5086667Y-10494382D01*
X5220000Y-10494382D02*
X5343810Y-10494382D01*
X5343810Y-10494382D02*
X5277143Y-10570573D01*
X5277143Y-10570573D02*
X5305714Y-10570573D01*
X5305714Y-10570573D02*
X5324762Y-10580096D01*
X5324762Y-10580096D02*
X5334286Y-10589620D01*
X5334286Y-10589620D02*
X5343810Y-10608668D01*
X5343810Y-10608668D02*
X5343810Y-10656287D01*
X5343810Y-10656287D02*
X5334286Y-10675335D01*
X5334286Y-10675335D02*
X5324762Y-10684858D01*
X5324762Y-10684858D02*
X5305714Y-10694382D01*
X5305714Y-10694382D02*
X5248572Y-10694382D01*
X5248572Y-10694382D02*
X5229524Y-10684858D01*
X5229524Y-10684858D02*
X5220000Y-10675335D01*
X5410476Y-10494382D02*
X5543810Y-10494382D01*
X5543810Y-10494382D02*
X5458095Y-10694382D01*
X5705714Y-10561049D02*
X5705714Y-10694382D01*
X5658095Y-10484858D02*
X5610476Y-10627716D01*
X5610476Y-10627716D02*
X5734286Y-10627716D01*
X5800952Y-10494382D02*
X5800952Y-10532477D01*
X5877143Y-10494382D02*
X5877143Y-10532477D01*
X6172381Y-10770573D02*
X6162857Y-10761049D01*
X6162857Y-10761049D02*
X6143810Y-10732477D01*
X6143810Y-10732477D02*
X6134286Y-10713430D01*
X6134286Y-10713430D02*
X6124762Y-10684858D01*
X6124762Y-10684858D02*
X6115238Y-10637239D01*
X6115238Y-10637239D02*
X6115238Y-10599144D01*
X6115238Y-10599144D02*
X6124762Y-10551525D01*
X6124762Y-10551525D02*
X6134286Y-10522954D01*
X6134286Y-10522954D02*
X6143810Y-10503906D01*
X6143810Y-10503906D02*
X6162857Y-10475335D01*
X6162857Y-10475335D02*
X6172381Y-10465811D01*
X6334286Y-10561049D02*
X6334286Y-10694382D01*
X6286667Y-10484858D02*
X6239048Y-10627716D01*
X6239048Y-10627716D02*
X6362857Y-10627716D01*
X6591429Y-10694382D02*
X6591429Y-10494382D01*
X6677143Y-10694382D02*
X6677143Y-10589620D01*
X6677143Y-10589620D02*
X6667619Y-10570573D01*
X6667619Y-10570573D02*
X6648572Y-10561049D01*
X6648572Y-10561049D02*
X6620000Y-10561049D01*
X6620000Y-10561049D02*
X6600953Y-10570573D01*
X6600953Y-10570573D02*
X6591429Y-10580096D01*
X6800953Y-10694382D02*
X6781905Y-10684858D01*
X6781905Y-10684858D02*
X6772381Y-10675335D01*
X6772381Y-10675335D02*
X6762857Y-10656287D01*
X6762857Y-10656287D02*
X6762857Y-10599144D01*
X6762857Y-10599144D02*
X6772381Y-10580096D01*
X6772381Y-10580096D02*
X6781905Y-10570573D01*
X6781905Y-10570573D02*
X6800953Y-10561049D01*
X6800953Y-10561049D02*
X6829524Y-10561049D01*
X6829524Y-10561049D02*
X6848572Y-10570573D01*
X6848572Y-10570573D02*
X6858095Y-10580096D01*
X6858095Y-10580096D02*
X6867619Y-10599144D01*
X6867619Y-10599144D02*
X6867619Y-10656287D01*
X6867619Y-10656287D02*
X6858095Y-10675335D01*
X6858095Y-10675335D02*
X6848572Y-10684858D01*
X6848572Y-10684858D02*
X6829524Y-10694382D01*
X6829524Y-10694382D02*
X6800953Y-10694382D01*
X6981905Y-10694382D02*
X6962857Y-10684858D01*
X6962857Y-10684858D02*
X6953334Y-10665811D01*
X6953334Y-10665811D02*
X6953334Y-10494382D01*
X7134286Y-10684858D02*
X7115238Y-10694382D01*
X7115238Y-10694382D02*
X7077143Y-10694382D01*
X7077143Y-10694382D02*
X7058095Y-10684858D01*
X7058095Y-10684858D02*
X7048572Y-10665811D01*
X7048572Y-10665811D02*
X7048572Y-10589620D01*
X7048572Y-10589620D02*
X7058095Y-10570573D01*
X7058095Y-10570573D02*
X7077143Y-10561049D01*
X7077143Y-10561049D02*
X7115238Y-10561049D01*
X7115238Y-10561049D02*
X7134286Y-10570573D01*
X7134286Y-10570573D02*
X7143810Y-10589620D01*
X7143810Y-10589620D02*
X7143810Y-10608668D01*
X7143810Y-10608668D02*
X7048572Y-10627716D01*
X7220000Y-10684858D02*
X7239048Y-10694382D01*
X7239048Y-10694382D02*
X7277143Y-10694382D01*
X7277143Y-10694382D02*
X7296191Y-10684858D01*
X7296191Y-10684858D02*
X7305715Y-10665811D01*
X7305715Y-10665811D02*
X7305715Y-10656287D01*
X7305715Y-10656287D02*
X7296191Y-10637239D01*
X7296191Y-10637239D02*
X7277143Y-10627716D01*
X7277143Y-10627716D02*
X7248572Y-10627716D01*
X7248572Y-10627716D02*
X7229524Y-10618192D01*
X7229524Y-10618192D02*
X7220000Y-10599144D01*
X7220000Y-10599144D02*
X7220000Y-10589620D01*
X7220000Y-10589620D02*
X7229524Y-10570573D01*
X7229524Y-10570573D02*
X7248572Y-10561049D01*
X7248572Y-10561049D02*
X7277143Y-10561049D01*
X7277143Y-10561049D02*
X7296191Y-10570573D01*
X7372381Y-10770573D02*
X7381905Y-10761049D01*
X7381905Y-10761049D02*
X7400953Y-10732477D01*
X7400953Y-10732477D02*
X7410476Y-10713430D01*
X7410476Y-10713430D02*
X7420000Y-10684858D01*
X7420000Y-10684858D02*
X7429524Y-10637239D01*
X7429524Y-10637239D02*
X7429524Y-10599144D01*
X7429524Y-10599144D02*
X7420000Y-10551525D01*
X7420000Y-10551525D02*
X7410476Y-10522954D01*
X7410476Y-10522954D02*
X7400953Y-10503906D01*
X7400953Y-10503906D02*
X7381905Y-10475335D01*
X7381905Y-10475335D02*
X7372381Y-10465811D01*
D12*
X2497318Y-10816898D02*
X2597318Y-10916898D01*
X2597318Y-10816898D02*
X2497318Y-10916898D01*
X2547318Y-10816898D02*
X2547318Y-10916898D01*
X2497318Y-10866898D02*
X2597318Y-10866898D01*
D11*
X2962857Y-10958382D02*
X2848571Y-10958382D01*
X2905714Y-10958382D02*
X2905714Y-10758382D01*
X2905714Y-10758382D02*
X2886666Y-10786954D01*
X2886666Y-10786954D02*
X2867619Y-10806001D01*
X2867619Y-10806001D02*
X2848571Y-10815525D01*
X3048571Y-10939335D02*
X3058095Y-10948858D01*
X3058095Y-10948858D02*
X3048571Y-10958382D01*
X3048571Y-10958382D02*
X3039047Y-10948858D01*
X3039047Y-10948858D02*
X3048571Y-10939335D01*
X3048571Y-10939335D02*
X3048571Y-10958382D01*
X3181905Y-10758382D02*
X3200952Y-10758382D01*
X3200952Y-10758382D02*
X3220000Y-10767906D01*
X3220000Y-10767906D02*
X3229524Y-10777430D01*
X3229524Y-10777430D02*
X3239047Y-10796477D01*
X3239047Y-10796477D02*
X3248571Y-10834573D01*
X3248571Y-10834573D02*
X3248571Y-10882192D01*
X3248571Y-10882192D02*
X3239047Y-10920287D01*
X3239047Y-10920287D02*
X3229524Y-10939335D01*
X3229524Y-10939335D02*
X3220000Y-10948858D01*
X3220000Y-10948858D02*
X3200952Y-10958382D01*
X3200952Y-10958382D02*
X3181905Y-10958382D01*
X3181905Y-10958382D02*
X3162857Y-10948858D01*
X3162857Y-10948858D02*
X3153333Y-10939335D01*
X3153333Y-10939335D02*
X3143809Y-10920287D01*
X3143809Y-10920287D02*
X3134286Y-10882192D01*
X3134286Y-10882192D02*
X3134286Y-10834573D01*
X3134286Y-10834573D02*
X3143809Y-10796477D01*
X3143809Y-10796477D02*
X3153333Y-10777430D01*
X3153333Y-10777430D02*
X3162857Y-10767906D01*
X3162857Y-10767906D02*
X3181905Y-10758382D01*
X3372381Y-10758382D02*
X3391428Y-10758382D01*
X3391428Y-10758382D02*
X3410476Y-10767906D01*
X3410476Y-10767906D02*
X3420000Y-10777430D01*
X3420000Y-10777430D02*
X3429524Y-10796477D01*
X3429524Y-10796477D02*
X3439047Y-10834573D01*
X3439047Y-10834573D02*
X3439047Y-10882192D01*
X3439047Y-10882192D02*
X3429524Y-10920287D01*
X3429524Y-10920287D02*
X3420000Y-10939335D01*
X3420000Y-10939335D02*
X3410476Y-10948858D01*
X3410476Y-10948858D02*
X3391428Y-10958382D01*
X3391428Y-10958382D02*
X3372381Y-10958382D01*
X3372381Y-10958382D02*
X3353333Y-10948858D01*
X3353333Y-10948858D02*
X3343809Y-10939335D01*
X3343809Y-10939335D02*
X3334286Y-10920287D01*
X3334286Y-10920287D02*
X3324762Y-10882192D01*
X3324762Y-10882192D02*
X3324762Y-10834573D01*
X3324762Y-10834573D02*
X3334286Y-10796477D01*
X3334286Y-10796477D02*
X3343809Y-10777430D01*
X3343809Y-10777430D02*
X3353333Y-10767906D01*
X3353333Y-10767906D02*
X3372381Y-10758382D01*
X3562857Y-10758382D02*
X3581905Y-10758382D01*
X3581905Y-10758382D02*
X3600952Y-10767906D01*
X3600952Y-10767906D02*
X3610476Y-10777430D01*
X3610476Y-10777430D02*
X3620000Y-10796477D01*
X3620000Y-10796477D02*
X3629524Y-10834573D01*
X3629524Y-10834573D02*
X3629524Y-10882192D01*
X3629524Y-10882192D02*
X3620000Y-10920287D01*
X3620000Y-10920287D02*
X3610476Y-10939335D01*
X3610476Y-10939335D02*
X3600952Y-10948858D01*
X3600952Y-10948858D02*
X3581905Y-10958382D01*
X3581905Y-10958382D02*
X3562857Y-10958382D01*
X3562857Y-10958382D02*
X3543809Y-10948858D01*
X3543809Y-10948858D02*
X3534286Y-10939335D01*
X3534286Y-10939335D02*
X3524762Y-10920287D01*
X3524762Y-10920287D02*
X3515238Y-10882192D01*
X3515238Y-10882192D02*
X3515238Y-10834573D01*
X3515238Y-10834573D02*
X3524762Y-10796477D01*
X3524762Y-10796477D02*
X3534286Y-10777430D01*
X3534286Y-10777430D02*
X3543809Y-10767906D01*
X3543809Y-10767906D02*
X3562857Y-10758382D01*
X3715238Y-10958382D02*
X3715238Y-10825049D01*
X3715238Y-10844096D02*
X3724762Y-10834573D01*
X3724762Y-10834573D02*
X3743809Y-10825049D01*
X3743809Y-10825049D02*
X3772381Y-10825049D01*
X3772381Y-10825049D02*
X3791428Y-10834573D01*
X3791428Y-10834573D02*
X3800952Y-10853620D01*
X3800952Y-10853620D02*
X3800952Y-10958382D01*
X3800952Y-10853620D02*
X3810476Y-10834573D01*
X3810476Y-10834573D02*
X3829524Y-10825049D01*
X3829524Y-10825049D02*
X3858095Y-10825049D01*
X3858095Y-10825049D02*
X3877143Y-10834573D01*
X3877143Y-10834573D02*
X3886667Y-10853620D01*
X3886667Y-10853620D02*
X3886667Y-10958382D01*
X3981905Y-10958382D02*
X3981905Y-10825049D01*
X3981905Y-10844096D02*
X3991428Y-10834573D01*
X3991428Y-10834573D02*
X4010476Y-10825049D01*
X4010476Y-10825049D02*
X4039048Y-10825049D01*
X4039048Y-10825049D02*
X4058095Y-10834573D01*
X4058095Y-10834573D02*
X4067619Y-10853620D01*
X4067619Y-10853620D02*
X4067619Y-10958382D01*
X4067619Y-10853620D02*
X4077143Y-10834573D01*
X4077143Y-10834573D02*
X4096190Y-10825049D01*
X4096190Y-10825049D02*
X4124762Y-10825049D01*
X4124762Y-10825049D02*
X4143809Y-10834573D01*
X4143809Y-10834573D02*
X4153333Y-10853620D01*
X4153333Y-10853620D02*
X4153333Y-10958382D01*
X4543810Y-10748858D02*
X4372381Y-11006001D01*
X4800952Y-10758382D02*
X4820000Y-10758382D01*
X4820000Y-10758382D02*
X4839048Y-10767906D01*
X4839048Y-10767906D02*
X4848572Y-10777430D01*
X4848572Y-10777430D02*
X4858095Y-10796477D01*
X4858095Y-10796477D02*
X4867619Y-10834573D01*
X4867619Y-10834573D02*
X4867619Y-10882192D01*
X4867619Y-10882192D02*
X4858095Y-10920287D01*
X4858095Y-10920287D02*
X4848572Y-10939335D01*
X4848572Y-10939335D02*
X4839048Y-10948858D01*
X4839048Y-10948858D02*
X4820000Y-10958382D01*
X4820000Y-10958382D02*
X4800952Y-10958382D01*
X4800952Y-10958382D02*
X4781905Y-10948858D01*
X4781905Y-10948858D02*
X4772381Y-10939335D01*
X4772381Y-10939335D02*
X4762857Y-10920287D01*
X4762857Y-10920287D02*
X4753333Y-10882192D01*
X4753333Y-10882192D02*
X4753333Y-10834573D01*
X4753333Y-10834573D02*
X4762857Y-10796477D01*
X4762857Y-10796477D02*
X4772381Y-10777430D01*
X4772381Y-10777430D02*
X4781905Y-10767906D01*
X4781905Y-10767906D02*
X4800952Y-10758382D01*
X4953333Y-10939335D02*
X4962857Y-10948858D01*
X4962857Y-10948858D02*
X4953333Y-10958382D01*
X4953333Y-10958382D02*
X4943810Y-10948858D01*
X4943810Y-10948858D02*
X4953333Y-10939335D01*
X4953333Y-10939335D02*
X4953333Y-10958382D01*
X5086667Y-10758382D02*
X5105714Y-10758382D01*
X5105714Y-10758382D02*
X5124762Y-10767906D01*
X5124762Y-10767906D02*
X5134286Y-10777430D01*
X5134286Y-10777430D02*
X5143810Y-10796477D01*
X5143810Y-10796477D02*
X5153333Y-10834573D01*
X5153333Y-10834573D02*
X5153333Y-10882192D01*
X5153333Y-10882192D02*
X5143810Y-10920287D01*
X5143810Y-10920287D02*
X5134286Y-10939335D01*
X5134286Y-10939335D02*
X5124762Y-10948858D01*
X5124762Y-10948858D02*
X5105714Y-10958382D01*
X5105714Y-10958382D02*
X5086667Y-10958382D01*
X5086667Y-10958382D02*
X5067619Y-10948858D01*
X5067619Y-10948858D02*
X5058095Y-10939335D01*
X5058095Y-10939335D02*
X5048572Y-10920287D01*
X5048572Y-10920287D02*
X5039048Y-10882192D01*
X5039048Y-10882192D02*
X5039048Y-10834573D01*
X5039048Y-10834573D02*
X5048572Y-10796477D01*
X5048572Y-10796477D02*
X5058095Y-10777430D01*
X5058095Y-10777430D02*
X5067619Y-10767906D01*
X5067619Y-10767906D02*
X5086667Y-10758382D01*
X5220000Y-10758382D02*
X5343810Y-10758382D01*
X5343810Y-10758382D02*
X5277143Y-10834573D01*
X5277143Y-10834573D02*
X5305714Y-10834573D01*
X5305714Y-10834573D02*
X5324762Y-10844096D01*
X5324762Y-10844096D02*
X5334286Y-10853620D01*
X5334286Y-10853620D02*
X5343810Y-10872668D01*
X5343810Y-10872668D02*
X5343810Y-10920287D01*
X5343810Y-10920287D02*
X5334286Y-10939335D01*
X5334286Y-10939335D02*
X5324762Y-10948858D01*
X5324762Y-10948858D02*
X5305714Y-10958382D01*
X5305714Y-10958382D02*
X5248572Y-10958382D01*
X5248572Y-10958382D02*
X5229524Y-10948858D01*
X5229524Y-10948858D02*
X5220000Y-10939335D01*
X5439048Y-10958382D02*
X5477143Y-10958382D01*
X5477143Y-10958382D02*
X5496191Y-10948858D01*
X5496191Y-10948858D02*
X5505714Y-10939335D01*
X5505714Y-10939335D02*
X5524762Y-10910763D01*
X5524762Y-10910763D02*
X5534286Y-10872668D01*
X5534286Y-10872668D02*
X5534286Y-10796477D01*
X5534286Y-10796477D02*
X5524762Y-10777430D01*
X5524762Y-10777430D02*
X5515238Y-10767906D01*
X5515238Y-10767906D02*
X5496191Y-10758382D01*
X5496191Y-10758382D02*
X5458095Y-10758382D01*
X5458095Y-10758382D02*
X5439048Y-10767906D01*
X5439048Y-10767906D02*
X5429524Y-10777430D01*
X5429524Y-10777430D02*
X5420000Y-10796477D01*
X5420000Y-10796477D02*
X5420000Y-10844096D01*
X5420000Y-10844096D02*
X5429524Y-10863144D01*
X5429524Y-10863144D02*
X5439048Y-10872668D01*
X5439048Y-10872668D02*
X5458095Y-10882192D01*
X5458095Y-10882192D02*
X5496191Y-10882192D01*
X5496191Y-10882192D02*
X5515238Y-10872668D01*
X5515238Y-10872668D02*
X5524762Y-10863144D01*
X5524762Y-10863144D02*
X5534286Y-10844096D01*
X5705714Y-10825049D02*
X5705714Y-10958382D01*
X5658095Y-10748858D02*
X5610476Y-10891716D01*
X5610476Y-10891716D02*
X5734286Y-10891716D01*
X5800952Y-10758382D02*
X5800952Y-10796477D01*
X5877143Y-10758382D02*
X5877143Y-10796477D01*
X6172381Y-11034573D02*
X6162857Y-11025049D01*
X6162857Y-11025049D02*
X6143810Y-10996477D01*
X6143810Y-10996477D02*
X6134286Y-10977430D01*
X6134286Y-10977430D02*
X6124762Y-10948858D01*
X6124762Y-10948858D02*
X6115238Y-10901239D01*
X6115238Y-10901239D02*
X6115238Y-10863144D01*
X6115238Y-10863144D02*
X6124762Y-10815525D01*
X6124762Y-10815525D02*
X6134286Y-10786954D01*
X6134286Y-10786954D02*
X6143810Y-10767906D01*
X6143810Y-10767906D02*
X6162857Y-10739335D01*
X6162857Y-10739335D02*
X6172381Y-10729811D01*
X6353333Y-10958382D02*
X6239048Y-10958382D01*
X6296191Y-10958382D02*
X6296191Y-10758382D01*
X6296191Y-10758382D02*
X6277143Y-10786954D01*
X6277143Y-10786954D02*
X6258095Y-10806001D01*
X6258095Y-10806001D02*
X6239048Y-10815525D01*
X6524762Y-10825049D02*
X6524762Y-10958382D01*
X6477143Y-10748858D02*
X6429524Y-10891716D01*
X6429524Y-10891716D02*
X6553333Y-10891716D01*
X6781905Y-10958382D02*
X6781905Y-10758382D01*
X6867619Y-10958382D02*
X6867619Y-10853620D01*
X6867619Y-10853620D02*
X6858095Y-10834573D01*
X6858095Y-10834573D02*
X6839048Y-10825049D01*
X6839048Y-10825049D02*
X6810476Y-10825049D01*
X6810476Y-10825049D02*
X6791429Y-10834573D01*
X6791429Y-10834573D02*
X6781905Y-10844096D01*
X6991429Y-10958382D02*
X6972381Y-10948858D01*
X6972381Y-10948858D02*
X6962857Y-10939335D01*
X6962857Y-10939335D02*
X6953334Y-10920287D01*
X6953334Y-10920287D02*
X6953334Y-10863144D01*
X6953334Y-10863144D02*
X6962857Y-10844096D01*
X6962857Y-10844096D02*
X6972381Y-10834573D01*
X6972381Y-10834573D02*
X6991429Y-10825049D01*
X6991429Y-10825049D02*
X7020000Y-10825049D01*
X7020000Y-10825049D02*
X7039048Y-10834573D01*
X7039048Y-10834573D02*
X7048572Y-10844096D01*
X7048572Y-10844096D02*
X7058095Y-10863144D01*
X7058095Y-10863144D02*
X7058095Y-10920287D01*
X7058095Y-10920287D02*
X7048572Y-10939335D01*
X7048572Y-10939335D02*
X7039048Y-10948858D01*
X7039048Y-10948858D02*
X7020000Y-10958382D01*
X7020000Y-10958382D02*
X6991429Y-10958382D01*
X7172381Y-10958382D02*
X7153334Y-10948858D01*
X7153334Y-10948858D02*
X7143810Y-10929811D01*
X7143810Y-10929811D02*
X7143810Y-10758382D01*
X7324762Y-10948858D02*
X7305715Y-10958382D01*
X7305715Y-10958382D02*
X7267619Y-10958382D01*
X7267619Y-10958382D02*
X7248572Y-10948858D01*
X7248572Y-10948858D02*
X7239048Y-10929811D01*
X7239048Y-10929811D02*
X7239048Y-10853620D01*
X7239048Y-10853620D02*
X7248572Y-10834573D01*
X7248572Y-10834573D02*
X7267619Y-10825049D01*
X7267619Y-10825049D02*
X7305715Y-10825049D01*
X7305715Y-10825049D02*
X7324762Y-10834573D01*
X7324762Y-10834573D02*
X7334286Y-10853620D01*
X7334286Y-10853620D02*
X7334286Y-10872668D01*
X7334286Y-10872668D02*
X7239048Y-10891716D01*
X7410476Y-10948858D02*
X7429524Y-10958382D01*
X7429524Y-10958382D02*
X7467619Y-10958382D01*
X7467619Y-10958382D02*
X7486667Y-10948858D01*
X7486667Y-10948858D02*
X7496191Y-10929811D01*
X7496191Y-10929811D02*
X7496191Y-10920287D01*
X7496191Y-10920287D02*
X7486667Y-10901239D01*
X7486667Y-10901239D02*
X7467619Y-10891716D01*
X7467619Y-10891716D02*
X7439048Y-10891716D01*
X7439048Y-10891716D02*
X7420000Y-10882192D01*
X7420000Y-10882192D02*
X7410476Y-10863144D01*
X7410476Y-10863144D02*
X7410476Y-10853620D01*
X7410476Y-10853620D02*
X7420000Y-10834573D01*
X7420000Y-10834573D02*
X7439048Y-10825049D01*
X7439048Y-10825049D02*
X7467619Y-10825049D01*
X7467619Y-10825049D02*
X7486667Y-10834573D01*
X7734286Y-10882192D02*
X7886667Y-10882192D01*
X7810477Y-10958382D02*
X7810477Y-10806001D01*
X8115238Y-10758382D02*
X8239048Y-10758382D01*
X8239048Y-10758382D02*
X8172381Y-10834573D01*
X8172381Y-10834573D02*
X8200953Y-10834573D01*
X8200953Y-10834573D02*
X8220000Y-10844096D01*
X8220000Y-10844096D02*
X8229524Y-10853620D01*
X8229524Y-10853620D02*
X8239048Y-10872668D01*
X8239048Y-10872668D02*
X8239048Y-10920287D01*
X8239048Y-10920287D02*
X8229524Y-10939335D01*
X8229524Y-10939335D02*
X8220000Y-10948858D01*
X8220000Y-10948858D02*
X8200953Y-10958382D01*
X8200953Y-10958382D02*
X8143810Y-10958382D01*
X8143810Y-10958382D02*
X8124762Y-10948858D01*
X8124762Y-10948858D02*
X8115238Y-10939335D01*
X8467620Y-10948858D02*
X8486667Y-10958382D01*
X8486667Y-10958382D02*
X8524762Y-10958382D01*
X8524762Y-10958382D02*
X8543810Y-10948858D01*
X8543810Y-10948858D02*
X8553334Y-10929811D01*
X8553334Y-10929811D02*
X8553334Y-10920287D01*
X8553334Y-10920287D02*
X8543810Y-10901239D01*
X8543810Y-10901239D02*
X8524762Y-10891716D01*
X8524762Y-10891716D02*
X8496191Y-10891716D01*
X8496191Y-10891716D02*
X8477143Y-10882192D01*
X8477143Y-10882192D02*
X8467620Y-10863144D01*
X8467620Y-10863144D02*
X8467620Y-10853620D01*
X8467620Y-10853620D02*
X8477143Y-10834573D01*
X8477143Y-10834573D02*
X8496191Y-10825049D01*
X8496191Y-10825049D02*
X8524762Y-10825049D01*
X8524762Y-10825049D02*
X8543810Y-10834573D01*
X8667620Y-10958382D02*
X8648572Y-10948858D01*
X8648572Y-10948858D02*
X8639048Y-10929811D01*
X8639048Y-10929811D02*
X8639048Y-10758382D01*
X8772381Y-10958382D02*
X8753334Y-10948858D01*
X8753334Y-10948858D02*
X8743810Y-10939335D01*
X8743810Y-10939335D02*
X8734286Y-10920287D01*
X8734286Y-10920287D02*
X8734286Y-10863144D01*
X8734286Y-10863144D02*
X8743810Y-10844096D01*
X8743810Y-10844096D02*
X8753334Y-10834573D01*
X8753334Y-10834573D02*
X8772381Y-10825049D01*
X8772381Y-10825049D02*
X8800953Y-10825049D01*
X8800953Y-10825049D02*
X8820001Y-10834573D01*
X8820001Y-10834573D02*
X8829524Y-10844096D01*
X8829524Y-10844096D02*
X8839048Y-10863144D01*
X8839048Y-10863144D02*
X8839048Y-10920287D01*
X8839048Y-10920287D02*
X8829524Y-10939335D01*
X8829524Y-10939335D02*
X8820001Y-10948858D01*
X8820001Y-10948858D02*
X8800953Y-10958382D01*
X8800953Y-10958382D02*
X8772381Y-10958382D01*
X8896191Y-10825049D02*
X8972381Y-10825049D01*
X8924762Y-10758382D02*
X8924762Y-10929811D01*
X8924762Y-10929811D02*
X8934286Y-10948858D01*
X8934286Y-10948858D02*
X8953334Y-10958382D01*
X8953334Y-10958382D02*
X8972381Y-10958382D01*
X9029524Y-10948858D02*
X9048572Y-10958382D01*
X9048572Y-10958382D02*
X9086667Y-10958382D01*
X9086667Y-10958382D02*
X9105715Y-10948858D01*
X9105715Y-10948858D02*
X9115239Y-10929811D01*
X9115239Y-10929811D02*
X9115239Y-10920287D01*
X9115239Y-10920287D02*
X9105715Y-10901239D01*
X9105715Y-10901239D02*
X9086667Y-10891716D01*
X9086667Y-10891716D02*
X9058096Y-10891716D01*
X9058096Y-10891716D02*
X9039048Y-10882192D01*
X9039048Y-10882192D02*
X9029524Y-10863144D01*
X9029524Y-10863144D02*
X9029524Y-10853620D01*
X9029524Y-10853620D02*
X9039048Y-10834573D01*
X9039048Y-10834573D02*
X9058096Y-10825049D01*
X9058096Y-10825049D02*
X9086667Y-10825049D01*
X9086667Y-10825049D02*
X9105715Y-10834573D01*
X9181905Y-11034573D02*
X9191429Y-11025049D01*
X9191429Y-11025049D02*
X9210477Y-10996477D01*
X9210477Y-10996477D02*
X9220001Y-10977430D01*
X9220001Y-10977430D02*
X9229524Y-10948858D01*
X9229524Y-10948858D02*
X9239048Y-10901239D01*
X9239048Y-10901239D02*
X9239048Y-10863144D01*
X9239048Y-10863144D02*
X9229524Y-10815525D01*
X9229524Y-10815525D02*
X9220001Y-10786954D01*
X9220001Y-10786954D02*
X9210477Y-10767906D01*
X9210477Y-10767906D02*
X9191429Y-10739335D01*
X9191429Y-10739335D02*
X9181905Y-10729811D01*
D13*
X2467318Y-11065898D02*
X2597318Y-11195898D01*
X2597318Y-11065898D02*
X2467318Y-11195898D01*
X2578281Y-11176861D02*
X2578281Y-11084936D01*
X2486356Y-11084936D01*
X2486356Y-11176861D01*
X2578281Y-11176861D01*
D11*
X2962857Y-11222382D02*
X2848571Y-11222382D01*
X2905714Y-11222382D02*
X2905714Y-11022382D01*
X2905714Y-11022382D02*
X2886666Y-11050954D01*
X2886666Y-11050954D02*
X2867619Y-11070001D01*
X2867619Y-11070001D02*
X2848571Y-11079525D01*
X3048571Y-11203334D02*
X3058095Y-11212858D01*
X3058095Y-11212858D02*
X3048571Y-11222382D01*
X3048571Y-11222382D02*
X3039047Y-11212858D01*
X3039047Y-11212858D02*
X3048571Y-11203334D01*
X3048571Y-11203334D02*
X3048571Y-11222382D01*
X3124762Y-11022382D02*
X3248571Y-11022382D01*
X3248571Y-11022382D02*
X3181905Y-11098573D01*
X3181905Y-11098573D02*
X3210476Y-11098573D01*
X3210476Y-11098573D02*
X3229524Y-11108096D01*
X3229524Y-11108096D02*
X3239047Y-11117620D01*
X3239047Y-11117620D02*
X3248571Y-11136668D01*
X3248571Y-11136668D02*
X3248571Y-11184287D01*
X3248571Y-11184287D02*
X3239047Y-11203334D01*
X3239047Y-11203334D02*
X3229524Y-11212858D01*
X3229524Y-11212858D02*
X3210476Y-11222382D01*
X3210476Y-11222382D02*
X3153333Y-11222382D01*
X3153333Y-11222382D02*
X3134286Y-11212858D01*
X3134286Y-11212858D02*
X3124762Y-11203334D01*
X3372381Y-11022382D02*
X3391428Y-11022382D01*
X3391428Y-11022382D02*
X3410476Y-11031906D01*
X3410476Y-11031906D02*
X3420000Y-11041430D01*
X3420000Y-11041430D02*
X3429524Y-11060477D01*
X3429524Y-11060477D02*
X3439047Y-11098573D01*
X3439047Y-11098573D02*
X3439047Y-11146192D01*
X3439047Y-11146192D02*
X3429524Y-11184287D01*
X3429524Y-11184287D02*
X3420000Y-11203334D01*
X3420000Y-11203334D02*
X3410476Y-11212858D01*
X3410476Y-11212858D02*
X3391428Y-11222382D01*
X3391428Y-11222382D02*
X3372381Y-11222382D01*
X3372381Y-11222382D02*
X3353333Y-11212858D01*
X3353333Y-11212858D02*
X3343809Y-11203334D01*
X3343809Y-11203334D02*
X3334286Y-11184287D01*
X3334286Y-11184287D02*
X3324762Y-11146192D01*
X3324762Y-11146192D02*
X3324762Y-11098573D01*
X3324762Y-11098573D02*
X3334286Y-11060477D01*
X3334286Y-11060477D02*
X3343809Y-11041430D01*
X3343809Y-11041430D02*
X3353333Y-11031906D01*
X3353333Y-11031906D02*
X3372381Y-11022382D01*
X3562857Y-11022382D02*
X3581905Y-11022382D01*
X3581905Y-11022382D02*
X3600952Y-11031906D01*
X3600952Y-11031906D02*
X3610476Y-11041430D01*
X3610476Y-11041430D02*
X3620000Y-11060477D01*
X3620000Y-11060477D02*
X3629524Y-11098573D01*
X3629524Y-11098573D02*
X3629524Y-11146192D01*
X3629524Y-11146192D02*
X3620000Y-11184287D01*
X3620000Y-11184287D02*
X3610476Y-11203334D01*
X3610476Y-11203334D02*
X3600952Y-11212858D01*
X3600952Y-11212858D02*
X3581905Y-11222382D01*
X3581905Y-11222382D02*
X3562857Y-11222382D01*
X3562857Y-11222382D02*
X3543809Y-11212858D01*
X3543809Y-11212858D02*
X3534286Y-11203334D01*
X3534286Y-11203334D02*
X3524762Y-11184287D01*
X3524762Y-11184287D02*
X3515238Y-11146192D01*
X3515238Y-11146192D02*
X3515238Y-11098573D01*
X3515238Y-11098573D02*
X3524762Y-11060477D01*
X3524762Y-11060477D02*
X3534286Y-11041430D01*
X3534286Y-11041430D02*
X3543809Y-11031906D01*
X3543809Y-11031906D02*
X3562857Y-11022382D01*
X3715238Y-11222382D02*
X3715238Y-11089049D01*
X3715238Y-11108096D02*
X3724762Y-11098573D01*
X3724762Y-11098573D02*
X3743809Y-11089049D01*
X3743809Y-11089049D02*
X3772381Y-11089049D01*
X3772381Y-11089049D02*
X3791428Y-11098573D01*
X3791428Y-11098573D02*
X3800952Y-11117620D01*
X3800952Y-11117620D02*
X3800952Y-11222382D01*
X3800952Y-11117620D02*
X3810476Y-11098573D01*
X3810476Y-11098573D02*
X3829524Y-11089049D01*
X3829524Y-11089049D02*
X3858095Y-11089049D01*
X3858095Y-11089049D02*
X3877143Y-11098573D01*
X3877143Y-11098573D02*
X3886667Y-11117620D01*
X3886667Y-11117620D02*
X3886667Y-11222382D01*
X3981905Y-11222382D02*
X3981905Y-11089049D01*
X3981905Y-11108096D02*
X3991428Y-11098573D01*
X3991428Y-11098573D02*
X4010476Y-11089049D01*
X4010476Y-11089049D02*
X4039048Y-11089049D01*
X4039048Y-11089049D02*
X4058095Y-11098573D01*
X4058095Y-11098573D02*
X4067619Y-11117620D01*
X4067619Y-11117620D02*
X4067619Y-11222382D01*
X4067619Y-11117620D02*
X4077143Y-11098573D01*
X4077143Y-11098573D02*
X4096190Y-11089049D01*
X4096190Y-11089049D02*
X4124762Y-11089049D01*
X4124762Y-11089049D02*
X4143809Y-11098573D01*
X4143809Y-11098573D02*
X4153333Y-11117620D01*
X4153333Y-11117620D02*
X4153333Y-11222382D01*
X4543810Y-11012858D02*
X4372381Y-11270001D01*
X4800952Y-11022382D02*
X4820000Y-11022382D01*
X4820000Y-11022382D02*
X4839048Y-11031906D01*
X4839048Y-11031906D02*
X4848572Y-11041430D01*
X4848572Y-11041430D02*
X4858095Y-11060477D01*
X4858095Y-11060477D02*
X4867619Y-11098573D01*
X4867619Y-11098573D02*
X4867619Y-11146192D01*
X4867619Y-11146192D02*
X4858095Y-11184287D01*
X4858095Y-11184287D02*
X4848572Y-11203334D01*
X4848572Y-11203334D02*
X4839048Y-11212858D01*
X4839048Y-11212858D02*
X4820000Y-11222382D01*
X4820000Y-11222382D02*
X4800952Y-11222382D01*
X4800952Y-11222382D02*
X4781905Y-11212858D01*
X4781905Y-11212858D02*
X4772381Y-11203334D01*
X4772381Y-11203334D02*
X4762857Y-11184287D01*
X4762857Y-11184287D02*
X4753333Y-11146192D01*
X4753333Y-11146192D02*
X4753333Y-11098573D01*
X4753333Y-11098573D02*
X4762857Y-11060477D01*
X4762857Y-11060477D02*
X4772381Y-11041430D01*
X4772381Y-11041430D02*
X4781905Y-11031906D01*
X4781905Y-11031906D02*
X4800952Y-11022382D01*
X4953333Y-11203334D02*
X4962857Y-11212858D01*
X4962857Y-11212858D02*
X4953333Y-11222382D01*
X4953333Y-11222382D02*
X4943810Y-11212858D01*
X4943810Y-11212858D02*
X4953333Y-11203334D01*
X4953333Y-11203334D02*
X4953333Y-11222382D01*
X5086667Y-11022382D02*
X5105714Y-11022382D01*
X5105714Y-11022382D02*
X5124762Y-11031906D01*
X5124762Y-11031906D02*
X5134286Y-11041430D01*
X5134286Y-11041430D02*
X5143810Y-11060477D01*
X5143810Y-11060477D02*
X5153333Y-11098573D01*
X5153333Y-11098573D02*
X5153333Y-11146192D01*
X5153333Y-11146192D02*
X5143810Y-11184287D01*
X5143810Y-11184287D02*
X5134286Y-11203334D01*
X5134286Y-11203334D02*
X5124762Y-11212858D01*
X5124762Y-11212858D02*
X5105714Y-11222382D01*
X5105714Y-11222382D02*
X5086667Y-11222382D01*
X5086667Y-11222382D02*
X5067619Y-11212858D01*
X5067619Y-11212858D02*
X5058095Y-11203334D01*
X5058095Y-11203334D02*
X5048572Y-11184287D01*
X5048572Y-11184287D02*
X5039048Y-11146192D01*
X5039048Y-11146192D02*
X5039048Y-11098573D01*
X5039048Y-11098573D02*
X5048572Y-11060477D01*
X5048572Y-11060477D02*
X5058095Y-11041430D01*
X5058095Y-11041430D02*
X5067619Y-11031906D01*
X5067619Y-11031906D02*
X5086667Y-11022382D01*
X5334286Y-11022382D02*
X5239048Y-11022382D01*
X5239048Y-11022382D02*
X5229524Y-11117620D01*
X5229524Y-11117620D02*
X5239048Y-11108096D01*
X5239048Y-11108096D02*
X5258095Y-11098573D01*
X5258095Y-11098573D02*
X5305714Y-11098573D01*
X5305714Y-11098573D02*
X5324762Y-11108096D01*
X5324762Y-11108096D02*
X5334286Y-11117620D01*
X5334286Y-11117620D02*
X5343810Y-11136668D01*
X5343810Y-11136668D02*
X5343810Y-11184287D01*
X5343810Y-11184287D02*
X5334286Y-11203334D01*
X5334286Y-11203334D02*
X5324762Y-11212858D01*
X5324762Y-11212858D02*
X5305714Y-11222382D01*
X5305714Y-11222382D02*
X5258095Y-11222382D01*
X5258095Y-11222382D02*
X5239048Y-11212858D01*
X5239048Y-11212858D02*
X5229524Y-11203334D01*
X5534286Y-11222382D02*
X5420000Y-11222382D01*
X5477143Y-11222382D02*
X5477143Y-11022382D01*
X5477143Y-11022382D02*
X5458095Y-11050954D01*
X5458095Y-11050954D02*
X5439048Y-11070001D01*
X5439048Y-11070001D02*
X5420000Y-11079525D01*
X5610476Y-11041430D02*
X5620000Y-11031906D01*
X5620000Y-11031906D02*
X5639048Y-11022382D01*
X5639048Y-11022382D02*
X5686667Y-11022382D01*
X5686667Y-11022382D02*
X5705714Y-11031906D01*
X5705714Y-11031906D02*
X5715238Y-11041430D01*
X5715238Y-11041430D02*
X5724762Y-11060477D01*
X5724762Y-11060477D02*
X5724762Y-11079525D01*
X5724762Y-11079525D02*
X5715238Y-11108096D01*
X5715238Y-11108096D02*
X5600952Y-11222382D01*
X5600952Y-11222382D02*
X5724762Y-11222382D01*
X5800952Y-11022382D02*
X5800952Y-11060477D01*
X5877143Y-11022382D02*
X5877143Y-11060477D01*
X6172381Y-11298573D02*
X6162857Y-11289049D01*
X6162857Y-11289049D02*
X6143810Y-11260477D01*
X6143810Y-11260477D02*
X6134286Y-11241430D01*
X6134286Y-11241430D02*
X6124762Y-11212858D01*
X6124762Y-11212858D02*
X6115238Y-11165239D01*
X6115238Y-11165239D02*
X6115238Y-11127144D01*
X6115238Y-11127144D02*
X6124762Y-11079525D01*
X6124762Y-11079525D02*
X6134286Y-11050954D01*
X6134286Y-11050954D02*
X6143810Y-11031906D01*
X6143810Y-11031906D02*
X6162857Y-11003335D01*
X6162857Y-11003335D02*
X6172381Y-10993811D01*
X6239048Y-11041430D02*
X6248572Y-11031906D01*
X6248572Y-11031906D02*
X6267619Y-11022382D01*
X6267619Y-11022382D02*
X6315238Y-11022382D01*
X6315238Y-11022382D02*
X6334286Y-11031906D01*
X6334286Y-11031906D02*
X6343810Y-11041430D01*
X6343810Y-11041430D02*
X6353333Y-11060477D01*
X6353333Y-11060477D02*
X6353333Y-11079525D01*
X6353333Y-11079525D02*
X6343810Y-11108096D01*
X6343810Y-11108096D02*
X6229524Y-11222382D01*
X6229524Y-11222382D02*
X6353333Y-11222382D01*
X6591429Y-11222382D02*
X6591429Y-11022382D01*
X6677143Y-11222382D02*
X6677143Y-11117620D01*
X6677143Y-11117620D02*
X6667619Y-11098573D01*
X6667619Y-11098573D02*
X6648572Y-11089049D01*
X6648572Y-11089049D02*
X6620000Y-11089049D01*
X6620000Y-11089049D02*
X6600953Y-11098573D01*
X6600953Y-11098573D02*
X6591429Y-11108096D01*
X6800953Y-11222382D02*
X6781905Y-11212858D01*
X6781905Y-11212858D02*
X6772381Y-11203334D01*
X6772381Y-11203334D02*
X6762857Y-11184287D01*
X6762857Y-11184287D02*
X6762857Y-11127144D01*
X6762857Y-11127144D02*
X6772381Y-11108096D01*
X6772381Y-11108096D02*
X6781905Y-11098573D01*
X6781905Y-11098573D02*
X6800953Y-11089049D01*
X6800953Y-11089049D02*
X6829524Y-11089049D01*
X6829524Y-11089049D02*
X6848572Y-11098573D01*
X6848572Y-11098573D02*
X6858095Y-11108096D01*
X6858095Y-11108096D02*
X6867619Y-11127144D01*
X6867619Y-11127144D02*
X6867619Y-11184287D01*
X6867619Y-11184287D02*
X6858095Y-11203334D01*
X6858095Y-11203334D02*
X6848572Y-11212858D01*
X6848572Y-11212858D02*
X6829524Y-11222382D01*
X6829524Y-11222382D02*
X6800953Y-11222382D01*
X6981905Y-11222382D02*
X6962857Y-11212858D01*
X6962857Y-11212858D02*
X6953334Y-11193811D01*
X6953334Y-11193811D02*
X6953334Y-11022382D01*
X7134286Y-11212858D02*
X7115238Y-11222382D01*
X7115238Y-11222382D02*
X7077143Y-11222382D01*
X7077143Y-11222382D02*
X7058095Y-11212858D01*
X7058095Y-11212858D02*
X7048572Y-11193811D01*
X7048572Y-11193811D02*
X7048572Y-11117620D01*
X7048572Y-11117620D02*
X7058095Y-11098573D01*
X7058095Y-11098573D02*
X7077143Y-11089049D01*
X7077143Y-11089049D02*
X7115238Y-11089049D01*
X7115238Y-11089049D02*
X7134286Y-11098573D01*
X7134286Y-11098573D02*
X7143810Y-11117620D01*
X7143810Y-11117620D02*
X7143810Y-11136668D01*
X7143810Y-11136668D02*
X7048572Y-11155716D01*
X7220000Y-11212858D02*
X7239048Y-11222382D01*
X7239048Y-11222382D02*
X7277143Y-11222382D01*
X7277143Y-11222382D02*
X7296191Y-11212858D01*
X7296191Y-11212858D02*
X7305715Y-11193811D01*
X7305715Y-11193811D02*
X7305715Y-11184287D01*
X7305715Y-11184287D02*
X7296191Y-11165239D01*
X7296191Y-11165239D02*
X7277143Y-11155716D01*
X7277143Y-11155716D02*
X7248572Y-11155716D01*
X7248572Y-11155716D02*
X7229524Y-11146192D01*
X7229524Y-11146192D02*
X7220000Y-11127144D01*
X7220000Y-11127144D02*
X7220000Y-11117620D01*
X7220000Y-11117620D02*
X7229524Y-11098573D01*
X7229524Y-11098573D02*
X7248572Y-11089049D01*
X7248572Y-11089049D02*
X7277143Y-11089049D01*
X7277143Y-11089049D02*
X7296191Y-11098573D01*
X7372381Y-11298573D02*
X7381905Y-11289049D01*
X7381905Y-11289049D02*
X7400953Y-11260477D01*
X7400953Y-11260477D02*
X7410476Y-11241430D01*
X7410476Y-11241430D02*
X7420000Y-11212858D01*
X7420000Y-11212858D02*
X7429524Y-11165239D01*
X7429524Y-11165239D02*
X7429524Y-11127144D01*
X7429524Y-11127144D02*
X7420000Y-11079525D01*
X7420000Y-11079525D02*
X7410476Y-11050954D01*
X7410476Y-11050954D02*
X7400953Y-11031906D01*
X7400953Y-11031906D02*
X7381905Y-11003335D01*
X7381905Y-11003335D02*
X7372381Y-10993811D01*
D14*
X2419318Y-11305898D02*
X2597318Y-11483898D01*
X2597318Y-11305898D02*
X2419318Y-11483898D01*
X2508318Y-11483898D02*
X2597318Y-11394898D01*
X2508318Y-11305898D01*
X2419318Y-11394898D01*
X2508318Y-11483898D01*
D11*
X2962857Y-11486382D02*
X2848571Y-11486382D01*
X2905714Y-11486382D02*
X2905714Y-11286382D01*
X2905714Y-11286382D02*
X2886666Y-11314954D01*
X2886666Y-11314954D02*
X2867619Y-11334001D01*
X2867619Y-11334001D02*
X2848571Y-11343525D01*
X3048571Y-11467334D02*
X3058095Y-11476858D01*
X3058095Y-11476858D02*
X3048571Y-11486382D01*
X3048571Y-11486382D02*
X3039047Y-11476858D01*
X3039047Y-11476858D02*
X3048571Y-11467334D01*
X3048571Y-11467334D02*
X3048571Y-11486382D01*
X3124762Y-11286382D02*
X3258095Y-11286382D01*
X3258095Y-11286382D02*
X3172381Y-11486382D01*
X3362857Y-11372096D02*
X3343809Y-11362573D01*
X3343809Y-11362573D02*
X3334286Y-11353049D01*
X3334286Y-11353049D02*
X3324762Y-11334001D01*
X3324762Y-11334001D02*
X3324762Y-11324477D01*
X3324762Y-11324477D02*
X3334286Y-11305430D01*
X3334286Y-11305430D02*
X3343809Y-11295906D01*
X3343809Y-11295906D02*
X3362857Y-11286382D01*
X3362857Y-11286382D02*
X3400952Y-11286382D01*
X3400952Y-11286382D02*
X3420000Y-11295906D01*
X3420000Y-11295906D02*
X3429524Y-11305430D01*
X3429524Y-11305430D02*
X3439047Y-11324477D01*
X3439047Y-11324477D02*
X3439047Y-11334001D01*
X3439047Y-11334001D02*
X3429524Y-11353049D01*
X3429524Y-11353049D02*
X3420000Y-11362573D01*
X3420000Y-11362573D02*
X3400952Y-11372096D01*
X3400952Y-11372096D02*
X3362857Y-11372096D01*
X3362857Y-11372096D02*
X3343809Y-11381620D01*
X3343809Y-11381620D02*
X3334286Y-11391144D01*
X3334286Y-11391144D02*
X3324762Y-11410192D01*
X3324762Y-11410192D02*
X3324762Y-11448287D01*
X3324762Y-11448287D02*
X3334286Y-11467334D01*
X3334286Y-11467334D02*
X3343809Y-11476858D01*
X3343809Y-11476858D02*
X3362857Y-11486382D01*
X3362857Y-11486382D02*
X3400952Y-11486382D01*
X3400952Y-11486382D02*
X3420000Y-11476858D01*
X3420000Y-11476858D02*
X3429524Y-11467334D01*
X3429524Y-11467334D02*
X3439047Y-11448287D01*
X3439047Y-11448287D02*
X3439047Y-11410192D01*
X3439047Y-11410192D02*
X3429524Y-11391144D01*
X3429524Y-11391144D02*
X3420000Y-11381620D01*
X3420000Y-11381620D02*
X3400952Y-11372096D01*
X3562857Y-11286382D02*
X3581905Y-11286382D01*
X3581905Y-11286382D02*
X3600952Y-11295906D01*
X3600952Y-11295906D02*
X3610476Y-11305430D01*
X3610476Y-11305430D02*
X3620000Y-11324477D01*
X3620000Y-11324477D02*
X3629524Y-11362573D01*
X3629524Y-11362573D02*
X3629524Y-11410192D01*
X3629524Y-11410192D02*
X3620000Y-11448287D01*
X3620000Y-11448287D02*
X3610476Y-11467334D01*
X3610476Y-11467334D02*
X3600952Y-11476858D01*
X3600952Y-11476858D02*
X3581905Y-11486382D01*
X3581905Y-11486382D02*
X3562857Y-11486382D01*
X3562857Y-11486382D02*
X3543809Y-11476858D01*
X3543809Y-11476858D02*
X3534286Y-11467334D01*
X3534286Y-11467334D02*
X3524762Y-11448287D01*
X3524762Y-11448287D02*
X3515238Y-11410192D01*
X3515238Y-11410192D02*
X3515238Y-11362573D01*
X3515238Y-11362573D02*
X3524762Y-11324477D01*
X3524762Y-11324477D02*
X3534286Y-11305430D01*
X3534286Y-11305430D02*
X3543809Y-11295906D01*
X3543809Y-11295906D02*
X3562857Y-11286382D01*
X3715238Y-11486382D02*
X3715238Y-11353049D01*
X3715238Y-11372096D02*
X3724762Y-11362573D01*
X3724762Y-11362573D02*
X3743809Y-11353049D01*
X3743809Y-11353049D02*
X3772381Y-11353049D01*
X3772381Y-11353049D02*
X3791428Y-11362573D01*
X3791428Y-11362573D02*
X3800952Y-11381620D01*
X3800952Y-11381620D02*
X3800952Y-11486382D01*
X3800952Y-11381620D02*
X3810476Y-11362573D01*
X3810476Y-11362573D02*
X3829524Y-11353049D01*
X3829524Y-11353049D02*
X3858095Y-11353049D01*
X3858095Y-11353049D02*
X3877143Y-11362573D01*
X3877143Y-11362573D02*
X3886667Y-11381620D01*
X3886667Y-11381620D02*
X3886667Y-11486382D01*
X3981905Y-11486382D02*
X3981905Y-11353049D01*
X3981905Y-11372096D02*
X3991428Y-11362573D01*
X3991428Y-11362573D02*
X4010476Y-11353049D01*
X4010476Y-11353049D02*
X4039048Y-11353049D01*
X4039048Y-11353049D02*
X4058095Y-11362573D01*
X4058095Y-11362573D02*
X4067619Y-11381620D01*
X4067619Y-11381620D02*
X4067619Y-11486382D01*
X4067619Y-11381620D02*
X4077143Y-11362573D01*
X4077143Y-11362573D02*
X4096190Y-11353049D01*
X4096190Y-11353049D02*
X4124762Y-11353049D01*
X4124762Y-11353049D02*
X4143809Y-11362573D01*
X4143809Y-11362573D02*
X4153333Y-11381620D01*
X4153333Y-11381620D02*
X4153333Y-11486382D01*
X4543810Y-11276858D02*
X4372381Y-11534001D01*
X4800952Y-11286382D02*
X4820000Y-11286382D01*
X4820000Y-11286382D02*
X4839048Y-11295906D01*
X4839048Y-11295906D02*
X4848572Y-11305430D01*
X4848572Y-11305430D02*
X4858095Y-11324477D01*
X4858095Y-11324477D02*
X4867619Y-11362573D01*
X4867619Y-11362573D02*
X4867619Y-11410192D01*
X4867619Y-11410192D02*
X4858095Y-11448287D01*
X4858095Y-11448287D02*
X4848572Y-11467334D01*
X4848572Y-11467334D02*
X4839048Y-11476858D01*
X4839048Y-11476858D02*
X4820000Y-11486382D01*
X4820000Y-11486382D02*
X4800952Y-11486382D01*
X4800952Y-11486382D02*
X4781905Y-11476858D01*
X4781905Y-11476858D02*
X4772381Y-11467334D01*
X4772381Y-11467334D02*
X4762857Y-11448287D01*
X4762857Y-11448287D02*
X4753333Y-11410192D01*
X4753333Y-11410192D02*
X4753333Y-11362573D01*
X4753333Y-11362573D02*
X4762857Y-11324477D01*
X4762857Y-11324477D02*
X4772381Y-11305430D01*
X4772381Y-11305430D02*
X4781905Y-11295906D01*
X4781905Y-11295906D02*
X4800952Y-11286382D01*
X4953333Y-11467334D02*
X4962857Y-11476858D01*
X4962857Y-11476858D02*
X4953333Y-11486382D01*
X4953333Y-11486382D02*
X4943810Y-11476858D01*
X4943810Y-11476858D02*
X4953333Y-11467334D01*
X4953333Y-11467334D02*
X4953333Y-11486382D01*
X5086667Y-11286382D02*
X5105714Y-11286382D01*
X5105714Y-11286382D02*
X5124762Y-11295906D01*
X5124762Y-11295906D02*
X5134286Y-11305430D01*
X5134286Y-11305430D02*
X5143810Y-11324477D01*
X5143810Y-11324477D02*
X5153333Y-11362573D01*
X5153333Y-11362573D02*
X5153333Y-11410192D01*
X5153333Y-11410192D02*
X5143810Y-11448287D01*
X5143810Y-11448287D02*
X5134286Y-11467334D01*
X5134286Y-11467334D02*
X5124762Y-11476858D01*
X5124762Y-11476858D02*
X5105714Y-11486382D01*
X5105714Y-11486382D02*
X5086667Y-11486382D01*
X5086667Y-11486382D02*
X5067619Y-11476858D01*
X5067619Y-11476858D02*
X5058095Y-11467334D01*
X5058095Y-11467334D02*
X5048572Y-11448287D01*
X5048572Y-11448287D02*
X5039048Y-11410192D01*
X5039048Y-11410192D02*
X5039048Y-11362573D01*
X5039048Y-11362573D02*
X5048572Y-11324477D01*
X5048572Y-11324477D02*
X5058095Y-11305430D01*
X5058095Y-11305430D02*
X5067619Y-11295906D01*
X5067619Y-11295906D02*
X5086667Y-11286382D01*
X5220000Y-11286382D02*
X5353333Y-11286382D01*
X5353333Y-11286382D02*
X5267619Y-11486382D01*
X5467619Y-11286382D02*
X5486667Y-11286382D01*
X5486667Y-11286382D02*
X5505714Y-11295906D01*
X5505714Y-11295906D02*
X5515238Y-11305430D01*
X5515238Y-11305430D02*
X5524762Y-11324477D01*
X5524762Y-11324477D02*
X5534286Y-11362573D01*
X5534286Y-11362573D02*
X5534286Y-11410192D01*
X5534286Y-11410192D02*
X5524762Y-11448287D01*
X5524762Y-11448287D02*
X5515238Y-11467334D01*
X5515238Y-11467334D02*
X5505714Y-11476858D01*
X5505714Y-11476858D02*
X5486667Y-11486382D01*
X5486667Y-11486382D02*
X5467619Y-11486382D01*
X5467619Y-11486382D02*
X5448572Y-11476858D01*
X5448572Y-11476858D02*
X5439048Y-11467334D01*
X5439048Y-11467334D02*
X5429524Y-11448287D01*
X5429524Y-11448287D02*
X5420000Y-11410192D01*
X5420000Y-11410192D02*
X5420000Y-11362573D01*
X5420000Y-11362573D02*
X5429524Y-11324477D01*
X5429524Y-11324477D02*
X5439048Y-11305430D01*
X5439048Y-11305430D02*
X5448572Y-11295906D01*
X5448572Y-11295906D02*
X5467619Y-11286382D01*
X5724762Y-11486382D02*
X5610476Y-11486382D01*
X5667619Y-11486382D02*
X5667619Y-11286382D01*
X5667619Y-11286382D02*
X5648571Y-11314954D01*
X5648571Y-11314954D02*
X5629524Y-11334001D01*
X5629524Y-11334001D02*
X5610476Y-11343525D01*
X5800952Y-11286382D02*
X5800952Y-11324477D01*
X5877143Y-11286382D02*
X5877143Y-11324477D01*
X6172381Y-11562573D02*
X6162857Y-11553049D01*
X6162857Y-11553049D02*
X6143810Y-11524477D01*
X6143810Y-11524477D02*
X6134286Y-11505430D01*
X6134286Y-11505430D02*
X6124762Y-11476858D01*
X6124762Y-11476858D02*
X6115238Y-11429239D01*
X6115238Y-11429239D02*
X6115238Y-11391144D01*
X6115238Y-11391144D02*
X6124762Y-11343525D01*
X6124762Y-11343525D02*
X6134286Y-11314954D01*
X6134286Y-11314954D02*
X6143810Y-11295906D01*
X6143810Y-11295906D02*
X6162857Y-11267334D01*
X6162857Y-11267334D02*
X6172381Y-11257811D01*
X6334286Y-11286382D02*
X6296191Y-11286382D01*
X6296191Y-11286382D02*
X6277143Y-11295906D01*
X6277143Y-11295906D02*
X6267619Y-11305430D01*
X6267619Y-11305430D02*
X6248572Y-11334001D01*
X6248572Y-11334001D02*
X6239048Y-11372096D01*
X6239048Y-11372096D02*
X6239048Y-11448287D01*
X6239048Y-11448287D02*
X6248572Y-11467334D01*
X6248572Y-11467334D02*
X6258095Y-11476858D01*
X6258095Y-11476858D02*
X6277143Y-11486382D01*
X6277143Y-11486382D02*
X6315238Y-11486382D01*
X6315238Y-11486382D02*
X6334286Y-11476858D01*
X6334286Y-11476858D02*
X6343810Y-11467334D01*
X6343810Y-11467334D02*
X6353333Y-11448287D01*
X6353333Y-11448287D02*
X6353333Y-11400668D01*
X6353333Y-11400668D02*
X6343810Y-11381620D01*
X6343810Y-11381620D02*
X6334286Y-11372096D01*
X6334286Y-11372096D02*
X6315238Y-11362573D01*
X6315238Y-11362573D02*
X6277143Y-11362573D01*
X6277143Y-11362573D02*
X6258095Y-11372096D01*
X6258095Y-11372096D02*
X6248572Y-11381620D01*
X6248572Y-11381620D02*
X6239048Y-11400668D01*
X6591429Y-11486382D02*
X6591429Y-11286382D01*
X6677143Y-11486382D02*
X6677143Y-11381620D01*
X6677143Y-11381620D02*
X6667619Y-11362573D01*
X6667619Y-11362573D02*
X6648572Y-11353049D01*
X6648572Y-11353049D02*
X6620000Y-11353049D01*
X6620000Y-11353049D02*
X6600953Y-11362573D01*
X6600953Y-11362573D02*
X6591429Y-11372096D01*
X6800953Y-11486382D02*
X6781905Y-11476858D01*
X6781905Y-11476858D02*
X6772381Y-11467334D01*
X6772381Y-11467334D02*
X6762857Y-11448287D01*
X6762857Y-11448287D02*
X6762857Y-11391144D01*
X6762857Y-11391144D02*
X6772381Y-11372096D01*
X6772381Y-11372096D02*
X6781905Y-11362573D01*
X6781905Y-11362573D02*
X6800953Y-11353049D01*
X6800953Y-11353049D02*
X6829524Y-11353049D01*
X6829524Y-11353049D02*
X6848572Y-11362573D01*
X6848572Y-11362573D02*
X6858095Y-11372096D01*
X6858095Y-11372096D02*
X6867619Y-11391144D01*
X6867619Y-11391144D02*
X6867619Y-11448287D01*
X6867619Y-11448287D02*
X6858095Y-11467334D01*
X6858095Y-11467334D02*
X6848572Y-11476858D01*
X6848572Y-11476858D02*
X6829524Y-11486382D01*
X6829524Y-11486382D02*
X6800953Y-11486382D01*
X6981905Y-11486382D02*
X6962857Y-11476858D01*
X6962857Y-11476858D02*
X6953334Y-11457811D01*
X6953334Y-11457811D02*
X6953334Y-11286382D01*
X7134286Y-11476858D02*
X7115238Y-11486382D01*
X7115238Y-11486382D02*
X7077143Y-11486382D01*
X7077143Y-11486382D02*
X7058095Y-11476858D01*
X7058095Y-11476858D02*
X7048572Y-11457811D01*
X7048572Y-11457811D02*
X7048572Y-11381620D01*
X7048572Y-11381620D02*
X7058095Y-11362573D01*
X7058095Y-11362573D02*
X7077143Y-11353049D01*
X7077143Y-11353049D02*
X7115238Y-11353049D01*
X7115238Y-11353049D02*
X7134286Y-11362573D01*
X7134286Y-11362573D02*
X7143810Y-11381620D01*
X7143810Y-11381620D02*
X7143810Y-11400668D01*
X7143810Y-11400668D02*
X7048572Y-11419715D01*
X7220000Y-11476858D02*
X7239048Y-11486382D01*
X7239048Y-11486382D02*
X7277143Y-11486382D01*
X7277143Y-11486382D02*
X7296191Y-11476858D01*
X7296191Y-11476858D02*
X7305715Y-11457811D01*
X7305715Y-11457811D02*
X7305715Y-11448287D01*
X7305715Y-11448287D02*
X7296191Y-11429239D01*
X7296191Y-11429239D02*
X7277143Y-11419715D01*
X7277143Y-11419715D02*
X7248572Y-11419715D01*
X7248572Y-11419715D02*
X7229524Y-11410192D01*
X7229524Y-11410192D02*
X7220000Y-11391144D01*
X7220000Y-11391144D02*
X7220000Y-11381620D01*
X7220000Y-11381620D02*
X7229524Y-11362573D01*
X7229524Y-11362573D02*
X7248572Y-11353049D01*
X7248572Y-11353049D02*
X7277143Y-11353049D01*
X7277143Y-11353049D02*
X7296191Y-11362573D01*
X7372381Y-11562573D02*
X7381905Y-11553049D01*
X7381905Y-11553049D02*
X7400953Y-11524477D01*
X7400953Y-11524477D02*
X7410476Y-11505430D01*
X7410476Y-11505430D02*
X7420000Y-11476858D01*
X7420000Y-11476858D02*
X7429524Y-11429239D01*
X7429524Y-11429239D02*
X7429524Y-11391144D01*
X7429524Y-11391144D02*
X7420000Y-11343525D01*
X7420000Y-11343525D02*
X7410476Y-11314954D01*
X7410476Y-11314954D02*
X7400953Y-11295906D01*
X7400953Y-11295906D02*
X7381905Y-11267334D01*
X7381905Y-11267334D02*
X7372381Y-11257811D01*
X2497318Y-11592898D02*
X2497318Y-11792898D01*
X2397318Y-11692898D02*
X2597318Y-11692898D01*
X2597318Y-11692898D02*
G75*
G02*
X2397318Y-11692898I-100000J0D01*
G01*
X2397318Y-11692898D02*
G75*
G02*
X2597318Y-11692898I100000J0D01*
G01*
X2848571Y-11603430D02*
X2858095Y-11593906D01*
X2858095Y-11593906D02*
X2877143Y-11584382D01*
X2877143Y-11584382D02*
X2924762Y-11584382D01*
X2924762Y-11584382D02*
X2943809Y-11593906D01*
X2943809Y-11593906D02*
X2953333Y-11603430D01*
X2953333Y-11603430D02*
X2962857Y-11622477D01*
X2962857Y-11622477D02*
X2962857Y-11641525D01*
X2962857Y-11641525D02*
X2953333Y-11670096D01*
X2953333Y-11670096D02*
X2839047Y-11784382D01*
X2839047Y-11784382D02*
X2962857Y-11784382D01*
X3048571Y-11765334D02*
X3058095Y-11774858D01*
X3058095Y-11774858D02*
X3048571Y-11784382D01*
X3048571Y-11784382D02*
X3039047Y-11774858D01*
X3039047Y-11774858D02*
X3048571Y-11765334D01*
X3048571Y-11765334D02*
X3048571Y-11784382D01*
X3134286Y-11603430D02*
X3143809Y-11593906D01*
X3143809Y-11593906D02*
X3162857Y-11584382D01*
X3162857Y-11584382D02*
X3210476Y-11584382D01*
X3210476Y-11584382D02*
X3229524Y-11593906D01*
X3229524Y-11593906D02*
X3239047Y-11603430D01*
X3239047Y-11603430D02*
X3248571Y-11622477D01*
X3248571Y-11622477D02*
X3248571Y-11641525D01*
X3248571Y-11641525D02*
X3239047Y-11670096D01*
X3239047Y-11670096D02*
X3124762Y-11784382D01*
X3124762Y-11784382D02*
X3248571Y-11784382D01*
X3372381Y-11584382D02*
X3391428Y-11584382D01*
X3391428Y-11584382D02*
X3410476Y-11593906D01*
X3410476Y-11593906D02*
X3420000Y-11603430D01*
X3420000Y-11603430D02*
X3429524Y-11622477D01*
X3429524Y-11622477D02*
X3439047Y-11660573D01*
X3439047Y-11660573D02*
X3439047Y-11708192D01*
X3439047Y-11708192D02*
X3429524Y-11746287D01*
X3429524Y-11746287D02*
X3420000Y-11765334D01*
X3420000Y-11765334D02*
X3410476Y-11774858D01*
X3410476Y-11774858D02*
X3391428Y-11784382D01*
X3391428Y-11784382D02*
X3372381Y-11784382D01*
X3372381Y-11784382D02*
X3353333Y-11774858D01*
X3353333Y-11774858D02*
X3343809Y-11765334D01*
X3343809Y-11765334D02*
X3334286Y-11746287D01*
X3334286Y-11746287D02*
X3324762Y-11708192D01*
X3324762Y-11708192D02*
X3324762Y-11660573D01*
X3324762Y-11660573D02*
X3334286Y-11622477D01*
X3334286Y-11622477D02*
X3343809Y-11603430D01*
X3343809Y-11603430D02*
X3353333Y-11593906D01*
X3353333Y-11593906D02*
X3372381Y-11584382D01*
X3562857Y-11584382D02*
X3581905Y-11584382D01*
X3581905Y-11584382D02*
X3600952Y-11593906D01*
X3600952Y-11593906D02*
X3610476Y-11603430D01*
X3610476Y-11603430D02*
X3620000Y-11622477D01*
X3620000Y-11622477D02*
X3629524Y-11660573D01*
X3629524Y-11660573D02*
X3629524Y-11708192D01*
X3629524Y-11708192D02*
X3620000Y-11746287D01*
X3620000Y-11746287D02*
X3610476Y-11765334D01*
X3610476Y-11765334D02*
X3600952Y-11774858D01*
X3600952Y-11774858D02*
X3581905Y-11784382D01*
X3581905Y-11784382D02*
X3562857Y-11784382D01*
X3562857Y-11784382D02*
X3543809Y-11774858D01*
X3543809Y-11774858D02*
X3534286Y-11765334D01*
X3534286Y-11765334D02*
X3524762Y-11746287D01*
X3524762Y-11746287D02*
X3515238Y-11708192D01*
X3515238Y-11708192D02*
X3515238Y-11660573D01*
X3515238Y-11660573D02*
X3524762Y-11622477D01*
X3524762Y-11622477D02*
X3534286Y-11603430D01*
X3534286Y-11603430D02*
X3543809Y-11593906D01*
X3543809Y-11593906D02*
X3562857Y-11584382D01*
X3715238Y-11784382D02*
X3715238Y-11651049D01*
X3715238Y-11670096D02*
X3724762Y-11660573D01*
X3724762Y-11660573D02*
X3743809Y-11651049D01*
X3743809Y-11651049D02*
X3772381Y-11651049D01*
X3772381Y-11651049D02*
X3791428Y-11660573D01*
X3791428Y-11660573D02*
X3800952Y-11679620D01*
X3800952Y-11679620D02*
X3800952Y-11784382D01*
X3800952Y-11679620D02*
X3810476Y-11660573D01*
X3810476Y-11660573D02*
X3829524Y-11651049D01*
X3829524Y-11651049D02*
X3858095Y-11651049D01*
X3858095Y-11651049D02*
X3877143Y-11660573D01*
X3877143Y-11660573D02*
X3886667Y-11679620D01*
X3886667Y-11679620D02*
X3886667Y-11784382D01*
X3981905Y-11784382D02*
X3981905Y-11651049D01*
X3981905Y-11670096D02*
X3991428Y-11660573D01*
X3991428Y-11660573D02*
X4010476Y-11651049D01*
X4010476Y-11651049D02*
X4039048Y-11651049D01*
X4039048Y-11651049D02*
X4058095Y-11660573D01*
X4058095Y-11660573D02*
X4067619Y-11679620D01*
X4067619Y-11679620D02*
X4067619Y-11784382D01*
X4067619Y-11679620D02*
X4077143Y-11660573D01*
X4077143Y-11660573D02*
X4096190Y-11651049D01*
X4096190Y-11651049D02*
X4124762Y-11651049D01*
X4124762Y-11651049D02*
X4143809Y-11660573D01*
X4143809Y-11660573D02*
X4153333Y-11679620D01*
X4153333Y-11679620D02*
X4153333Y-11784382D01*
X4543810Y-11574858D02*
X4372381Y-11832001D01*
X4800952Y-11584382D02*
X4820000Y-11584382D01*
X4820000Y-11584382D02*
X4839048Y-11593906D01*
X4839048Y-11593906D02*
X4848572Y-11603430D01*
X4848572Y-11603430D02*
X4858095Y-11622477D01*
X4858095Y-11622477D02*
X4867619Y-11660573D01*
X4867619Y-11660573D02*
X4867619Y-11708192D01*
X4867619Y-11708192D02*
X4858095Y-11746287D01*
X4858095Y-11746287D02*
X4848572Y-11765334D01*
X4848572Y-11765334D02*
X4839048Y-11774858D01*
X4839048Y-11774858D02*
X4820000Y-11784382D01*
X4820000Y-11784382D02*
X4800952Y-11784382D01*
X4800952Y-11784382D02*
X4781905Y-11774858D01*
X4781905Y-11774858D02*
X4772381Y-11765334D01*
X4772381Y-11765334D02*
X4762857Y-11746287D01*
X4762857Y-11746287D02*
X4753333Y-11708192D01*
X4753333Y-11708192D02*
X4753333Y-11660573D01*
X4753333Y-11660573D02*
X4762857Y-11622477D01*
X4762857Y-11622477D02*
X4772381Y-11603430D01*
X4772381Y-11603430D02*
X4781905Y-11593906D01*
X4781905Y-11593906D02*
X4800952Y-11584382D01*
X4953333Y-11765334D02*
X4962857Y-11774858D01*
X4962857Y-11774858D02*
X4953333Y-11784382D01*
X4953333Y-11784382D02*
X4943810Y-11774858D01*
X4943810Y-11774858D02*
X4953333Y-11765334D01*
X4953333Y-11765334D02*
X4953333Y-11784382D01*
X5086667Y-11584382D02*
X5105714Y-11584382D01*
X5105714Y-11584382D02*
X5124762Y-11593906D01*
X5124762Y-11593906D02*
X5134286Y-11603430D01*
X5134286Y-11603430D02*
X5143810Y-11622477D01*
X5143810Y-11622477D02*
X5153333Y-11660573D01*
X5153333Y-11660573D02*
X5153333Y-11708192D01*
X5153333Y-11708192D02*
X5143810Y-11746287D01*
X5143810Y-11746287D02*
X5134286Y-11765334D01*
X5134286Y-11765334D02*
X5124762Y-11774858D01*
X5124762Y-11774858D02*
X5105714Y-11784382D01*
X5105714Y-11784382D02*
X5086667Y-11784382D01*
X5086667Y-11784382D02*
X5067619Y-11774858D01*
X5067619Y-11774858D02*
X5058095Y-11765334D01*
X5058095Y-11765334D02*
X5048572Y-11746287D01*
X5048572Y-11746287D02*
X5039048Y-11708192D01*
X5039048Y-11708192D02*
X5039048Y-11660573D01*
X5039048Y-11660573D02*
X5048572Y-11622477D01*
X5048572Y-11622477D02*
X5058095Y-11603430D01*
X5058095Y-11603430D02*
X5067619Y-11593906D01*
X5067619Y-11593906D02*
X5086667Y-11584382D01*
X5267619Y-11670096D02*
X5248572Y-11660573D01*
X5248572Y-11660573D02*
X5239048Y-11651049D01*
X5239048Y-11651049D02*
X5229524Y-11632001D01*
X5229524Y-11632001D02*
X5229524Y-11622477D01*
X5229524Y-11622477D02*
X5239048Y-11603430D01*
X5239048Y-11603430D02*
X5248572Y-11593906D01*
X5248572Y-11593906D02*
X5267619Y-11584382D01*
X5267619Y-11584382D02*
X5305714Y-11584382D01*
X5305714Y-11584382D02*
X5324762Y-11593906D01*
X5324762Y-11593906D02*
X5334286Y-11603430D01*
X5334286Y-11603430D02*
X5343810Y-11622477D01*
X5343810Y-11622477D02*
X5343810Y-11632001D01*
X5343810Y-11632001D02*
X5334286Y-11651049D01*
X5334286Y-11651049D02*
X5324762Y-11660573D01*
X5324762Y-11660573D02*
X5305714Y-11670096D01*
X5305714Y-11670096D02*
X5267619Y-11670096D01*
X5267619Y-11670096D02*
X5248572Y-11679620D01*
X5248572Y-11679620D02*
X5239048Y-11689144D01*
X5239048Y-11689144D02*
X5229524Y-11708192D01*
X5229524Y-11708192D02*
X5229524Y-11746287D01*
X5229524Y-11746287D02*
X5239048Y-11765334D01*
X5239048Y-11765334D02*
X5248572Y-11774858D01*
X5248572Y-11774858D02*
X5267619Y-11784382D01*
X5267619Y-11784382D02*
X5305714Y-11784382D01*
X5305714Y-11784382D02*
X5324762Y-11774858D01*
X5324762Y-11774858D02*
X5334286Y-11765334D01*
X5334286Y-11765334D02*
X5343810Y-11746287D01*
X5343810Y-11746287D02*
X5343810Y-11708192D01*
X5343810Y-11708192D02*
X5334286Y-11689144D01*
X5334286Y-11689144D02*
X5324762Y-11679620D01*
X5324762Y-11679620D02*
X5305714Y-11670096D01*
X5515238Y-11584382D02*
X5477143Y-11584382D01*
X5477143Y-11584382D02*
X5458095Y-11593906D01*
X5458095Y-11593906D02*
X5448572Y-11603430D01*
X5448572Y-11603430D02*
X5429524Y-11632001D01*
X5429524Y-11632001D02*
X5420000Y-11670096D01*
X5420000Y-11670096D02*
X5420000Y-11746287D01*
X5420000Y-11746287D02*
X5429524Y-11765334D01*
X5429524Y-11765334D02*
X5439048Y-11774858D01*
X5439048Y-11774858D02*
X5458095Y-11784382D01*
X5458095Y-11784382D02*
X5496191Y-11784382D01*
X5496191Y-11784382D02*
X5515238Y-11774858D01*
X5515238Y-11774858D02*
X5524762Y-11765334D01*
X5524762Y-11765334D02*
X5534286Y-11746287D01*
X5534286Y-11746287D02*
X5534286Y-11698668D01*
X5534286Y-11698668D02*
X5524762Y-11679620D01*
X5524762Y-11679620D02*
X5515238Y-11670096D01*
X5515238Y-11670096D02*
X5496191Y-11660573D01*
X5496191Y-11660573D02*
X5458095Y-11660573D01*
X5458095Y-11660573D02*
X5439048Y-11670096D01*
X5439048Y-11670096D02*
X5429524Y-11679620D01*
X5429524Y-11679620D02*
X5420000Y-11698668D01*
X5705714Y-11584382D02*
X5667619Y-11584382D01*
X5667619Y-11584382D02*
X5648571Y-11593906D01*
X5648571Y-11593906D02*
X5639048Y-11603430D01*
X5639048Y-11603430D02*
X5620000Y-11632001D01*
X5620000Y-11632001D02*
X5610476Y-11670096D01*
X5610476Y-11670096D02*
X5610476Y-11746287D01*
X5610476Y-11746287D02*
X5620000Y-11765334D01*
X5620000Y-11765334D02*
X5629524Y-11774858D01*
X5629524Y-11774858D02*
X5648571Y-11784382D01*
X5648571Y-11784382D02*
X5686667Y-11784382D01*
X5686667Y-11784382D02*
X5705714Y-11774858D01*
X5705714Y-11774858D02*
X5715238Y-11765334D01*
X5715238Y-11765334D02*
X5724762Y-11746287D01*
X5724762Y-11746287D02*
X5724762Y-11698668D01*
X5724762Y-11698668D02*
X5715238Y-11679620D01*
X5715238Y-11679620D02*
X5705714Y-11670096D01*
X5705714Y-11670096D02*
X5686667Y-11660573D01*
X5686667Y-11660573D02*
X5648571Y-11660573D01*
X5648571Y-11660573D02*
X5629524Y-11670096D01*
X5629524Y-11670096D02*
X5620000Y-11679620D01*
X5620000Y-11679620D02*
X5610476Y-11698668D01*
X5800952Y-11584382D02*
X5800952Y-11622477D01*
X5877143Y-11584382D02*
X5877143Y-11622477D01*
X6172381Y-11860573D02*
X6162857Y-11851049D01*
X6162857Y-11851049D02*
X6143810Y-11822477D01*
X6143810Y-11822477D02*
X6134286Y-11803430D01*
X6134286Y-11803430D02*
X6124762Y-11774858D01*
X6124762Y-11774858D02*
X6115238Y-11727239D01*
X6115238Y-11727239D02*
X6115238Y-11689144D01*
X6115238Y-11689144D02*
X6124762Y-11641525D01*
X6124762Y-11641525D02*
X6134286Y-11612954D01*
X6134286Y-11612954D02*
X6143810Y-11593906D01*
X6143810Y-11593906D02*
X6162857Y-11565334D01*
X6162857Y-11565334D02*
X6172381Y-11555811D01*
X6334286Y-11651049D02*
X6334286Y-11784382D01*
X6286667Y-11574858D02*
X6239048Y-11717715D01*
X6239048Y-11717715D02*
X6362857Y-11717715D01*
X6591429Y-11784382D02*
X6591429Y-11584382D01*
X6677143Y-11784382D02*
X6677143Y-11679620D01*
X6677143Y-11679620D02*
X6667619Y-11660573D01*
X6667619Y-11660573D02*
X6648572Y-11651049D01*
X6648572Y-11651049D02*
X6620000Y-11651049D01*
X6620000Y-11651049D02*
X6600953Y-11660573D01*
X6600953Y-11660573D02*
X6591429Y-11670096D01*
X6800953Y-11784382D02*
X6781905Y-11774858D01*
X6781905Y-11774858D02*
X6772381Y-11765334D01*
X6772381Y-11765334D02*
X6762857Y-11746287D01*
X6762857Y-11746287D02*
X6762857Y-11689144D01*
X6762857Y-11689144D02*
X6772381Y-11670096D01*
X6772381Y-11670096D02*
X6781905Y-11660573D01*
X6781905Y-11660573D02*
X6800953Y-11651049D01*
X6800953Y-11651049D02*
X6829524Y-11651049D01*
X6829524Y-11651049D02*
X6848572Y-11660573D01*
X6848572Y-11660573D02*
X6858095Y-11670096D01*
X6858095Y-11670096D02*
X6867619Y-11689144D01*
X6867619Y-11689144D02*
X6867619Y-11746287D01*
X6867619Y-11746287D02*
X6858095Y-11765334D01*
X6858095Y-11765334D02*
X6848572Y-11774858D01*
X6848572Y-11774858D02*
X6829524Y-11784382D01*
X6829524Y-11784382D02*
X6800953Y-11784382D01*
X6981905Y-11784382D02*
X6962857Y-11774858D01*
X6962857Y-11774858D02*
X6953334Y-11755811D01*
X6953334Y-11755811D02*
X6953334Y-11584382D01*
X7134286Y-11774858D02*
X7115238Y-11784382D01*
X7115238Y-11784382D02*
X7077143Y-11784382D01*
X7077143Y-11784382D02*
X7058095Y-11774858D01*
X7058095Y-11774858D02*
X7048572Y-11755811D01*
X7048572Y-11755811D02*
X7048572Y-11679620D01*
X7048572Y-11679620D02*
X7058095Y-11660573D01*
X7058095Y-11660573D02*
X7077143Y-11651049D01*
X7077143Y-11651049D02*
X7115238Y-11651049D01*
X7115238Y-11651049D02*
X7134286Y-11660573D01*
X7134286Y-11660573D02*
X7143810Y-11679620D01*
X7143810Y-11679620D02*
X7143810Y-11698668D01*
X7143810Y-11698668D02*
X7048572Y-11717715D01*
X7220000Y-11774858D02*
X7239048Y-11784382D01*
X7239048Y-11784382D02*
X7277143Y-11784382D01*
X7277143Y-11784382D02*
X7296191Y-11774858D01*
X7296191Y-11774858D02*
X7305715Y-11755811D01*
X7305715Y-11755811D02*
X7305715Y-11746287D01*
X7305715Y-11746287D02*
X7296191Y-11727239D01*
X7296191Y-11727239D02*
X7277143Y-11717715D01*
X7277143Y-11717715D02*
X7248572Y-11717715D01*
X7248572Y-11717715D02*
X7229524Y-11708192D01*
X7229524Y-11708192D02*
X7220000Y-11689144D01*
X7220000Y-11689144D02*
X7220000Y-11679620D01*
X7220000Y-11679620D02*
X7229524Y-11660573D01*
X7229524Y-11660573D02*
X7248572Y-11651049D01*
X7248572Y-11651049D02*
X7277143Y-11651049D01*
X7277143Y-11651049D02*
X7296191Y-11660573D01*
X7372381Y-11860573D02*
X7381905Y-11851049D01*
X7381905Y-11851049D02*
X7400953Y-11822477D01*
X7400953Y-11822477D02*
X7410476Y-11803430D01*
X7410476Y-11803430D02*
X7420000Y-11774858D01*
X7420000Y-11774858D02*
X7429524Y-11727239D01*
X7429524Y-11727239D02*
X7429524Y-11689144D01*
X7429524Y-11689144D02*
X7420000Y-11641525D01*
X7420000Y-11641525D02*
X7410476Y-11612954D01*
X7410476Y-11612954D02*
X7400953Y-11593906D01*
X7400953Y-11593906D02*
X7381905Y-11565334D01*
X7381905Y-11565334D02*
X7372381Y-11555811D01*
M02*
