%TF.GenerationSoftware,KiCad,Pcbnew,8.0.8*%
%TF.CreationDate,2025-02-20T16:12:13-05:00*%
%TF.ProjectId,ESP32_SMD,45535033-325f-4534-9d44-2e6b69636164,rev?*%
%TF.SameCoordinates,Original*%
%TF.FileFunction,Copper,L1,Top*%
%TF.FilePolarity,Positive*%
%FSLAX46Y46*%
G04 Gerber Fmt 4.6, Leading zero omitted, Abs format (unit mm)*
G04 Created by KiCad (PCBNEW 8.0.8) date 2025-02-20 16:12:13*
%MOMM*%
%LPD*%
G01*
G04 APERTURE LIST*
G04 Aperture macros list*
%AMRoundRect*
0 Rectangle with rounded corners*
0 $1 Rounding radius*
0 $2 $3 $4 $5 $6 $7 $8 $9 X,Y pos of 4 corners*
0 Add a 4 corners polygon primitive as box body*
4,1,4,$2,$3,$4,$5,$6,$7,$8,$9,$2,$3,0*
0 Add four circle primitives for the rounded corners*
1,1,$1+$1,$2,$3*
1,1,$1+$1,$4,$5*
1,1,$1+$1,$6,$7*
1,1,$1+$1,$8,$9*
0 Add four rect primitives between the rounded corners*
20,1,$1+$1,$2,$3,$4,$5,0*
20,1,$1+$1,$4,$5,$6,$7,0*
20,1,$1+$1,$6,$7,$8,$9,0*
20,1,$1+$1,$8,$9,$2,$3,0*%
G04 Aperture macros list end*
%TA.AperFunction,ComponentPad*%
%ADD10C,3.800000*%
%TD*%
%TA.AperFunction,SMDPad,CuDef*%
%ADD11RoundRect,0.250000X-0.525000X-0.250000X0.525000X-0.250000X0.525000X0.250000X-0.525000X0.250000X0*%
%TD*%
%TA.AperFunction,ComponentPad*%
%ADD12C,1.600000*%
%TD*%
%TA.AperFunction,ComponentPad*%
%ADD13O,1.600000X1.600000*%
%TD*%
%TA.AperFunction,ComponentPad*%
%ADD14RoundRect,0.250000X-0.600000X-0.725000X0.600000X-0.725000X0.600000X0.725000X-0.600000X0.725000X0*%
%TD*%
%TA.AperFunction,ComponentPad*%
%ADD15O,1.700000X1.950000*%
%TD*%
%TA.AperFunction,ComponentPad*%
%ADD16R,1.524000X1.524000*%
%TD*%
%TA.AperFunction,ComponentPad*%
%ADD17C,1.524000*%
%TD*%
%TA.AperFunction,ComponentPad*%
%ADD18RoundRect,0.250000X0.625000X-0.350000X0.625000X0.350000X-0.625000X0.350000X-0.625000X-0.350000X0*%
%TD*%
%TA.AperFunction,ComponentPad*%
%ADD19O,1.750000X1.200000*%
%TD*%
%TA.AperFunction,SMDPad,CuDef*%
%ADD20R,1.960000X3.150000*%
%TD*%
%TA.AperFunction,ComponentPad*%
%ADD21R,1.140000X1.140000*%
%TD*%
%TA.AperFunction,ComponentPad*%
%ADD22C,1.140000*%
%TD*%
%TA.AperFunction,ComponentPad*%
%ADD23R,3.500000X3.500000*%
%TD*%
%TA.AperFunction,ComponentPad*%
%ADD24RoundRect,0.750000X-0.750000X-1.000000X0.750000X-1.000000X0.750000X1.000000X-0.750000X1.000000X0*%
%TD*%
%TA.AperFunction,ComponentPad*%
%ADD25RoundRect,0.875000X-0.875000X-0.875000X0.875000X-0.875000X0.875000X0.875000X-0.875000X0.875000X0*%
%TD*%
%TA.AperFunction,SMDPad,CuDef*%
%ADD26R,0.900000X1.500000*%
%TD*%
%TA.AperFunction,SMDPad,CuDef*%
%ADD27R,1.500000X0.900000*%
%TD*%
%TA.AperFunction,SMDPad,CuDef*%
%ADD28R,0.900000X0.900000*%
%TD*%
%TA.AperFunction,ComponentPad*%
%ADD29C,2.780000*%
%TD*%
%TA.AperFunction,ComponentPad*%
%ADD30R,1.700000X1.700000*%
%TD*%
%TA.AperFunction,ComponentPad*%
%ADD31O,1.700000X1.700000*%
%TD*%
%TA.AperFunction,ComponentPad*%
%ADD32C,1.950000*%
%TD*%
%TA.AperFunction,ComponentPad*%
%ADD33R,1.950000X1.950000*%
%TD*%
%TA.AperFunction,ComponentPad*%
%ADD34R,2.000000X2.000000*%
%TD*%
%TA.AperFunction,ComponentPad*%
%ADD35C,2.000000*%
%TD*%
%TA.AperFunction,ViaPad*%
%ADD36C,0.600000*%
%TD*%
%TA.AperFunction,Conductor*%
%ADD37C,0.200000*%
%TD*%
%TA.AperFunction,Conductor*%
%ADD38C,1.200000*%
%TD*%
G04 APERTURE END LIST*
D10*
%TO.P,H4,1*%
%TO.N,N/C*%
X29210000Y-83185000D03*
%TD*%
%TO.P,H3,1*%
%TO.N,N/C*%
X121285000Y-83185000D03*
%TD*%
%TO.P,H2,1*%
%TO.N,N/C*%
X29210000Y-34300000D03*
%TD*%
%TO.P,H1,1*%
%TO.N,N/C*%
X121285000Y-34300000D03*
%TD*%
D11*
%TO.P,SW2,1,A*%
%TO.N,+3.3V_BOOT*%
X57573000Y-80950000D03*
X62823000Y-80950000D03*
%TO.P,SW2,2,B*%
%TO.N,GND*%
X57573000Y-84150000D03*
X62823000Y-84150000D03*
%TD*%
D12*
%TO.P,R6,1*%
%TO.N,+3.3V*%
X60325000Y-76835000D03*
D13*
%TO.P,R6,2*%
%TO.N,+3.3V_BOOT*%
X70485000Y-76835000D03*
%TD*%
D14*
%TO.P,J11,1,Pin_1*%
%TO.N,+3.3V*%
X76260000Y-79485000D03*
D15*
%TO.P,J11,2,Pin_2*%
%TO.N,TXD*%
X78760000Y-79485000D03*
%TO.P,J11,3,Pin_3*%
%TO.N,RXD*%
X81260000Y-79485000D03*
%TO.P,J11,4,Pin_4*%
%TO.N,GND*%
X83760000Y-79485000D03*
%TD*%
D12*
%TO.P,C2,1*%
%TO.N,+3.3V*%
X30988000Y-74168000D03*
%TO.P,C2,2*%
%TO.N,GND*%
X30988000Y-76668000D03*
%TD*%
%TO.P,R2,1*%
%TO.N,Net-(U4-2Y)*%
X103505000Y-49610000D03*
D13*
%TO.P,R2,2*%
%TO.N,LED_DATA2*%
X113665000Y-49610000D03*
%TD*%
D11*
%TO.P,SW1,1,A*%
%TO.N,+3.3V_EN*%
X48175000Y-80950000D03*
X53425000Y-80950000D03*
%TO.P,SW1,2,B*%
%TO.N,GND*%
X48175000Y-84150000D03*
X53425000Y-84150000D03*
%TD*%
D16*
%TO.P,J10,1,1*%
%TO.N,GND*%
X28625000Y-60050000D03*
D17*
%TO.P,J10,2,2*%
%TO.N,+12V*%
X28625000Y-70050000D03*
%TO.P,J10,3,3*%
%TO.N,GND*%
X44625000Y-60050000D03*
%TO.P,J10,4,4*%
%TO.N,+3.3V*%
X44625000Y-70050000D03*
%TD*%
D12*
%TO.P,R1,1*%
%TO.N,Net-(U4-1Y)*%
X103505000Y-40005000D03*
D13*
%TO.P,R1,2*%
%TO.N,LED_DATA1*%
X113665000Y-40005000D03*
%TD*%
D18*
%TO.P,J3,1,Pin_1*%
%TO.N,Net-(J3-Pin_1)*%
X119550000Y-45283300D03*
D19*
%TO.P,J3,2,Pin_2*%
%TO.N,LED_DATA1*%
X119550000Y-43283300D03*
%TO.P,J3,3,Pin_3*%
%TO.N,GND*%
X119550000Y-41283300D03*
%TD*%
D20*
%TO.P,F3,1*%
%TO.N,+12V*%
X106490000Y-53975000D03*
%TO.P,F3,2*%
%TO.N,Net-(J2-Pin_6)*%
X111400000Y-53975000D03*
%TD*%
D12*
%TO.P,R5,1*%
%TO.N,+3.3V*%
X46990000Y-76835000D03*
D13*
%TO.P,R5,2*%
%TO.N,+3.3V_EN*%
X57150000Y-76835000D03*
%TD*%
D18*
%TO.P,J5,1,Pin_1*%
%TO.N,Net-(J5-Pin_1)*%
X119550000Y-66000000D03*
D19*
%TO.P,J5,2,Pin_2*%
%TO.N,LED_DATA3*%
X119550000Y-64000000D03*
%TO.P,J5,3,Pin_3*%
%TO.N,GND*%
X119550000Y-62000000D03*
%TD*%
D21*
%TO.P,U4,1,1~{OE}*%
%TO.N,GND*%
X76675000Y-54610000D03*
D22*
%TO.P,U4,2,1A*%
%TO.N,DATA1*%
X76675000Y-57150000D03*
%TO.P,U4,3,1Y*%
%TO.N,Net-(U4-1Y)*%
X76675000Y-59690000D03*
%TO.P,U4,4,2~{OE}*%
%TO.N,GND*%
X76675000Y-62230000D03*
%TO.P,U4,5,2A*%
%TO.N,DATA2*%
X76675000Y-64770000D03*
%TO.P,U4,6,2Y*%
%TO.N,Net-(U4-2Y)*%
X76675000Y-67310000D03*
%TO.P,U4,7,GND*%
%TO.N,GND*%
X76675000Y-69850000D03*
%TO.P,U4,8,3Y*%
%TO.N,Net-(U4-3Y)*%
X84615000Y-69850000D03*
%TO.P,U4,9,3A*%
%TO.N,DATA3*%
X84615000Y-67310000D03*
%TO.P,U4,10,3~{OE}*%
%TO.N,GND*%
X84615000Y-64770000D03*
%TO.P,U4,11,4Y*%
%TO.N,Net-(U4-4Y)*%
X84615000Y-62230000D03*
%TO.P,U4,12,4A*%
%TO.N,DATA4*%
X84615000Y-59690000D03*
%TO.P,U4,13,4~{OE}*%
%TO.N,GND*%
X84615000Y-57150000D03*
%TO.P,U4,14,VCC*%
%TO.N,+5V*%
X84615000Y-54610000D03*
%TD*%
D12*
%TO.P,R4,1*%
%TO.N,Net-(U4-4Y)*%
X103505000Y-73660000D03*
D13*
%TO.P,R4,2*%
%TO.N,LED_DATA4*%
X113665000Y-73660000D03*
%TD*%
D20*
%TO.P,F5,1*%
%TO.N,+12V*%
X106490000Y-78105000D03*
%TO.P,F5,2*%
%TO.N,Net-(J6-Pin_1)*%
X111400000Y-78105000D03*
%TD*%
D16*
%TO.P,J1,1,1*%
%TO.N,GND*%
X54230000Y-35005000D03*
D17*
%TO.P,J1,2,2*%
%TO.N,+12V*%
X54230000Y-45005000D03*
%TO.P,J1,3,3*%
%TO.N,GND*%
X70230000Y-35005000D03*
%TO.P,J1,4,4*%
%TO.N,+5V*%
X70230000Y-45005000D03*
%TD*%
D23*
%TO.P,J9,1*%
%TO.N,GND*%
X36480000Y-50477500D03*
D24*
%TO.P,J9,2*%
%TO.N,+VCC*%
X30480000Y-50477500D03*
D25*
%TO.P,J9,3*%
%TO.N,N/C*%
X33480000Y-55177500D03*
%TD*%
D26*
%TO.P,U2,1,GND*%
%TO.N,GND*%
X53745000Y-72150000D03*
%TO.P,U2,2,3V3*%
%TO.N,+3.3V*%
X55015000Y-72150000D03*
%TO.P,U2,3,EN/CHIP_PU*%
%TO.N,+3.3V_EN*%
X56285000Y-72150000D03*
%TO.P,U2,4,SENSOR_VP/GPIO36/ADC1_CH0*%
%TO.N,unconnected-(U2-SENSOR_VP{slash}GPIO36{slash}ADC1_CH0-Pad4)*%
X57555000Y-72150000D03*
%TO.P,U2,5,SENSOR_VN/GPIO39/ADC1_CH3*%
%TO.N,unconnected-(U2-SENSOR_VN{slash}GPIO39{slash}ADC1_CH3-Pad5)*%
X58825000Y-72150000D03*
%TO.P,U2,6,GPIO34/ADC1_CH6*%
%TO.N,unconnected-(U2-GPIO34{slash}ADC1_CH6-Pad6)*%
X60095000Y-72150000D03*
%TO.P,U2,7,GPIO35/ADC1_CH7*%
%TO.N,unconnected-(U2-GPIO35{slash}ADC1_CH7-Pad7)*%
X61365000Y-72150000D03*
%TO.P,U2,8,32K_XP/GPIO32/ADC1_CH4*%
%TO.N,MIC_SD*%
X62635000Y-72150000D03*
%TO.P,U2,9,32K_XN/GPIO33/ADC1_CH5*%
%TO.N,unconnected-(U2-32K_XN{slash}GPIO33{slash}ADC1_CH5-Pad9)*%
X63905000Y-72150000D03*
%TO.P,U2,10,DAC_1/ADC2_CH8/GPIO25*%
%TO.N,MIC_WS*%
X65175000Y-72150000D03*
%TO.P,U2,11,DAC_2/ADC2_CH9/GPIO26*%
%TO.N,unconnected-(U2-DAC_2{slash}ADC2_CH9{slash}GPIO26-Pad11)*%
X66445000Y-72150000D03*
%TO.P,U2,12,ADC2_CH7/GPIO27*%
%TO.N,unconnected-(U2-ADC2_CH7{slash}GPIO27-Pad12)*%
X67715000Y-72150000D03*
%TO.P,U2,13,MTMS/GPIO14/ADC2_CH6*%
%TO.N,MIC_SCK*%
X68985000Y-72150000D03*
%TO.P,U2,14,MTDI/GPIO12/ADC2_CH5*%
%TO.N,unconnected-(U2-MTDI{slash}GPIO12{slash}ADC2_CH5-Pad14)*%
X70255000Y-72150000D03*
D27*
%TO.P,U2,15,GND*%
%TO.N,GND*%
X71505000Y-69120000D03*
%TO.P,U2,16,MTCK/GPIO13/ADC2_CH4*%
%TO.N,unconnected-(U2-MTCK{slash}GPIO13{slash}ADC2_CH4-Pad16)*%
X71505000Y-67850000D03*
%TO.P,U2,17*%
%TO.N,N/C*%
X71505000Y-66580000D03*
%TO.P,U2,18*%
X71505000Y-65310000D03*
%TO.P,U2,19*%
X71505000Y-64040000D03*
%TO.P,U2,20*%
X71505000Y-62770000D03*
%TO.P,U2,21*%
X71505000Y-61500000D03*
%TO.P,U2,22*%
X71505000Y-60230000D03*
%TO.P,U2,23,MTDO/GPIO15/ADC2_CH3*%
%TO.N,unconnected-(U2-MTDO{slash}GPIO15{slash}ADC2_CH3-Pad23)*%
X71505000Y-58960000D03*
%TO.P,U2,24,ADC2_CH2/GPIO2*%
%TO.N,unconnected-(U2-ADC2_CH2{slash}GPIO2-Pad24)*%
X71505000Y-57690000D03*
D26*
%TO.P,U2,25,GPIO0/BOOT/ADC2_CH1*%
%TO.N,+3.3V_BOOT*%
X70255000Y-54650000D03*
%TO.P,U2,26,ADC2_CH0/GPIO4*%
%TO.N,unconnected-(U2-ADC2_CH0{slash}GPIO4-Pad26)*%
X68985000Y-54650000D03*
%TO.P,U2,27,GPIO16*%
%TO.N,DATA1*%
X67715000Y-54650000D03*
%TO.P,U2,28,GPIO17*%
%TO.N,DATA2*%
X66445000Y-54650000D03*
%TO.P,U2,29,GPIO5*%
%TO.N,unconnected-(U2-GPIO5-Pad29)*%
X65175000Y-54650000D03*
%TO.P,U2,30,GPIO18*%
%TO.N,DATA3*%
X63905000Y-54650000D03*
%TO.P,U2,31,GPIO19*%
%TO.N,DATA4*%
X62635000Y-54650000D03*
%TO.P,U2,32*%
%TO.N,N/C*%
X61365000Y-54650000D03*
%TO.P,U2,33,GPIO21*%
%TO.N,SENS-SDA*%
X60095000Y-54650000D03*
%TO.P,U2,34,U0RXD/GPIO3*%
%TO.N,RXD*%
X58825000Y-54650000D03*
%TO.P,U2,35,U0TXD/GPIO1*%
%TO.N,TXD*%
X57555000Y-54650000D03*
%TO.P,U2,36,GPIO22*%
%TO.N,SENS-SCL*%
X56285000Y-54650000D03*
%TO.P,U2,37,GPIO23*%
%TO.N,unconnected-(U2-GPIO23-Pad37)*%
X55015000Y-54650000D03*
%TO.P,U2,38,GND*%
%TO.N,GND*%
X53745000Y-54650000D03*
D28*
%TO.P,U2,39,GND_THERMAL*%
X60065000Y-66300000D03*
X60065000Y-66300000D03*
X61465000Y-66300000D03*
X62865000Y-66300000D03*
X62865000Y-66300000D03*
X60065000Y-64900000D03*
X61465000Y-64900000D03*
X62865000Y-64900000D03*
X62865000Y-64900000D03*
X60065000Y-63500000D03*
X61465000Y-63500000D03*
X62865000Y-63500000D03*
%TD*%
D18*
%TO.P,J6,1,Pin_1*%
%TO.N,Net-(J6-Pin_1)*%
X119550000Y-76283300D03*
D19*
%TO.P,J6,2,Pin_2*%
%TO.N,LED_DATA4*%
X119550000Y-74283300D03*
%TO.P,J6,3,Pin_3*%
%TO.N,GND*%
X119550000Y-72283300D03*
%TD*%
D13*
%TO.P,U3,1,SD*%
%TO.N,MIC_SD*%
X84455000Y-42545000D03*
%TO.P,U3,2,VDD*%
%TO.N,+3.3V*%
X84455000Y-40005000D03*
%TO.P,U3,3,GND*%
%TO.N,GND*%
X84455000Y-37465000D03*
%TO.P,U3,4,L/R*%
X76835000Y-37465000D03*
%TO.P,U3,5,WS*%
%TO.N,MIC_WS*%
X76835000Y-40005000D03*
%TO.P,U3,6,SCK*%
%TO.N,MIC_SCK*%
X76835000Y-42545000D03*
%TD*%
D29*
%TO.P,F1,1*%
%TO.N,+VCC*%
X49769500Y-36861000D03*
X46369500Y-36861000D03*
%TO.P,F1,2*%
%TO.N,+12V*%
X49769500Y-46781000D03*
X46369500Y-46781000D03*
X49669500Y-50361000D03*
X46269500Y-50361000D03*
%TD*%
D20*
%TO.P,F2,1*%
%TO.N,+12V*%
X106490000Y-44450000D03*
%TO.P,F2,2*%
%TO.N,Net-(J3-Pin_1)*%
X111400000Y-44450000D03*
%TD*%
D30*
%TO.P,J8,1,Pin_1*%
%TO.N,+3.3V*%
X109220000Y-36195000D03*
D31*
%TO.P,J8,2,Pin_2*%
%TO.N,GND*%
X106680000Y-36195000D03*
%TO.P,J8,3,Pin_3*%
%TO.N,SENS-SCL*%
X104140000Y-36195000D03*
%TO.P,J8,4,Pin_4*%
%TO.N,SENS-SDA*%
X101600000Y-36195000D03*
%TO.P,J8,5,Pin_5*%
%TO.N,GND*%
X99060000Y-36195000D03*
%TO.P,J8,6,Pin_6*%
%TO.N,Net-(J3-Pin_1)*%
X96520000Y-36195000D03*
%TD*%
D12*
%TO.P,R3,1*%
%TO.N,Net-(U4-3Y)*%
X103505000Y-59690000D03*
D13*
%TO.P,R3,2*%
%TO.N,LED_DATA3*%
X113665000Y-59690000D03*
%TD*%
D18*
%TO.P,J4,1,Pin_1*%
%TO.N,Net-(J2-Pin_6)*%
X119550000Y-55616700D03*
D19*
%TO.P,J4,2,Pin_2*%
%TO.N,LED_DATA2*%
X119550000Y-53616700D03*
%TO.P,J4,3,Pin_3*%
%TO.N,GND*%
X119550000Y-51616700D03*
%TD*%
D32*
%TO.P,J7,1,Pin_1*%
%TO.N,GND*%
X38480000Y-42212500D03*
D33*
%TO.P,J7,2,Pin_2*%
%TO.N,+VCC*%
X38480000Y-37212500D03*
%TD*%
D30*
%TO.P,J2,1,Pin_1*%
%TO.N,+3.3V*%
X109220000Y-64135000D03*
D31*
%TO.P,J2,2,Pin_2*%
%TO.N,GND*%
X106680000Y-64135000D03*
%TO.P,J2,3,Pin_3*%
%TO.N,SENS-SCL*%
X104140000Y-64135000D03*
%TO.P,J2,4,Pin_4*%
%TO.N,SENS-SDA*%
X101600000Y-64135000D03*
%TO.P,J2,5,Pin_5*%
%TO.N,GND*%
X99060000Y-64135000D03*
%TO.P,J2,6,Pin_6*%
%TO.N,Net-(J2-Pin_6)*%
X96520000Y-64135000D03*
%TD*%
D20*
%TO.P,F4,1*%
%TO.N,+12V*%
X106490000Y-68580000D03*
%TO.P,F4,2*%
%TO.N,Net-(J5-Pin_1)*%
X111400000Y-68580000D03*
%TD*%
D34*
%TO.P,C1,1*%
%TO.N,+3.3V*%
X37002323Y-78105000D03*
D35*
%TO.P,C1,2*%
%TO.N,GND*%
X42002323Y-78105000D03*
%TD*%
D36*
%TO.N,GND*%
X63950000Y-66300000D03*
%TO.N,TXD*%
X58207265Y-56342735D03*
%TO.N,RXD*%
X58650000Y-52850000D03*
%TO.N,+3.3V_BOOT*%
X71400000Y-55100000D03*
X68550000Y-73900000D03*
%TO.N,+3.3V_EN*%
X56042235Y-74507765D03*
X56865765Y-73634235D03*
%TO.N,MIC_SD*%
X83100600Y-65120000D03*
%TO.N,MIC_SCK*%
X71725200Y-71048900D03*
%TO.N,MIC_WS*%
X73045300Y-70320300D03*
%TO.N,DATA3*%
X78618500Y-53739100D03*
%TO.N,+5V*%
X84550000Y-47750000D03*
%TO.N,+3.3V*%
X53450000Y-52350000D03*
X58150000Y-47700000D03*
%TO.N,Net-(U4-1Y)*%
X79750000Y-45700000D03*
X79250000Y-48000000D03*
X79750000Y-44405000D03*
X79250000Y-52550000D03*
%TO.N,Net-(U4-2Y)*%
X80550000Y-45700000D03*
X82824300Y-45175700D03*
X80250000Y-48000000D03*
X80250000Y-52550000D03*
%TO.N,Net-(U4-3Y)*%
X93700000Y-59700000D03*
X89400000Y-62450000D03*
%TO.N,Net-(U4-4Y)*%
X88150000Y-68550000D03*
X88666300Y-69916300D03*
%TO.N,Net-(J2-Pin_6)*%
X101000000Y-61700000D03*
X102200000Y-61650000D03*
X105750000Y-61650000D03*
X104550000Y-61600000D03*
%TO.N,GND*%
X53745000Y-73404800D03*
X63823600Y-65106900D03*
X63866200Y-63635800D03*
X56896000Y-84010000D03*
X53745000Y-55910900D03*
%TO.N,SENS-SCL*%
X105150000Y-41650000D03*
X105150000Y-57600000D03*
X69850000Y-69720300D03*
%TO.N,SENS-SDA*%
X75150000Y-71850000D03*
X101700000Y-52400000D03*
X101600000Y-60290000D03*
X101600000Y-40605000D03*
X101650000Y-59090000D03*
X101622000Y-46878200D03*
X101600000Y-39405000D03*
%TD*%
D37*
%TO.N,+3.3V_BOOT*%
X62823000Y-80950000D02*
X66370000Y-80950000D01*
X66370000Y-80950000D02*
X70485000Y-76835000D01*
%TO.N,GND*%
X62823000Y-84150000D02*
X57573000Y-84150000D01*
%TO.N,+3.3V_BOOT*%
X62823000Y-80950000D02*
X57573000Y-80950000D01*
%TO.N,GND*%
X62865000Y-66300000D02*
X63950000Y-66300000D01*
%TO.N,TXD*%
X58207265Y-56342735D02*
X57555000Y-55690470D01*
X57555000Y-55690470D02*
X57555000Y-54650000D01*
%TO.N,RXD*%
X58650000Y-52850000D02*
X58650000Y-54475000D01*
%TO.N,+3.3V*%
X76260000Y-79485000D02*
X73995000Y-81750000D01*
X73995000Y-81750000D02*
X40647323Y-81750000D01*
X40647323Y-81750000D02*
X37002323Y-78105000D01*
%TO.N,+3.3V_BOOT*%
X70485000Y-76835000D02*
X68550000Y-74900000D01*
X68550000Y-74900000D02*
X68550000Y-73900000D01*
X71400000Y-55100000D02*
X70705000Y-55100000D01*
X70705000Y-55100000D02*
X70255000Y-54650000D01*
%TO.N,+3.3V_EN*%
X57150000Y-75615530D02*
X57150000Y-76835000D01*
X56042235Y-74507765D02*
X57150000Y-75615530D01*
X56285000Y-72150000D02*
X56285000Y-73053470D01*
X56285000Y-73053470D02*
X56865765Y-73634235D01*
%TO.N,GND*%
X53425000Y-84150000D02*
X56756000Y-84150000D01*
X56756000Y-84150000D02*
X56896000Y-84010000D01*
X56896000Y-84010000D02*
X60100000Y-84010000D01*
X48175000Y-84150000D02*
X53425000Y-84150000D01*
%TO.N,+3.3V_EN*%
X53425000Y-80950000D02*
X48175000Y-80950000D01*
X57150000Y-76835000D02*
X53425000Y-80560000D01*
%TO.N,+3.3V*%
X59218000Y-76835000D02*
X60325000Y-76835000D01*
X55015000Y-72632000D02*
X59218000Y-76835000D01*
X44625000Y-70050000D02*
X44625000Y-71127630D01*
X44625000Y-71127630D02*
X45997370Y-72500000D01*
X45997370Y-72500000D02*
X52377000Y-72500000D01*
X54356000Y-71100000D02*
X55015000Y-71759000D01*
X52377000Y-72500000D02*
X52995000Y-71882000D01*
X52995000Y-71882000D02*
X52995000Y-71100000D01*
X52995000Y-71100000D02*
X54356000Y-71100000D01*
X30988000Y-74168000D02*
X33065323Y-74168000D01*
X33065323Y-74168000D02*
X37002323Y-78105000D01*
X44625000Y-70050000D02*
X35106000Y-70050000D01*
X35106000Y-70050000D02*
X30988000Y-74168000D01*
X44625000Y-70050000D02*
X44625000Y-74470000D01*
X44625000Y-74470000D02*
X46990000Y-76835000D01*
%TO.N,DATA1*%
X67715000Y-55701700D02*
X75226700Y-55701700D01*
X75226700Y-55701700D02*
X76675000Y-57150000D01*
X67715000Y-54650000D02*
X67715000Y-55701700D01*
%TO.N,MIC_SD*%
X75018900Y-73201700D02*
X83100600Y-65120000D01*
X62635000Y-73201700D02*
X75018900Y-73201700D01*
X62635000Y-72150000D02*
X62635000Y-73201700D01*
%TO.N,MIC_SCK*%
X68985000Y-72150000D02*
X68985000Y-71098300D01*
X68985000Y-71098300D02*
X71675800Y-71098300D01*
X71675800Y-71098300D02*
X71725200Y-71048900D01*
%TO.N,DATA4*%
X80512100Y-51923000D02*
X82945200Y-54356100D01*
X82945200Y-58020200D02*
X84615000Y-59690000D01*
X82945200Y-54356100D02*
X82945200Y-58020200D01*
X64310300Y-51923000D02*
X80512100Y-51923000D01*
X62635000Y-53598300D02*
X64310300Y-51923000D01*
X62635000Y-54650000D02*
X62635000Y-53598300D01*
%TO.N,DATA2*%
X66846700Y-56103400D02*
X71568600Y-56103400D01*
X71568600Y-56103400D02*
X75005200Y-59540000D01*
X75005200Y-63100200D02*
X76675000Y-64770000D01*
X75005200Y-59540000D02*
X75005200Y-63100200D01*
X66445000Y-55701700D02*
X66846700Y-56103400D01*
X66445000Y-54650000D02*
X66445000Y-55701700D01*
%TO.N,MIC_WS*%
X65953000Y-70320300D02*
X65175000Y-71098300D01*
X65175000Y-72150000D02*
X65175000Y-71098300D01*
X73045300Y-70320300D02*
X65953000Y-70320300D01*
%TO.N,DATA3*%
X78618500Y-53739100D02*
X78477700Y-53598300D01*
X78477700Y-53598300D02*
X63905000Y-53598300D01*
X63905000Y-54650000D02*
X63905000Y-53598300D01*
%TO.N,+5V*%
X81805000Y-45005000D02*
X84550000Y-47750000D01*
X70230000Y-45005000D02*
X81805000Y-45005000D01*
%TO.N,+3.3V*%
X52995000Y-69180000D02*
X55015000Y-71200000D01*
X83355000Y-41105000D02*
X64745000Y-41105000D01*
X52995000Y-52805000D02*
X52995000Y-69180000D01*
X64745000Y-41105000D02*
X58150000Y-47700000D01*
X84455000Y-40005000D02*
X83355000Y-41105000D01*
X53450000Y-52350000D02*
X52995000Y-52805000D01*
X55015000Y-71200000D02*
X55015000Y-72150000D01*
%TO.N,LED_DATA1*%
X116272000Y-40005000D02*
X119550000Y-43283300D01*
X113665000Y-40005000D02*
X116272000Y-40005000D01*
%TO.N,Net-(U4-1Y)*%
X79750000Y-47500000D02*
X79250000Y-48000000D01*
X100457000Y-40005000D02*
X96057000Y-44405000D01*
X96057000Y-44405000D02*
X79750000Y-44405000D01*
X103505000Y-40005000D02*
X100457000Y-40005000D01*
X79750000Y-45700000D02*
X79750000Y-47500000D01*
X79250000Y-52550000D02*
X79250000Y-57115000D01*
X79250000Y-57115000D02*
X76675000Y-59690000D01*
%TO.N,LED_DATA2*%
X113665000Y-49610000D02*
X115543000Y-49610000D01*
X115543000Y-49610000D02*
X119550000Y-53616700D01*
%TO.N,Net-(U4-2Y)*%
X80550000Y-45700000D02*
X80550000Y-47700000D01*
X80250000Y-52550000D02*
X80250000Y-63735000D01*
X80550000Y-47700000D02*
X80250000Y-48000000D01*
X99107000Y-45212000D02*
X82860500Y-45212000D01*
X82860500Y-45212000D02*
X82824300Y-45175700D01*
X103505000Y-49610000D02*
X99107000Y-45212000D01*
X80250000Y-63735000D02*
X76675000Y-67310000D01*
%TO.N,Net-(U4-3Y)*%
X93710000Y-59690000D02*
X93700000Y-59700000D01*
X89400000Y-62450000D02*
X89400000Y-68334000D01*
X89400000Y-68334000D02*
X87884000Y-69850000D01*
X87884000Y-69850000D02*
X84615000Y-69850000D01*
X103505000Y-59690000D02*
X93710000Y-59690000D01*
%TO.N,LED_DATA3*%
X113665000Y-59690000D02*
X115240000Y-59690000D01*
X115240000Y-59690000D02*
X119550000Y-64000000D01*
%TO.N,Net-(U4-4Y)*%
X88150000Y-65765000D02*
X84615000Y-62230000D01*
X92410000Y-73660000D02*
X88666300Y-69916300D01*
X103505000Y-73660000D02*
X92410000Y-73660000D01*
X88150000Y-68550000D02*
X88150000Y-65765000D01*
%TO.N,LED_DATA4*%
X113665000Y-73660000D02*
X118927000Y-73660000D01*
X118927000Y-73660000D02*
X119550000Y-74283300D01*
%TO.N,Net-(J2-Pin_6)*%
X102200000Y-61650000D02*
X104500000Y-61650000D01*
D38*
X112797000Y-55372000D02*
X119305000Y-55372000D01*
D37*
X104500000Y-61650000D02*
X104550000Y-61600000D01*
D38*
X111400000Y-53975000D02*
X112797000Y-55372000D01*
D37*
X98955000Y-61700000D02*
X101000000Y-61700000D01*
X111400000Y-56000000D02*
X111400000Y-53975000D01*
D38*
X119305000Y-55372000D02*
X119550000Y-55616700D01*
D37*
X105750000Y-61650000D02*
X111400000Y-56000000D01*
X96520000Y-64135000D02*
X98955000Y-61700000D01*
D38*
%TO.N,Net-(J6-Pin_1)*%
X117728000Y-78105000D02*
X119550000Y-76283300D01*
X111400000Y-78105000D02*
X117728000Y-78105000D01*
D37*
%TO.N,GND*%
X63866200Y-63635800D02*
X63752500Y-63635800D01*
X60065000Y-63500000D02*
X61465000Y-63500000D01*
X63616700Y-64900000D02*
X63823600Y-65106900D01*
X61465000Y-66300000D02*
X62865000Y-66300000D01*
X60065000Y-64900000D02*
X61465000Y-64900000D01*
X53745000Y-73404800D02*
X53745000Y-72150000D01*
X71505000Y-69120000D02*
X75945000Y-69120000D01*
X62865000Y-63500000D02*
X63616700Y-63500000D01*
X60065000Y-66300000D02*
X61465000Y-66300000D01*
X61465000Y-63500000D02*
X62865000Y-63500000D01*
X75945000Y-69120000D02*
X76675000Y-69850000D01*
X61465000Y-64900000D02*
X62865000Y-64900000D01*
X62865000Y-64900000D02*
X63616700Y-64900000D01*
X53745000Y-55910900D02*
X53745000Y-54650000D01*
X63752500Y-63635800D02*
X63616700Y-63500000D01*
D38*
%TO.N,Net-(J5-Pin_1)*%
X116970000Y-68580000D02*
X119550000Y-66000000D01*
X111400000Y-68580000D02*
X116970000Y-68580000D01*
D37*
%TO.N,SENS-SCL*%
X62484000Y-61214000D02*
X69850000Y-68580000D01*
X56285000Y-55269000D02*
X62230000Y-61214000D01*
X105150000Y-57600000D02*
X105150000Y-63125000D01*
X105150000Y-37205000D02*
X105150000Y-41650000D01*
X62230000Y-61214000D02*
X62484000Y-61214000D01*
X104140000Y-36195000D02*
X105150000Y-37205000D01*
X69850000Y-68580000D02*
X69850000Y-69720300D01*
X105150000Y-63125000D02*
X104140000Y-64135000D01*
%TO.N,SENS-SDA*%
X101700000Y-52400000D02*
X101700000Y-59040000D01*
X101600000Y-36195000D02*
X101600000Y-39405000D01*
X101600000Y-60290000D02*
X101600000Y-64135000D01*
X70505300Y-69920300D02*
X72596771Y-69920300D01*
X60095000Y-54650000D02*
X60095000Y-57809000D01*
X73293829Y-69720300D02*
X75150000Y-71576471D01*
X72596771Y-69920300D02*
X72796771Y-69720300D01*
X70455000Y-69870000D02*
X70505300Y-69920300D01*
X60095000Y-57809000D02*
X70455000Y-68169000D01*
X101600000Y-40605000D02*
X101600000Y-46856500D01*
X101600000Y-46856500D02*
X101622000Y-46878200D01*
X70455000Y-68169000D02*
X70455000Y-69870000D01*
X75150000Y-71576471D02*
X75150000Y-71850000D01*
X72796771Y-69720300D02*
X73293829Y-69720300D01*
X101700000Y-59040000D02*
X101650000Y-59090000D01*
D38*
%TO.N,Net-(J3-Pin_1)*%
X119479000Y-45212000D02*
X119550000Y-45283300D01*
D37*
X111400000Y-36075000D02*
X111400000Y-44450000D01*
X110370000Y-35045000D02*
X111400000Y-36075000D01*
X97670000Y-35045000D02*
X110370000Y-35045000D01*
D38*
X111400000Y-44450000D02*
X112162000Y-45212000D01*
D37*
X96520000Y-36195000D02*
X97670000Y-35045000D01*
D38*
X112162000Y-45212000D02*
X119479000Y-45212000D01*
%TD*%
%TA.AperFunction,Conductor*%
%TO.N,+12V*%
G36*
X104329330Y-41955531D02*
G01*
X104396158Y-41975914D01*
X104433026Y-42013551D01*
X104520184Y-42152262D01*
X104647738Y-42279816D01*
X104800478Y-42375789D01*
X104970745Y-42435368D01*
X104980451Y-42436461D01*
X105044864Y-42463527D01*
X105084421Y-42521121D01*
X105086560Y-42590957D01*
X105070271Y-42624786D01*
X105070897Y-42625128D01*
X105066645Y-42632913D01*
X105016403Y-42767620D01*
X105016401Y-42767627D01*
X105010000Y-42827155D01*
X105010000Y-44200000D01*
X106240000Y-44200000D01*
X106740000Y-44200000D01*
X107970000Y-44200000D01*
X107970000Y-42827172D01*
X107969999Y-42827155D01*
X107963598Y-42767627D01*
X107963596Y-42767620D01*
X107913354Y-42632913D01*
X107913350Y-42632906D01*
X107827190Y-42517812D01*
X107827187Y-42517809D01*
X107712093Y-42431649D01*
X107712086Y-42431645D01*
X107577379Y-42381403D01*
X107577372Y-42381401D01*
X107517844Y-42375000D01*
X106740000Y-42375000D01*
X106740000Y-44200000D01*
X106240000Y-44200000D01*
X106240000Y-42375000D01*
X105856440Y-42375000D01*
X105789401Y-42355315D01*
X105743646Y-42302511D01*
X105733702Y-42233353D01*
X105762727Y-42169797D01*
X105768759Y-42163319D01*
X105779816Y-42152262D01*
X105856251Y-42030615D01*
X105908585Y-41984326D01*
X105962535Y-41972597D01*
X108465236Y-41998748D01*
X108532065Y-42019132D01*
X108577265Y-42072411D01*
X108587903Y-42119735D01*
X108946866Y-56920793D01*
X108928812Y-56988290D01*
X108877133Y-57035311D01*
X108820774Y-57047781D01*
X105724199Y-56994629D01*
X105657507Y-56973797D01*
X105654400Y-56971528D01*
X105652263Y-56970185D01*
X105652262Y-56970184D01*
X105553967Y-56908421D01*
X105499523Y-56874211D01*
X105329254Y-56814631D01*
X105329249Y-56814630D01*
X105150004Y-56794435D01*
X105149996Y-56794435D01*
X104970750Y-56814630D01*
X104970745Y-56814631D01*
X104800476Y-56874211D01*
X104669718Y-56956373D01*
X104602481Y-56975373D01*
X104601618Y-56975361D01*
X104121872Y-56967126D01*
X104055180Y-56946293D01*
X104010338Y-56892712D01*
X104000000Y-56843144D01*
X104000000Y-55597844D01*
X105010000Y-55597844D01*
X105016401Y-55657372D01*
X105016403Y-55657379D01*
X105066645Y-55792086D01*
X105066649Y-55792093D01*
X105152809Y-55907187D01*
X105152812Y-55907190D01*
X105267906Y-55993350D01*
X105267913Y-55993354D01*
X105402620Y-56043596D01*
X105402627Y-56043598D01*
X105462155Y-56049999D01*
X105462172Y-56050000D01*
X106240000Y-56050000D01*
X106740000Y-56050000D01*
X107517828Y-56050000D01*
X107517844Y-56049999D01*
X107577372Y-56043598D01*
X107577379Y-56043596D01*
X107712086Y-55993354D01*
X107712093Y-55993350D01*
X107827187Y-55907190D01*
X107827190Y-55907187D01*
X107913350Y-55792093D01*
X107913354Y-55792086D01*
X107963596Y-55657379D01*
X107963598Y-55657372D01*
X107969999Y-55597844D01*
X107970000Y-55597827D01*
X107970000Y-54225000D01*
X106740000Y-54225000D01*
X106740000Y-56050000D01*
X106240000Y-56050000D01*
X106240000Y-54225000D01*
X105010000Y-54225000D01*
X105010000Y-55597844D01*
X104000000Y-55597844D01*
X104000000Y-52352155D01*
X105010000Y-52352155D01*
X105010000Y-53725000D01*
X106240000Y-53725000D01*
X106740000Y-53725000D01*
X107970000Y-53725000D01*
X107970000Y-52352172D01*
X107969999Y-52352155D01*
X107963598Y-52292627D01*
X107963596Y-52292620D01*
X107913354Y-52157913D01*
X107913350Y-52157906D01*
X107827190Y-52042812D01*
X107827187Y-52042809D01*
X107712093Y-51956649D01*
X107712086Y-51956645D01*
X107577379Y-51906403D01*
X107577372Y-51906401D01*
X107517844Y-51900000D01*
X106740000Y-51900000D01*
X106740000Y-53725000D01*
X106240000Y-53725000D01*
X106240000Y-51900000D01*
X105462155Y-51900000D01*
X105402627Y-51906401D01*
X105402620Y-51906403D01*
X105267913Y-51956645D01*
X105267906Y-51956649D01*
X105152812Y-52042809D01*
X105152809Y-52042812D01*
X105066649Y-52157906D01*
X105066645Y-52157913D01*
X105016403Y-52292620D01*
X105016401Y-52292627D01*
X105010000Y-52352155D01*
X104000000Y-52352155D01*
X104000000Y-52000000D01*
X102462604Y-52000000D01*
X102395565Y-51980315D01*
X102357610Y-51941971D01*
X102329819Y-51897742D01*
X102329817Y-51897739D01*
X102202262Y-51770184D01*
X102049523Y-51674211D01*
X101879254Y-51614631D01*
X101879249Y-51614630D01*
X101700004Y-51594435D01*
X101699996Y-51594435D01*
X101520750Y-51614630D01*
X101520745Y-51614631D01*
X101350476Y-51674211D01*
X101197737Y-51770184D01*
X101070182Y-51897739D01*
X101070180Y-51897742D01*
X101042390Y-51941971D01*
X100990056Y-51988263D01*
X100937396Y-52000000D01*
X93150000Y-52000000D01*
X93174705Y-59041416D01*
X93155256Y-59108524D01*
X93138388Y-59129531D01*
X93070187Y-59197733D01*
X93070186Y-59197734D01*
X92974211Y-59350476D01*
X92914631Y-59520745D01*
X92914630Y-59520750D01*
X92894435Y-59699996D01*
X92894435Y-59700003D01*
X92914630Y-59879249D01*
X92914631Y-59879254D01*
X92974211Y-60049523D01*
X93070184Y-60202262D01*
X93143023Y-60275101D01*
X93176508Y-60336424D01*
X93179341Y-60362347D01*
X93199999Y-66249999D01*
X93200000Y-66250000D01*
X105312168Y-66288945D01*
X105379142Y-66308845D01*
X105424726Y-66361795D01*
X105434447Y-66430986D01*
X105405218Y-66494448D01*
X105355101Y-66529125D01*
X105267917Y-66561643D01*
X105267906Y-66561649D01*
X105152812Y-66647809D01*
X105152809Y-66647812D01*
X105066649Y-66762906D01*
X105066645Y-66762913D01*
X105016403Y-66897620D01*
X105016401Y-66897627D01*
X105010000Y-66957155D01*
X105010000Y-68330000D01*
X107970000Y-68330000D01*
X107970000Y-66957172D01*
X107969999Y-66957155D01*
X107963598Y-66897627D01*
X107963596Y-66897620D01*
X107913354Y-66762913D01*
X107913350Y-66762906D01*
X107827190Y-66647812D01*
X107827187Y-66647809D01*
X107712093Y-66561649D01*
X107712087Y-66561646D01*
X107645390Y-66536769D01*
X107589456Y-66494897D01*
X107565040Y-66429432D01*
X107579892Y-66361160D01*
X107629298Y-66311754D01*
X107689119Y-66296588D01*
X108626015Y-66299601D01*
X108692990Y-66319501D01*
X108738574Y-66372452D01*
X108749614Y-66423985D01*
X108700410Y-82267751D01*
X108680518Y-82334729D01*
X108627572Y-82380320D01*
X108568052Y-82391084D01*
X105115641Y-82157813D01*
X105050081Y-82133654D01*
X105007990Y-82077885D01*
X105000000Y-82034095D01*
X105000000Y-80170516D01*
X105019685Y-80103477D01*
X105072489Y-80057722D01*
X105141647Y-80047778D01*
X105198312Y-80071250D01*
X105267910Y-80123352D01*
X105267913Y-80123354D01*
X105402620Y-80173596D01*
X105402627Y-80173598D01*
X105462155Y-80179999D01*
X105462172Y-80180000D01*
X106240000Y-80180000D01*
X106740000Y-80180000D01*
X107517828Y-80180000D01*
X107517844Y-80179999D01*
X107577372Y-80173598D01*
X107577379Y-80173596D01*
X107712086Y-80123354D01*
X107712093Y-80123350D01*
X107827187Y-80037190D01*
X107827190Y-80037187D01*
X107913350Y-79922093D01*
X107913354Y-79922086D01*
X107963596Y-79787379D01*
X107963598Y-79787372D01*
X107969999Y-79727844D01*
X107970000Y-79727827D01*
X107970000Y-78355000D01*
X106740000Y-78355000D01*
X106740000Y-80180000D01*
X106240000Y-80180000D01*
X106240000Y-77855000D01*
X106740000Y-77855000D01*
X107970000Y-77855000D01*
X107970000Y-76482172D01*
X107969999Y-76482155D01*
X107963598Y-76422627D01*
X107963596Y-76422620D01*
X107913354Y-76287913D01*
X107913350Y-76287906D01*
X107827190Y-76172812D01*
X107827187Y-76172809D01*
X107712093Y-76086649D01*
X107712086Y-76086645D01*
X107577379Y-76036403D01*
X107577372Y-76036401D01*
X107517844Y-76030000D01*
X106740000Y-76030000D01*
X106740000Y-77855000D01*
X106240000Y-77855000D01*
X106240000Y-76030000D01*
X105462155Y-76030000D01*
X105402627Y-76036401D01*
X105402620Y-76036403D01*
X105267913Y-76086645D01*
X105267906Y-76086649D01*
X105198311Y-76138749D01*
X105132847Y-76163167D01*
X105064574Y-76148316D01*
X105015168Y-76098911D01*
X105000000Y-76039483D01*
X105000000Y-70645516D01*
X105019685Y-70578477D01*
X105072489Y-70532722D01*
X105141647Y-70522778D01*
X105198312Y-70546250D01*
X105267910Y-70598352D01*
X105267913Y-70598354D01*
X105402620Y-70648596D01*
X105402627Y-70648598D01*
X105462155Y-70654999D01*
X105462172Y-70655000D01*
X106240000Y-70655000D01*
X106740000Y-70655000D01*
X107517828Y-70655000D01*
X107517844Y-70654999D01*
X107577372Y-70648598D01*
X107577379Y-70648596D01*
X107712086Y-70598354D01*
X107712093Y-70598350D01*
X107827187Y-70512190D01*
X107827190Y-70512187D01*
X107913350Y-70397093D01*
X107913354Y-70397086D01*
X107963596Y-70262379D01*
X107963598Y-70262372D01*
X107969999Y-70202844D01*
X107970000Y-70202827D01*
X107970000Y-68830000D01*
X106740000Y-68830000D01*
X106740000Y-70655000D01*
X106240000Y-70655000D01*
X106240000Y-68830000D01*
X105010000Y-68830000D01*
X105010000Y-68876000D01*
X104990315Y-68943039D01*
X104937511Y-68988794D01*
X104886000Y-69000000D01*
X89882598Y-69000000D01*
X89815559Y-68980315D01*
X89769804Y-68927511D01*
X89759860Y-68858353D01*
X89788885Y-68794797D01*
X89794917Y-68788319D01*
X89831952Y-68751284D01*
X89880520Y-68702716D01*
X89959577Y-68565784D01*
X90000501Y-68413057D01*
X90000501Y-68254942D01*
X90000501Y-68247347D01*
X90000500Y-68247329D01*
X90000500Y-63032412D01*
X90020185Y-62965373D01*
X90027555Y-62955097D01*
X90029810Y-62952267D01*
X90029816Y-62952262D01*
X90125789Y-62799522D01*
X90185368Y-62629255D01*
X90185369Y-62629249D01*
X90205565Y-62450003D01*
X90205565Y-62449996D01*
X90185369Y-62270750D01*
X90185368Y-62270745D01*
X90125788Y-62100476D01*
X90029815Y-61947737D01*
X89902262Y-61820184D01*
X89902256Y-61820179D01*
X89801768Y-61757038D01*
X89755477Y-61704704D01*
X89743742Y-61651307D01*
X89746610Y-61169544D01*
X89800000Y-52200000D01*
X89782022Y-52199921D01*
X81653580Y-52164424D01*
X81586628Y-52144447D01*
X81566441Y-52128106D01*
X80999690Y-51561355D01*
X80999688Y-51561352D01*
X80880817Y-51442481D01*
X80880816Y-51442480D01*
X80794004Y-51392360D01*
X80794004Y-51392359D01*
X80794000Y-51392358D01*
X80743885Y-51363423D01*
X80591157Y-51322499D01*
X80433043Y-51322499D01*
X80425447Y-51322499D01*
X80425431Y-51322500D01*
X64396969Y-51322500D01*
X64396953Y-51322499D01*
X64389357Y-51322499D01*
X64231243Y-51322499D01*
X64123887Y-51351265D01*
X64078510Y-51363424D01*
X64078509Y-51363425D01*
X64028396Y-51392359D01*
X64028395Y-51392360D01*
X63984989Y-51417420D01*
X63941585Y-51442479D01*
X63941582Y-51442481D01*
X63829778Y-51554286D01*
X63336329Y-52047733D01*
X63275006Y-52081218D01*
X63248107Y-52084051D01*
X58837086Y-52064789D01*
X58823744Y-52064010D01*
X58650004Y-52044435D01*
X58649997Y-52044435D01*
X58490260Y-52062432D01*
X58475836Y-52063211D01*
X54271663Y-52044852D01*
X54204710Y-52024875D01*
X54167210Y-51986825D01*
X54079816Y-51847738D01*
X53952262Y-51720184D01*
X53799523Y-51624211D01*
X53629254Y-51564631D01*
X53629249Y-51564630D01*
X53450004Y-51544435D01*
X53449996Y-51544435D01*
X53270750Y-51564630D01*
X53270745Y-51564631D01*
X53100476Y-51624211D01*
X52947737Y-51720184D01*
X52820184Y-51847737D01*
X52820182Y-51847740D01*
X52737287Y-51979665D01*
X52684952Y-52025956D01*
X52631753Y-52037691D01*
X50938126Y-52030296D01*
X50871173Y-52010319D01*
X50825649Y-51957315D01*
X50814983Y-51897450D01*
X50817480Y-51862532D01*
X50099214Y-51144267D01*
X50236842Y-51052308D01*
X50360808Y-50928342D01*
X50452767Y-50790714D01*
X51171033Y-51508981D01*
X51171034Y-51508980D01*
X51263529Y-51385424D01*
X51393093Y-51148145D01*
X51393095Y-51148141D01*
X51487575Y-50894830D01*
X51545039Y-50630670D01*
X51545040Y-50630663D01*
X51564328Y-50361001D01*
X51564328Y-50360998D01*
X51545040Y-50091336D01*
X51545039Y-50091329D01*
X51487575Y-49827169D01*
X51393095Y-49573858D01*
X51393093Y-49573854D01*
X51263534Y-49336584D01*
X51263533Y-49336583D01*
X51171033Y-49213017D01*
X50452766Y-49931284D01*
X50360808Y-49793658D01*
X50236842Y-49669692D01*
X50099213Y-49577732D01*
X50817481Y-48859465D01*
X50817480Y-48859464D01*
X50693923Y-48766970D01*
X50693915Y-48766965D01*
X50584342Y-48707134D01*
X50534937Y-48657729D01*
X50520085Y-48589456D01*
X50544502Y-48523992D01*
X50584342Y-48489470D01*
X50793924Y-48375029D01*
X50917480Y-48282534D01*
X50917481Y-48282533D01*
X50199214Y-47564267D01*
X50336842Y-47472308D01*
X50460808Y-47348342D01*
X50552767Y-47210714D01*
X51271033Y-47928981D01*
X51271034Y-47928980D01*
X51363529Y-47805424D01*
X51493093Y-47568145D01*
X51493095Y-47568141D01*
X51587575Y-47314830D01*
X51645039Y-47050670D01*
X51645040Y-47050663D01*
X51664328Y-46781001D01*
X51664328Y-46780998D01*
X51645040Y-46511336D01*
X51645039Y-46511329D01*
X51587575Y-46247169D01*
X51493095Y-45993858D01*
X51493093Y-45993854D01*
X51363534Y-45756584D01*
X51363533Y-45756583D01*
X51271033Y-45633017D01*
X50552766Y-46351284D01*
X50460808Y-46213658D01*
X50336842Y-46089692D01*
X50199213Y-45997732D01*
X50917481Y-45279465D01*
X50917480Y-45279464D01*
X50793923Y-45186970D01*
X50793915Y-45186965D01*
X50556645Y-45057406D01*
X50556641Y-45057404D01*
X50416138Y-45004999D01*
X52963179Y-45004999D01*
X52963179Y-45005000D01*
X52982424Y-45224976D01*
X52982426Y-45224986D01*
X53039575Y-45438270D01*
X53039580Y-45438284D01*
X53132898Y-45638405D01*
X53132901Y-45638411D01*
X53178258Y-45703187D01*
X53178258Y-45703188D01*
X53849000Y-45032446D01*
X53849000Y-45055160D01*
X53874964Y-45152061D01*
X53925124Y-45238940D01*
X53996060Y-45309876D01*
X54082939Y-45360036D01*
X54179840Y-45386000D01*
X54202553Y-45386000D01*
X53531810Y-46056740D01*
X53596590Y-46102099D01*
X53596592Y-46102100D01*
X53796715Y-46195419D01*
X53796729Y-46195424D01*
X54010013Y-46252573D01*
X54010023Y-46252575D01*
X54229999Y-46271821D01*
X54230001Y-46271821D01*
X54449976Y-46252575D01*
X54449986Y-46252573D01*
X54663270Y-46195424D01*
X54663284Y-46195419D01*
X54863407Y-46102100D01*
X54863417Y-46102094D01*
X54928188Y-46056741D01*
X54257448Y-45386000D01*
X54280160Y-45386000D01*
X54377061Y-45360036D01*
X54463940Y-45309876D01*
X54534876Y-45238940D01*
X54585036Y-45152061D01*
X54611000Y-45055160D01*
X54611000Y-45032447D01*
X55281741Y-45703188D01*
X55327094Y-45638417D01*
X55327100Y-45638407D01*
X55420419Y-45438284D01*
X55420424Y-45438270D01*
X55477573Y-45224986D01*
X55477575Y-45224976D01*
X55496821Y-45005000D01*
X55496821Y-45004999D01*
X55477575Y-44785023D01*
X55477573Y-44785013D01*
X55420424Y-44571729D01*
X55420420Y-44571720D01*
X55327096Y-44371586D01*
X55281741Y-44306811D01*
X55281740Y-44306810D01*
X54611000Y-44977551D01*
X54611000Y-44954840D01*
X54585036Y-44857939D01*
X54534876Y-44771060D01*
X54463940Y-44700124D01*
X54377061Y-44649964D01*
X54280160Y-44624000D01*
X54257447Y-44624000D01*
X54928188Y-43953258D01*
X54863411Y-43907901D01*
X54863405Y-43907898D01*
X54663284Y-43814580D01*
X54663270Y-43814575D01*
X54449986Y-43757426D01*
X54449976Y-43757424D01*
X54230001Y-43738179D01*
X54229999Y-43738179D01*
X54010023Y-43757424D01*
X54010013Y-43757426D01*
X53796729Y-43814575D01*
X53796720Y-43814579D01*
X53596590Y-43907901D01*
X53531811Y-43953258D01*
X54202554Y-44624000D01*
X54179840Y-44624000D01*
X54082939Y-44649964D01*
X53996060Y-44700124D01*
X53925124Y-44771060D01*
X53874964Y-44857939D01*
X53849000Y-44954840D01*
X53849000Y-44977553D01*
X53178258Y-44306811D01*
X53132901Y-44371590D01*
X53039579Y-44571720D01*
X53039575Y-44571729D01*
X52982426Y-44785013D01*
X52982424Y-44785023D01*
X52963179Y-45004999D01*
X50416138Y-45004999D01*
X50303330Y-44962924D01*
X50039170Y-44905460D01*
X50039163Y-44905459D01*
X49769501Y-44886172D01*
X49769499Y-44886172D01*
X49499836Y-44905459D01*
X49499829Y-44905460D01*
X49235669Y-44962924D01*
X48982358Y-45057404D01*
X48982354Y-45057406D01*
X48745084Y-45186965D01*
X48745076Y-45186970D01*
X48621518Y-45279464D01*
X48621517Y-45279465D01*
X49339785Y-45997732D01*
X49202158Y-46089692D01*
X49078192Y-46213658D01*
X48986232Y-46351285D01*
X48267965Y-45633017D01*
X48267964Y-45633018D01*
X48175475Y-45756570D01*
X48173812Y-45759158D01*
X48173032Y-45759833D01*
X48172815Y-45760124D01*
X48172751Y-45760076D01*
X48121005Y-45804909D01*
X48051846Y-45814849D01*
X47988292Y-45785820D01*
X47965188Y-45759158D01*
X47963529Y-45756577D01*
X47871033Y-45633017D01*
X47152766Y-46351284D01*
X47060808Y-46213658D01*
X46936842Y-46089692D01*
X46799213Y-45997732D01*
X47517481Y-45279465D01*
X47517480Y-45279464D01*
X47393923Y-45186970D01*
X47393915Y-45186965D01*
X47156645Y-45057406D01*
X47156641Y-45057404D01*
X46903330Y-44962924D01*
X46639170Y-44905460D01*
X46639163Y-44905459D01*
X46369501Y-44886172D01*
X46369499Y-44886172D01*
X46099836Y-44905459D01*
X46099829Y-44905460D01*
X45835669Y-44962924D01*
X45582358Y-45057404D01*
X45582354Y-45057406D01*
X45345084Y-45186965D01*
X45345076Y-45186970D01*
X45221518Y-45279464D01*
X45221517Y-45279465D01*
X45939785Y-45997732D01*
X45802158Y-46089692D01*
X45678192Y-46213658D01*
X45586232Y-46351285D01*
X44867965Y-45633017D01*
X44867964Y-45633018D01*
X44775470Y-45756576D01*
X44775465Y-45756584D01*
X44645906Y-45993854D01*
X44645904Y-45993858D01*
X44551424Y-46247169D01*
X44493960Y-46511329D01*
X44493959Y-46511336D01*
X44474672Y-46780998D01*
X44474672Y-46781001D01*
X44493959Y-47050663D01*
X44493960Y-47050670D01*
X44551424Y-47314830D01*
X44645904Y-47568141D01*
X44645906Y-47568145D01*
X44775465Y-47805415D01*
X44775470Y-47805423D01*
X44867964Y-47928980D01*
X44867965Y-47928981D01*
X45586232Y-47210713D01*
X45678192Y-47348342D01*
X45802158Y-47472308D01*
X45939785Y-47564266D01*
X45221517Y-48282533D01*
X45345083Y-48375033D01*
X45345089Y-48375037D01*
X45454656Y-48434865D01*
X45504062Y-48484270D01*
X45518914Y-48552543D01*
X45494497Y-48618007D01*
X45454657Y-48652529D01*
X45245084Y-48766965D01*
X45245076Y-48766970D01*
X45121518Y-48859464D01*
X45121517Y-48859465D01*
X45839785Y-49577732D01*
X45702158Y-49669692D01*
X45578192Y-49793658D01*
X45486232Y-49931285D01*
X44767965Y-49213017D01*
X44767964Y-49213018D01*
X44675470Y-49336576D01*
X44675465Y-49336584D01*
X44545906Y-49573854D01*
X44545904Y-49573858D01*
X44451424Y-49827169D01*
X44393960Y-50091329D01*
X44393959Y-50091336D01*
X44374672Y-50360998D01*
X44374672Y-50361001D01*
X44393959Y-50630663D01*
X44393960Y-50630670D01*
X44451424Y-50894830D01*
X44545904Y-51148141D01*
X44545906Y-51148145D01*
X44675465Y-51385415D01*
X44675470Y-51385423D01*
X44767964Y-51508980D01*
X44767965Y-51508981D01*
X45486232Y-50790713D01*
X45578192Y-50928342D01*
X45702158Y-51052308D01*
X45839785Y-51144266D01*
X45121517Y-51862533D01*
X45122160Y-51871511D01*
X45107308Y-51939784D01*
X45057903Y-51989189D01*
X44997935Y-52004356D01*
X44231052Y-52001008D01*
X44227804Y-52000994D01*
X44227803Y-52000994D01*
X44052692Y-57662950D01*
X44030944Y-57729349D01*
X43976751Y-57773450D01*
X43967203Y-57777005D01*
X31250000Y-61924999D01*
X30824607Y-71229226D01*
X30801881Y-71295297D01*
X30747042Y-71338592D01*
X30720397Y-71345994D01*
X27543538Y-71856147D01*
X27474225Y-71847341D01*
X27420677Y-71802460D01*
X27399894Y-71735753D01*
X27399944Y-71729641D01*
X27428318Y-70866743D01*
X27450194Y-70800392D01*
X27504473Y-70756397D01*
X27563059Y-70747295D01*
X27573259Y-70748187D01*
X28244000Y-70077446D01*
X28244000Y-70100160D01*
X28269964Y-70197061D01*
X28320124Y-70283940D01*
X28391060Y-70354876D01*
X28477939Y-70405036D01*
X28574840Y-70431000D01*
X28597553Y-70431000D01*
X27926810Y-71101740D01*
X27991590Y-71147099D01*
X27991592Y-71147100D01*
X28191715Y-71240419D01*
X28191729Y-71240424D01*
X28405013Y-71297573D01*
X28405023Y-71297575D01*
X28624999Y-71316821D01*
X28625001Y-71316821D01*
X28844976Y-71297575D01*
X28844986Y-71297573D01*
X29058270Y-71240424D01*
X29058284Y-71240419D01*
X29258407Y-71147100D01*
X29258417Y-71147094D01*
X29323188Y-71101741D01*
X28652448Y-70431000D01*
X28675160Y-70431000D01*
X28772061Y-70405036D01*
X28858940Y-70354876D01*
X28929876Y-70283940D01*
X28980036Y-70197061D01*
X29006000Y-70100160D01*
X29006000Y-70077447D01*
X29676741Y-70748188D01*
X29722094Y-70683417D01*
X29722100Y-70683407D01*
X29815419Y-70483284D01*
X29815424Y-70483270D01*
X29872573Y-70269986D01*
X29872575Y-70269976D01*
X29891821Y-70050000D01*
X29891821Y-70049999D01*
X29872575Y-69830023D01*
X29872573Y-69830013D01*
X29815424Y-69616729D01*
X29815420Y-69616720D01*
X29722096Y-69416586D01*
X29676741Y-69351811D01*
X29676740Y-69351810D01*
X29006000Y-70022551D01*
X29006000Y-69999840D01*
X28980036Y-69902939D01*
X28929876Y-69816060D01*
X28858940Y-69745124D01*
X28772061Y-69694964D01*
X28675160Y-69669000D01*
X28652447Y-69669000D01*
X29323188Y-68998258D01*
X29258411Y-68952901D01*
X29258405Y-68952898D01*
X29058284Y-68859580D01*
X29058270Y-68859575D01*
X28844986Y-68802426D01*
X28844976Y-68802424D01*
X28625001Y-68783179D01*
X28624999Y-68783179D01*
X28405023Y-68802424D01*
X28405013Y-68802426D01*
X28191729Y-68859575D01*
X28191720Y-68859579D01*
X27991590Y-68952901D01*
X27926811Y-68998258D01*
X28597554Y-69669000D01*
X28574840Y-69669000D01*
X28477939Y-69694964D01*
X28391060Y-69745124D01*
X28320124Y-69816060D01*
X28269964Y-69902939D01*
X28244000Y-69999840D01*
X28244000Y-70022553D01*
X27557392Y-69335945D01*
X27548692Y-69334197D01*
X27498510Y-69285581D01*
X27482455Y-69220366D01*
X27738544Y-61432421D01*
X27760421Y-61366067D01*
X27814700Y-61322073D01*
X27862472Y-61312499D01*
X29434872Y-61312499D01*
X29494483Y-61306091D01*
X29629331Y-61255796D01*
X29744546Y-61169546D01*
X29830796Y-61054331D01*
X29881091Y-60919483D01*
X29887500Y-60859873D01*
X29887499Y-59240128D01*
X29881091Y-59180517D01*
X29877647Y-59171284D01*
X29830797Y-59045671D01*
X29830793Y-59045664D01*
X29744547Y-58930455D01*
X29744544Y-58930452D01*
X29629335Y-58844206D01*
X29629328Y-58844202D01*
X29494482Y-58793908D01*
X29494483Y-58793908D01*
X29434883Y-58787501D01*
X29434881Y-58787500D01*
X29434873Y-58787500D01*
X29434865Y-58787500D01*
X27953661Y-58787500D01*
X27886622Y-58767815D01*
X27840867Y-58715011D01*
X27829728Y-58659425D01*
X27841303Y-58307406D01*
X27863180Y-58241053D01*
X27917459Y-58197058D01*
X27957230Y-58187742D01*
X35500000Y-57700000D01*
X42623626Y-48187801D01*
X42679567Y-48145943D01*
X42716183Y-48138314D01*
X44000000Y-48068918D01*
X44000000Y-43124000D01*
X44019685Y-43056961D01*
X44072489Y-43011206D01*
X44124000Y-43000000D01*
X55875522Y-43000000D01*
X55942561Y-43019685D01*
X55988316Y-43072489D01*
X55999521Y-43124477D01*
X55980000Y-48200000D01*
X55979999Y-48200000D01*
X55987045Y-48200036D01*
X57475033Y-48207824D01*
X57541965Y-48227858D01*
X57562062Y-48244140D01*
X57647738Y-48329816D01*
X57800478Y-48425789D01*
X57892269Y-48457908D01*
X57970745Y-48485368D01*
X57970750Y-48485369D01*
X58149996Y-48505565D01*
X58150000Y-48505565D01*
X58150004Y-48505565D01*
X58329249Y-48485369D01*
X58329252Y-48485368D01*
X58329255Y-48485368D01*
X58499522Y-48425789D01*
X58652262Y-48329816D01*
X58730905Y-48251172D01*
X58792224Y-48217690D01*
X58819224Y-48214858D01*
X78436222Y-48317522D01*
X78503155Y-48337557D01*
X78540562Y-48375545D01*
X78620184Y-48502262D01*
X78747738Y-48629816D01*
X78815973Y-48672691D01*
X78889243Y-48718730D01*
X78900478Y-48725789D01*
X79070745Y-48785368D01*
X79070750Y-48785369D01*
X79249996Y-48805565D01*
X79250000Y-48805565D01*
X79250004Y-48805565D01*
X79429249Y-48785369D01*
X79429252Y-48785368D01*
X79429255Y-48785368D01*
X79599522Y-48725789D01*
X79610757Y-48718730D01*
X79684027Y-48672691D01*
X79751264Y-48653690D01*
X79815973Y-48672691D01*
X79900475Y-48725788D01*
X80070745Y-48785368D01*
X80070750Y-48785369D01*
X80249996Y-48805565D01*
X80250000Y-48805565D01*
X80250004Y-48805565D01*
X80429249Y-48785369D01*
X80429252Y-48785368D01*
X80429255Y-48785368D01*
X80599522Y-48725789D01*
X80752262Y-48629816D01*
X80879816Y-48502262D01*
X80950820Y-48389258D01*
X81003152Y-48342969D01*
X81056454Y-48331235D01*
X83963659Y-48346449D01*
X84030591Y-48366484D01*
X84042057Y-48375773D01*
X84042295Y-48375475D01*
X84047737Y-48379815D01*
X84047738Y-48379816D01*
X84062770Y-48389261D01*
X84172020Y-48457908D01*
X84200478Y-48475789D01*
X84285573Y-48505565D01*
X84370745Y-48535368D01*
X84370750Y-48535369D01*
X84549996Y-48555565D01*
X84550000Y-48555565D01*
X84550004Y-48555565D01*
X84729249Y-48535369D01*
X84729252Y-48535368D01*
X84729255Y-48535368D01*
X84899522Y-48475789D01*
X85052262Y-48379816D01*
X85052264Y-48379813D01*
X85052509Y-48379619D01*
X85052700Y-48379540D01*
X85058159Y-48376111D01*
X85058759Y-48377066D01*
X85117191Y-48353200D01*
X85130476Y-48352556D01*
X101432925Y-48437873D01*
X101499858Y-48457908D01*
X101519955Y-48474190D01*
X102213058Y-49167293D01*
X102246543Y-49228616D01*
X102245152Y-49287067D01*
X102219366Y-49383302D01*
X102219364Y-49383313D01*
X102199532Y-49609998D01*
X102199532Y-49610001D01*
X102219364Y-49836686D01*
X102219366Y-49836697D01*
X102278258Y-50056488D01*
X102278261Y-50056497D01*
X102374431Y-50262732D01*
X102374432Y-50262734D01*
X102504954Y-50449141D01*
X102665858Y-50610045D01*
X102665861Y-50610047D01*
X102852266Y-50740568D01*
X103058504Y-50836739D01*
X103278308Y-50895635D01*
X103440230Y-50909801D01*
X103504998Y-50915468D01*
X103505000Y-50915468D01*
X103505002Y-50915468D01*
X103561673Y-50910509D01*
X103731692Y-50895635D01*
X103951496Y-50836739D01*
X104157734Y-50740568D01*
X104344139Y-50610047D01*
X104505047Y-50449139D01*
X104635568Y-50262734D01*
X104731739Y-50056496D01*
X104790635Y-49836692D01*
X104810468Y-49610000D01*
X104790635Y-49383308D01*
X104745006Y-49213017D01*
X104731741Y-49163511D01*
X104731738Y-49163502D01*
X104635568Y-48957267D01*
X104635567Y-48957265D01*
X104505045Y-48770858D01*
X104344141Y-48609954D01*
X104157734Y-48479432D01*
X104157732Y-48479431D01*
X103951499Y-48383262D01*
X103951496Y-48383261D01*
X103843565Y-48354341D01*
X103783904Y-48317975D01*
X103753376Y-48255128D01*
X103751664Y-48233629D01*
X103768285Y-46072844D01*
X105010000Y-46072844D01*
X105016401Y-46132372D01*
X105016403Y-46132379D01*
X105066645Y-46267086D01*
X105066649Y-46267093D01*
X105152809Y-46382187D01*
X105152812Y-46382190D01*
X105267906Y-46468350D01*
X105267913Y-46468354D01*
X105402620Y-46518596D01*
X105402627Y-46518598D01*
X105462155Y-46524999D01*
X105462172Y-46525000D01*
X106240000Y-46525000D01*
X106740000Y-46525000D01*
X107517828Y-46525000D01*
X107517844Y-46524999D01*
X107577372Y-46518598D01*
X107577379Y-46518596D01*
X107712086Y-46468354D01*
X107712093Y-46468350D01*
X107827187Y-46382190D01*
X107827190Y-46382187D01*
X107913350Y-46267093D01*
X107913354Y-46267086D01*
X107963596Y-46132379D01*
X107963598Y-46132372D01*
X107969999Y-46072844D01*
X107970000Y-46072827D01*
X107970000Y-44700000D01*
X106740000Y-44700000D01*
X106740000Y-46525000D01*
X106240000Y-46525000D01*
X106240000Y-44700000D01*
X105010000Y-44700000D01*
X105010000Y-46072844D01*
X103768285Y-46072844D01*
X103799043Y-42074336D01*
X103819242Y-42007452D01*
X103872397Y-41962105D01*
X103924333Y-41951299D01*
X104329330Y-41955531D01*
G37*
%TD.AperFunction*%
%TA.AperFunction,Conductor*%
G36*
X48978192Y-50928342D02*
G01*
X49102158Y-51052308D01*
X49239785Y-51144266D01*
X48521517Y-51862533D01*
X48523222Y-51886363D01*
X48508370Y-51954636D01*
X48458965Y-52004041D01*
X48398996Y-52019208D01*
X47539187Y-52015453D01*
X47472235Y-51995476D01*
X47426711Y-51942472D01*
X47416045Y-51882607D01*
X47417480Y-51862532D01*
X46699214Y-51144267D01*
X46836842Y-51052308D01*
X46960808Y-50928342D01*
X47052767Y-50790714D01*
X47771033Y-51508981D01*
X47863535Y-51385414D01*
X47865184Y-51382849D01*
X47865957Y-51382178D01*
X47866185Y-51381875D01*
X47866250Y-51381924D01*
X47917987Y-51337093D01*
X47987145Y-51327149D01*
X48050701Y-51356173D01*
X48073816Y-51382849D01*
X48075469Y-51385422D01*
X48167964Y-51508980D01*
X48167965Y-51508981D01*
X48886232Y-50790713D01*
X48978192Y-50928342D01*
G37*
%TD.AperFunction*%
%TA.AperFunction,Conductor*%
G36*
X49078192Y-47348342D02*
G01*
X49202158Y-47472308D01*
X49339785Y-47564266D01*
X48621517Y-48282533D01*
X48745083Y-48375033D01*
X48745089Y-48375037D01*
X48854656Y-48434865D01*
X48904062Y-48484270D01*
X48918914Y-48552543D01*
X48894497Y-48618007D01*
X48854657Y-48652529D01*
X48645084Y-48766965D01*
X48645076Y-48766970D01*
X48521518Y-48859464D01*
X48521517Y-48859465D01*
X49239785Y-49577732D01*
X49102158Y-49669692D01*
X48978192Y-49793658D01*
X48886232Y-49931285D01*
X48167965Y-49213017D01*
X48167964Y-49213018D01*
X48075475Y-49336570D01*
X48073812Y-49339158D01*
X48073032Y-49339833D01*
X48072815Y-49340124D01*
X48072751Y-49340076D01*
X48021005Y-49384909D01*
X47951846Y-49394849D01*
X47888292Y-49365820D01*
X47865188Y-49339158D01*
X47863529Y-49336577D01*
X47771033Y-49213017D01*
X47052766Y-49931284D01*
X46960808Y-49793658D01*
X46836842Y-49669692D01*
X46699213Y-49577732D01*
X47417481Y-48859465D01*
X47417480Y-48859464D01*
X47293923Y-48766970D01*
X47293915Y-48766965D01*
X47184342Y-48707134D01*
X47134937Y-48657729D01*
X47120085Y-48589456D01*
X47144502Y-48523992D01*
X47184342Y-48489470D01*
X47393924Y-48375029D01*
X47517480Y-48282534D01*
X47517481Y-48282533D01*
X46799214Y-47564267D01*
X46936842Y-47472308D01*
X47060808Y-47348342D01*
X47152767Y-47210714D01*
X47871033Y-47928981D01*
X47963535Y-47805414D01*
X47965184Y-47802849D01*
X47965957Y-47802178D01*
X47966185Y-47801875D01*
X47966250Y-47801924D01*
X48017987Y-47757093D01*
X48087145Y-47747149D01*
X48150701Y-47776173D01*
X48173816Y-47802849D01*
X48175469Y-47805422D01*
X48267964Y-47928980D01*
X48267965Y-47928981D01*
X48986232Y-47210713D01*
X49078192Y-47348342D01*
G37*
%TD.AperFunction*%
%TD*%
%TA.AperFunction,Conductor*%
%TO.N,+VCC*%
G36*
X51957290Y-34919311D02*
G01*
X51993719Y-34968469D01*
X51998851Y-35001074D01*
X51951104Y-39202837D01*
X51931536Y-39260809D01*
X51881631Y-39296208D01*
X51852833Y-39300709D01*
X45100000Y-39349999D01*
X43606264Y-41739976D01*
X43591551Y-41758266D01*
X38950000Y-46299999D01*
X38949999Y-46300001D01*
X38897913Y-48539707D01*
X38877658Y-48597442D01*
X38827335Y-48632245D01*
X38766167Y-48630823D01*
X38717516Y-48593718D01*
X38706182Y-48572001D01*
X38673797Y-48485170D01*
X38587549Y-48369958D01*
X38587548Y-48369957D01*
X38587546Y-48369954D01*
X38587541Y-48369950D01*
X38472329Y-48283702D01*
X38337488Y-48233410D01*
X38337483Y-48233409D01*
X38337481Y-48233408D01*
X38337477Y-48233408D01*
X38306249Y-48230050D01*
X38277873Y-48227000D01*
X38277870Y-48227000D01*
X34682133Y-48227000D01*
X34682129Y-48227000D01*
X34682128Y-48227001D01*
X34677486Y-48227500D01*
X34622519Y-48233408D01*
X34622514Y-48233409D01*
X34487670Y-48283702D01*
X34372458Y-48369950D01*
X34372450Y-48369958D01*
X34286202Y-48485170D01*
X34235910Y-48620011D01*
X34235908Y-48620022D01*
X34233151Y-48645672D01*
X34230457Y-48670731D01*
X34229500Y-48679629D01*
X34229500Y-52275366D01*
X34229501Y-52275370D01*
X34235908Y-52334980D01*
X34235909Y-52334985D01*
X34286202Y-52469829D01*
X34376697Y-52590714D01*
X34374278Y-52592524D01*
X34396182Y-52635513D01*
X34386611Y-52695945D01*
X34343346Y-52739210D01*
X34298401Y-52750000D01*
X31904960Y-52750000D01*
X31846769Y-52731093D01*
X31810805Y-52681593D01*
X31810805Y-52620407D01*
X31846769Y-52570907D01*
X31848581Y-52569622D01*
X32034328Y-52440936D01*
X32193436Y-52281828D01*
X32321566Y-52096883D01*
X32321571Y-52096873D01*
X32414623Y-51892015D01*
X32414624Y-51892013D01*
X32469599Y-51673837D01*
X32469600Y-51673833D01*
X32480000Y-51541684D01*
X32480000Y-50727501D01*
X32479999Y-50727500D01*
X30980000Y-50727500D01*
X30980000Y-50227500D01*
X32479998Y-50227500D01*
X32479999Y-50227499D01*
X32479999Y-49413315D01*
X32469599Y-49281164D01*
X32414624Y-49062986D01*
X32414623Y-49062984D01*
X32321571Y-48858126D01*
X32321566Y-48858116D01*
X32193436Y-48673171D01*
X32034328Y-48514063D01*
X31849383Y-48385933D01*
X31849373Y-48385928D01*
X31644515Y-48292876D01*
X31644513Y-48292875D01*
X31426337Y-48237900D01*
X31426333Y-48237899D01*
X31294184Y-48227500D01*
X30730001Y-48227500D01*
X30730000Y-48227501D01*
X30730000Y-49044488D01*
X30672993Y-49011575D01*
X30545826Y-48977500D01*
X30414174Y-48977500D01*
X30287007Y-49011575D01*
X30230000Y-49044488D01*
X30230000Y-48227501D01*
X30229999Y-48227500D01*
X29665815Y-48227500D01*
X29533664Y-48237900D01*
X29315486Y-48292875D01*
X29315484Y-48292876D01*
X29110626Y-48385928D01*
X29110616Y-48385933D01*
X28925671Y-48514063D01*
X28769004Y-48670731D01*
X28714487Y-48698508D01*
X28654055Y-48688937D01*
X28610790Y-48645672D01*
X28600000Y-48600727D01*
X28600000Y-44979924D01*
X28618907Y-44921733D01*
X28668407Y-44885769D01*
X28678127Y-44883149D01*
X33700000Y-43800000D01*
X34135429Y-42212500D01*
X36999443Y-42212500D01*
X37019635Y-42456190D01*
X37019636Y-42456192D01*
X37079664Y-42693236D01*
X37177889Y-42917167D01*
X37311632Y-43121877D01*
X37477246Y-43301781D01*
X37670212Y-43451973D01*
X37885267Y-43568355D01*
X38116545Y-43647752D01*
X38357737Y-43688000D01*
X38602263Y-43688000D01*
X38843455Y-43647752D01*
X39074733Y-43568355D01*
X39289788Y-43451973D01*
X39482754Y-43301781D01*
X39648368Y-43121877D01*
X39782111Y-42917167D01*
X39880336Y-42693236D01*
X39940364Y-42456192D01*
X39960557Y-42212500D01*
X39940364Y-41968808D01*
X39880336Y-41731764D01*
X39782111Y-41507833D01*
X39648368Y-41303123D01*
X39482754Y-41123219D01*
X39289788Y-40973027D01*
X39074736Y-40856646D01*
X38843457Y-40777248D01*
X38602263Y-40737000D01*
X38357737Y-40737000D01*
X38116542Y-40777248D01*
X37885263Y-40856646D01*
X37670211Y-40973027D01*
X37670208Y-40973029D01*
X37477246Y-41123218D01*
X37311632Y-41303123D01*
X37177889Y-41507833D01*
X37079664Y-41731764D01*
X37072953Y-41758266D01*
X37019635Y-41968809D01*
X36999443Y-42212500D01*
X34135429Y-42212500D01*
X35226311Y-38235324D01*
X37004999Y-38235324D01*
X37011401Y-38294870D01*
X37011403Y-38294881D01*
X37061646Y-38429588D01*
X37061647Y-38429590D01*
X37147807Y-38544684D01*
X37147815Y-38544692D01*
X37262909Y-38630852D01*
X37262911Y-38630853D01*
X37397618Y-38681096D01*
X37397629Y-38681098D01*
X37457176Y-38687500D01*
X38229999Y-38687500D01*
X38230000Y-38687499D01*
X38230000Y-37812501D01*
X38290402Y-37837521D01*
X38415981Y-37862500D01*
X38544019Y-37862500D01*
X38669598Y-37837521D01*
X38730000Y-37812501D01*
X38730000Y-38687499D01*
X38730001Y-38687500D01*
X39502824Y-38687500D01*
X39562370Y-38681098D01*
X39562381Y-38681096D01*
X39697088Y-38630853D01*
X39697090Y-38630852D01*
X39812184Y-38544692D01*
X39812192Y-38544684D01*
X39898352Y-38429590D01*
X39898353Y-38429588D01*
X39948596Y-38294881D01*
X39948598Y-38294870D01*
X39955000Y-38235324D01*
X39955000Y-37462501D01*
X39954999Y-37462500D01*
X39080001Y-37462500D01*
X39105021Y-37402098D01*
X39130000Y-37276519D01*
X39130000Y-37148481D01*
X39105021Y-37022902D01*
X39080001Y-36962500D01*
X39954999Y-36962500D01*
X39955000Y-36962499D01*
X39955000Y-36189675D01*
X39948598Y-36130129D01*
X39948596Y-36130118D01*
X39898353Y-35995411D01*
X39898352Y-35995409D01*
X39812192Y-35880315D01*
X39812184Y-35880307D01*
X39697090Y-35794147D01*
X39697088Y-35794146D01*
X39562381Y-35743903D01*
X39562370Y-35743901D01*
X39502824Y-35737500D01*
X38730001Y-35737500D01*
X38730000Y-35737501D01*
X38730000Y-36612498D01*
X38669598Y-36587479D01*
X38544019Y-36562500D01*
X38415981Y-36562500D01*
X38290402Y-36587479D01*
X38230000Y-36612498D01*
X38230000Y-35737501D01*
X38229999Y-35737500D01*
X37457176Y-35737500D01*
X37397629Y-35743901D01*
X37397618Y-35743903D01*
X37262911Y-35794146D01*
X37262909Y-35794147D01*
X37147815Y-35880307D01*
X37147807Y-35880315D01*
X37061647Y-35995409D01*
X37061646Y-35995411D01*
X37011403Y-36130118D01*
X37011401Y-36130129D01*
X37005000Y-36189675D01*
X37005000Y-36962499D01*
X37005001Y-36962500D01*
X37879999Y-36962500D01*
X37854979Y-37022902D01*
X37830000Y-37148481D01*
X37830000Y-37276519D01*
X37854979Y-37402098D01*
X37879999Y-37462500D01*
X37005001Y-37462500D01*
X37005000Y-37462501D01*
X37005000Y-38235324D01*
X37004999Y-38235324D01*
X35226311Y-38235324D01*
X36080224Y-35122099D01*
X36113848Y-35070986D01*
X36171098Y-35049397D01*
X36174724Y-35049295D01*
X45516311Y-34961166D01*
X45574676Y-34979524D01*
X45611105Y-35028682D01*
X45611682Y-35089865D01*
X45576187Y-35139702D01*
X45564689Y-35147052D01*
X45345087Y-35266964D01*
X45221520Y-35359465D01*
X45939786Y-36077731D01*
X45802158Y-36169692D01*
X45678192Y-36293658D01*
X45586231Y-36431286D01*
X44867965Y-35713020D01*
X44775464Y-35836587D01*
X44645905Y-36073856D01*
X44645904Y-36073858D01*
X44551427Y-36327160D01*
X44493958Y-36591343D01*
X44474672Y-36861000D01*
X44493958Y-37130656D01*
X44551427Y-37394839D01*
X44645904Y-37648141D01*
X44645905Y-37648143D01*
X44775464Y-37885412D01*
X44867964Y-38008979D01*
X45586231Y-37290711D01*
X45678192Y-37428342D01*
X45802158Y-37552308D01*
X45939785Y-37644267D01*
X45221519Y-38362534D01*
X45345082Y-38455033D01*
X45582356Y-38584594D01*
X45582358Y-38584595D01*
X45835660Y-38679072D01*
X46099843Y-38736541D01*
X46369500Y-38755827D01*
X46639156Y-38736541D01*
X46903339Y-38679072D01*
X47156641Y-38584595D01*
X47156643Y-38584594D01*
X47393920Y-38455031D01*
X47393921Y-38455030D01*
X47517479Y-38362534D01*
X46799213Y-37644268D01*
X46936842Y-37552308D01*
X47060808Y-37428342D01*
X47152768Y-37290713D01*
X47871034Y-38008979D01*
X47963531Y-37885420D01*
X47982609Y-37850481D01*
X48027091Y-37808469D01*
X48087772Y-37800627D01*
X48141473Y-37829949D01*
X48156391Y-37850481D01*
X48175466Y-37885415D01*
X48267964Y-38008979D01*
X48986231Y-37290711D01*
X49078192Y-37428342D01*
X49202158Y-37552308D01*
X49339785Y-37644267D01*
X48621519Y-38362534D01*
X48745082Y-38455033D01*
X48982356Y-38584594D01*
X48982358Y-38584595D01*
X49235660Y-38679072D01*
X49499843Y-38736541D01*
X49769500Y-38755827D01*
X50039156Y-38736541D01*
X50303339Y-38679072D01*
X50556641Y-38584595D01*
X50556643Y-38584594D01*
X50793920Y-38455031D01*
X50793921Y-38455030D01*
X50917479Y-38362534D01*
X50199213Y-37644268D01*
X50336842Y-37552308D01*
X50460808Y-37428342D01*
X50552768Y-37290713D01*
X51271034Y-38008979D01*
X51363530Y-37885421D01*
X51363531Y-37885420D01*
X51493094Y-37648143D01*
X51493095Y-37648141D01*
X51587572Y-37394839D01*
X51645041Y-37130656D01*
X51664327Y-36861000D01*
X51645041Y-36591343D01*
X51587572Y-36327160D01*
X51493095Y-36073858D01*
X51493094Y-36073856D01*
X51363533Y-35836582D01*
X51271034Y-35713019D01*
X50552767Y-36431285D01*
X50460808Y-36293658D01*
X50336842Y-36169692D01*
X50199211Y-36077731D01*
X50917479Y-35359464D01*
X50793912Y-35266964D01*
X50556643Y-35137405D01*
X50556641Y-35137404D01*
X50472043Y-35105851D01*
X50424129Y-35067800D01*
X50407731Y-35008853D01*
X50429113Y-34951525D01*
X50480108Y-34917715D01*
X50505705Y-34914097D01*
X51898924Y-34900953D01*
X51957290Y-34919311D01*
G37*
%TD.AperFunction*%
%TA.AperFunction,Conductor*%
G36*
X49051535Y-34946724D02*
G01*
X49087964Y-34995882D01*
X49088541Y-35057065D01*
X49053046Y-35106902D01*
X49028700Y-35120120D01*
X48982355Y-35137406D01*
X48745087Y-35266964D01*
X48621520Y-35359465D01*
X49339786Y-36077731D01*
X49202158Y-36169692D01*
X49078192Y-36293658D01*
X48986231Y-36431286D01*
X48267965Y-35713020D01*
X48175464Y-35836587D01*
X48156390Y-35871519D01*
X48111908Y-35913530D01*
X48051227Y-35921372D01*
X47997526Y-35892049D01*
X47982610Y-35871519D01*
X47963533Y-35836582D01*
X47871034Y-35713019D01*
X47152767Y-36431285D01*
X47060808Y-36293658D01*
X46936842Y-36169692D01*
X46799211Y-36077731D01*
X47517479Y-35359464D01*
X47393912Y-35266964D01*
X47156643Y-35137405D01*
X47156640Y-35137404D01*
X47155918Y-35137135D01*
X47155738Y-35136992D01*
X47153429Y-35135938D01*
X47153690Y-35135365D01*
X47108003Y-35099084D01*
X47091606Y-35040137D01*
X47112988Y-34982809D01*
X47163983Y-34948998D01*
X47189578Y-34945381D01*
X48993169Y-34928366D01*
X49051535Y-34946724D01*
G37*
%TD.AperFunction*%
%TD*%
M02*
