M48
; DRILL file {KiCad 8.0.8} date 2025-02-20T16:07:02-0500
; FORMAT={-:-/ absolute / inch / decimal}
; #@! TF.CreationDate,2025-02-20T16:07:02-05:00
; #@! TF.GenerationSoftware,Kicad,Pcbnew,8.0.8
; #@! TF.FileFunction,Plated,1,2,PTH
FMAT,2
INCH
; #@! TA.AperFunction,Plated,PTH,ViaDrill
T1C0.0118
; #@! TA.AperFunction,Plated,PTH,ComponentDrill
T2C0.0291
; #@! TA.AperFunction,Plated,PTH,ComponentDrill
T3C0.0295
; #@! TA.AperFunction,Plated,PTH,ComponentDrill
T4C0.0300
; #@! TA.AperFunction,Plated,PTH,ComponentDrill
T5C0.0315
; #@! TA.AperFunction,Plated,PTH,ComponentDrill
T6C0.0374
; #@! TA.AperFunction,Plated,PTH,ComponentDrill
T7C0.0394
; #@! TA.AperFunction,Plated,PTH,ComponentDrill
T8C0.0512
; #@! TA.AperFunction,Plated,PTH,ComponentDrill
T9C0.0701
; #@! TA.AperFunction,Plated,PTH,ComponentDrill
T10C0.0866
%
G90
G05
T1
X2.1043Y-2.061
X2.1159Y-2.2012
X2.1159Y-2.89
X2.2064Y-2.9334
X2.2388Y-2.899
X2.24Y-3.3075
X2.2894Y-1.878
X2.2916Y-2.2182
X2.3091Y-2.0807
X2.5127Y-2.5633
X2.5144Y-2.5053
X2.5177Y-2.6102
X2.6988Y-2.9094
X2.75Y-2.7449
X2.811Y-2.1693
X2.8238Y-2.7972
X2.8758Y-2.7685
X2.9587Y-2.8287
X3.0952Y-2.1157
X3.1201Y-1.8898
X3.1201Y-2.0689
X3.1398Y-1.7482
X3.1398Y-1.7992
X3.1594Y-1.8898
X3.1594Y-2.0689
X3.1713Y-1.7992
X3.2608Y-1.7786
X3.2717Y-2.5638
X3.3287Y-1.8799
X3.4705Y-2.6988
X3.4908Y-2.7526
X3.5197Y-2.4587
X3.689Y-2.3504
X3.9764Y-2.4291
X4.0Y-1.5514
X4.0Y-1.5986
X4.0Y-2.3736
X4.0009Y-1.8456
X4.002Y-2.3264
X4.0039Y-2.063
X4.0236Y-2.4272
X4.1161Y-2.4252
X4.1398Y-1.6398
X4.1398Y-2.2677
X4.1634Y-2.4272
T2
X3.0187Y-2.15
X3.0187Y-2.25
X3.0187Y-2.35
X3.0187Y-2.45
X3.0187Y-2.55
X3.0187Y-2.65
X3.0187Y-2.75
X3.3313Y-2.15
X3.3313Y-2.25
X3.3313Y-2.35
X3.3313Y-2.45
X3.3313Y-2.55
X3.3313Y-2.65
X3.3313Y-2.75
T3
X4.7067Y-1.6253
X4.7067Y-1.7041
X4.7067Y-1.7828
X4.7067Y-2.0322
X4.7067Y-2.1109
X4.7067Y-2.1896
X4.7067Y-2.4409
X4.7067Y-2.5197
X4.7067Y-2.5984
X4.7067Y-2.8458
X4.7067Y-2.9245
X4.7067Y-3.0033
T4
X1.127Y-2.3642
X1.127Y-2.7579
X1.7569Y-2.3642
X1.7569Y-2.7579
X2.135Y-1.3781
X2.135Y-1.7719
X2.765Y-1.3781
X2.765Y-1.7719
T5
X1.22Y-2.92
X1.22Y-3.0184
X1.85Y-3.025
X2.25Y-3.025
X2.375Y-3.025
X2.775Y-3.025
X3.025Y-1.475
X3.025Y-1.575
X3.025Y-1.675
X3.325Y-1.475
X3.325Y-1.575
X3.325Y-1.675
X4.075Y-1.575
X4.075Y-1.9531
X4.075Y-2.35
X4.075Y-2.9
X4.475Y-1.575
X4.475Y-1.9531
X4.475Y-2.35
X4.475Y-2.9
T6
X3.0024Y-3.1293
X3.1008Y-3.1293
X3.1992Y-3.1293
X3.2976Y-3.1293
T7
X1.4568Y-3.075
X1.6536Y-3.075
X3.8Y-1.425
X3.8Y-2.525
X3.9Y-1.425
X3.9Y-2.525
X4.0Y-1.425
X4.0Y-2.525
X4.1Y-1.425
X4.1Y-2.525
X4.2Y-1.425
X4.2Y-2.525
X4.3Y-1.425
X4.3Y-2.525
T8
X1.515Y-1.4651
X1.515Y-1.6619
T9
X1.8216Y-1.9827
X1.8256Y-1.4512
X1.8256Y-1.8418
X1.9555Y-1.9827
X1.9594Y-1.4512
X1.9594Y-1.8418
T10
X1.15Y-1.3504
X1.15Y-3.275
X4.775Y-1.3504
X4.775Y-3.275
T7
G00X1.2Y-1.9479
M15
G01X1.2Y-2.0267
M16
G05
G00X1.2787Y-2.1723
M15
G01X1.3575Y-2.1723
M16
G05
G00X1.4362Y-1.9479
M15
G01X1.4362Y-2.0267
M16
G05
M30
